<svg width="141" height="124" viewBox="0 0 141 124" fill="none" xmlns="http://www.w3.org/2000/svg">
<path d="M7.90042 115.227L4.36436 122.493C4.26489 122.706 4.12278 122.911 3.93805 123.11C3.51173 123.521 3.00726 123.726 2.42699 123.726C1.84673 123.726 1.32567 123.519 0.913569 123.1C0.501463 122.682 0.29541 122.183 0.29541 121.602C0.29541 121.191 0.401989 120.822 0.615147 120.496L13.246 94.529C13.3454 94.3021 13.4946 94.0894 13.6936 93.8909C14.1057 93.4656 14.6102 93.2529 15.207 93.2529C15.8039 93.2529 16.2941 93.4656 16.7204 93.8909C16.891 94.0611 17.026 94.2454 17.1254 94.4439L29.7562 120.411C29.9978 120.751 30.1186 121.148 30.1186 121.602C30.1186 122.183 29.9102 122.682 29.491 123.1C29.0718 123.519 28.572 123.726 27.9894 123.726C27.4068 123.726 26.8881 123.521 26.476 123.11C26.2912 122.911 26.1491 122.706 26.0497 122.493H26.0283L22.4923 115.227H7.90279H7.90042ZM20.4246 110.976L15.207 100.245L9.96805 110.976H20.427H20.4246Z" fill="#214820"/>
<path d="M39.3577 122.346C39.2582 122.63 39.0948 122.878 38.8674 123.091C38.4553 123.516 37.9508 123.729 37.354 123.729C36.7572 123.729 36.274 123.516 35.8643 123.091C35.6369 122.878 35.4735 122.637 35.374 122.368L27.0893 105.815C26.8335 105.46 26.7056 105.056 26.7056 104.602C26.7056 104.021 26.914 103.522 27.3332 103.104C27.7524 102.686 28.2521 102.478 28.8348 102.478C29.4174 102.478 29.9337 102.684 30.3458 103.095C30.4879 103.237 30.6016 103.385 30.6869 103.541H30.7082L37.354 116.822L43.9998 103.541L44.0211 103.563C44.1206 103.393 44.2414 103.237 44.3835 103.095C44.7956 102.684 45.293 102.478 45.8732 102.478C46.4535 102.478 46.9745 102.686 47.3866 103.104C47.7988 103.522 48.0048 104.021 48.0048 104.602C48.0048 105.07 47.8698 105.481 47.5998 105.836L39.3577 122.346Z" fill="#214820"/>
<path d="M67.8974 105.621C69.9697 107.689 71.0071 110.189 71.0071 113.124C71.0071 116.059 69.9697 118.556 67.8974 120.624C65.825 122.692 63.3192 123.727 60.38 123.727C57.4408 123.727 54.935 122.694 52.8602 120.624C50.7879 118.556 49.7505 116.056 49.7505 113.124C49.7505 110.191 50.7879 107.691 52.8602 105.621C54.9326 103.554 57.4408 102.519 60.38 102.519C63.3192 102.519 65.825 103.554 67.8974 105.621ZM60.38 106.812C58.6344 106.812 57.1423 107.424 55.906 108.651C54.6697 109.877 54.0539 111.359 54.0539 113.103C54.0539 114.846 54.6721 116.333 55.906 117.566C57.14 118.8 58.6321 119.414 60.38 119.414C62.1279 119.414 63.6129 118.797 64.8421 117.566C66.0713 116.333 66.6847 114.846 66.6847 113.103C66.6847 111.359 66.0713 109.877 64.8421 108.651C63.6129 107.424 62.1279 106.812 60.38 106.812Z" fill="#214820"/>
<path d="M85.4475 122.346C85.3481 122.63 85.1846 122.878 84.9573 123.091C84.5452 123.516 84.0407 123.729 83.4439 123.729C82.847 123.729 82.3638 123.516 81.9541 123.091C81.7267 122.878 81.5633 122.637 81.4638 122.368L73.1791 105.815C72.9233 105.46 72.7954 105.056 72.7954 104.602C72.7954 104.021 73.0038 103.522 73.423 103.104C73.8423 102.686 74.342 102.478 74.9246 102.478C75.5073 102.478 76.0236 102.684 76.4357 103.095C76.5778 103.237 76.6915 103.385 76.7767 103.541H76.7981L83.4439 116.822L90.0896 103.541L90.111 103.563C90.2104 103.393 90.3312 103.237 90.4733 103.095C90.8854 102.684 91.3828 102.478 91.9631 102.478C92.5433 102.478 93.0644 102.686 93.4765 103.104C93.8886 103.522 94.0947 104.021 94.0947 104.602C94.0947 105.07 93.9596 105.481 93.6896 105.836L85.4475 122.346Z" fill="#5D9B31"/>
<path d="M100.57 100.394C99.973 100.394 99.4637 100.181 99.0374 99.7558C98.6111 99.3305 98.3979 98.8201 98.3979 98.227C98.3979 97.6338 98.6111 97.1211 99.0374 96.6981C99.4637 96.2727 99.9753 96.0601 100.57 96.0601C101.164 96.0601 101.678 96.2727 102.105 96.6981C102.531 97.1234 102.744 97.6338 102.744 98.227C102.744 98.8201 102.531 99.3328 102.105 99.7558C101.678 100.181 101.167 100.394 100.57 100.394Z" fill="#AB562B"/>
<path d="M100.57 123.726C99.973 123.726 99.4637 123.514 99.0374 123.088C98.6111 122.663 98.3979 122.153 98.3979 121.56V104.56C98.3979 103.964 98.6111 103.454 99.0374 103.031C99.4637 102.606 99.9753 102.393 100.57 102.393C101.164 102.393 101.678 102.606 102.105 103.031C102.531 103.456 102.744 103.967 102.744 104.56V121.56C102.744 122.155 102.531 122.665 102.105 123.088C101.678 123.514 101.167 123.726 100.57 123.726Z" fill="#5D9B31"/>
<path d="M111.988 102.433V98.3949C111.988 97.7994 112.201 97.289 112.627 96.866C113.054 96.4407 113.565 96.228 114.16 96.228C114.754 96.228 115.268 96.4407 115.692 96.866C116.119 97.2914 116.332 97.8018 116.332 98.3949V102.433H118.695C119.292 102.433 119.801 102.646 120.228 103.071C120.654 103.497 120.867 104.007 120.867 104.6C120.867 105.193 120.654 105.706 120.228 106.129C119.801 106.554 119.29 106.767 118.695 106.767H116.332V121.557C116.332 122.153 116.119 122.663 115.692 123.086C115.266 123.511 114.754 123.724 114.16 123.724C113.565 123.724 113.051 123.511 112.627 123.086C112.204 122.661 111.988 122.15 111.988 121.557V106.767H109.539C108.942 106.767 108.431 106.554 108.007 106.129C107.58 105.704 107.367 105.193 107.367 104.6C107.367 104.007 107.58 103.494 108.007 103.071C108.433 102.646 108.945 102.433 109.539 102.433H111.988Z" fill="#5D9B31"/>
<path d="M134.905 107.343C134.123 106.989 133.266 106.812 132.328 106.812C130.582 106.812 129.09 107.424 127.854 108.65C126.618 109.877 126.002 111.358 126.002 113.102C126.002 114.846 126.62 116.332 127.854 117.566C129.09 118.799 130.58 119.414 132.328 119.414C134.076 119.414 135.544 118.804 136.78 117.587C136.795 117.573 136.809 117.559 136.823 117.545C137.235 117.133 137.74 116.928 138.337 116.928C138.933 116.928 139.445 117.136 139.869 117.554C140.295 117.972 140.508 118.478 140.508 119.073C140.508 119.669 140.295 120.179 139.869 120.605C139.855 120.619 139.84 120.633 139.826 120.647C137.766 122.703 135.267 123.729 132.33 123.729C129.393 123.729 126.885 122.696 124.81 120.626C122.738 118.558 121.701 116.058 121.701 113.126C121.701 110.193 122.738 107.693 124.81 105.623C126.883 103.556 129.391 102.521 132.33 102.521C135.269 102.521 137.768 103.548 139.826 105.602L139.805 105.623C139.805 105.637 139.812 105.644 139.826 105.644C140.238 106.056 140.444 106.559 140.444 107.154C140.444 107.75 140.238 108.232 139.826 108.641L133.735 114.676C133.308 115.087 132.797 115.293 132.202 115.293C131.608 115.293 131.073 115.087 130.646 114.676C130.234 114.251 130.028 113.733 130.028 113.126C130.028 112.518 130.234 112.02 130.646 111.595L134.907 107.346L134.905 107.343Z" fill="#5D9B31"/>
<path d="M26.8668 43.7644C27.2932 43.7927 27.7195 43.8235 28.1434 43.8613C28.5271 43.8967 28.9061 43.9393 29.2874 43.9841C29.7066 44.0338 30.1234 44.0834 30.5379 44.1425C30.9169 44.1968 31.2958 44.2559 31.6724 44.3197C32.0821 44.3882 32.4919 44.4615 32.8992 44.5395C33.2734 44.6127 33.6453 44.6883 34.0148 44.7687C34.4174 44.8561 34.82 44.9483 35.2179 45.0475C35.5874 45.1373 35.9545 45.2318 36.3192 45.3287C36.7148 45.435 37.1055 45.5461 37.4963 45.6643C37.8587 45.7706 38.2187 45.8817 38.5763 45.9974C38.9624 46.1227 39.3461 46.2526 39.7298 46.3873C40.085 46.5126 40.4379 46.6378 40.7908 46.7701C41.1674 46.9119 41.5392 47.0608 41.9111 47.212C42.2592 47.3538 42.6074 47.4956 42.9532 47.6445C43.3203 47.8028 43.6827 47.9706 44.045 48.1383C44.3861 48.2967 44.7248 48.4526 45.0611 48.6157C45.4187 48.7905 45.7716 48.9772 46.1269 49.1615C46.4585 49.334 46.79 49.5042 47.1169 49.6838C47.465 49.8752 47.8085 50.0784 48.1519 50.2769C48.474 50.4636 48.7961 50.6479 49.1135 50.8416C49.4521 51.0496 49.7837 51.267 50.1153 51.4844C50.4279 51.6852 50.7406 51.8837 51.0461 52.0917C51.3753 52.3162 51.695 52.5501 52.0171 52.7817C52.3179 52.9967 52.6211 53.207 52.9148 53.4291C53.2345 53.6702 53.5471 53.923 53.8598 54.1711C54.1464 54.398 54.4353 54.6177 54.7171 54.8493C55.0369 55.114 55.3448 55.3905 55.6574 55.6622C55.9203 55.8914 56.1903 56.1159 56.4485 56.3498C56.8108 56.6783 57.159 57.0209 57.5095 57.3589C57.905 57.7393 58.2911 58.1268 58.6748 58.5215C59.0087 58.8665 59.3451 59.2067 59.6695 59.5612C59.9087 59.8235 60.1361 60.0976 60.3706 60.3646C60.5293 60.5466 60.6903 60.7238 60.8466 60.9081C62.938 57.1627 65.3893 53.6395 68.1722 50.3974C59.3072 41.0138 47.4224 34.4139 33.8182 32.1383C31.7245 31.7886 29.5834 32.3817 27.9421 33.7664C26.2534 35.1913 25.2871 37.2708 25.2871 39.4731V43.6746C25.4316 43.6793 25.5737 43.6935 25.7158 43.7006C26.1018 43.7171 26.4855 43.7431 26.8692 43.7667L26.8668 43.7644Z" fill="#214820"/>
<path d="M58.6108 63.3987C58.3574 63.0938 58.0945 62.8008 57.834 62.5031C57.6256 62.2644 57.4243 62.0234 57.2111 61.7894C56.889 61.4373 56.5527 61.0947 56.2211 60.7521C55.9037 60.426 55.584 60.107 55.2571 59.7903C54.9137 59.4571 54.5703 59.1216 54.2174 58.8002C53.9829 58.5875 53.7414 58.3867 53.5045 58.1787C53.2061 57.9188 52.91 57.6541 52.6045 57.4013C52.3511 57.191 52.0882 56.9925 51.83 56.7869C51.5292 56.5483 51.2332 56.3096 50.9277 56.078C50.6577 55.8748 50.3806 55.6834 50.1082 55.4873C49.8027 55.2675 49.4995 55.0454 49.1892 54.8351C48.9074 54.6437 48.6185 54.4617 48.3342 54.275C48.0216 54.0718 47.709 53.8662 47.3916 53.6701C47.1003 53.4905 46.8019 53.3204 46.5058 53.1479C46.1837 52.9588 45.8616 52.7698 45.5348 52.5902C45.234 52.4248 44.9261 52.2665 44.6206 52.1058C44.289 51.9333 43.9598 51.7608 43.6234 51.5954C43.3132 51.4441 42.9982 51.2976 42.6856 51.1535C42.3445 50.9952 42.0058 50.8392 41.66 50.6903C41.3427 50.5533 41.0206 50.4209 40.7008 50.291C40.3527 50.1492 40.0021 50.0098 39.6492 49.8774C39.3248 49.7546 38.9979 49.6388 38.6687 49.523C38.3111 49.3977 37.9487 49.2749 37.5863 49.1567C37.2571 49.0504 36.9255 48.9488 36.594 48.8495C36.2245 48.7408 35.855 48.6345 35.4832 48.5352C35.1492 48.4454 34.8129 48.358 34.4742 48.2753C34.0976 48.1832 33.7187 48.0957 33.3374 48.013C32.9987 47.9398 32.66 47.8665 32.3166 47.8003C31.9282 47.7247 31.5397 47.6562 31.149 47.5924C30.8079 47.5357 30.4669 47.479 30.1258 47.4317C29.7279 47.375 29.3276 47.3254 28.9274 47.2781C28.584 47.2379 28.2429 47.1978 27.8971 47.1671C27.4897 47.1292 27.0776 47.1009 26.6679 47.0725C26.3268 47.0489 25.9834 47.0253 25.64 47.0111C25.5334 47.0064 25.4268 46.9969 25.3203 46.9922C25.3084 46.9922 25.2966 46.9922 25.2871 46.9922V47.004C25.2871 47.004 25.3108 47.004 25.3226 47.004C25.4529 51.3709 26.2013 55.5794 27.4921 59.5469C27.4992 59.5469 27.5063 59.5469 27.5134 59.5493C27.8568 59.5895 28.2026 59.6296 28.5413 59.6793C28.7568 59.7123 28.97 59.7525 29.1855 59.788C29.4982 59.8399 29.8108 59.8943 30.1211 59.9557C30.3461 60.0006 30.5711 60.0526 30.7937 60.1022C31.0874 60.1684 31.3834 60.2322 31.6724 60.3055C31.9021 60.3622 32.1295 60.426 32.3592 60.4898C32.6411 60.5678 32.9205 60.6434 33.2 60.7284C33.4297 60.797 33.6595 60.8726 33.8869 60.9482C34.1569 61.0356 34.4269 61.1278 34.6969 61.2223C34.9242 61.3027 35.1516 61.3877 35.3766 61.4752C35.6395 61.5744 35.9024 61.6784 36.1605 61.7847C36.3855 61.8769 36.6082 61.9714 36.8308 62.0683C37.0866 62.1793 37.3377 62.2951 37.5911 62.4109C37.8113 62.5125 38.0292 62.6189 38.2471 62.7252C38.4958 62.8481 38.7421 62.9757 38.9884 63.1033C39.2016 63.2167 39.4148 63.3278 39.6279 63.4459C39.8695 63.5806 40.1087 63.72 40.3479 63.8594C40.5563 63.9823 40.7624 64.1028 40.9684 64.2281C41.2053 64.3746 41.4374 64.5258 41.6695 64.677C41.8684 64.807 42.0698 64.937 42.2663 65.0693C42.4984 65.2276 42.7258 65.393 42.9556 65.5585C43.145 65.6955 43.3345 65.8278 43.5216 65.9696C43.7537 66.1445 43.9787 66.3264 44.2061 66.506C44.3813 66.6454 44.559 66.7801 44.7319 66.9243C44.9734 67.1251 45.2079 67.3307 45.4424 67.5387C45.594 67.671 45.7479 67.7986 45.8948 67.9333C46.2074 68.2192 46.5129 68.5122 46.8161 68.8076C46.9392 68.9281 47.0624 69.051 47.1856 69.1762C47.484 69.4787 47.7777 69.7812 48.0642 70.0955C48.2016 70.2443 48.3295 70.4003 48.4645 70.5515C48.6706 70.7855 48.8766 71.017 49.0756 71.2557C49.22 71.4282 49.355 71.6054 49.4971 71.7827C49.6771 72.0095 49.8595 72.234 50.0348 72.4656C50.1745 72.6499 50.3095 72.8413 50.4445 73.028C50.6103 73.2572 50.7761 73.484 50.9371 73.718C51.0698 73.9117 51.1977 74.1102 51.3279 74.3087C51.4819 74.5427 51.6335 74.7766 51.7803 75.0129C51.9058 75.2161 52.0266 75.4217 52.1498 75.6273C52.2895 75.866 52.4292 76.1046 52.5642 76.3456C52.6827 76.556 52.794 76.771 52.9077 76.9837C53.0356 77.2271 53.1635 77.4728 53.2866 77.7209C53.3932 77.9383 53.4974 78.1557 53.6016 78.3755C53.72 78.626 53.8337 78.8788 53.9474 79.134C53.9735 79.1955 54.0019 79.2545 54.0303 79.3136C55.1198 73.9803 56.8606 68.8761 59.184 64.0981C58.9969 63.8642 58.8145 63.6255 58.6227 63.3939L58.6108 63.3987Z" fill="#214820"/>
<path d="M52.6683 85.9134C52.602 85.6156 52.5357 85.3179 52.4622 85.0249C52.4149 84.8406 52.3628 84.6586 52.313 84.4767C52.2372 84.2025 52.1638 83.9308 52.0809 83.6614C52.0217 83.4724 51.9601 83.2857 51.8986 83.0967C51.8133 82.8367 51.728 82.5792 51.6357 82.3239C51.567 82.1325 51.4936 81.9435 51.4225 81.7545C51.3278 81.5063 51.2307 81.2582 51.1288 81.0148C51.0507 80.8258 50.9678 80.6367 50.8872 80.4501C50.783 80.209 50.6741 79.9704 50.5628 79.7341C50.4751 79.5474 50.3851 79.3631 50.2951 79.1788C50.1791 78.9448 50.0607 78.7133 49.9375 78.484C49.8404 78.3021 49.7433 78.1225 49.6438 77.9429C49.5159 77.7161 49.3857 77.4892 49.253 77.2647C49.1488 77.0899 49.047 76.915 48.9404 76.7425C48.8007 76.518 48.6586 76.2982 48.5141 76.0785C48.4051 75.9107 48.2962 75.7453 48.1825 75.5799C48.0309 75.3578 47.8722 75.1404 47.7135 74.923C47.5999 74.767 47.4885 74.611 47.3725 74.4574C47.202 74.2306 47.0243 74.0108 46.8467 73.7911C46.7354 73.654 46.6264 73.5122 46.5151 73.3752C46.3138 73.1342 46.1054 72.8979 45.897 72.6615C45.7999 72.5528 45.7075 72.4394 45.608 72.3331C44.9875 71.6525 44.3338 71.0027 43.6517 70.3812C43.5428 70.282 43.4291 70.1875 43.3178 70.0906C43.0833 69.8826 42.8488 69.6771 42.6072 69.4762C42.4699 69.3628 42.3278 69.2541 42.188 69.1406C41.9678 68.9634 41.7475 68.7862 41.5201 68.6161C41.3685 68.5003 41.2122 68.3916 41.0583 68.2805C40.838 68.1222 40.6201 67.9639 40.3951 67.8103C40.2317 67.6992 40.0635 67.5905 39.8978 67.4818C39.6775 67.3377 39.4549 67.1935 39.2299 67.0541C39.057 66.9478 38.8841 66.8462 38.7088 66.7422C38.4838 66.6099 38.2564 66.4775 38.0267 66.3523C37.8491 66.253 37.6667 66.1561 37.4867 66.0616C37.2546 65.9388 37.0225 65.8206 36.788 65.7048C36.6033 65.6127 36.4185 65.5252 36.2314 65.4378C35.9946 65.3267 35.7577 65.2204 35.5162 65.1141C35.3267 65.0313 35.1372 64.9486 34.9454 64.8707C34.7038 64.7714 34.4575 64.6745 34.2112 64.5824C34.017 64.5091 33.8251 64.4359 33.6309 64.365C33.3798 64.2752 33.1241 64.1901 32.8706 64.1074C32.6764 64.0436 32.4846 63.9798 32.2904 63.9207C32.0251 63.8404 31.7598 63.7671 31.4922 63.6939C31.3027 63.6419 31.1133 63.5875 30.9214 63.5379C30.6396 63.467 30.353 63.4032 30.0688 63.3418C29.8888 63.3016 29.7088 63.2567 29.5264 63.2213C29.2872 63.1717 29.0433 63.1315 28.7993 63.0913C33.368 73.9187 42.0578 82.5886 52.9075 87.1469C52.9075 87.1469 52.9075 87.1421 52.9075 87.1398C52.8649 86.8988 52.8246 86.6554 52.7772 86.4167C52.7441 86.2489 52.7015 86.0835 52.6659 85.9157L52.6683 85.9134Z" fill="#214820"/>
<path d="M112.862 33.7639C111.223 32.3792 109.082 31.7837 106.986 32.1358C93.3817 34.4114 81.497 41.0113 72.632 50.3949C72.2317 50.8178 71.848 51.2526 71.4596 51.6874C71.0996 52.0891 70.7467 52.4979 70.3986 52.9091C67.5825 56.241 65.1264 59.8729 63.0778 63.7507C62.7912 64.2942 62.5046 64.8376 62.2346 65.3906C61.9504 65.9695 61.6757 66.5556 61.4104 67.144C61.4104 67.144 61.4104 67.1487 61.408 67.151C58.6322 73.3044 56.8607 79.9893 56.2591 86.991C56.2591 86.9933 56.2591 86.9957 56.2591 86.9981C56.2212 87.447 56.188 87.9007 56.1572 88.3521C56.2591 88.3852 56.3585 88.423 56.4628 88.4537C60.257 89.6825 64.2691 90.4245 68.4304 90.604C68.4375 90.4764 68.447 90.3512 68.4517 90.226C68.4683 89.8408 68.4943 89.458 68.518 89.0752C68.5465 88.6498 68.5772 88.2245 68.6151 87.8015C68.6483 87.4565 68.6838 87.1138 68.7241 86.7688C68.7241 86.7641 68.7241 86.757 68.7241 86.7523C68.7288 86.7216 68.7336 86.6909 68.7359 86.6578C68.7857 86.2419 68.8354 85.826 68.8946 85.4125C68.9491 85.032 69.0083 84.6539 69.0723 84.2759C69.1409 83.8671 69.212 83.463 69.2901 83.0565C69.3636 82.6808 69.4394 82.3075 69.5222 81.9365C69.5294 81.901 69.5365 81.8632 69.5436 81.8278C69.6241 81.4662 69.7094 81.1047 69.797 80.7455C69.887 80.3745 69.9817 80.0035 70.0836 79.6349C70.183 79.2663 70.2873 78.9 70.3962 78.5361C70.3962 78.5361 70.3962 78.5361 70.3962 78.5337C70.4033 78.5125 70.408 78.4935 70.4151 78.4723C70.5241 78.106 70.6354 77.7421 70.7515 77.3806C70.8746 77.0001 71.0049 76.622 71.1375 76.244C71.263 75.8848 71.3909 75.528 71.5259 75.1735C71.6657 74.8025 71.8149 74.4339 71.9641 74.0652C72.1062 73.7132 72.2507 73.3634 72.3999 73.0161C72.5586 72.6522 72.7244 72.2953 72.8901 71.9362C73.0488 71.5935 73.2075 71.2485 73.3733 70.9106C73.5486 70.5585 73.7309 70.2088 73.9133 69.8614C74.0886 69.5282 74.2615 69.1927 74.4438 68.8619C74.6333 68.5169 74.8346 68.179 75.0336 67.841C75.223 67.5173 75.4102 67.1912 75.6067 66.8722C75.8128 66.539 76.0283 66.2106 76.2438 65.8821C76.4475 65.5678 76.6488 65.2512 76.8596 64.9416C77.0823 64.6179 77.3144 64.3036 77.5417 63.9846C77.6009 63.9042 77.6554 63.8215 77.7146 63.7412C77.8757 63.5191 78.0344 63.2946 78.1978 63.0772C78.3896 62.822 78.5933 62.5762 78.7899 62.3234C78.8396 62.2619 78.8894 62.2005 78.9367 62.1367C79.1641 61.8508 79.3867 61.5601 79.6212 61.2789C79.7302 61.149 79.8438 61.0237 79.9528 60.8938C80.1091 60.7094 80.2725 60.5299 80.4312 60.3455C80.6633 60.0809 80.8907 59.8091 81.1275 59.5492C81.452 59.1947 81.7883 58.8545 82.1223 58.5095C82.5036 58.1148 82.892 57.7273 83.2875 57.3469C83.6381 57.009 83.9862 56.6663 84.3486 56.3379C84.6044 56.1039 84.872 55.8818 85.1349 55.6549C85.4499 55.3808 85.7602 55.102 86.0799 54.8373C86.3594 54.6058 86.6483 54.386 86.9349 54.1615C87.2499 53.9134 87.5625 53.6582 87.8823 53.4172C88.1783 53.195 88.4815 52.9847 88.7799 52.7697C89.102 52.5381 89.4217 52.3042 89.751 52.0797C90.0589 51.8717 90.3715 51.6733 90.6841 51.47C91.0181 51.255 91.3473 51.0352 91.686 50.8273C92.0033 50.6335 92.3254 50.4492 92.6475 50.2602C92.991 50.0593 93.3344 49.8584 93.6825 49.667C94.0094 49.4875 94.341 49.3173 94.6725 49.1448C95.0254 48.9605 95.3783 48.7762 95.736 48.6013C96.0723 48.4359 96.4133 48.2799 96.7544 48.1216C97.1168 47.9538 97.4768 47.7884 97.8439 47.6301C98.1897 47.4812 98.5378 47.3395 98.886 47.1977C99.2578 47.0465 99.6297 46.8976 100.006 46.7558C100.357 46.6235 100.712 46.4982 101.067 46.373C101.449 46.2383 101.832 46.1083 102.218 45.9831C102.576 45.8673 102.938 45.7586 103.301 45.6499C103.691 45.5341 104.082 45.4231 104.478 45.3167C104.843 45.2175 105.21 45.1253 105.579 45.0355C105.979 44.9386 106.38 44.8465 106.782 44.7567C107.154 44.6763 107.526 44.5984 107.9 44.5275C108.308 44.4495 108.715 44.3762 109.127 44.3077C109.504 44.2439 109.88 44.1848 110.262 44.1305C110.676 44.0714 111.093 44.0194 111.512 43.9722C111.893 43.9273 112.272 43.8847 112.656 43.8493C113.08 43.8091 113.504 43.7808 113.933 43.7524C114.316 43.7264 114.7 43.7028 115.088 43.6862C115.233 43.6791 115.375 43.6673 115.517 43.6602V39.4588C115.517 37.2565 114.551 35.1746 112.862 33.7521V33.7639Z" fill="#214820"/>
<path d="M115.164 47.0133C114.821 47.0275 114.477 47.0535 114.136 47.0747C113.724 47.1031 113.314 47.1291 112.907 47.1693C112.561 47.2023 112.218 47.2425 111.874 47.2827C111.474 47.3299 111.074 47.3772 110.678 47.4339C110.335 47.4835 109.991 47.5402 109.65 47.597C109.26 47.6631 108.871 47.7293 108.485 47.8049C108.142 47.8711 107.801 47.9443 107.462 48.0176C107.083 48.1003 106.706 48.1877 106.332 48.2775C105.991 48.3602 105.655 48.4477 105.316 48.5398C104.947 48.6391 104.58 48.743 104.215 48.8517C103.878 48.951 103.545 49.055 103.213 49.1613C102.853 49.2771 102.498 49.4 102.142 49.5228C101.811 49.6386 101.479 49.7568 101.152 49.882C100.804 50.0143 100.458 50.1514 100.113 50.2908C99.7858 50.4231 99.4613 50.5555 99.1392 50.6949C98.8006 50.8414 98.4642 50.995 98.1303 51.1509C97.8106 51.2998 97.4908 51.4463 97.1758 51.6023C96.8466 51.763 96.5245 51.9331 96.2 52.1009C95.8874 52.2639 95.5748 52.4246 95.2645 52.5948C94.9448 52.7696 94.6321 52.9563 94.3171 53.1383C94.014 53.3155 93.7061 53.4903 93.4077 53.6747C93.0998 53.8637 92.7966 54.0646 92.4934 54.2607C92.1974 54.4521 91.899 54.6411 91.61 54.8396C91.3116 55.0429 91.0203 55.2555 90.7266 55.4658C90.44 55.6714 90.1511 55.8723 89.8692 56.0826C89.5779 56.3 89.2961 56.5292 89.0119 56.756C88.7395 56.9711 88.46 57.1837 88.1924 57.4059C87.9105 57.6398 87.6382 57.8832 87.3611 58.1242C87.1005 58.3511 86.8353 58.5708 86.5795 58.8048C86.2929 59.0647 86.0182 59.3388 85.7363 59.6058C85.2769 60.0454 84.8268 60.4943 84.3863 60.9528C84.1211 61.2292 83.8511 61.501 83.5929 61.7822C83.3561 62.0398 83.1334 62.3091 82.9013 62.5714C82.6645 62.8432 82.4229 63.1126 82.1908 63.389C81.999 63.6206 81.8166 63.8593 81.6271 64.0956C81.594 64.1358 81.5608 64.1783 81.53 64.2185C81.3074 64.4973 81.0824 64.7761 80.8668 65.0597C80.7295 65.2417 80.6016 65.4283 80.4666 65.6126C80.3908 65.7166 80.315 65.8206 80.2416 65.9246C80.0332 66.2152 79.8224 66.5011 79.6211 66.7965C79.5429 66.9123 79.4695 67.0305 79.3913 67.1486C79.2705 67.3282 79.1545 67.5078 79.0361 67.6874C78.8418 67.9875 78.6429 68.2852 78.4558 68.5924C78.2687 68.8949 78.0911 69.2021 77.9111 69.5093C77.7287 69.8188 77.5463 70.1284 77.3734 70.4427C77.2005 70.7522 77.0371 71.0689 76.8737 71.3831C76.7055 71.7045 76.5374 72.0235 76.3787 72.3473C76.2224 72.6663 76.0732 72.9876 75.9216 73.3114C75.7676 73.6422 75.6161 73.9707 75.4716 74.3062C75.3295 74.6323 75.1945 74.9608 75.0618 75.2892C74.9245 75.6295 74.7871 75.9698 74.6568 76.3148C74.5313 76.6456 74.4105 76.9811 74.2921 77.3143C74.1689 77.6641 74.0482 78.0138 73.9345 78.3659C73.8255 78.7038 73.7189 79.0441 73.6171 79.3843C73.5105 79.7412 73.4087 80.1003 73.3092 80.4619C73.2168 80.8069 73.1268 81.1519 73.0416 81.4992C72.9516 81.8631 72.8663 82.2318 72.7858 82.6004C72.71 82.9501 72.6342 83.2999 72.5655 83.652C72.4921 84.0253 72.4258 84.401 72.3642 84.7791C72.305 85.1312 72.2481 85.4833 72.196 85.8401C72.1534 86.1426 72.1132 86.4474 72.0753 86.7523C72.0753 86.7546 72.0753 86.7593 72.0753 86.7617C72.0658 86.8397 72.0587 86.9177 72.0492 86.9956C72.0066 87.3501 71.9663 87.7069 71.9332 88.0637C71.8976 88.456 71.8692 88.8506 71.8432 89.2452C71.8195 89.6021 71.7934 89.9589 71.7792 90.318C71.7745 90.4197 71.765 90.5213 71.7603 90.6205C71.7626 90.6205 71.7674 90.6205 71.7697 90.6205C71.9663 90.6158 72.1653 90.6134 72.3618 90.6063C72.3666 90.6063 72.3689 90.6063 72.3737 90.6063C76.535 90.4268 80.5471 89.6848 84.3437 88.456C84.3437 88.4489 84.3437 88.4442 84.3437 88.4371C84.384 88.0944 84.4242 87.7494 84.474 87.4115C84.4953 87.2745 84.519 87.1398 84.5426 87.0027C84.5569 86.9224 84.5711 86.842 84.5853 86.7617C84.6374 86.4521 84.6895 86.1402 84.7511 85.833C84.7961 85.6062 84.8482 85.3817 84.9003 85.1572C84.9642 84.8642 85.0305 84.5735 85.104 84.2829C85.1632 84.0513 85.2271 83.8245 85.2887 83.5952C85.3645 83.3164 85.4426 83.0376 85.5279 82.7611C85.5682 82.6311 85.6061 82.5035 85.6463 82.3736C85.6795 82.272 85.715 82.1727 85.7482 82.0735C85.8358 81.8041 85.9258 81.537 86.0205 81.27C86.1034 81.0408 86.1887 80.814 86.274 80.5871C86.3734 80.3248 86.4753 80.0649 86.5819 79.8073C86.6482 79.6443 86.7145 79.4789 86.7855 79.3158C86.8116 79.2544 86.84 79.1953 86.8684 79.1339C86.9797 78.881 87.0934 78.6305 87.2095 78.3801C87.3137 78.1579 87.4203 77.9358 87.5292 77.716C87.65 77.4703 87.7755 77.2293 87.9034 76.9882C88.0171 76.7708 88.1332 76.5558 88.2516 76.3408C88.3842 76.1021 88.5216 75.8658 88.6613 75.6319C88.7845 75.4216 88.9076 75.2136 89.0355 75.0057C89.18 74.7717 89.3292 74.5425 89.4808 74.3133C89.6134 74.1124 89.7437 73.9092 89.8811 73.7107C90.0374 73.4839 90.1984 73.2617 90.3619 73.0373C90.5016 72.8435 90.639 72.6474 90.7834 72.4583C90.954 72.2338 91.1316 72.0141 91.3069 71.792C91.4513 71.6124 91.5911 71.428 91.7403 71.2508C91.9321 71.0216 92.1311 70.7971 92.3276 70.5726C92.4698 70.4119 92.6071 70.2465 92.7516 70.0882C93.0145 69.8023 93.2845 69.5235 93.5545 69.247C93.7227 69.0768 93.8908 68.9091 94.0613 68.7413C94.3408 68.4672 94.6227 68.1954 94.914 67.9308C95.0703 67.789 95.2313 67.6543 95.39 67.5149C95.6174 67.3164 95.8424 67.1155 96.0769 66.9218C96.2545 66.7729 96.4392 66.6335 96.6216 66.4893C96.8419 66.3145 97.0621 66.1372 97.2871 65.9671C97.479 65.823 97.6732 65.6859 97.8674 65.5465C98.09 65.3858 98.315 65.2227 98.5424 65.0668C98.7413 64.9297 98.945 64.7998 99.1463 64.6674C99.3761 64.5162 99.6058 64.3673 99.8403 64.2232C100.046 64.0956 100.255 63.9727 100.466 63.8498C100.702 63.7104 100.939 63.5734 101.181 63.4387C101.394 63.3205 101.61 63.2071 101.825 63.0937C102.069 62.9661 102.313 62.8408 102.559 62.7179C102.78 62.6092 103 62.5053 103.222 62.4013C103.473 62.2855 103.725 62.1697 103.978 62.061C104.201 61.9641 104.426 61.8673 104.651 61.7751C104.909 61.6688 105.169 61.5672 105.43 61.4679C105.657 61.3805 105.885 61.2954 106.114 61.2151C106.38 61.1205 106.65 61.0307 106.92 60.9433C107.149 60.8677 107.377 60.7944 107.609 60.7236C107.886 60.6385 108.168 60.5629 108.447 60.4849C108.675 60.4234 108.902 60.3596 109.134 60.3006C109.425 60.2273 109.719 60.1635 110.013 60.0974C110.238 60.0477 110.46 59.9957 110.685 59.9508C110.993 59.8894 111.306 59.8374 111.618 59.7854C111.834 59.7476 112.05 59.7075 112.267 59.6744C112.606 59.6247 112.947 59.5846 113.291 59.5444C113.3 59.5444 113.307 59.5444 113.317 59.542C114.607 55.5745 115.356 51.366 115.486 46.9991C115.498 46.9991 115.51 46.9991 115.522 46.9991V46.9873C115.522 46.9873 115.498 46.9873 115.486 46.9873C115.38 46.992 115.273 47.0015 115.166 47.0062L115.164 47.0133Z" fill="#214820"/>
<path d="M110.735 63.3417C110.448 63.4055 110.162 63.4669 109.878 63.5402C109.686 63.5875 109.499 63.6442 109.309 63.6962C109.041 63.7694 108.774 63.8427 108.511 63.923C108.317 63.9821 108.123 64.0482 107.928 64.1097C107.673 64.1924 107.419 64.2775 107.166 64.3673C106.971 64.4358 106.782 64.509 106.59 64.5823C106.341 64.6768 106.095 64.7737 105.851 64.8729C105.659 64.9509 105.472 65.0336 105.283 65.1163C105.044 65.2203 104.804 65.329 104.568 65.4401C104.38 65.5275 104.196 65.6173 104.011 65.7095C103.776 65.8252 103.544 65.9434 103.315 66.0663C103.135 66.1608 102.952 66.2577 102.775 66.3569C102.545 66.4845 102.32 66.6145 102.095 66.7468C101.92 66.8508 101.744 66.9524 101.571 67.0587C101.346 67.1982 101.126 67.3399 100.906 67.4841C100.74 67.5928 100.572 67.7015 100.406 67.8149C100.184 67.9661 99.9657 68.1245 99.7454 68.2828C99.5891 68.3962 99.4328 68.5049 99.2812 68.6207C99.0538 68.7908 98.8336 68.9681 98.6133 69.1453C98.4736 69.2563 98.3338 69.365 98.1965 69.4785C97.9549 69.6793 97.7181 69.8873 97.4836 70.0952C97.3746 70.1921 97.2609 70.2843 97.1544 70.3835C96.4723 71.0026 95.8209 71.6548 95.1981 72.3354C95.0986 72.4441 95.0062 72.5551 94.9091 72.6662C94.7007 72.9001 94.4923 73.1364 94.2909 73.3775C94.1773 73.5122 94.0707 73.6539 93.9594 73.791C93.7817 74.0131 93.6041 74.2329 93.4312 74.4597C93.3151 74.6133 93.2038 74.7693 93.0925 74.9229C92.9338 75.1403 92.7751 75.3577 92.6236 75.5798C92.5099 75.7452 92.4033 75.9106 92.292 76.0784C92.1475 76.2982 92.003 76.5179 91.8657 76.7424C91.7591 76.9149 91.6549 77.0898 91.553 77.2646C91.4204 77.4891 91.2901 77.7136 91.1623 77.9428C91.0628 78.1224 90.9657 78.302 90.8686 78.484C90.7478 78.7132 90.627 78.9447 90.5109 79.1787C90.4186 79.363 90.3286 79.5473 90.2409 79.734C90.1296 79.9703 90.023 80.209 89.9165 80.4476C89.8336 80.6343 89.753 80.8233 89.6725 81.0124C89.5707 81.2581 89.4736 81.5039 89.3788 81.752C89.3054 81.9411 89.2344 82.1301 89.1657 82.3215C89.0733 82.5767 88.988 82.8343 88.9028 83.0942C88.8412 83.2833 88.7773 83.4699 88.7204 83.659C88.6375 83.9284 88.5641 84.2001 88.4883 84.4719C88.4386 84.6562 88.3841 84.8381 88.3367 85.0224C88.2609 85.3155 88.197 85.6132 88.1307 85.9109C88.0928 86.0787 88.0525 86.2441 88.0194 86.4119C87.9696 86.6506 87.9317 86.8939 87.8867 87.1373C87.8867 87.1397 87.8867 87.1421 87.8867 87.1444C98.7388 82.5862 107.429 73.9162 111.995 63.0889C111.751 63.129 111.509 63.1692 111.268 63.2188C111.088 63.2543 110.908 63.2992 110.73 63.3393L110.735 63.3417Z" fill="#214820"/>
<path d="M60.1218 68.8857C66.4384 73.6448 72.3263 72.2814 78.8395 71.83C89.0119 71.1258 100.139 61.6194 94.1561 41.6802C88.7868 23.7921 76.6013 10.0464 61.2752 1.92474C58.5729 0.492744 50.4515 -3.80087 48.8173 9.83141C46.3542 30.3708 37.2973 51.6829 60.1242 68.8881L60.1218 68.8857Z" fill="#5D9B31"/>
<path d="M52.4151 15.4578C52.4198 33.6696 64.0346 65.9414 79.9362 65.9414C87.5507 65.9414 92.8773 58.6065 92.8773 50.3501C92.8773 49.3293 92.7825 48.3321 92.6025 47.3704C92.5907 47.3302 92.5836 47.2971 92.5765 47.2569C92.522 46.9946 92.4652 46.7371 92.406 46.4795C92.3988 46.4559 92.3941 46.437 92.3917 46.4181C88.067 27.2823 77.1107 12.2984 61.0693 3.95929C52.0433 -0.733673 52.4104 4.76271 52.4127 15.4625L52.4151 15.4578Z" fill="#F9E988"/>
<path d="M69.0484 29.0712C67.9708 38.4831 73.0795 46.4938 80.2724 51.1513C82.4063 52.5336 85.2437 52.2903 87.0769 50.5298C89.7603 47.9517 91.4798 44.367 91.6053 40.3334C91.8492 32.3889 85.5469 26.1623 77.6458 25.1391C71.0142 24.2814 69.3989 26.0135 69.0484 29.0688V29.0712Z" fill="#AB562B"/>
</svg>
