<svg width="297" height="296" viewBox="0 0 297 296" fill="none" xmlns="http://www.w3.org/2000/svg">
<path d="M222.441 221.543C263.391 180.758 263.391 114.633 222.441 73.8477C181.491 33.0627 115.097 33.0627 74.1469 73.8477C33.1967 114.633 33.1967 180.758 74.1469 221.543C115.097 262.328 181.491 262.328 222.441 221.543Z" fill="white"/>
<path d="M245.5 194.98C224.879 229.229 193.524 252 151.488 252C109.451 252 74.6212 235.232 54 201C57.6347 191.61 61.8481 177.514 72.2119 171.358C81.2332 165.985 93.84 162.39 107.806 160.15C121.763 157.91 137.08 157 151.504 157C180.361 157 212.762 160.613 230.804 171.358C241.152 177.506 241.857 185.615 245.5 194.98Z" fill="url(#paint0_linear_31_260)"/>
<path d="M186 96.8123C186 87.8735 189.805 77 194.496 77C199.186 77 204 78.7236 204 87.6623C204 91.9627 202.516 101.603 201.081 105.836C199.531 110.389 196.939 113 194.504 113C189.813 113 186.008 105.751 186.008 96.8207L186 96.8123Z" fill="#ECA182"/>
<path d="M150 23C114.644 23 105 53.4144 105 90.9224C105 115.8 112.792 133.526 127.333 143.75C137.561 150.944 141.774 153 150 153C158.226 153 162.439 150.944 172.667 143.75C187.208 133.526 195 115.8 195 90.9224C195 53.4061 185.356 23 150 23Z" fill="#FBCBAB"/>
<path d="M178.88 160.036V132H120.128V160.036C111.208 161.534 105 164.539 105 170.855C105 183.18 121.922 196 149.5 196C177.078 196 194 183.18 194 170.855C194 164.531 187.792 161.534 178.872 160.036H178.88Z" fill="#FBCBAB"/>
<path d="M114 96.8123C114 87.8735 109.982 77 105.028 77C100.075 77 95 78.7236 95 87.6623C95 91.9627 96.5675 101.603 98.083 105.836C99.7197 110.389 102.456 113 105.028 113C109.982 113 114 105.751 114 96.8207V96.8123Z" fill="#FBCBAB"/>
<path d="M183.768 159.824C179.865 167.671 174.518 173.69 165.216 176.32C160.104 177.77 154.581 176.522 149.343 176.927C144.037 177.331 137.507 177.466 132.512 174.937C128.029 172.678 124.562 169.914 121.414 165.96C119.047 162.993 117.612 160.186 116.059 157.126C116.034 157.084 116.017 157.034 116 157C116.336 157.927 116.697 158.821 117.1 159.697C117.41 160.38 117.729 161.038 118.082 161.687C120.692 166.584 122.069 170.563 125.326 174.878C128.298 178.832 131.572 181.597 135.811 183.856C140.537 186.376 145.783 186.856 151.5 186.983C156.47 187.092 161.909 186.696 166.727 185.238C176.759 182.246 182.912 170.689 187 160.178C185.926 160.043 184.843 159.925 183.768 159.807V159.824Z" fill="#DB9172"/>
<path d="M149.802 23C149.19 23 148.603 23.0333 148 23.05C179.423 24.0741 188.079 54.0638 188.079 90.9224C188.079 115.8 180.847 133.526 167.365 143.75C158.592 150.402 154.586 152.659 148 152.958C148.578 152.983 149.173 153 149.802 153C158.064 153 162.295 150.944 172.568 143.75C187.174 133.526 195 115.8 195 90.9224C195 53.4061 185.313 23 149.802 23Z" fill="#ECA182"/>
<path d="M198.731 25.0494C196.476 22.3429 192.86 20.8273 189.377 20.2277C185.978 19.6364 182.954 20.8689 179.697 19.2617C177.484 18.1708 176.39 15.3727 174.719 13.6405C171.253 10.043 166.71 8.11098 162.066 6.82852C155.544 5.02143 141.922 -1.83222 135.34 0.46621C132.309 1.52382 127.757 8.76886 124.525 9.50169C120.558 10.4011 118.628 11.1006 114.628 11.9667C100.522 15.0229 94.3578 28.6303 94.0071 43.3119C93.8066 51.8477 97.9241 59.8589 99.4191 68.1865C100.522 74.3323 99.0015 79.4122 101.599 86.7238C103.821 92.9779 106.142 115.279 106.234 118.469C106.577 129.786 107.829 142.969 113.467 152.904C116.215 157.75 117.668 161.673 121.092 165.945C124.216 169.85 127.665 172.573 132.133 174.814C137.094 177.295 143.6 177.179 148.879 176.779C154.09 176.387 159.586 177.612 164.672 176.188C176.732 172.798 182.103 163.729 186.354 152.404C188.918 145.559 192.709 139.588 192.993 126.288C193.494 102.097 196.585 86.7905 196.033 73.5495C195.407 58.5931 209.956 38.5235 198.739 25.0494H198.731ZM182.62 119.077C178.87 122.175 174.978 121.575 170.869 124.265C165.8 127.588 159.945 132.159 153.907 132.717C148.912 133.175 144.01 132.676 139.483 130.269C134.839 127.796 131.081 124.831 126.746 121.908C123.113 119.451 118.77 119.776 115.146 117.594C110.669 114.905 108.356 109.034 107.821 104.145C107.662 102.705 107.487 92.828 107.545 91.8037C108.013 84.1173 108.523 75.9645 108.898 68.2115C109.249 60.9915 109.759 50.507 115.755 45.627C121.268 41.1384 129.202 44.2696 135.474 45.2522C144.945 46.7429 152.144 44.7276 161.173 42.6707C167.979 41.1217 176.206 41.1634 182.052 45.9351C189.143 51.7228 187.882 61.3912 188.366 69.5772C188.826 77.3469 190.429 82.0687 190.947 91.5039C191.34 98.7406 191.59 103.562 190.488 107.102C189.035 111.757 186.521 115.829 182.604 119.06L182.62 119.077Z" fill="#1D2247"/>
<path d="M185.931 122.773C184.416 121.43 178.274 121.182 174.199 118.831C170.902 116.928 168.953 114.417 165.631 112.706C159.338 109.475 156.1 111.826 150 111.826C143.9 111.826 140.662 109.475 134.369 112.706C131.047 114.409 129.098 116.928 125.801 118.831C121.726 121.182 115.584 121.43 114.069 122.773C108.697 127.539 125.198 125.716 127.499 125.372C135.398 124.188 142.302 121.39 150 121.39C157.698 121.39 164.602 124.188 172.501 125.372C174.802 125.716 191.303 127.539 185.931 122.773Z" fill="#373F85"/>
<path d="M144.461 12.9181C145.851 6.49222 176.609 15.3538 174.934 13.6164C171.459 10.0252 166.903 8.09661 162.247 6.81643C155.707 5.01253 142.049 -1.82897 135.45 0.465384C132.411 1.52112 127.847 8.75333 124.606 9.48486C120.628 10.3827 118.694 11.0809 114.683 11.9455C100.539 14.9963 94.3588 28.5795 94.0071 43.2352C93.8061 51.7559 97.9345 59.7529 99.4335 68.0657C100.539 74.2006 99.0148 79.2715 101.619 86.5702C103.847 92.8132 106.175 115.075 106.267 118.259C106.61 129.556 107.866 142.715 113.519 152.633C116.274 157.471 117.731 161.386 121.164 165.651C124.296 169.549 125.602 164.786 121.307 154.121C118.518 147.196 116.048 142.699 113.82 139.124C102.314 120.686 108.729 99.3222 104.399 82.9125C98.7719 61.5734 109.499 49.8855 107.581 35.1633C104.399 10.7152 141.697 25.6867 144.452 12.9181H144.461Z" fill="#373F85"/>
<path d="M190.975 91.6015C190.983 91.7344 190.983 91.8672 191 92C191 91.9253 190.992 91.834 190.975 91.751C189.928 84.7771 188.317 81.9294 187.619 73.6853C187.054 66.8609 186.116 58.5752 180.608 53.9177C175.226 49.3514 170.258 49.6503 163.488 50.9455C154.501 52.664 149.65 53.0044 142.655 51.5598C136.492 50.2896 127.163 47.0766 120.742 49.3597C113.931 51.7923 111.115 63.6562 110.475 73.2702C110.043 79.7459 108.465 85.5741 108 91.9917V91.8921C108.465 84.2208 108.98 76.0929 109.354 68.3636C109.695 61.1655 110.201 50.7213 116.174 45.8479C121.664 41.373 129.547 44.4946 135.786 45.4826C145.205 46.9687 152.366 44.9512 161.354 42.9089C168.115 41.3564 176.306 41.4062 182.112 46.1634C189.164 51.9334 187.91 61.564 188.392 69.7251C188.857 77.4628 190.452 82.1785 190.967 91.5932L190.975 91.6015Z" fill="#DB9172"/>
<path d="M160.995 122.757C157.271 121.792 153.572 121 149.688 121C143.255 121 137.356 123.166 131 124.686C132.498 125.833 133.996 126.952 135.536 128.017C134.445 124.995 143.424 123.685 150.051 123.685C157.516 123.685 166.928 126.251 164.431 129C166.361 127.735 168.231 126.361 170 125.068C166.902 124.404 163.94 123.539 160.986 122.766L160.995 122.757Z" fill="#ECA182"/>
<defs>
<linearGradient id="paint0_linear_31_260" x1="52" y1="204.496" x2="251" y2="204.496" gradientUnits="userSpaceOnUse">
<stop stop-color="#2581C4"/>
<stop offset="1" stop-color="#2D2E83"/>
</linearGradient>
</defs>
</svg>
