<svg id="eNKi4VdJ0Ak1" xmlns="http://www.w3.org/2000/svg" xmlns:xlink="http://www.w3.org/1999/xlink" viewBox="0 0 133 133" shape-rendering="geometricPrecision" text-rendering="geometricPrecision" width="133" height="133"><g transform="matrix(1.377771 0 0 1.377764-36.836475-.274156)"><g><g><path d="M28.4263,46.7331c.4561.0304.9122.0633,1.3657.1038.4105.038.8159.0835,1.2238.1316.4485.0532.8944.1063,1.3378.1696.4054.0583.8108.1215,1.2137.1899.4383.0734.8767.1519,1.3125.2354.4003.0785.7981.1595,1.1934.2456.4307.0937.8614.1924,1.2871.2987.3953.0962.788.1975,1.1782.3013.4231.1139.8412.2329,1.2593.3595.3876.1139.7728.2329,1.1553.3569.413.1342.8235.2734,1.234.4177.38.1342.7576.2684,1.1351.4101.4029.1519.8007.3114,1.1985.4734.3724.1519.7449.3038,1.1148.4633.3927.1696.7804.3494,1.1681.5291.3648.1696.7271.3367,1.0869.5114.3826.1873.7602.3873,1.1402.5848.3547.1848.7095.367,1.0591.5594.3725.2051.7399.4228,1.1073.6355.3446.1999.6891.3974,1.0287.605.3623.2228.717.4557,1.0717.6886.3345.2152.6689.4278.9958.6506.3522.2405.6942.4911,1.0388.7392.3218.2304.6461.4557.9603.6937.3421.2582.6765.529,1.011.7949.3066.243.6157.4784.9172.7265.342.2835.6714.5797,1.0059.8709.2812.2455.5701.486.8463.7367.3876.3518.7601.7189,1.1351,1.0809.4231.4076.8361.8228,1.2466,1.2456.3572.3696.717.7341,1.0641,1.1138.256.281.4992.5747.75.8608.1698.1949.3421.3848.5093.5822c2.2373-4.0125,4.8597-7.787,7.8369-11.2603C63.131,43.7864,50.4167,36.7157,35.8629,34.2778c-2.2399-.3746-4.5304.2608-6.2863,1.7443-1.8065,1.5265-2.8403,3.7543-2.8403,6.1137v4.5011c.1546.0051.3066.0202.4586.0278.413.0178.8235.0456,1.234.0709l-.0026-.0025Z" fill="#214820"/><path d="M62.3861,67.7678c-.2711-.3266-.5524-.6405-.8311-.9595-.223-.2557-.4383-.5139-.6664-.7645-.3446-.3772-.7044-.7443-1.0591-1.1114-.3395-.3493-.6816-.6911-1.0312-1.0303-.3674-.357-.7348-.7165-1.1123-1.0608-.2509-.2278-.5093-.443-.7627-.6658-.3192-.2784-.636-.562-.9628-.8328-.2711-.2253-.5524-.438-.8285-.6582-.3218-.2557-.6385-.5114-.9654-.7595-.2888-.2177-.5853-.4228-.8767-.6329-.3268-.2354-.6511-.4734-.9831-.6987-.3015-.2051-.6106-.4-.9146-.6-.3345-.2177-.6689-.4379-1.0085-.6481-.3116-.1924-.6309-.3746-.9476-.5594-.3446-.2026-.6892-.4051-1.0388-.5975-.3218-.1772-.6512-.3468-.978-.5189-.3548-.1849-.707-.3697-1.0667-.5469-.332-.162-.669-.3189-1.0034-.4734-.3649-.1696-.7272-.3367-1.0971-.4961-.3395-.1469-.6841-.2886-1.0262-.4279-.3724-.1519-.7474-.3012-1.125-.443-.3471-.1316-.6967-.2557-1.0489-.3797-.3826-.1342-.7703-.2659-1.158-.3924-.3521-.114-.7069-.2228-1.0616-.3291-.3953-.1165-.7905-.2304-1.1883-.3367-.3573-.0962-.7171-.1899-1.0794-.2785-.4029-.0987-.8083-.1924-1.2162-.281-.3623-.0785-.7246-.157-1.092-.2278-.4156-.0811-.8311-.1545-1.2492-.2228-.3648-.0608-.7297-.1215-1.0945-.1722-.4257-.0607-.8539-.1139-1.2821-.1645-.3674-.0431-.7323-.0861-1.1022-.119-.4358-.0405-.8767-.0709-1.315-.1013-.3649-.0253-.7323-.0506-1.0996-.0658-.1141-.005-.2281-.0152-.3421-.0202-.0127,0-.0253,0-.0355,0v.0126c0,0,.0254,0,.038,0c.1394,4.6783.9401,9.187,2.3209,13.4375.0076,0,.0152,0,.0228.0026.3674.043.7374.086,1.0997.1392.2306.0354.4586.0785.6892.1164.3344.0557.6689.114,1.0008.1798.2407.0481.4814.1038.7196.1569.3142.0709.6309.1393.94.2177.2458.0608.489.1292.7348.1975.3015.0836.6005.1646.8995.2557.2457.0734.4915.1544.7347.2354.2889.0937.5777.1924.8666.2937.2432.0861.4865.1772.7272.2709.2812.1063.5625.2177.8386.3316.2407.0987.4789.2.7171.3038.2736.119.5422.243.8133.3671.2357.1088.4688.2227.7019.3367.266.1316.5295.2683.793.405.2281.1215.4561.2405.6841.3671.2585.1443.5144.2936.7703.443.223.1316.4434.2608.6638.3949.2534.157.5017.319.75.481.2128.1393.4282.2785.6385.4203.2483.1696.4916.3468.7373.524.2027.1468.4054.2886.6056.4405.2483.1873.489.3823.7323.5747.1874.1493.3775.2936.5624.448.2585.2152.5093.4355.7602.6582.1621.1418.3268.2785.4839.4228.3345.3063.6613.6202.9856.9367.1318.1291.2635.2607.3953.3949.3193.324.6334.6481.94.9848.147.1595.2838.3266.4282.4886.2205.2506.4409.4987.6537.7544.1546.1848.299.3746.451.5645.1926.243.3877.4835.5752.7316.1495.1975.2939.4026.4383.6025.1774.2456.3548.4886.527.7393.1419.2075.2788.4202.4181.6328.1647.2507.3269.5013.484.7545.1342.2177.2635.4379.3952.6582.1495.2556.299.5113.4434.7695.1267.2254.2458.4557.3674.6836.1368.2607.2737.524.4054.7898.114.2329.2255.4658.337.7013.1267.2683.2483.5392.3699.8126.0279.0658.0583.1291.0887.1924c1.1655-5.7137,3.0278-11.1819,5.5134-16.3007-.2001-.2506-.3952-.5063-.6005-.7544l-.0126.0051Z" fill="#214820"/><path d="M56.0292,91.8884c-.071-.319-.1419-.638-.2205-.9519-.0506-.1975-.1064-.3924-.1596-.5873-.0811-.2937-.1596-.5848-.2483-.8734-.0633-.2025-.1292-.4025-.1951-.6051-.0912-.2784-.1824-.5544-.2812-.8278-.0735-.205-.1521-.4076-.2281-.6101-.1013-.2658-.2052-.5316-.3142-.7924-.0836-.2025-.1722-.405-.2584-.605-.1115-.2582-.228-.5139-.3471-.7671-.0938-.2-.19-.3974-.2863-.5949-.1242-.2506-.2509-.4987-.3826-.7442-.1039-.195-.2078-.3874-.3142-.5798-.1368-.243-.2762-.486-.4181-.7265-.1115-.1874-.2204-.3747-.3344-.5595-.1495-.2405-.3015-.4759-.4561-.7114-.1166-.1797-.2331-.3569-.3547-.5341-.1622-.238-.3319-.4709-.5017-.7038-.1216-.1671-.2407-.3342-.3649-.4987-.1824-.243-.3724-.4785-.5625-.7139-.119-.1468-.2356-.2987-.3547-.4456-.2153-.2582-.4383-.5113-.6613-.7645-.1039-.1165-.2027-.238-.3091-.3519-.6638-.7291-1.3632-1.4253-2.0929-2.0911-.1165-.1063-.2381-.2075-.3572-.3113-.2509-.2228-.5017-.4431-.7602-.6582-.1469-.1215-.2989-.238-.4484-.3595-.2357-.1899-.4713-.3798-.7145-.562-.1622-.1241-.3294-.2405-.4941-.3595-.2357-.1696-.4688-.3392-.7095-.5038-.1748-.119-.3547-.2354-.532-.3519-.2357-.1544-.4739-.3088-.7146-.4582-.1849-.1139-.3699-.2228-.5574-.3341-.2407-.1418-.4839-.2836-.7297-.4178-.19-.1063-.3851-.2101-.5777-.3113-.2483-.1317-.4966-.2583-.7475-.3823-.1976-.0987-.3952-.1924-.5954-.2861-.2534-.119-.5067-.2329-.7652-.3468-.2027-.0886-.4054-.1772-.6106-.2607-.2584-.1064-.522-.2102-.7855-.3089-.2077-.0785-.413-.1569-.6207-.2329-.2686-.0962-.5423-.1873-.8134-.2759-.2077-.0684-.413-.1367-.6207-.2-.2838-.0861-.5676-.1646-.8539-.2431-.2027-.0556-.4054-.1139-.6106-.167-.3015-.076-.6081-.1443-.9122-.2102-.1925-.043-.3851-.0911-.5802-.1291-.2559-.0531-.5169-.0962-.7779-.1392c4.8876,11.5996,14.1839,20.8879,25.791,25.7712c0,0,0-.005,0-.0076-.0456-.2582-.0887-.5189-.1394-.7746-.0354-.1798-.081-.357-.1191-.5367l.0026-.0025Z" fill="#214820"/><path d="M120.424,36.0195c-1.754-1.4835-4.044-2.1215-6.287-1.7443-14.5535,2.4379-27.2678,9.5086-36.7515,19.5614-.4283.4531-.8387.9189-1.2543,1.3847-.3851.4304-.7626.8684-1.1351,1.3088-3.0126,3.5695-5.6401,7.4605-7.8318,11.6148-.3065.5823-.6131,1.1645-.902,1.7569-.304.6202-.5979,1.2481-.8817,1.8784c0,0,0,.0051-.0026.0076-2.9695,6.5922-4.8647,13.754-5.5083,21.255c0,.0025,0,.005,0,.0076-.0405.481-.076.967-.109,1.4505.109.0355.2154.076.3269.1089c4.0591,1.3164,8.3512,2.1113,12.803,2.3037.0076-.1367.0177-.2709.0228-.405.0177-.4127.0456-.8228.0709-1.2329.0304-.4557.0634-.9114.1039-1.3645.0355-.3696.0735-.7367.1166-1.1063c0-.0051,0-.0127,0-.0177.005-.0329.0101-.0658.0126-.1013.0533-.4455.1065-.8911.1698-1.3341.0583-.4076.1216-.8126.19-1.2177.0735-.438.1495-.8708.2331-1.3063.0786-.4025.1597-.8025.2483-1.1999.0076-.038.0152-.0785.0229-.1165.0861-.3873.1773-.7746.2711-1.1594.0962-.3975.1976-.7949.3065-1.1899.1065-.3949.2179-.7873.3345-1.1771c0,0,0,0,0-.0026.0076-.0228.0127-.043.0203-.0658.1165-.3924.2356-.7822.3598-1.1696.1317-.4076.2711-.8126.413-1.2176.1342-.3848.2711-.7671.4155-1.1468.1495-.3975.3091-.7924.4687-1.1873.1521-.3772.3066-.7519.4662-1.1241.1698-.3898.3472-.7721.5245-1.1569.1698-.3671.3395-.7367.5169-1.0987.1875-.3772.3826-.7518.5777-1.124.1875-.3569.3725-.7164.5676-1.0708.2027-.3696.418-.7316.6309-1.0937.2027-.3468.4028-.6961.6131-1.0379.2205-.3569.451-.7088.6816-1.0607.2179-.3367.4333-.6759.6588-1.0076.2381-.3468.4865-.6835.7297-1.0253.0633-.086.1216-.1746.185-.2607.1723-.238.342-.4785.5168-.7114.2053-.2734.4232-.5367.6335-.8075.0532-.0659.1064-.1317.1571-.2.2432-.3064.4814-.6177.7322-.919.1166-.1392.2382-.2734.3547-.4126.1673-.1975.3421-.3899.5119-.5874.2483-.2835.4915-.5746.7449-.8531.3471-.3797.7069-.7443,1.0641-1.1139.408-.4227.8235-.8379,1.2466-1.2455.375-.362.7475-.7291,1.1352-1.081.2736-.2506.5599-.4886.8412-.7316.337-.2937.6689-.5924,1.0109-.8759.299-.2481.6081-.4835.9147-.724.337-.2658.6715-.5393,1.0135-.7975.3167-.2379.641-.4632.9603-.6936.3446-.2481.6866-.4987,1.0388-.7392.3294-.2228.6639-.4355.9983-.6532.3573-.2303.7095-.4658,1.0718-.6886.3395-.2075.6841-.405,1.0287-.6075.3674-.2152.7348-.4304,1.1072-.6355.3497-.1923.7047-.3746,1.0587-.5594.378-.1975.755-.395,1.138-.5823.36-.1772.725-.3443,1.09-.5139.387-.1797.772-.3569,1.165-.5266.37-.1594.743-.3113,1.115-.4632.398-.162.796-.3215,1.198-.4734.375-.1418.755-.276,1.136-.4101.407-.1443.818-.2836,1.231-.4177.383-.1241.77-.2405,1.158-.357.418-.124.836-.243,1.259-.3569.39-.1064.783-.2051,1.178-.3013.429-.1038.857-.2025,1.287-.2987.398-.0861.796-.1696,1.196-.2456.436-.0835.872-.162,1.313-.2354.403-.0684.806-.1317,1.214-.1899.443-.0633.889-.119,1.337-.1696.408-.0481.814-.0937,1.224-.1316.454-.0431.907-.0735,1.366-.1038.41-.0279.821-.0532,1.236-.0709.155-.0076.307-.0203.459-.0279v-4.5011c0-2.3594-1.034-4.5897-2.84-6.1137v.0127Z" fill="#214820"/><path d="M122.886,50.2139c-.367.0152-.734.043-1.099.0658-.441.0304-.879.0582-1.315.1013-.37.0354-.738.0784-1.105.1215-.428.0506-.856.1012-1.279.162-.368.0532-.735.1139-1.1.1747-.418.0709-.834.1417-1.247.2228-.367.0708-.732.1493-1.094.2278-.406.0886-.809.1823-1.209.2785-.365.0886-.725.1822-1.087.281-.395.1063-.788.2177-1.178.3341-.36.1064-.717.2177-1.072.3317-.385.124-.765.2557-1.145.3873-.355.124-.709.2506-1.059.3848-.373.1418-.743.2886-1.112.438-.35.1417-.697.2835-1.042.4328-.362.157-.722.3216-1.079.4886-.342.1595-.684.3165-1.021.4836-.352.1721-.697.3544-1.044.5341-.335.1747-.669.3468-1.001.5291-.342.1874-.677.3873-1.014.5823-.324.1898-.6532.3772-.9725.5746-.3294.2026-.6537.4177-.978.6279-.3167.205-.636.4075-.9451.6202-.3192.2177-.6309.4455-.9451.6709-.3066.2202-.6157.4354-.9172.6607-.3116.2329-.6132.4785-.9172.7215-.2914.2304-.5904.4582-.8767.6962-.3015.2506-.5929.5113-.8893.7696-.2787.243-.5625.4784-.8362.729-.3065.2785-.6004.5722-.902.8582-.4915.4709-.9729.9519-1.4442,1.443-.2838.2962-.5726.5873-.8488.8886-.2534.2759-.4915.5645-.7399.8455-.2533.2912-.5118.5798-.7601.876-.2052.2481-.4003.5037-.603.7569-.0355.043-.071.0886-.1039.1316-.2382.2988-.4789.5975-.7094.9013-.147.1949-.2838.3949-.4282.5924-.0811.1113-.1622.2227-.2407.3341-.223.3114-.4485.6177-.6639.9342-.0836.124-.1621.2506-.2458.3772-.1292.1924-.2533.3848-.38.5772-.2078.3215-.4206.6404-.6208.9695-.2001.3241-.3902.6532-.5827.9823-.1951.3316-.3902.6633-.5752,1-.185.3316-.3598.6708-.5346,1.0075-.1799.3443-.3598.6861-.5296,1.0329-.1672.3417-.3268.686-.489,1.0329-.1647.3544-.3268.7063-.4814,1.0657-.152.3494-.2964.7013-.4383,1.0532-.147.3645-.294.7291-.4333,1.0987-.1343.3544-.2635.7139-.3902,1.0708-.1318.3747-.261.7494-.3826,1.1266-.1165.362-.2306.7265-.3395,1.0911-.114.3822-.223.767-.3294,1.1543-.0988.3697-.1951.7393-.2863,1.1114-.0963.3899-.1875.7848-.2737,1.1797-.081.3747-.1621.7493-.2356,1.1265-.0785.4-.1495.8025-.2154,1.2076-.0633.3772-.1241.7544-.1799,1.1367-.0456.324-.0886.6506-.1292.9772c0,.0025,0,.0075,0,.0101-.0101.0835-.0177.1671-.0279.2506-.0456.3797-.0886.762-.1241,1.1443-.038.4202-.0684.843-.0963,1.2657-.0253.3823-.0532.7646-.0684,1.1494-.0051.1088-.0152.2177-.0203.324.0026,0,.0076,0,.0102,0c.2103-.0051.4231-.0076.6334-.0152.0051,0,.0076,0,.0127,0c4.4517-.1924,8.7439-.9873,12.8055-2.3037c0-.0076,0-.0127,0-.0203.0431-.367.0861-.7366.1394-1.0986.0228-.1469.0481-.2912.0734-.438.0152-.0861.0304-.1722.0456-.2582.0558-.3317.1115-.6658.1774-.9949.0481-.2431.1039-.4836.1596-.7241.0684-.3139.1394-.6253.2179-.9366.0634-.2481.1318-.4911.1977-.7367.081-.2987.1646-.5975.2559-.8936.043-.1393.0836-.276.1267-.4152.0354-.1089.0734-.2152.1089-.3215.0937-.2886.19-.5747.2914-.8608.0887-.2455.1799-.4885.2711-.7316.1064-.281.2154-.5595.3294-.8354.0709-.1747.1419-.3519.2179-.5266.0279-.0658.0583-.1291.0887-.1949.119-.2709.2407-.5392.3648-.8076.1115-.2379.2255-.4759.3421-.7113.1292-.2633.2635-.5215.4003-.7797.1216-.2329.2458-.4633.3725-.6937.1419-.2557.2888-.5088.4383-.7595.1318-.2253.2635-.448.4003-.6708.1546-.2506.3142-.4962.4764-.7418.1419-.2151.2812-.4329.4282-.6455.1672-.243.3395-.481.5143-.7215.1495-.2076.2965-.4177.451-.6202.1825-.2405.3725-.476.56-.7139.1546-.1924.304-.3899.4637-.5798.2052-.2455.418-.486.6283-.7265.1521-.1722.299-.3494.4536-.519.2812-.3063.5701-.605.8589-.9012.1799-.1823.3594-.362.5424-.5418.299-.2936.6-.5848.912-.8683.167-.1519.34-.2962.509-.4455.244-.2127.484-.4279.735-.6355.19-.1595.388-.3088.583-.4632.235-.1874.471-.3772.712-.5595.205-.1544.413-.3013.621-.4506.238-.1722.478-.3469.722-.5139.213-.1469.43-.2861.646-.4279.246-.162.491-.3215.742-.4759.221-.1367.444-.2683.669-.4.253-.1494.507-.2962.765-.4405.228-.1266.459-.2481.689-.3696.261-.1367.522-.2709.786-.4025.236-.1165.471-.2278.709-.3392.269-.1241.538-.2481.809-.3646.238-.1038.478-.2076.719-.3063.276-.1139.555-.2228.834-.3291.243-.0937.486-.1848.732-.2709.284-.1012.573-.1974.862-.2911.245-.081.489-.1595.737-.2354.296-.0912.598-.1722.897-.2557.243-.0658.486-.1342.735-.1975.311-.0785.625-.1468.94-.2177.24-.0532.478-.1089.719-.157.33-.0658.664-.1215.998-.1772.231-.0405.462-.0835.695-.1189.362-.0532.727-.0962,1.094-.1393.01,0,.018,0,.028-.0025c1.381-4.2505,2.182-8.7592,2.321-13.4375.013,0,.025,0,.038,0v-.0127c0,0-.025,0-.038,0-.114.0051-.228.0152-.342.0203l-.003.0076Z" fill="#214820"/><path d="M118.148,67.7069c-.307.0684-.613.1342-.917.2127-.205.0506-.406.1113-.608.167-.287.0785-.573.157-.854.2431-.208.0633-.416.1341-.623.2-.274.0886-.545.1797-.816.2759-.208.0734-.411.1519-.616.2304-.266.1012-.53.205-.79.3114-.206.0835-.406.1721-.609.2607-.255.1114-.511.2278-.765.3468-.2.0937-.398.1899-.595.2886-.251.1241-.499.2506-.745.3823-.193.1013-.388.205-.578.3114-.246.1367-.486.2759-.727.4177-.188.1114-.375.2202-.56.3341-.241.1494-.476.3013-.712.4557-.177.1165-.357.2329-.535.3544-.238.1621-.471.3317-.706.5013-.168.1215-.335.238-.497.362-.243.1823-.479.3721-.715.562-.149.119-.299.2354-.446.357-.258.2151-.511.4379-.762.6607-.117.1038-.238.2025-.352.3088-.73.6633-1.427,1.362-2.093,2.0911-.107.1165-.205.2354-.309.3544-.223.2507-.446.5038-.662.762-.121.1443-.235.2962-.354.443-.19.238-.3805.4734-.5654.7165-.1242.1645-.2433.3316-.3624.4962-.1697.2329-.3395.4658-.5016.7037-.1217.1772-.2357.3544-.3548.5342-.1545.2354-.3091.4709-.456.7114-.1141.1848-.2255.3721-.3345.5594-.1419.2405-.2812.481-.4181.7266-.1064.1924-.2103.3848-.3141.5797-.1293.2456-.2585.4937-.3826.7443-.0988.1975-.1951.3949-.2889.5949-.1191.2532-.2331.5089-.3471.7645-.0887.2-.1748.4026-.261.6051-.1089.2633-.2128.5265-.3142.7924-.0785.2025-.1545.405-.228.6101-.0988.2734-.19.5493-.2812.8278-.0659.2025-.1343.4025-.1951.605-.0887.2886-.1673.5797-.2483.8709-.0533.1974-.1115.3924-.1622.5898-.0811.3139-.1495.6329-.2204.9519-.0406.1797-.0837.3569-.1191.5367-.0532.2557-.0938.5164-.1419.7772c0,.0025,0,.005,0,.0076C105.315,88.3239,114.611,79.0356,119.496,67.436c-.261.0431-.519.0861-.778.1393-.192.0379-.385.086-.575.1291l.005.0025Z" fill="#214820"/></g><g><path d="M64.0028,73.646c6.7575,5.0985,13.0564,3.6378,20.0242,3.1543c10.8824-.7544,22.786-10.9389,16.386-32.3002C94.6687,25.3363,81.6326,10.6102,65.2367,1.90926c-2.891-1.53412-11.5792-6.13396-13.3274,8.47054-2.6351,22.0043-12.3242,44.8364,12.096,63.2687l-.0025-.0025Z" fill="#5d9b31"/><path d="M55.7573,16.4075c.005,19.5107,12.4305,54.0841,29.442,54.0841c8.146,0,13.8444-7.8579,13.8444-16.7032c0-1.0936-.1014-2.1619-.2939-3.1923-.0127-.043-.0203-.0784-.0279-.1215-.0583-.281-.1191-.5569-.1824-.8329-.0076-.0253-.0127-.0455-.0152-.0658C93.8977,29.0754,82.1766,13.0228,65.0155,4.08894c-9.656-5.027667-9.2633.86073-9.2608,12.32366l.0026-.0051Z" fill="#f9e988"/><path d="M73.5511,30.9918C72.3983,41.075,77.8635,49.6569,85.5585,54.6466c2.2829,1.481,5.3183,1.2202,7.2794-.6658c2.8708-2.7619,4.7103-6.6023,4.8446-10.9236.2609-8.5111-6.4814-15.1818-14.9339-16.2779-7.0945-.919-8.8225.9367-9.1975,4.21v.0025Z" fill="#ab562b"/></g></g></g></svg>
