<svg width="193" height="192" viewBox="0 0 193 192" fill="none" xmlns="http://www.w3.org/2000/svg">
<g id="LOGO VITE">
<path id="Vector" d="M54.8446 117.867C58.6902 124.655 64.043 131.237 71.3185 137.578C73.0761 139.112 74.9438 140.631 76.9317 142.14C76.9567 142.16 76.9868 142.18 77.0118 142.2C85.8246 148.828 94.2067 149.214 103.455 148.557C105.128 148.437 106.83 148.286 108.568 148.131C109.659 148.031 110.776 147.935 111.897 147.845C112.679 147.78 113.465 147.715 114.261 147.66C124.686 146.938 134.38 141.484 140.188 133.082C140.314 132.901 140.429 132.721 140.549 132.54C144.349 126.81 146.448 119.907 146.818 112.052C146.878 110.759 146.893 109.44 146.858 108.097C146.908 107.259 146.938 106.422 146.938 105.575C146.938 104.989 146.923 104.402 146.898 103.815C146.818 102.101 146.623 100.402 146.312 98.7422L146.292 98.642L146.267 98.5467L146.257 98.5066V98.4816L146.247 98.4565C146.162 98.0454 146.072 97.6444 145.982 97.2383C145.912 97.4138 145.837 97.5842 145.767 97.7547C145.576 98.2209 145.381 98.6821 145.171 99.1383C144.885 99.7649 144.58 100.382 144.259 100.993C143.518 102.412 142.692 103.785 141.771 105.109C141.771 105.264 141.781 105.42 141.781 105.575C141.781 105.981 141.771 106.387 141.756 106.793C141.656 110.157 141.135 113.37 140.254 116.348C137.094 127.041 129.313 134.766 119.734 136.059C118.797 136.185 117.846 136.255 116.875 136.255C114.952 136.255 113.089 135.999 111.271 135.548C102.959 133.478 95.759 127.046 89.9155 119.546C88.3683 117.561 86.9111 115.501 85.5592 113.425C82.1042 108.137 79.2951 102.768 77.2071 98.3362C75.8701 95.4988 74.5983 92.5611 73.3965 89.5583C65.6303 70.1778 60.7983 47.96 60.7933 30.69V28.0933C60.7732 17.611 60.7582 8.55738 63.347 5.96563C63.7175 5.58965 64.3184 5.16354 65.6503 5.16354C67.8084 5.16354 71.0381 6.27644 75.2442 8.47216C92.2789 17.3603 106.695 30.0383 117.926 45.6991C119.433 46.0751 120.905 46.5313 122.348 47.0627C122.768 47.2181 123.189 47.3735 123.604 47.5389C123.835 47.6341 124.06 47.7344 124.29 47.8297C124.961 48.1104 125.622 48.4112 126.273 48.727C124.696 46.2505 123.054 43.8292 121.326 41.4781C109.679 25.6018 94.9728 12.9588 77.6177 3.90527C72.5303 1.24835 68.7248 0.0151367 65.6453 0.0151367C63.2318 0.0151367 61.2289 0.79216 59.6967 2.33117C58.3748 3.65963 57.4835 5.46433 56.8776 7.73023C56.6422 8.62255 56.3969 9.50986 56.1065 10.3871C55.3053 12.8085 54.6944 15.716 54.2888 19.0948C53.8832 22.4937 53.3875 25.9176 52.8517 29.3315C52.1808 33.6277 51.4397 37.9038 50.7136 42.1047C48.8059 53.1134 46.9332 63.9316 46.3022 74.4791C45.6563 85.2371 46.3022 95.7093 49.5319 105.801C50.8438 109.896 52.5763 113.922 54.8196 117.887L54.8446 117.867Z" fill="white"/>
<path id="Vector_2" d="M111.992 51.4639C109.539 51.1431 107.406 50.9927 105.553 50.9927C96.6902 50.9927 94.2216 54.4717 93.6057 59.9009C91.8331 75.4263 97.8819 89.1721 107.766 99.2483C110.741 102.281 114.055 104.978 117.616 107.294C119.583 108.573 121.837 109.204 124.07 109.204C127.014 109.204 129.938 108.111 132.167 105.961C135.592 102.662 138.276 98.5866 139.943 93.9997C140.569 92.2752 141.06 90.4805 141.385 88.6257C141.555 87.6531 141.685 86.6656 141.766 85.6579C141.806 85.1366 141.836 84.6052 141.856 84.0738C141.866 83.753 141.856 83.4422 141.856 83.1264C141.856 82.7203 141.851 82.3193 141.831 81.9182C141.761 80.1837 141.55 78.4893 141.205 76.85C140.113 71.7066 137.715 67.0695 134.355 63.1995C133.594 62.3222 132.783 61.49 131.931 60.6979C131.846 60.6177 131.756 60.5325 131.666 60.4523C130.905 59.7555 130.109 59.0938 129.277 58.4671C127.695 57.269 125.993 56.2012 124.2 55.2738C120.48 53.3488 116.349 52.0354 111.992 51.4689V51.4639Z" fill="white"/>
</g>
</svg>
