<svg width="41" height="41" viewBox="0 0 41 41" fill="none" xmlns="http://www.w3.org/2000/svg">
<g id="Capa_1" clip-path="url(#clip0_1042_5768)">
<path id="Vector" d="M0.720051 19.5247C0.913648 19.5376 1.10724 19.5515 1.29978 19.5697C1.47316 19.5858 1.64655 19.605 1.81887 19.6254C2.00928 19.6478 2.19862 19.6714 2.38796 19.6982C2.56029 19.7228 2.73154 19.7506 2.9028 19.7795C3.08895 19.8106 3.27511 19.8437 3.46019 19.8801C3.63039 19.9133 3.79846 19.9487 3.96759 19.985C4.15055 20.0257 4.33351 20.0675 4.51434 20.1124C4.68134 20.1542 4.84835 20.1959 5.01429 20.242C5.19406 20.2912 5.3717 20.3426 5.54934 20.395C5.71421 20.4443 5.87803 20.4946 6.04078 20.5471C6.21629 20.6038 6.39074 20.6648 6.56413 20.7258C6.72581 20.7826 6.88643 20.8404 7.04599 20.9003C7.21725 20.9656 7.38638 21.0341 7.55551 21.1026C7.71401 21.1669 7.8725 21.2322 8.02887 21.3007C8.17885 21.366 8.32671 21.4345 8.47457 21.5041C8.05227 19.4616 8.0161 17.3762 8.17566 15.2781C6.79283 14.8103 5.35787 14.4452 3.87717 14.1958C2.92621 14.0352 1.9529 14.3071 1.20723 14.9419C0.440293 15.5949 0.000976562 16.5488 0.000976562 17.5582V19.4841C0.0669272 19.4862 0.13075 19.4926 0.196701 19.4958C0.372215 19.5033 0.546665 19.5151 0.721115 19.5269L0.720051 19.5247Z" fill="white"/>
<path id="Vector_2" d="M9.00962 23.4697C8.93409 23.43 8.85963 23.3883 8.78304 23.3487C8.63306 23.2695 8.48308 23.1903 8.33096 23.1153C8.18949 23.0457 8.04695 22.9794 7.90441 22.9119C7.75017 22.8402 7.59487 22.7685 7.4385 22.7C7.29384 22.6368 7.14811 22.5769 7.00238 22.5169C6.84388 22.4516 6.68539 22.3885 6.52477 22.3274C6.37691 22.2718 6.22905 22.2182 6.08013 22.1647C5.91738 22.1069 5.75357 22.0512 5.58869 21.9966C5.43871 21.9485 5.28873 21.9014 5.13768 21.8564C4.97067 21.8061 4.80261 21.7579 4.63347 21.7119C4.48136 21.6701 4.32819 21.6305 4.17501 21.5931C4.00375 21.5503 3.83143 21.5106 3.65911 21.4732C3.50487 21.4389 3.35063 21.4068 3.19533 21.3758C3.01875 21.3415 2.84217 21.3105 2.66453 21.2805C2.51029 21.2548 2.35499 21.2291 2.19968 21.2066C2.01885 21.1809 1.83696 21.1585 1.65506 21.137C1.49976 21.1188 1.34339 21.1006 1.18702 21.0857C1.00194 21.0685 0.814722 21.0557 0.628571 21.0428C0.473268 21.0321 0.317965 21.0214 0.161598 21.0139C0.112667 21.0118 0.0647997 21.0075 0.0169324 21.0054C0.0116138 21.0054 0.00629516 21.0054 0.000976562 21.0054V21.0107C0.000976562 21.0107 0.0116138 21.0107 0.0169324 21.0107C0.0765006 23.0115 0.416891 24.9405 1.003 26.7593C1.00619 26.7593 1.00938 26.7593 1.01257 26.7604C1.16894 26.7786 1.32531 26.7968 1.48061 26.8203C1.57847 26.8353 1.67633 26.8535 1.77313 26.8706C1.91567 26.8952 2.05715 26.9188 2.19862 26.9477C2.3018 26.968 2.40285 26.9927 2.50497 27.0151C2.639 27.0451 2.77197 27.0751 2.90493 27.1083C3.00917 27.135 3.11236 27.1639 3.2166 27.1928C3.34425 27.2282 3.47189 27.2635 3.59848 27.302C3.70272 27.3341 3.80696 27.3684 3.91015 27.4027C4.03354 27.4433 4.15586 27.484 4.27819 27.5279C4.38137 27.5654 4.48455 27.6039 4.58773 27.6435C4.70687 27.6895 4.82601 27.7366 4.94408 27.7848C5.0462 27.8266 5.14725 27.8705 5.2483 27.9154C5.36425 27.9668 5.47913 28.0193 5.59295 28.0728C5.69294 28.1199 5.79293 28.1681 5.89079 28.2173C6.00355 28.274 6.1163 28.3318 6.22693 28.3907C6.32372 28.4421 6.42159 28.4946 6.51732 28.5481C6.62688 28.6091 6.73645 28.6733 6.84388 28.7376C6.93855 28.7932 7.03216 28.8489 7.12577 28.9067C7.2332 28.9731 7.33851 29.0427 7.44382 29.1122C7.53424 29.1722 7.62572 29.2311 7.71507 29.2921C7.82038 29.3649 7.92462 29.4409 8.0278 29.5158C8.11396 29.5779 8.20013 29.64 8.28522 29.7042C8.39053 29.7845 8.49265 29.868 8.59583 29.9504C8.67561 30.0147 8.75645 30.0768 8.8341 30.1421C8.94367 30.2341 9.05004 30.3283 9.15641 30.4236C9.22449 30.4846 9.29469 30.5424 9.36171 30.6045C9.50425 30.7351 9.64253 30.87 9.77975 31.0059C9.83613 31.0616 9.89144 31.1183 9.94675 31.174C10.0818 31.3121 10.2159 31.4513 10.3456 31.5947C10.4073 31.6632 10.4669 31.7339 10.5275 31.8035C10.6212 31.9105 10.7148 32.0165 10.8052 32.1257C10.8701 32.2049 10.9328 32.2863 10.9966 32.3665C11.0785 32.4704 11.1615 32.5732 11.2413 32.6791C11.3051 32.7637 11.3658 32.8504 11.4275 32.9371C11.503 33.042 11.5785 33.1469 11.6508 33.2529C11.7115 33.3418 11.77 33.4328 11.8285 33.5238C11.8976 33.6308 11.9678 33.7379 12.0348 33.847C12.0923 33.9402 12.1465 34.0344 12.2018 34.1286C12.2657 34.2378 12.3295 34.347 12.3901 34.4583C12.4433 34.5546 12.4954 34.6531 12.5465 34.7505C12.605 34.8629 12.6624 34.9753 12.7188 35.0888C12.7677 35.1884 12.8156 35.2879 12.8624 35.3886C12.9156 35.5042 12.9677 35.6198 13.0188 35.7365C13.0305 35.7643 13.0443 35.7911 13.056 35.8189C13.3889 34.1714 13.8602 32.5742 14.4527 31.0359C11.587 28.6487 9.91484 26.1041 9.00962 23.4697Z" fill="white"/>
<path id="Vector_3" d="M12.4419 38.8428C12.4121 38.7069 12.3824 38.5699 12.3483 38.435C12.327 38.3504 12.3026 38.2669 12.2802 38.1834C12.2462 38.0582 12.2122 37.9329 12.1749 37.8098C12.1483 37.7231 12.1196 37.6375 12.092 37.5507C12.0537 37.4319 12.0143 37.3131 11.9728 37.1964C11.942 37.1086 11.9079 37.0219 11.875 36.9352C11.8314 36.8217 11.7877 36.7083 11.742 36.5959C11.7058 36.5092 11.6697 36.4224 11.6314 36.3368C11.5835 36.2265 11.5346 36.1174 11.4835 36.0092C11.4442 35.9236 11.4027 35.839 11.3612 35.7555C11.308 35.6485 11.2538 35.5425 11.1984 35.4376C11.1548 35.3541 11.1112 35.2717 11.0655 35.1903C11.008 35.0854 10.9485 34.9826 10.8878 34.8799C10.841 34.7996 10.7942 34.7204 10.7453 34.6411C10.6825 34.5384 10.6166 34.4377 10.5517 34.3371C10.5017 34.2611 10.4528 34.184 10.4017 34.1091C10.3326 34.0074 10.2613 33.9078 10.189 33.8083C10.1379 33.7366 10.0869 33.6648 10.0347 33.5953C9.95708 33.4914 9.87624 33.3908 9.79539 33.2891C9.7454 33.2259 9.6954 33.1617 9.64434 33.0986C9.55286 32.9872 9.45819 32.8802 9.36352 32.7721C9.31991 32.7217 9.27736 32.6704 9.23269 32.6211C8.9508 32.3096 8.65402 32.0109 8.34448 31.7272C8.29448 31.6823 8.24343 31.6384 8.19343 31.5945C8.08706 31.4992 7.98069 31.405 7.87112 31.313C7.80836 31.2605 7.74348 31.2102 7.68072 31.1599C7.58073 31.0785 7.47968 30.9982 7.37756 30.9201C7.30842 30.8676 7.23715 30.8173 7.16801 30.7659C7.06802 30.6931 6.96909 30.6204 6.86697 30.5508C6.79251 30.4994 6.71699 30.4501 6.64146 30.3998C6.54041 30.3335 6.44042 30.2671 6.33724 30.2039C6.25959 30.1558 6.17981 30.1087 6.1011 30.0616C5.99898 30.0005 5.8958 29.9406 5.79155 29.8828C5.71071 29.8378 5.6288 29.7929 5.54583 29.749C5.44053 29.6933 5.33522 29.6387 5.22885 29.5852C5.14481 29.5434 5.06078 29.5028 4.97674 29.4621C4.86931 29.4118 4.76081 29.3625 4.65231 29.3143C4.56615 29.2769 4.47999 29.2383 4.39276 29.203C4.28214 29.157 4.17151 29.1131 4.05982 29.0703C3.97259 29.036 3.8843 29.0028 3.79602 28.9707C3.68113 28.929 3.56625 28.8915 3.45031 28.853C3.36308 28.8241 3.27479 28.7941 3.1865 28.7673C3.0663 28.7309 2.94504 28.6967 2.82378 28.6635C2.73761 28.6399 2.65145 28.6142 2.56423 28.5918C2.43552 28.5586 2.30681 28.5307 2.17703 28.5018C2.09513 28.4836 2.01322 28.4633 1.93132 28.4462C1.82175 28.4237 1.71113 28.4055 1.60156 28.3862C3.67688 33.348 7.62541 37.3217 12.5557 39.4102C12.5557 39.4102 12.5557 39.4081 12.5557 39.407C12.5366 39.2967 12.5185 39.1854 12.4962 39.0751C12.4802 38.9981 12.4621 38.9221 12.4451 38.846L12.4419 38.8428Z" fill="white"/>
<path id="Vector_4" d="M20.7776 33.4872C19.1267 33.4872 17.4375 33.1906 15.7005 32.0002C14.8474 34.32 14.2921 36.7821 14.0741 39.3364C14.0741 39.3374 14.0741 39.3385 14.0741 39.3396C14.056 39.5462 14.0421 39.7528 14.0283 39.9605C14.0741 39.9754 14.1198 39.9926 14.1666 40.0076C15.8909 40.5706 17.7141 40.9111 19.6043 40.9935C19.6075 40.9357 19.6118 40.8779 19.6139 40.8201C19.6214 40.6434 19.6331 40.4679 19.6448 40.2923C19.6575 40.0975 19.6714 39.9026 19.6894 39.7089C19.7043 39.5505 19.7213 39.3931 19.7384 39.2357C19.7384 39.2325 19.7384 39.2304 19.7384 39.2272C19.7405 39.2132 19.7426 39.1983 19.7437 39.1843C19.766 38.9938 19.7894 38.8032 19.816 38.6138C19.8405 38.4393 19.8681 38.2659 19.8969 38.0935C19.9277 37.9062 19.9607 37.721 19.9958 37.5347C20.0288 37.3624 20.0639 37.1911 20.1011 37.0209C20.1043 37.0048 20.1075 36.9877 20.1117 36.9716C20.1479 36.8057 20.1873 36.6398 20.2266 36.476C20.2681 36.3058 20.3106 36.1366 20.3564 35.9675C20.4021 35.7984 20.4489 35.6314 20.4979 35.4644C20.4979 35.4644 20.4979 35.4644 20.4979 35.4633C20.5011 35.4537 20.5032 35.4451 20.5064 35.4355C20.5553 35.2685 20.6064 35.1015 20.6595 34.9355C20.7159 34.7611 20.7744 34.5876 20.8351 34.4153C20.8925 34.2515 20.9499 34.0866 21.0106 33.925C21.067 33.7762 21.1255 33.6285 21.185 33.4807C21.0489 33.484 20.9127 33.4893 20.7766 33.4893L20.7776 33.4872Z" fill="white"/>
<path id="Vector_5" d="M39.793 14.9421C39.0484 14.3073 38.0762 14.0343 37.1231 14.196C35.1052 14.5364 33.1714 15.0898 31.3418 15.8274C31.3875 16.0094 31.428 16.1924 31.4599 16.3776C31.696 17.0167 31.9141 17.6644 32.1098 18.3227C32.4374 19.4253 32.6523 20.4455 32.7757 21.3897C32.8406 21.3597 32.9055 21.3297 32.9704 21.3008C33.1267 21.2323 33.2852 21.1681 33.4437 21.1028C33.6128 21.0332 33.782 20.9658 33.9532 20.9005C34.1128 20.8395 34.2745 20.7827 34.4351 20.7249C34.6085 20.6639 34.7829 20.6039 34.9584 20.5461C35.1212 20.4937 35.285 20.4434 35.4499 20.3941C35.6275 20.3406 35.8052 20.2892 35.9849 20.2411C36.1509 20.1961 36.3179 20.1533 36.4849 20.1115C36.6668 20.0666 36.8487 20.0248 37.0316 19.9841C37.1997 19.9467 37.3688 19.9124 37.539 19.8792C37.7241 19.8428 37.9092 19.8096 38.0964 19.7786C38.2677 19.7497 38.4389 19.7219 38.6113 19.6972C38.7995 19.6705 38.9899 19.6469 39.1793 19.6244C39.3516 19.6041 39.525 19.5848 39.6994 19.5688C39.892 19.5506 40.0856 19.5367 40.2792 19.5238C40.4536 19.512 40.6281 19.5003 40.8036 19.4928C40.8685 19.4896 40.9334 19.4831 40.9993 19.481V17.5552C40.9993 16.5457 40.56 15.5919 39.793 14.9389V14.9421Z" fill="white"/>
<path id="Vector_6" d="M40.839 21.0139C40.6826 21.0203 40.5273 21.0321 40.372 21.0428C40.1848 21.0556 39.9986 21.0685 39.8136 21.0856C39.6561 21.1006 39.5008 21.1188 39.3445 21.137C39.1626 21.1584 38.9817 21.1809 38.8009 21.2066C38.6445 21.229 38.4892 21.2547 38.3339 21.2804C38.1573 21.3104 37.9797 21.3415 37.8042 21.3757C37.6489 21.4068 37.4936 21.4389 37.3393 21.4731C37.167 21.5106 36.9958 21.5502 36.8256 21.593C36.6713 21.6316 36.5171 21.6712 36.3639 21.7129C36.1958 21.7589 36.0288 21.806 35.8629 21.8564C35.7108 21.9024 35.5587 21.9495 35.4076 21.9987C35.2449 22.0523 35.0821 22.1079 34.9204 22.1647C34.7694 22.2182 34.6194 22.2717 34.4705 22.3284C34.312 22.3884 34.1556 22.4516 33.9982 22.5158C33.8503 22.5768 33.7025 22.6368 33.5557 22.701C33.4015 22.7684 33.2493 22.8391 33.0972 22.9097C33.0323 22.9397 32.9685 22.9718 32.9036 23.0018C32.9823 25.982 32.1048 28.0535 31.1825 29.3937C29.6561 31.6129 27.117 33.0527 24.3896 33.2432C23.996 33.2711 23.5982 33.3064 23.2142 33.3417C23.0993 33.3524 22.9834 33.362 22.8674 33.3728C22.8451 33.4231 22.8206 33.4734 22.7994 33.5248C22.7355 33.6736 22.6738 33.8245 22.6132 33.9754C22.5505 34.1307 22.4877 34.287 22.4292 34.4454C22.3717 34.5974 22.3175 34.7505 22.2643 34.9036C22.209 35.0631 22.1537 35.2236 22.1016 35.3853C22.0516 35.5405 22.0037 35.6957 21.958 35.852C21.909 36.0158 21.8633 36.1796 21.8186 36.3455C21.7761 36.5029 21.7356 36.6613 21.6963 36.8208C21.6559 36.9878 21.6176 37.1559 21.5803 37.325C21.5452 37.4845 21.5123 37.6451 21.4804 37.8067C21.4474 37.978 21.4176 38.1504 21.3889 38.3238C21.3623 38.4854 21.3357 38.6471 21.3123 38.8098C21.2921 38.949 21.274 39.0881 21.257 39.2273C21.257 39.2284 21.257 39.2305 21.257 39.2316C21.2527 39.2669 21.2495 39.3033 21.2453 39.3386C21.2261 39.5013 21.207 39.6641 21.1921 39.8278C21.1751 40.0077 21.1634 40.1886 21.1506 40.3695C21.14 40.5333 21.1283 40.696 21.1208 40.8609C21.1187 40.908 21.1144 40.954 21.1123 41C21.1134 41 21.1155 41 21.1176 41C21.207 40.9968 21.2974 40.9968 21.3857 40.9936C21.3878 40.9936 21.3899 40.9936 21.391 40.9936C23.2823 40.9123 25.1055 40.5718 26.8298 40.0077C26.8298 40.0045 26.8298 40.0023 26.8298 39.9991C26.8479 39.8418 26.866 39.6844 26.8894 39.5281C26.8989 39.4649 26.9096 39.4029 26.9202 39.3408C26.9266 39.3033 26.934 39.2669 26.9394 39.2305C26.9638 39.0881 26.9872 38.9458 27.0149 38.8055C27.0351 38.7017 27.0596 38.5989 27.0819 38.4961C27.1117 38.3623 27.1404 38.2285 27.1744 38.0958C27.201 37.9898 27.2298 37.886 27.2585 37.7811C27.2936 37.6526 27.3287 37.5252 27.367 37.3978C27.3851 37.3389 27.4021 37.279 27.4202 37.2201C27.4351 37.1741 27.4521 37.1281 27.467 37.082C27.5074 36.9589 27.5478 36.8358 27.5904 36.7138C27.6276 36.6089 27.6669 36.505 27.7063 36.4001C27.752 36.2802 27.7978 36.1614 27.8467 36.0426C27.8776 35.9676 27.9073 35.8927 27.9393 35.8178C27.951 35.7899 27.9648 35.7632 27.9765 35.7343C28.0265 35.6187 28.0786 35.503 28.1318 35.3896C28.1786 35.2879 28.2275 35.1862 28.2765 35.0855C28.3318 34.9731 28.3892 34.8629 28.4467 34.7516C28.4988 34.652 28.5509 34.5535 28.6051 34.455C28.6658 34.3458 28.7285 34.2377 28.7913 34.1296C28.8477 34.0333 28.903 33.938 28.9615 33.8427C29.0274 33.7357 29.0955 33.6307 29.1636 33.5258C29.2242 33.4338 29.2827 33.3406 29.3455 33.2496C29.4168 33.1458 29.4902 33.043 29.5636 32.9413C29.6274 32.8525 29.6901 32.7636 29.755 32.6759C29.8327 32.5731 29.9135 32.4725 29.9933 32.3708C30.0582 32.2883 30.1231 32.2038 30.1901 32.1235C30.2773 32.0186 30.3677 31.9158 30.4571 31.813C30.5209 31.7392 30.5837 31.6642 30.6496 31.5914C30.7688 31.4598 30.8911 31.3324 31.0145 31.2061C31.09 31.1279 31.1676 31.0508 31.2442 30.9738C31.3719 30.8485 31.4995 30.7233 31.6314 30.6023C31.7027 30.537 31.7761 30.476 31.8474 30.4118C31.9505 30.3208 32.0537 30.2287 32.159 30.1399C32.2399 30.0724 32.3239 30.0071 32.4058 29.9418C32.5058 29.8615 32.6058 29.7802 32.7079 29.7031C32.7941 29.6367 32.8834 29.5746 32.9717 29.5104C33.0738 29.4365 33.1749 29.3627 33.2781 29.291C33.3685 29.2289 33.461 29.1689 33.5525 29.1079C33.6567 29.0394 33.7621 28.9709 33.8684 28.9045C33.962 28.8467 34.0567 28.79 34.1524 28.7343C34.2599 28.6701 34.3684 28.6069 34.4769 28.5459C34.5737 28.4913 34.6715 28.4399 34.7694 28.3875C34.88 28.3286 34.9907 28.2708 35.1023 28.2151C35.2023 28.1659 35.3023 28.1177 35.4034 28.0695C35.5172 28.016 35.631 27.9635 35.747 27.9132C35.848 27.8683 35.9501 27.8244 36.0533 27.7826C36.1703 27.7345 36.2895 27.6873 36.4075 27.6413C36.5107 27.6017 36.6139 27.5621 36.7192 27.5246C36.8405 27.4807 36.9628 27.4401 37.0851 27.3994C37.1894 27.3651 37.2936 27.3309 37.3989 27.2988C37.5255 27.2602 37.6531 27.2249 37.7808 27.1896C37.884 27.1607 37.9882 27.1318 38.0925 27.105C38.2244 27.0718 38.3584 27.0418 38.4924 27.0119C38.5945 26.9894 38.6956 26.9648 38.7988 26.9444C38.9392 26.9166 39.0807 26.892 39.2221 26.8684C39.3211 26.8513 39.4179 26.8331 39.5178 26.8181C39.6721 26.7946 39.8274 26.7764 39.9827 26.7582C39.9869 26.7582 39.9901 26.7582 39.9944 26.7571C40.5816 24.9383 40.9209 23.0093 40.9805 21.0085C40.9858 21.0085 40.9911 21.0085 40.9964 21.0085V21.0032C40.9964 21.0032 40.9858 21.0032 40.9805 21.0032C40.9315 21.0053 40.8837 21.0096 40.8358 21.0117L40.839 21.0139Z" fill="white"/>
<path id="Vector_7" d="M38.827 28.4976C38.6973 28.5265 38.5664 28.5554 38.4377 28.5886C38.3505 28.6111 38.2654 28.6357 38.1792 28.6593C38.058 28.6925 37.9367 28.7267 37.8165 28.7631C37.7282 28.7899 37.6399 28.8199 37.5516 28.8488C37.4357 28.8873 37.3197 28.9258 37.2059 28.9665C37.1176 28.9986 37.0315 29.0318 36.9443 29.065C36.8315 29.1078 36.7198 29.1528 36.6081 29.1988C36.522 29.2352 36.4358 29.2727 36.3496 29.3101C36.2411 29.3583 36.1326 29.4076 36.0252 29.4579C35.9401 29.4986 35.8561 29.5392 35.772 29.581C35.6657 29.6345 35.5604 29.6891 35.4561 29.7448C35.3742 29.7887 35.2923 29.8325 35.2104 29.8786C35.1062 29.9364 35.004 29.9963 34.9009 30.0574C34.8211 30.1045 34.7424 30.1516 34.6636 30.2008C34.5615 30.264 34.4615 30.3303 34.3615 30.3956C34.286 30.4459 34.2094 30.4952 34.135 30.5466C34.0339 30.6162 33.9339 30.6889 33.835 30.7617C33.7648 30.8131 33.6935 30.8634 33.6233 30.917C33.5201 30.9951 33.4202 31.0765 33.3191 31.1578C33.2563 31.2092 33.1925 31.2584 33.1298 31.3098C33.0202 31.4019 32.9128 31.4972 32.8053 31.5924C32.7553 31.6363 32.7043 31.6792 32.6553 31.7241C32.3458 32.0089 32.049 32.3065 31.7661 32.618C31.7214 32.6672 31.6788 32.7186 31.6342 32.7689C31.5395 32.877 31.4448 32.9841 31.3533 33.0954C31.3023 33.1575 31.2534 33.2217 31.2023 33.2849C31.1215 33.3866 31.0406 33.4872 30.963 33.5911C30.9108 33.6606 30.8598 33.7324 30.8087 33.8041C30.7364 33.9036 30.6651 34.0032 30.596 34.1049C30.5449 34.1798 30.4949 34.2569 30.446 34.3329C30.38 34.4335 30.3152 34.5342 30.2524 34.6369C30.2035 34.7162 30.1567 34.7954 30.1099 34.8757C30.0492 34.9784 29.9897 35.0823 29.9322 35.1861C29.8865 35.2685 29.8429 35.351 29.7993 35.4334C29.7439 35.5383 29.6897 35.6443 29.6376 35.7513C29.5961 35.8359 29.5557 35.9205 29.5152 36.0061C29.4642 36.1142 29.4153 36.2234 29.3684 36.3337C29.3312 36.4193 29.294 36.506 29.2578 36.5927C29.2121 36.7051 29.1674 36.8186 29.1249 36.9321C29.0919 37.0188 29.0589 37.1055 29.027 37.1933C28.9855 37.31 28.9462 37.4288 28.9079 37.5476C28.8802 37.6343 28.8504 37.72 28.8249 37.8067C28.7877 37.9298 28.7536 38.055 28.7196 38.1803C28.6962 38.2648 28.6728 38.3483 28.6515 38.4329C28.6175 38.5678 28.5877 38.7037 28.5579 38.8397C28.5409 38.9168 28.5228 38.9917 28.5068 39.0688C28.4845 39.179 28.4664 39.2904 28.4473 39.4006C28.4473 39.4017 28.4473 39.4028 28.4473 39.4039C33.3776 37.3153 37.3261 33.3416 39.4015 28.3799C39.2908 28.3992 39.1802 28.4174 39.0717 28.4398C38.9898 28.457 38.9089 28.4762 38.827 28.4944V28.4976Z" fill="white"/>
<path id="Vector_8" d="M11.6506 25.1695C12.4675 26.6189 13.6047 28.0245 15.1502 29.3787C15.5236 29.7062 15.9204 30.0306 16.3427 30.3528C16.348 30.3571 16.3544 30.3614 16.3597 30.3657C18.2318 31.7808 20.0125 31.8633 21.9772 31.723C22.3325 31.6974 22.6941 31.6652 23.0633 31.632C23.2951 31.6106 23.5324 31.5903 23.7706 31.571C23.9366 31.5571 24.1036 31.5432 24.2727 31.5314C26.4874 31.3773 28.5467 30.2126 29.7806 28.4184C29.8072 28.3799 29.8317 28.3413 29.8572 28.3028C30.6646 27.0792 31.1103 25.6052 31.189 23.9277C31.2018 23.6515 31.205 23.37 31.1975 23.0831C31.2082 22.9043 31.2145 22.7255 31.2145 22.5446C31.2145 22.4194 31.2113 22.2941 31.206 22.1689C31.189 21.8028 31.1475 21.4399 31.0816 21.0855L31.0773 21.0641L31.072 21.0438L31.0699 21.0352V21.0299L31.0677 21.0245C31.0497 20.9367 31.0305 20.8511 31.0114 20.7644C30.9965 20.8018 30.9805 20.8382 30.9656 20.8746C30.9252 20.9742 30.8837 21.0727 30.839 21.1701C30.7784 21.3039 30.7135 21.4356 30.6454 21.5662C30.488 21.8691 30.3125 22.1624 30.1168 22.4451C30.1168 22.4782 30.1189 22.5114 30.1189 22.5446C30.1189 22.6313 30.1168 22.718 30.1136 22.8047C30.0923 23.523 29.9817 24.2092 29.7945 24.8451C29.1233 27.1285 27.4702 28.7781 25.4353 29.0543C25.2364 29.0811 25.0343 29.096 24.828 29.096C24.4195 29.096 24.0238 29.0415 23.6377 28.9451C21.8719 28.503 20.3423 27.1295 19.1009 25.5281C18.7722 25.1042 18.4627 24.6642 18.1755 24.221C17.4415 23.0916 16.8447 21.9451 16.4012 20.9988C16.1172 20.3929 15.847 19.7656 15.5917 19.1244C13.9419 14.9858 12.9154 10.2414 12.9143 6.55354V5.99902C12.9101 3.76062 12.9069 1.8273 13.4568 1.27385C13.5355 1.19357 13.6632 1.10257 13.9461 1.10257C14.4046 1.10257 15.0907 1.34022 15.9842 1.8091C19.603 3.70709 22.6654 6.41438 25.0513 9.75861C25.3715 9.83889 25.6843 9.93631 25.9906 10.0498C26.08 10.083 26.1693 10.1162 26.2576 10.1515C26.3065 10.1718 26.3544 10.1932 26.4033 10.2136C26.5459 10.2735 26.6863 10.3377 26.8246 10.4052C26.4895 9.87636 26.1406 9.35931 25.7736 8.85725C23.2994 5.46699 20.1753 2.76719 16.4884 0.833879C15.4077 0.266516 14.5992 0.00317383 13.9451 0.00317383C13.4323 0.00317383 13.0069 0.169101 12.6814 0.497743C12.4005 0.781424 12.2112 1.1668 12.0825 1.65067C12.0325 1.84122 11.9804 2.03069 11.9187 2.21803C11.7485 2.73508 11.6187 3.35597 11.5325 4.07748C11.4464 4.80328 11.3411 5.53443 11.2272 6.26343C11.0847 7.18085 10.9273 8.09398 10.773 8.99106C10.3678 11.3419 9.96993 13.652 9.8359 15.9043C9.69868 18.2016 9.8359 20.4379 10.522 22.5928C10.8007 23.4674 11.1687 24.327 11.6453 25.1737L11.6506 25.1695Z" fill="white"/>
<path id="Vector_9" d="M23.7916 10.9898C23.2704 10.9213 22.8172 10.8892 22.4236 10.8892C20.5409 10.8892 20.0164 11.6321 19.8856 12.7914C19.509 16.1068 20.794 19.0421 22.8938 21.1938C23.5257 21.8414 24.2298 22.4173 24.9861 22.9119C25.4042 23.1849 25.8829 23.3198 26.3573 23.3198C26.9827 23.3198 27.604 23.0864 28.0773 22.6271C28.8049 21.9228 29.375 21.0524 29.7293 20.0729C29.8622 19.7047 29.9665 19.3215 30.0356 18.9254C30.0718 18.7177 30.0994 18.5068 30.1165 18.2916C30.125 18.1803 30.1313 18.0668 30.1356 17.9534C30.1377 17.8849 30.1356 17.8185 30.1356 17.751C30.1356 17.6643 30.1345 17.5787 30.1303 17.4931C30.1154 17.1227 30.0707 16.7608 29.9973 16.4108C29.7654 15.3124 29.2559 14.3222 28.5422 13.4958C28.3805 13.3085 28.2081 13.1308 28.0273 12.9616C28.0092 12.9445 27.9901 12.9263 27.9709 12.9092C27.8093 12.7604 27.6401 12.6191 27.4635 12.4853C27.1274 12.2294 26.7657 12.0014 26.3849 11.8034C25.5946 11.3923 24.717 11.1118 23.7916 10.9909V10.9898Z" fill="white"/>
</g>
<defs>
<clipPath id="clip0_1042_5768">
<rect width="41" height="41" fill="white"/>
</clipPath>
</defs>
</svg>
