<svg width="150" height="133" viewBox="0 0 150 133" fill="none" xmlns="http://www.w3.org/2000/svg">
  <g id="Group">
    <g id="Group_2">
      <path id="Vector"
        d="M8.13584 123.472L4.35297 131.257C4.24655 131.485 4.09453 131.705 3.89689 131.917C3.44082 132.358 2.90113 132.578 2.28037 132.578C1.6596 132.578 1.10218 132.355 0.661307 131.907C0.220436 131.459 0 130.925 0 130.302C0 129.862 0.114018 129.467 0.342055 129.118L13.8545 101.298C13.9609 101.055 14.1205 100.827 14.3334 100.615C14.7742 100.159 15.3139 99.9312 15.9524 99.9312C16.5909 99.9312 17.1154 100.159 17.5715 100.615C17.7539 100.797 17.8983 100.994 18.0048 101.207L31.5172 129.026C31.7757 129.391 31.9049 129.816 31.9049 130.302C31.9049 130.925 31.6819 131.459 31.2334 131.907C30.785 132.355 30.2503 132.578 29.627 132.578C29.0037 132.578 28.4488 132.358 28.008 131.917C27.8103 131.705 27.6583 131.485 27.5519 131.257H27.5291L23.7462 123.472H8.13838H8.13584ZM21.5343 118.918L15.9524 107.422L10.3478 118.918H21.5368H21.5343Z"
        fill="#214820" />
      <path id="Vector_2"
        d="M41.7892 131.1C41.6827 131.404 41.5079 131.669 41.2647 131.897C40.8238 132.353 40.2841 132.581 39.6456 132.581C39.0071 132.581 38.4902 132.353 38.0519 131.897C37.8086 131.669 37.6338 131.411 37.5274 131.123L28.6644 113.389C28.3907 113.009 28.2539 112.576 28.2539 112.09C28.2539 111.468 28.4769 110.933 28.9254 110.485C29.3738 110.037 29.9084 109.814 30.5317 109.814C31.155 109.814 31.7074 110.035 32.1483 110.475C32.3003 110.627 32.4219 110.787 32.5131 110.954H32.5359L39.6456 125.181L46.7553 110.954L46.7781 110.976C46.8845 110.794 47.0137 110.627 47.1658 110.475C47.6066 110.035 48.1387 109.814 48.7595 109.814C49.3802 109.814 49.9377 110.037 50.3785 110.485C50.8194 110.933 51.0398 111.468 51.0398 112.09C51.0398 112.592 50.8954 113.032 50.6066 113.412L41.7892 131.1Z"
        fill="#214820" />
      <path id="Vector_3"
        d="M72.3208 113.181C74.5378 115.396 75.6476 118.075 75.6476 121.219C75.6476 124.363 74.5378 127.039 72.3208 129.254C70.1037 131.469 67.423 132.578 64.2787 132.578C61.1343 132.578 58.4536 131.472 56.234 129.254C54.017 127.039 52.9072 124.361 52.9072 121.219C52.9072 118.077 54.017 115.399 56.234 113.181C58.4511 110.966 61.1343 109.857 64.2787 109.857C67.423 109.857 70.1037 110.966 72.3208 113.181ZM64.2787 114.457C62.4113 114.457 60.815 115.113 59.4924 116.427C58.1698 117.741 57.511 119.328 57.511 121.196C57.511 123.065 58.1723 124.657 59.4924 125.978C60.8125 127.3 62.4088 127.958 64.2787 127.958C66.1486 127.958 67.7372 127.297 69.0522 125.978C70.3672 124.657 71.0235 123.065 71.0235 121.196C71.0235 119.328 70.3672 117.741 69.0522 116.427C67.7372 115.113 66.1486 114.457 64.2787 114.457Z"
        fill="#214820" />
      <path id="Vector_4"
        d="M91.0958 131.1C90.9894 131.404 90.8145 131.669 90.5713 131.897C90.1304 132.353 89.5908 132.581 88.9523 132.581C88.3137 132.581 87.7969 132.353 87.3585 131.897C87.1153 131.669 86.9405 131.411 86.834 131.123L77.971 113.389C77.6974 113.009 77.5605 112.576 77.5605 112.09C77.5605 111.468 77.7835 110.933 78.232 110.485C78.6805 110.037 79.2151 109.814 79.8384 109.814C80.4617 109.814 81.014 110.035 81.4549 110.475C81.6069 110.627 81.7286 110.787 81.8198 110.954H81.8426L88.9523 125.181L96.0619 110.954L96.0847 110.976C96.1911 110.794 96.3204 110.627 96.4724 110.475C96.9133 110.035 97.4454 109.814 98.0661 109.814C98.6869 109.814 99.2443 110.037 99.6852 110.485C100.126 110.933 100.346 111.468 100.346 112.09C100.346 112.592 100.202 113.032 99.9132 113.412L91.0958 131.1Z"
        fill="#5D9B31" />
      <path id="Vector_5"
        d="M107.274 107.582C106.635 107.582 106.09 107.354 105.634 106.898C105.178 106.442 104.95 105.896 104.95 105.26C104.95 104.625 105.178 104.075 105.634 103.622C106.09 103.167 106.638 102.939 107.274 102.939C107.91 102.939 108.459 103.167 108.915 103.622C109.372 104.078 109.6 104.625 109.6 105.26C109.6 105.896 109.372 106.445 108.915 106.898C108.459 107.354 107.912 107.582 107.274 107.582Z"
        fill="#AB562B" />
      <path id="Vector_6"
        d="M107.274 132.578C106.635 132.578 106.09 132.35 105.634 131.895C105.178 131.439 104.95 130.892 104.95 130.257V112.045C104.95 111.407 105.178 110.86 105.634 110.407C106.09 109.951 106.638 109.723 107.274 109.723C107.91 109.723 108.459 109.951 108.915 110.407C109.372 110.862 109.6 111.409 109.6 112.045V130.257C109.6 130.895 109.372 131.441 108.915 131.895C108.459 132.35 107.912 132.578 107.274 132.578Z"
        fill="#5D9B31" />
      <path id="Vector_7"
        d="M119.488 109.766V105.44C119.488 104.802 119.716 104.255 120.172 103.802C120.628 103.346 121.176 103.118 121.812 103.118C122.448 103.118 122.997 103.346 123.451 103.802C123.907 104.258 124.135 104.804 124.135 105.44V109.766H126.664C127.302 109.766 127.847 109.994 128.303 110.45C128.759 110.905 128.987 111.452 128.987 112.088C128.987 112.723 128.759 113.272 128.303 113.726C127.847 114.181 127.3 114.409 126.664 114.409H124.135V130.254C124.135 130.892 123.907 131.439 123.451 131.892C122.995 132.348 122.448 132.576 121.812 132.576C121.176 132.576 120.626 132.348 120.172 131.892C119.719 131.436 119.488 130.89 119.488 130.254V114.409H116.868C116.23 114.409 115.683 114.181 115.229 113.726C114.773 113.27 114.545 112.723 114.545 112.088C114.545 111.452 114.773 110.903 115.229 110.45C115.685 109.994 116.232 109.766 116.868 109.766H119.488Z"
        fill="#5D9B31" />
      <path id="Vector_8"
        d="M144.005 115.027C143.169 114.647 142.252 114.457 141.249 114.457C139.381 114.457 137.785 115.113 136.463 116.427C135.14 117.741 134.481 119.328 134.481 121.196C134.481 123.065 135.142 124.657 136.463 125.978C137.785 127.3 139.379 127.958 141.249 127.958C143.119 127.958 144.69 127.305 146.012 126.001C146.027 125.986 146.043 125.971 146.058 125.956C146.499 125.515 147.038 125.295 147.677 125.295C148.315 125.295 148.863 125.518 149.316 125.966C149.772 126.414 150 126.956 150 127.594C150 128.231 149.772 128.778 149.316 129.234C149.301 129.249 149.286 129.264 149.271 129.28C147.066 131.482 144.393 132.581 141.251 132.581C138.109 132.581 135.426 131.474 133.207 129.257C130.99 127.042 129.88 124.363 129.88 121.222C129.88 118.08 130.99 115.402 133.207 113.184C135.424 110.969 138.107 109.86 141.251 109.86C144.396 109.86 147.069 110.961 149.271 113.161L149.248 113.184C149.248 113.199 149.255 113.207 149.271 113.207C149.711 113.647 149.932 114.186 149.932 114.824C149.932 115.462 149.711 115.979 149.271 116.417L142.754 122.882C142.298 123.323 141.75 123.543 141.114 123.543C140.479 123.543 139.906 123.323 139.45 122.882C139.009 122.427 138.789 121.872 138.789 121.222C138.789 120.571 139.009 120.037 139.45 119.581L144.008 115.029L144.005 115.027Z"
        fill="#5D9B31" />
    </g>
    <g id="Group_3">
      <g id="Group_4">
        <path id="Vector_9"
          d="M28.4263 46.7331C28.8824 46.7635 29.3385 46.7964 29.792 46.8369C30.2025 46.8749 30.6079 46.9204 31.0158 46.9685C31.4643 47.0217 31.9102 47.0748 32.3536 47.1381C32.759 47.1964 33.1644 47.2596 33.5673 47.328C34.0056 47.4014 34.444 47.4799 34.8798 47.5634C35.2801 47.6419 35.6779 47.7229 36.0732 47.809C36.5039 47.9027 36.9346 48.0014 37.3603 48.1077C37.7556 48.2039 38.1483 48.3052 38.5385 48.409C38.9616 48.5229 39.3797 48.6419 39.7978 48.7685C40.1854 48.8824 40.5706 49.0014 40.9531 49.1254C41.3661 49.2596 41.7766 49.3988 42.1871 49.5431C42.5671 49.6773 42.9447 49.8115 43.3222 49.9532C43.7251 50.1051 44.1229 50.2646 44.5207 50.4266C44.8931 50.5785 45.2656 50.7304 45.6355 50.8899C46.0282 51.0595 46.4159 51.2393 46.8036 51.419C47.1684 51.5886 47.5307 51.7557 47.8905 51.9304C48.2731 52.1177 48.6507 52.3177 49.0307 52.5152C49.3854 52.7 49.7402 52.8822 50.0898 53.0746C50.4623 53.2797 50.8297 53.4974 51.1971 53.7101C51.5417 53.91 51.8862 54.1075 52.2258 54.3151C52.5881 54.5379 52.9428 54.7708 53.2975 55.0037C53.632 55.2189 53.9664 55.4315 54.2933 55.6543C54.6455 55.8948 54.9875 56.1454 55.3321 56.3935C55.6539 56.6239 55.9782 56.8492 56.2924 57.0872C56.6345 57.3454 56.9689 57.6162 57.3034 57.8821C57.61 58.1251 57.9191 58.3605 58.2206 58.6086C58.5626 58.8921 58.892 59.1883 59.2265 59.4795C59.5077 59.725 59.7966 59.9655 60.0728 60.2162C60.4604 60.568 60.8329 60.9351 61.2079 61.2971C61.631 61.7047 62.044 62.1199 62.4545 62.5427C62.8117 62.9123 63.1715 63.2768 63.5186 63.6565C63.7746 63.9375 64.0178 64.2312 64.2686 64.5173C64.4384 64.7122 64.6107 64.9021 64.7779 65.0995C67.0152 61.087 69.6376 57.3125 72.6148 53.8392C63.131 43.7864 50.4167 36.7157 35.8629 34.2778C33.623 33.9032 31.3325 34.5386 29.5766 36.0221C27.7701 37.5486 26.7363 39.7764 26.7363 42.1358V46.6369C26.8909 46.642 27.0429 46.6571 27.1949 46.6647C27.6079 46.6825 28.0184 46.7103 28.4289 46.7356L28.4263 46.7331Z"
          fill="#214820" />
        <path id="Vector_10"
          d="M62.3861 67.7678C62.115 67.4412 61.8337 67.1273 61.555 66.8083C61.332 66.5526 61.1167 66.2944 60.8886 66.0438C60.544 65.6666 60.1842 65.2995 59.8295 64.9324C59.49 64.5831 59.1479 64.2413 58.7983 63.9021C58.4309 63.5451 58.0635 63.1856 57.686 62.8413C57.4351 62.6135 57.1767 62.3983 56.9233 62.1755C56.6041 61.8971 56.2873 61.6135 55.9605 61.3427C55.6894 61.1174 55.4081 60.9047 55.132 60.6845C54.8102 60.4288 54.4935 60.1731 54.1666 59.925C53.8778 59.7073 53.5813 59.5022 53.2899 59.2921C52.9631 59.0567 52.6388 58.8187 52.3068 58.5934C52.0053 58.3883 51.6962 58.1934 51.3922 57.9934C51.0577 57.7757 50.7233 57.5555 50.3837 57.3453C50.0721 57.1529 49.7528 56.9707 49.4361 56.7859C49.0915 56.5833 48.7469 56.3808 48.3973 56.1884C48.0755 56.0112 47.7461 55.8416 47.4193 55.6695C47.0645 55.4846 46.7123 55.2998 46.3526 55.1226C46.0206 54.9606 45.6836 54.8037 45.3492 54.6492C44.9843 54.4796 44.622 54.3125 44.2521 54.1531C43.9126 54.0062 43.568 53.8645 43.2259 53.7252C42.8535 53.5733 42.4785 53.424 42.1009 53.2822C41.7538 53.1506 41.4042 53.0265 41.052 52.9025C40.6694 52.7683 40.2817 52.6366 39.894 52.5101C39.5419 52.3961 39.1871 52.2873 38.8324 52.181C38.4371 52.0645 38.0419 51.9506 37.6441 51.8443C37.2868 51.7481 36.927 51.6544 36.5647 51.5658C36.1618 51.4671 35.7564 51.3734 35.3485 51.2848C34.9862 51.2063 34.6239 51.1278 34.2565 51.057C33.8409 50.9759 33.4254 50.9025 33.0073 50.8342C32.6425 50.7734 32.2776 50.7127 31.9128 50.662C31.4871 50.6013 31.0589 50.5481 30.6307 50.4975C30.2633 50.4544 29.8984 50.4114 29.5285 50.3785C29.0927 50.338 28.6518 50.3076 28.2135 50.2772C27.8486 50.2519 27.4812 50.2266 27.1139 50.2114C26.9998 50.2064 26.8858 50.1962 26.7718 50.1912C26.7591 50.1912 26.7465 50.1912 26.7363 50.1912V50.2038C26.7363 50.2038 26.7617 50.2038 26.7743 50.2038C26.9137 54.8821 27.7144 59.3908 29.0952 63.6413C29.1028 63.6413 29.1104 63.6413 29.118 63.6439C29.4854 63.6869 29.8554 63.7299 30.2177 63.7831C30.4483 63.8185 30.6763 63.8616 30.9069 63.8995C31.2413 63.9552 31.5758 64.0135 31.9077 64.0793C32.1484 64.1274 32.3891 64.1831 32.6273 64.2362C32.9415 64.3071 33.2582 64.3755 33.5673 64.4539C33.8131 64.5147 34.0563 64.5831 34.3021 64.6514C34.6036 64.735 34.9026 64.816 35.2016 64.9071C35.4473 64.9805 35.6931 65.0615 35.9363 65.1425C36.2252 65.2362 36.514 65.3349 36.8029 65.4362C37.0461 65.5223 37.2894 65.6134 37.5301 65.7071C37.8113 65.8134 38.0926 65.9248 38.3687 66.0387C38.6094 66.1374 38.8476 66.2387 39.0858 66.3425C39.3594 66.4615 39.628 66.5855 39.8991 66.7096C40.1348 66.8184 40.3679 66.9323 40.601 67.0463C40.867 67.1779 41.1305 67.3146 41.394 67.4513C41.6221 67.5728 41.8501 67.6918 42.0781 67.8184C42.3366 67.9627 42.5925 68.112 42.8484 68.2614C43.0714 68.393 43.2918 68.5222 43.5122 68.6563C43.7656 68.8133 44.0139 68.9753 44.2622 69.1373C44.475 69.2766 44.6904 69.4158 44.9007 69.5576C45.149 69.7272 45.3923 69.9044 45.638 70.0816C45.8407 70.2284 46.0434 70.3702 46.2436 70.5221C46.4919 70.7094 46.7326 70.9044 46.9759 71.0968C47.1633 71.2461 47.3534 71.3904 47.5383 71.5448C47.7968 71.76 48.0476 71.9803 48.2985 72.203C48.4606 72.3448 48.6253 72.4815 48.7824 72.6258C49.1169 72.9321 49.4437 73.246 49.768 73.5625C49.8998 73.6916 50.0315 73.8232 50.1633 73.9574C50.4826 74.2814 50.7967 74.6055 51.1033 74.9422C51.2503 75.1017 51.3871 75.2688 51.5315 75.4308C51.752 75.6814 51.9724 75.9295 52.1852 76.1852C52.3398 76.37 52.4842 76.5598 52.6362 76.7497C52.8288 76.9927 53.0239 77.2332 53.2114 77.4813C53.3609 77.6788 53.5053 77.8839 53.6497 78.0838C53.8271 78.3294 54.0045 78.5724 54.1767 78.8231C54.3186 79.0306 54.4555 79.2433 54.5948 79.4559C54.7595 79.7066 54.9217 79.9572 55.0788 80.2104C55.213 80.4281 55.3423 80.6483 55.474 80.8686C55.6235 81.1242 55.773 81.3799 55.9174 81.6381C56.0441 81.8635 56.1632 82.0938 56.2848 82.3217C56.4216 82.5824 56.5585 82.8457 56.6902 83.1115C56.8042 83.3444 56.9157 83.5773 57.0272 83.8128C57.1539 84.0811 57.2755 84.352 57.3971 84.6254C57.425 84.6912 57.4554 84.7545 57.4858 84.8178C58.6513 79.1041 60.5136 73.6359 62.9992 68.5171C62.7991 68.2665 62.604 68.0108 62.3987 67.7627L62.3861 67.7678Z"
          fill="#214820" />
        <path id="Vector_11"
          d="M56.0292 91.8884C55.9582 91.5694 55.8873 91.2504 55.8087 90.9365C55.7581 90.739 55.7023 90.5441 55.6491 90.3492C55.568 90.0555 55.4895 89.7644 55.4008 89.4758C55.3375 89.2733 55.2716 89.0733 55.2057 88.8707C55.1145 88.5923 55.0233 88.3163 54.9245 88.0429C54.851 87.8379 54.7724 87.6353 54.6964 87.4328C54.5951 87.167 54.4912 86.9012 54.3822 86.6404C54.2986 86.4379 54.21 86.2354 54.1238 86.0354C54.0123 85.7772 53.8958 85.5215 53.7767 85.2683C53.6829 85.0683 53.5867 84.8709 53.4904 84.6734C53.3662 84.4228 53.2395 84.1747 53.1078 83.9292C53.0039 83.7342 52.9 83.5418 52.7936 83.3494C52.6568 83.1064 52.5174 82.8634 52.3755 82.6229C52.264 82.4355 52.1551 82.2482 52.0411 82.0634C51.8916 81.8229 51.7396 81.5875 51.585 81.352C51.4684 81.1723 51.3519 80.9951 51.2303 80.8179C51.0681 80.5799 50.8984 80.347 50.7286 80.1141C50.607 79.947 50.4879 79.7799 50.3637 79.6154C50.1813 79.3724 49.9913 79.1369 49.8012 78.9015C49.6822 78.7547 49.5656 78.6028 49.4465 78.4559C49.2312 78.1977 49.0082 77.9446 48.7852 77.6914C48.6813 77.5749 48.5825 77.4534 48.4761 77.3395C47.8123 76.6104 47.1129 75.9142 46.3832 75.2484C46.2667 75.1421 46.1451 75.0409 46.026 74.9371C45.7751 74.7143 45.5243 74.494 45.2658 74.2789C45.1189 74.1574 44.9669 74.0409 44.8174 73.9194C44.5817 73.7295 44.3461 73.5396 44.1029 73.3574C43.9407 73.2333 43.7735 73.1169 43.6088 72.9979C43.3731 72.8283 43.14 72.6587 42.8993 72.4941C42.7245 72.3751 42.5446 72.2587 42.3673 72.1422C42.1316 71.9878 41.8934 71.8334 41.6527 71.684C41.4678 71.5701 41.2828 71.4612 41.0953 71.3499C40.8546 71.2081 40.6114 71.0663 40.3656 70.9321C40.1756 70.8258 39.9805 70.722 39.7879 70.6208C39.5396 70.4891 39.2913 70.3625 39.0404 70.2385C38.8428 70.1398 38.6452 70.0461 38.445 69.9524C38.1916 69.8334 37.9383 69.7195 37.6798 69.6056C37.4771 69.517 37.2744 69.4284 37.0692 69.3449C36.8108 69.2385 36.5472 69.1347 36.2837 69.036C36.076 68.9575 35.8707 68.8791 35.663 68.8031C35.3944 68.7069 35.1207 68.6158 34.8496 68.5272C34.6419 68.4588 34.4366 68.3905 34.2289 68.3272C33.9451 68.2411 33.6613 68.1626 33.375 68.0841C33.1723 68.0285 32.9696 67.9702 32.7644 67.9171C32.4629 67.8411 32.1563 67.7728 31.8522 67.7069C31.6597 67.6639 31.4671 67.6158 31.272 67.5778C31.0161 67.5247 30.7551 67.4816 30.4941 67.4386C35.3817 79.0382 44.678 88.3265 56.2851 93.2098C56.2851 93.2098 56.2851 93.2048 56.2851 93.2022C56.2395 92.944 56.1964 92.6833 56.1457 92.4276C56.1103 92.2478 56.0647 92.0706 56.0266 91.8909L56.0292 91.8884Z"
          fill="#214820" />
        <path id="Vector_12"
          d="M120.424 36.0195C118.67 34.536 116.38 33.898 114.137 34.2752C99.5835 36.7131 86.8692 43.7838 77.3855 53.8366C76.9572 54.2897 76.5468 54.7555 76.1312 55.2213C75.7461 55.6517 75.3686 56.0897 74.9961 56.5301C71.9835 60.0996 69.356 63.9906 67.1643 68.1449C66.8578 68.7272 66.5512 69.3094 66.2623 69.9018C65.9583 70.522 65.6644 71.1499 65.3806 71.7802C65.3806 71.7802 65.3806 71.7853 65.378 71.7878C62.4085 78.38 60.5133 85.5418 59.8697 93.0428C59.8697 93.0453 59.8697 93.0478 59.8697 93.0504C59.8292 93.5314 59.7937 94.0174 59.7607 94.5009C59.8697 94.5364 59.9761 94.5769 60.0876 94.6098C64.1467 95.9262 68.4388 96.7211 72.8906 96.9135C72.8982 96.7768 72.9083 96.6426 72.9134 96.5085C72.9311 96.0958 72.959 95.6857 72.9843 95.2756C73.0147 94.8199 73.0477 94.3642 73.0882 93.9111C73.1237 93.5415 73.1617 93.1744 73.2048 92.8048C73.2048 92.7997 73.2048 92.7921 73.2048 92.7871C73.2098 92.7542 73.2149 92.7213 73.2174 92.6858C73.2707 92.2403 73.3239 91.7947 73.3872 91.3517C73.4455 90.9441 73.5088 90.5391 73.5772 90.134C73.6507 89.696 73.7267 89.2632 73.8103 88.8277C73.8889 88.4252 73.97 88.0252 74.0586 87.6278C74.0662 87.5898 74.0738 87.5493 74.0815 87.5113C74.1676 87.124 74.2588 86.7367 74.3526 86.3519C74.4488 85.9544 74.5502 85.557 74.6591 85.162C74.7656 84.7671 74.877 84.3747 74.9936 83.9849C74.9936 83.9849 74.9936 83.9849 74.9936 83.9823C75.0012 83.9595 75.0063 83.9393 75.0139 83.9165C75.1304 83.5241 75.2495 83.1343 75.3737 82.7469C75.5054 82.3393 75.6448 81.9343 75.7867 81.5293C75.9209 81.1445 76.0578 80.7622 76.2022 80.3825C76.3517 79.985 76.5113 79.5901 76.6709 79.1952C76.823 78.818 76.9775 78.4433 77.1371 78.0711C77.3069 77.6813 77.4843 77.299 77.6616 76.9142C77.8314 76.5471 78.0011 76.1775 78.1785 75.8155C78.366 75.4383 78.5611 75.0637 78.7562 74.6915C78.9437 74.3346 79.1287 73.9751 79.3238 73.6207C79.5265 73.2511 79.7418 72.8891 79.9547 72.527C80.1574 72.1802 80.3575 71.8309 80.5678 71.4891C80.7883 71.1322 81.0188 70.7803 81.2494 70.4284C81.4673 70.0917 81.6827 69.7525 81.9082 69.4208C82.1463 69.074 82.3947 68.7373 82.6379 68.3955C82.7012 68.3095 82.7595 68.2209 82.8229 68.1348C82.9952 67.8968 83.1649 67.6563 83.3397 67.4234C83.545 67.15 83.7629 66.8867 83.9732 66.6159C84.0264 66.55 84.0796 66.4842 84.1303 66.4159C84.3735 66.1095 84.6117 65.7982 84.8625 65.4969C84.9791 65.3577 85.1007 65.2235 85.2172 65.0843C85.3845 64.8868 85.5593 64.6944 85.7291 64.4969C85.9774 64.2134 86.2206 63.9223 86.474 63.6438C86.8211 63.2641 87.1809 62.8995 87.5381 62.5299C87.9461 62.1072 88.3616 61.692 88.7847 61.2844C89.1597 60.9224 89.5322 60.5553 89.9199 60.2034C90.1935 59.9528 90.4798 59.7148 90.7611 59.4718C91.0981 59.1781 91.43 58.8794 91.772 58.5959C92.071 58.3478 92.3801 58.1124 92.6867 57.8719C93.0237 57.6061 93.3582 57.3326 93.7002 57.0744C94.0169 56.8365 94.3412 56.6112 94.6605 56.3808C95.0051 56.1327 95.3471 55.8821 95.6993 55.6416C96.0287 55.4188 96.3632 55.2061 96.6976 54.9884C97.0549 54.7581 97.4071 54.5226 97.7694 54.2998C98.1089 54.0923 98.4535 53.8948 98.7981 53.6923C99.1655 53.4771 99.5329 53.2619 99.9053 53.0568C100.255 52.8645 100.61 52.6822 100.964 52.4974C101.342 52.2999 101.719 52.1024 102.102 51.9151C102.462 51.7379 102.827 51.5708 103.192 51.4012C103.579 51.2215 103.964 51.0443 104.357 50.8746C104.727 50.7152 105.1 50.5633 105.472 50.4114C105.87 50.2494 106.268 50.0899 106.67 49.938C107.045 49.7962 107.425 49.662 107.806 49.5279C108.213 49.3836 108.624 49.2443 109.037 49.1102C109.42 48.9861 109.807 48.8697 110.195 48.7532C110.613 48.6292 111.031 48.5102 111.454 48.3963C111.844 48.2899 112.237 48.1912 112.632 48.095C113.061 47.9912 113.489 47.8925 113.919 47.7963C114.317 47.7102 114.715 47.6267 115.115 47.5507C115.551 47.4672 115.987 47.3887 116.428 47.3153C116.831 47.2469 117.234 47.1836 117.642 47.1254C118.085 47.0621 118.531 47.0064 118.979 46.9558C119.387 46.9077 119.793 46.8621 120.203 46.8242C120.657 46.7811 121.11 46.7507 121.569 46.7204C121.979 46.6925 122.39 46.6672 122.805 46.6495C122.96 46.6419 123.112 46.6292 123.264 46.6216V42.1205C123.264 39.7611 122.23 37.5308 120.424 36.0068V36.0195Z"
          fill="#214820" />
        <path id="Vector_13"
          d="M122.886 50.2139C122.519 50.2291 122.152 50.2569 121.787 50.2797C121.346 50.3101 120.908 50.3379 120.472 50.381C120.102 50.4164 119.734 50.4594 119.367 50.5025C118.939 50.5531 118.511 50.6037 118.088 50.6645C117.72 50.7177 117.353 50.7784 116.988 50.8392C116.57 50.9101 116.154 50.9809 115.741 51.062C115.374 51.1328 115.009 51.2113 114.647 51.2898C114.241 51.3784 113.838 51.4721 113.438 51.5683C113.073 51.6569 112.713 51.7505 112.351 51.8493C111.956 51.9556 111.563 52.067 111.173 52.1834C110.813 52.2898 110.456 52.4011 110.101 52.5151C109.716 52.6391 109.336 52.7708 108.956 52.9024C108.601 53.0264 108.247 53.153 107.897 53.2872C107.524 53.429 107.154 53.5758 106.785 53.7252C106.435 53.8669 106.088 54.0087 105.743 54.158C105.381 54.315 105.021 54.4796 104.664 54.6466C104.322 54.8061 103.98 54.9631 103.643 55.1302C103.291 55.3023 102.946 55.4846 102.599 55.6643C102.264 55.839 101.93 56.0111 101.598 56.1934C101.256 56.3808 100.921 56.5807 100.584 56.7757C100.26 56.9655 99.9308 57.1529 99.6115 57.3503C99.2821 57.5529 98.9578 57.768 98.6335 57.9782C98.3168 58.1832 97.9975 58.3857 97.6884 58.5984C97.3692 58.8161 97.0575 59.0439 96.7433 59.2693C96.4367 59.4895 96.1276 59.7047 95.8261 59.93C95.5145 60.1629 95.2129 60.4085 94.9089 60.6515C94.6175 60.8819 94.3185 61.1097 94.0322 61.3477C93.7307 61.5983 93.4393 61.859 93.1429 62.1173C92.8642 62.3603 92.5804 62.5957 92.3067 62.8463C92.0002 63.1248 91.7063 63.4185 91.4047 63.7045C90.9132 64.1754 90.4318 64.6564 89.9605 65.1475C89.6767 65.4437 89.3879 65.7348 89.1117 66.0361C88.8583 66.312 88.6202 66.6006 88.3718 66.8816C88.1185 67.1728 87.86 67.4614 87.6117 67.7576C87.4065 68.0057 87.2114 68.2613 87.0087 68.5145C86.9732 68.5575 86.9377 68.6031 86.9048 68.6461C86.6666 68.9449 86.4259 69.2436 86.1954 69.5474C86.0484 69.7423 85.9116 69.9423 85.7672 70.1398C85.6861 70.2511 85.605 70.3625 85.5265 70.4739C85.3035 70.7853 85.078 71.0916 84.8626 71.4081C84.779 71.5321 84.7005 71.6587 84.6168 71.7853C84.4876 71.9777 84.3635 72.1701 84.2368 72.3625C84.029 72.684 83.8162 73.0029 83.616 73.332C83.4159 73.6561 83.2258 73.9852 83.0333 74.3143C82.8382 74.6459 82.6431 74.9776 82.4581 75.3143C82.2731 75.6459 82.0983 75.9851 81.9235 76.3218C81.7436 76.6661 81.5637 77.0079 81.3939 77.3547C81.2267 77.6964 81.0671 78.0407 80.9049 78.3876C80.7402 78.742 80.5781 79.0939 80.4235 79.4533C80.2715 79.8027 80.1271 80.1546 79.9852 80.5065C79.8382 80.871 79.6912 81.2356 79.5519 81.6052C79.4176 81.9596 79.2884 82.3191 79.1617 82.676C79.0299 83.0507 78.9007 83.4254 78.7791 83.8026C78.6626 84.1646 78.5485 84.5291 78.4396 84.8937C78.3256 85.2759 78.2166 85.6607 78.1102 86.048C78.0114 86.4177 77.9151 86.7873 77.8239 87.1594C77.7276 87.5493 77.6364 87.9442 77.5502 88.3391C77.4692 88.7138 77.3881 89.0884 77.3146 89.4656C77.2361 89.8656 77.1651 90.2681 77.0992 90.6732C77.0359 91.0504 76.9751 91.4276 76.9193 91.8099C76.8737 92.1339 76.8307 92.4605 76.7901 92.7871C76.7901 92.7896 76.7901 92.7946 76.7901 92.7972C76.78 92.8807 76.7724 92.9643 76.7622 93.0478C76.7166 93.4275 76.6736 93.8098 76.6381 94.1921C76.6001 94.6123 76.5697 95.0351 76.5418 95.4578C76.5165 95.8401 76.4886 96.2224 76.4734 96.6072C76.4683 96.716 76.4582 96.8249 76.4531 96.9312C76.4557 96.9312 76.4607 96.9312 76.4633 96.9312C76.6736 96.9261 76.8864 96.9236 77.0967 96.916C77.1018 96.916 77.1043 96.916 77.1094 96.916C81.5611 96.7236 85.8533 95.9287 89.9149 94.6123C89.9149 94.6047 89.9149 94.5996 89.9149 94.592C89.958 94.225 90.001 93.8554 90.0543 93.4934C90.0771 93.3465 90.1024 93.2022 90.1277 93.0554C90.1429 92.9693 90.1581 92.8832 90.1733 92.7972C90.2291 92.4655 90.2848 92.1314 90.3507 91.8023C90.3988 91.5592 90.4546 91.3187 90.5103 91.0782C90.5787 90.7643 90.6497 90.4529 90.7282 90.1416C90.7916 89.8935 90.86 89.6505 90.9259 89.4049C91.0069 89.1062 91.0905 88.8074 91.1818 88.5113C91.2248 88.372 91.2654 88.2353 91.3085 88.0961C91.3439 87.9872 91.3819 87.8809 91.4174 87.7746C91.5111 87.486 91.6074 87.1999 91.7088 86.9138C91.7975 86.6683 91.8887 86.4253 91.9799 86.1822C92.0863 85.9012 92.1953 85.6227 92.3093 85.3468C92.3802 85.1721 92.4512 84.9949 92.5272 84.8202C92.5551 84.7544 92.5855 84.6911 92.6159 84.6253C92.7349 84.3544 92.8566 84.0861 92.9807 83.8177C93.0922 83.5798 93.2062 83.3418 93.3228 83.1064C93.452 82.8431 93.5863 82.5849 93.7231 82.3267C93.8447 82.0938 93.9689 81.8634 94.0956 81.633C94.2375 81.3773 94.3844 81.1242 94.5339 80.8735C94.6657 80.6482 94.7974 80.4255 94.9342 80.2027C95.0888 79.9521 95.2484 79.7065 95.4106 79.4609C95.5525 79.2458 95.6918 79.028 95.8388 78.8154C96.006 78.5724 96.1783 78.3344 96.3531 78.0939C96.5026 77.8863 96.6496 77.6762 96.8041 77.4737C96.9866 77.2332 97.1766 76.9977 97.3641 76.7598C97.5187 76.5674 97.6681 76.3699 97.8278 76.18C98.033 75.9345 98.2458 75.694 98.4561 75.4535C98.6082 75.2813 98.7551 75.1041 98.9097 74.9345C99.1909 74.6282 99.4798 74.3295 99.7686 74.0333C99.9485 73.851 100.128 73.6713 100.311 73.4915C100.61 73.1979 100.911 72.9067 101.223 72.6232C101.39 72.4713 101.563 72.327 101.732 72.1777C101.976 71.965 102.216 71.7498 102.467 71.5422C102.657 71.3827 102.855 71.2334 103.05 71.079C103.285 70.8916 103.521 70.7018 103.762 70.5195C103.967 70.3651 104.175 70.2182 104.383 70.0689C104.621 69.8967 104.861 69.722 105.105 69.555C105.318 69.4081 105.535 69.2689 105.751 69.1271C105.997 68.9651 106.242 68.8056 106.493 68.6512C106.714 68.5145 106.937 68.3829 107.162 68.2512C107.415 68.1018 107.669 67.955 107.927 67.8107C108.155 67.6841 108.386 67.5626 108.616 67.4411C108.877 67.3044 109.138 67.1702 109.402 67.0386C109.638 66.9221 109.873 66.8108 110.111 66.6994C110.38 66.5753 110.649 66.4513 110.92 66.3348C111.158 66.231 111.398 66.1272 111.639 66.0285C111.915 65.9146 112.194 65.8057 112.473 65.6994C112.716 65.6057 112.959 65.5146 113.205 65.4285C113.489 65.3273 113.778 65.2311 114.067 65.1374C114.312 65.0564 114.556 64.9779 114.804 64.902C115.1 64.8108 115.402 64.7298 115.701 64.6463C115.944 64.5805 116.187 64.5121 116.436 64.4488C116.747 64.3703 117.061 64.302 117.376 64.2311C117.616 64.1779 117.854 64.1222 118.095 64.0741C118.425 64.0083 118.759 63.9526 119.093 63.8969C119.324 63.8564 119.555 63.8134 119.788 63.778C120.15 63.7248 120.515 63.6818 120.882 63.6387C120.892 63.6387 120.9 63.6387 120.91 63.6362C122.291 59.3857 123.092 54.877 123.231 50.1987C123.244 50.1987 123.256 50.1987 123.269 50.1987V50.186C123.269 50.186 123.244 50.186 123.231 50.186C123.117 50.1911 123.003 50.2012 122.889 50.2063L122.886 50.2139Z"
          fill="#214820" />
        <path id="Vector_14"
          d="M118.148 67.7069C117.841 67.7753 117.535 67.8411 117.231 67.9196C117.026 67.9702 116.825 68.0309 116.623 68.0866C116.336 68.1651 116.05 68.2436 115.769 68.3297C115.561 68.393 115.353 68.4638 115.146 68.5297C114.872 68.6183 114.601 68.7094 114.33 68.8056C114.122 68.879 113.919 68.9575 113.714 69.036C113.448 69.1372 113.184 69.241 112.924 69.3474C112.718 69.4309 112.518 69.5195 112.315 69.6081C112.06 69.7195 111.804 69.8359 111.55 69.9549C111.35 70.0486 111.152 70.1448 110.955 70.2435C110.704 70.3676 110.456 70.4941 110.21 70.6258C110.017 70.7271 109.822 70.8308 109.632 70.9372C109.386 71.0739 109.146 71.2131 108.905 71.3549C108.717 71.4663 108.53 71.5751 108.345 71.689C108.104 71.8384 107.869 71.9903 107.633 72.1447C107.456 72.2612 107.276 72.3776 107.098 72.4991C106.86 72.6612 106.627 72.8308 106.392 73.0004C106.224 73.1219 106.057 73.2384 105.895 73.3624C105.652 73.5447 105.416 73.7345 105.18 73.9244C105.031 74.0434 104.881 74.1598 104.734 74.2814C104.476 74.4965 104.223 74.7193 103.972 74.9421C103.855 75.0459 103.734 75.1446 103.62 75.2509C102.89 75.9142 102.193 76.6129 101.527 77.342C101.42 77.4585 101.322 77.5774 101.218 77.6964C100.995 77.9471 100.772 78.2002 100.556 78.4584C100.435 78.6027 100.321 78.7546 100.202 78.9014C100.012 79.1394 99.8215 79.3748 99.6366 79.6179C99.5124 79.7824 99.3933 79.9495 99.2742 80.1141C99.1045 80.347 98.9347 80.5799 98.7726 80.8178C98.6509 80.995 98.5369 81.1722 98.4178 81.352C98.2633 81.5874 98.1087 81.8229 97.9618 82.0634C97.8477 82.2482 97.7363 82.4355 97.6273 82.6228C97.4854 82.8633 97.3461 83.1038 97.2092 83.3494C97.1028 83.5418 96.9989 83.7342 96.8951 83.9291C96.7658 84.1747 96.6366 84.4228 96.5125 84.6734C96.4137 84.8709 96.3174 85.0683 96.2236 85.2683C96.1045 85.5215 95.9905 85.7772 95.8765 86.0328C95.7878 86.2328 95.7017 86.4354 95.6155 86.6379C95.5066 86.9012 95.4027 87.1644 95.3013 87.4303C95.2228 87.6328 95.1468 87.8353 95.0733 88.0404C94.9745 88.3138 94.8833 88.5897 94.7921 88.8682C94.7262 89.0707 94.6578 89.2707 94.597 89.4732C94.5083 89.7618 94.4297 90.0529 94.3487 90.3441C94.2954 90.5415 94.2372 90.7365 94.1865 90.9339C94.1054 91.2478 94.037 91.5668 93.9661 91.8858C93.9255 92.0655 93.8824 92.2427 93.847 92.4225C93.7938 92.6782 93.7532 92.9389 93.7051 93.1997C93.7051 93.2022 93.7051 93.2047 93.7051 93.2073C105.315 88.3239 114.611 79.0356 119.496 67.436C119.235 67.4791 118.977 67.5221 118.718 67.5753C118.526 67.6132 118.333 67.6613 118.143 67.7044L118.148 67.7069Z"
          fill="#214820" />
      </g>
      <g id="Group_5">
        <path id="Vector_15"
          d="M64.0028 73.646C70.7603 78.7445 77.0592 77.2838 84.027 76.8003C94.9094 76.0459 106.813 65.8614 100.413 44.5001C94.6687 25.3363 81.6326 10.6102 65.2367 1.90926C62.3457 0.37514 53.6575 -4.2247 51.9093 10.3798C49.2742 32.3841 39.5851 55.2162 64.0053 73.6485L64.0028 73.646Z"
          fill="#5D9B31" />
        <path id="Vector_16"
          d="M55.7573 16.4075C55.7623 35.9182 68.1878 70.4916 85.1993 70.4916C93.3453 70.4916 99.0437 62.6337 99.0437 53.7884C99.0437 52.6948 98.9423 51.6265 98.7498 50.5961C98.7371 50.5531 98.7295 50.5177 98.7219 50.4746C98.6636 50.1936 98.6028 49.9177 98.5395 49.6417C98.5319 49.6164 98.5268 49.5962 98.5243 49.5759C93.8977 29.0754 82.1766 13.0228 65.0155 4.08894C55.3595 -0.938727 55.7522 4.94967 55.7547 16.4126L55.7573 16.4075Z"
          fill="#F9E988" />
        <path id="Vector_17"
          d="M73.5511 30.9918C72.3983 41.075 77.8635 49.6569 85.5585 54.6466C87.8414 56.1276 90.8768 55.8668 92.8379 53.9808C95.7087 51.2189 97.5482 47.3785 97.6825 43.0572C97.9434 34.5461 91.2011 27.8754 82.7486 26.7793C75.6541 25.8603 73.9261 27.716 73.5511 30.9893V30.9918Z"
          fill="#AB562B" />
      </g>
    </g>
  </g>
</svg>