<svg width="46" height="57" viewBox="0 0 46 57" fill="none" xmlns="http://www.w3.org/2000/svg">
<path d="M44.9997 22.9975V52.3274C44.9997 54.3438 43.3497 55.9936 41.333 55.9936H11.9997C9.98301 55.9936 8.33301 54.3438 8.33301 52.3274V11.9987C8.33301 9.98231 9.98301 8.3325 11.9997 8.3325H41.333C43.3497 8.3325 44.9997 9.98231 44.9997 11.9987V15.665" stroke="white" stroke-width="2" stroke-linecap="round" stroke-linejoin="round"/>
<path d="M8.33333 48.6611H4.66667C2.65 48.6611 1 47.0113 1 44.9949V4.66624C1 2.64981 2.65 1 4.66667 1H34C36.0167 1 37.6667 2.64981 37.6667 4.66624V8.33248" stroke="white" stroke-width="2" stroke-linecap="round" stroke-linejoin="round"/>
<path d="M30.3333 17.4981H26.6667C24.65 17.4981 23 19.1479 23 21.1643C23 23.1807 24.65 24.8305 26.6667 24.8305C28.6833 24.8305 30.3333 26.4804 30.3333 28.4968C30.3333 30.5132 28.6833 32.163 26.6667 32.163H23" stroke="white" stroke-width="2" stroke-linecap="round" stroke-linejoin="round"/>
<path d="M26.667 17.4983V15.6649" stroke="white" stroke-width="2" stroke-linecap="round" stroke-linejoin="round"/>
<path d="M26.667 33.9964V32.163" stroke="white" stroke-width="2" stroke-linecap="round" stroke-linejoin="round"/>
<path d="M15.667 41.3287H19.3341" stroke="white" stroke-width="2" stroke-linecap="round" stroke-linejoin="round"/>
<path d="M26.667 41.3287H37.667" stroke="white" stroke-width="2" stroke-linecap="round" stroke-linejoin="round"/>
<path d="M15.667 48.6612H19.3341" stroke="white" stroke-width="2" stroke-linecap="round" stroke-linejoin="round"/>
<path d="M26.667 48.6612H37.667" stroke="white" stroke-width="2" stroke-linecap="round" stroke-linejoin="round"/>
</svg>
