<svg width="39" height="57" viewBox="0 0 39 57" fill="none" xmlns="http://www.w3.org/2000/svg">
<path d="M37.6709 10.1667V1L34.0039 2.83333L30.3368 1L26.6697 2.83333L23.0026 1L19.3355 2.83333L15.6684 1L12.0013 2.83333L8.33419 1L4.66709 2.83333L1 1V56L4.66709 54.1667L8.33419 56L12.0013 54.1667L15.6684 56L19.3355 54.1667L23.0026 56L26.6697 54.1667L30.3368 56L34.0039 54.1667L37.6709 56V17.5" stroke="white" stroke-width="2" stroke-linecap="round" stroke-linejoin="round"/>
<path d="M23.0022 13.8334H19.3351C17.3182 13.8334 15.668 15.4834 15.668 17.5001C15.668 19.5168 17.3182 21.1668 19.3351 21.1668C21.352 21.1668 23.0022 22.8168 23.0022 24.8334C23.0022 26.8501 21.352 28.5001 19.3351 28.5001H15.668" stroke="white" stroke-width="2" stroke-linecap="round" stroke-linejoin="round"/>
<path d="M19.3359 13.8334V12" stroke="white" stroke-width="2" stroke-linecap="round" stroke-linejoin="round"/>
<path d="M19.3359 28.5001V30.3334" stroke="white" stroke-width="2" stroke-linecap="round" stroke-linejoin="round"/>
<path d="M30.3372 37.6667H19.3359" stroke="white" stroke-width="2" stroke-linecap="round" stroke-linejoin="round"/>
<path d="M12.0011 37.6667H8.33398" stroke="white" stroke-width="2" stroke-linecap="round" stroke-linejoin="round"/>
<path d="M30.3372 45.0001H19.3359" stroke="white" stroke-width="2" stroke-linecap="round" stroke-linejoin="round"/>
<path d="M12.0011 45.0001H8.33398" stroke="white" stroke-width="2" stroke-linecap="round" stroke-linejoin="round"/>
</svg>
