<svg width="29" height="27" viewBox="0 0 29 27" fill="none" xmlns="http://www.w3.org/2000/svg">
<path fill-rule="evenodd" clip-rule="evenodd" d="M11.9025 17.927H11.2863C11.081 17.927 10.8803 17.9223 10.6842 17.913C10.4882 17.9036 10.2595 17.8803 9.99808 17.843C9.86739 17.9923 9.58266 18.2444 9.1439 18.5991C8.70514 18.9539 8.18704 19.3273 7.58958 19.7193C6.99212 20.1114 6.36199 20.4662 5.69919 20.7836C5.03638 21.101 4.41559 21.3063 3.8368 21.3997H3.80879L3.75278 21.4137C3.71544 21.423 3.6781 21.4277 3.64076 21.4277C3.45405 21.4277 3.30002 21.3624 3.17866 21.2317C3.0573 21.101 2.99662 20.9423 2.99662 20.7556C2.99662 20.6996 3.00129 20.6529 3.01063 20.6155C3.01996 20.5782 3.03396 20.5409 3.05263 20.5035H3.02463C3.24868 20.1301 3.56141 19.556 3.96282 18.7812C4.36424 18.0063 4.56495 17.2922 4.56495 16.6387V16.5827C3.79945 16.1906 3.12732 15.7052 2.54853 15.1264C1.96974 14.5476 1.49365 13.9128 1.12023 13.222C0.74682 12.5312 0.466765 11.803 0.280058 11.0375C0.0933518 10.272 0 9.51589 0 8.76907C0 7.55548 0.303393 6.41658 0.910189 5.35236C1.51699 4.28813 2.35248 3.36395 3.41671 2.57978C4.48094 1.79561 5.72252 1.17482 7.14149 0.717393C8.56045 0.259962 10.0821 0.03125 11.7064 0.03125C13.3121 0.03125 14.8197 0.259962 16.2294 0.717393C17.639 1.17482 18.8666 1.79561 19.9121 2.57978C20.9577 3.36395 21.7839 4.28813 22.3907 5.35236C22.9975 6.41658 23.3008 7.55548 23.3008 8.76907C23.3195 10.132 23.0395 11.3783 22.4607 12.5078C21.8819 13.6374 21.0791 14.6036 20.0522 15.4064C19.0253 16.2093 17.8117 16.8301 16.4114 17.2688C15.0111 17.7076 13.5082 17.927 11.9025 17.927ZM9.26993 15.9946L10.2501 16.0786C10.6796 16.1346 11.0716 16.1626 11.4264 16.1626H11.9585C13.3214 16.1626 14.5864 15.9806 15.7533 15.6165C16.9202 15.2524 17.9284 14.739 18.7779 14.0762C19.6274 13.4134 20.2949 12.6292 20.7803 11.7237C21.2658 10.8182 21.5085 9.83329 21.5085 8.76907C21.5085 7.79819 21.2518 6.89268 20.7383 6.0525C20.2249 5.21232 19.5294 4.47951 18.6519 3.85405C17.7744 3.22858 16.7382 2.73381 15.5432 2.36974C14.3483 2.00566 13.0694 1.82362 11.7064 1.82362C10.3435 1.82362 9.05989 2.00566 7.85563 2.36974C6.65138 2.73381 5.5965 3.22858 4.69098 3.85405C3.78545 4.47951 3.07598 5.21232 2.56253 6.0525C2.04909 6.89268 1.79237 7.79819 1.79237 8.76907C1.79237 9.92665 2.08176 11.0935 2.66055 12.2698C3.23934 13.446 4.14486 14.3516 5.37712 14.9864L6.35732 15.4905L6.2733 16.5827L6.21729 17.0728C6.17995 17.3995 6.00258 17.9923 5.68518 18.8512C6.18929 18.5524 6.68872 18.2024 7.18349 17.8009C7.67827 17.3995 7.99099 17.1148 8.12169 16.9468L9.26993 15.9946ZM28.678 15.9946C28.678 17.3015 28.3606 18.4544 27.7258 19.4533C27.091 20.4522 26.1108 21.2877 24.7852 21.9598C24.7852 21.9785 24.7852 21.9925 24.7852 22.0018C24.7852 22.0112 24.7852 22.0158 24.7852 22.0158C24.7852 22.5946 24.8972 23.2667 25.1212 24.0322C25.3453 24.7977 25.5506 25.3392 25.7374 25.6566C25.756 25.6939 25.77 25.7313 25.7794 25.7686C25.7887 25.8059 25.7934 25.8433 25.7934 25.8806C25.7934 26.0487 25.7374 26.1887 25.6253 26.3007C25.5133 26.4127 25.3733 26.4688 25.2052 26.4688C25.1866 26.4688 25.1586 26.4688 25.1212 26.4688C25.0839 26.4688 25.0652 26.4688 25.0652 26.4688C25.0465 26.4688 25.0372 26.4688 25.0372 26.4688C24.0477 26.3007 23.0488 25.7966 22.0406 24.9564C21.0324 24.1163 20.4256 23.5655 20.2202 23.3041C19.9962 23.3228 19.8001 23.3368 19.6321 23.3461C19.464 23.3554 19.2867 23.3601 19.1 23.3601C19.0066 23.3601 18.9179 23.3601 18.8339 23.3601C18.7499 23.3601 18.6612 23.3601 18.5679 23.3601C17.653 23.3601 16.7895 23.2808 15.9773 23.1221C15.1652 22.9634 14.4043 22.73 13.6948 22.4219C12.9854 22.1138 12.3412 21.7404 11.7624 21.3017C11.1837 20.8629 10.6702 20.3728 10.2221 19.8314C10.2595 19.794 10.7496 19.7754 11.6924 19.7754C12.6353 19.7754 13.004 19.7847 12.7987 19.8034C13.5642 20.4008 14.4137 20.8442 15.3472 21.1336C16.2807 21.423 17.3543 21.5677 18.5679 21.5677C18.5679 21.5677 18.7499 21.5677 19.114 21.5677C19.4781 21.5677 19.7534 21.5491 19.9401 21.5117L20.8923 21.3717C20.8923 21.3717 21.065 21.6051 21.4105 22.0718C21.7559 22.5386 22.3673 23.0894 23.2448 23.7242C23.1702 23.4441 23.1141 22.8933 23.0768 22.0718C23.0395 21.2503 23.0208 20.8396 23.0208 20.8396L23.889 20.4195C24.9532 19.878 25.7187 19.2479 26.1854 18.5291C26.6522 17.8103 26.8856 16.9654 26.8856 15.9946C26.8856 15.2104 26.7502 14.5289 26.4795 13.9501C26.2088 13.3714 25.6907 12.8112 24.9252 12.2698C25.0185 11.9711 25.1072 11.6537 25.1912 11.3176C25.2753 10.9815 25.3359 10.6548 25.3733 10.3374C26.5495 11.0282 27.3944 11.8404 27.9078 12.7739C28.4212 13.7074 28.678 14.781 28.678 15.9946Z" fill="white"/>
</svg>
