<svg width="250" height="250" viewBox="0 0 250 250" fill="none" xmlns="http://www.w3.org/2000/svg">
<circle opacity="0.419308" cx="125" cy="125" r="125" fill="#999999" fill-opacity="0.08"/>
<circle opacity="0.53471" cx="125" cy="125" r="100" fill="#777777" fill-opacity="0.08"/>
<circle opacity="0.506473" cx="125" cy="125" r="75" fill="#777777" fill-opacity="0.1"/>
<path fill-rule="evenodd" clip-rule="evenodd" d="M125.523 90C129.625 90 133.294 90.7064 136.529 92.1191C139.765 93.5319 142.488 95.4573 144.698 97.8955C146.909 100.334 148.595 103.171 149.757 106.406C150.919 109.642 151.5 113.06 151.5 116.66C151.5 120.306 150.782 124.032 149.347 127.837C147.911 131.642 146.1 135.379 143.912 139.048C141.725 142.716 139.355 146.191 136.803 149.473C134.251 152.754 131.858 155.671 129.625 158.223C129.625 158.268 129.283 158.576 128.6 159.146C127.916 159.715 127.118 160 126.207 160H126.002C125.045 160 124.236 159.715 123.575 159.146C122.914 158.576 122.584 158.268 122.584 158.223C120.214 155.488 117.651 152.503 114.894 149.268C112.136 146.032 109.584 142.625 107.237 139.048C104.89 135.47 102.931 131.79 101.358 128.008C99.7861 124.225 99 120.443 99 116.66C99 113.06 99.7064 109.642 101.119 106.406C102.532 103.171 104.446 100.334 106.861 97.8955C109.277 95.4573 112.091 93.5319 115.304 92.1191C118.517 90.7064 121.923 90 125.523 90ZM126.344 155.283C129.807 151.318 132.838 147.536 135.436 143.936C138.033 140.335 140.198 136.929 141.93 133.716C143.661 130.503 144.96 127.472 145.826 124.624C146.692 121.776 147.125 119.121 147.125 116.66C147.125 113.88 146.703 111.157 145.86 108.491C145.017 105.825 143.707 103.444 141.93 101.348C140.152 99.2513 137.908 97.5651 135.196 96.2891C132.485 95.013 129.26 94.375 125.523 94.375C122.516 94.375 119.667 94.9674 116.979 96.1523C114.29 97.3372 111.943 98.9437 109.938 100.972C107.932 103 106.337 105.369 105.152 108.081C103.967 110.793 103.375 113.652 103.375 116.66C103.375 119.896 104.059 123.177 105.426 126.504C106.793 129.831 108.525 133.101 110.621 136.313C112.717 139.526 115.019 142.625 117.525 145.61C120.032 148.595 122.402 151.387 124.635 153.984L125.797 155.283L126.07 155.557C126.116 155.511 126.173 155.465 126.241 155.42C126.31 155.374 126.344 155.329 126.344 155.283ZM125.318 103.193C128.964 103.193 132.063 104.481 134.615 107.056C137.167 109.631 138.443 112.718 138.443 116.318C138.443 119.964 137.167 123.063 134.615 125.615C132.063 128.167 128.964 129.443 125.318 129.443C121.718 129.443 118.631 128.167 116.056 125.615C113.481 123.063 112.193 119.964 112.193 116.318C112.193 112.718 113.481 109.631 116.056 107.056C118.631 104.481 121.718 103.193 125.318 103.193ZM125.318 125.068C127.734 125.068 129.784 124.202 131.471 122.471C133.157 120.739 134 118.665 134 116.25C134 113.835 133.146 111.772 131.437 110.063C129.728 108.354 127.665 107.5 125.25 107.5C122.835 107.5 120.772 108.354 119.063 110.063C117.354 111.772 116.5 113.835 116.5 116.25C116.5 118.665 117.366 120.739 119.098 122.471C120.829 124.202 122.903 125.068 125.318 125.068Z" fill="#67AA36"/>
</svg>
