<svg width="55" height="50" viewBox="0 0 55 50" fill="none" xmlns="http://www.w3.org/2000/svg">
<path d="M0 21.815C0.206709 21.7957 0.472477 21.8164 0.224989 21.4936C0.561067 20.0586 0.877458 18.6196 1.24306 17.193C1.39353 16.608 1.65367 16.0506 1.86319 15.4794C1.88991 15.4407 1.91663 15.4035 1.94194 15.3648C1.97709 15.2282 2.01365 15.0916 2.04881 14.9551C2.12052 14.8474 2.19364 14.7384 2.26536 14.6308C2.66612 13.8596 3.06829 13.0883 3.46905 12.317C3.53514 12.2122 3.59983 12.1087 3.66592 12.0038C4.92445 10.0488 6.34891 8.22201 8.09398 6.66017C9.735 5.19076 11.5096 3.90762 13.4979 2.90319C15.2472 2.01878 17.0443 1.27649 18.9539 0.823945C19.9129 0.59767 20.8931 0.439002 21.8704 0.30103C22.8589 0.160298 23.8601 -0.0259641 24.85 0.00301009C26.4461 0.0485409 28.0365 0.258259 29.6311 0.382434C29.8083 0.396231 29.9939 0.295511 30.081 0.272056C30.3862 0.397611 30.6323 0.548 30.8994 0.603189C34.3868 1.32754 37.5563 2.74452 40.4376 4.79202C40.8341 5.07349 41.211 5.38255 41.5977 5.67781C41.6371 5.7054 41.6764 5.733 41.7158 5.76059C43.3118 7.11272 44.7883 8.57936 46.0117 10.2681C48 13.0096 49.4779 15.9843 50.2105 19.2929C50.4116 20.2021 50.6718 21.099 50.8335 22.0137C50.9207 22.5077 50.8532 23.0264 50.856 23.5342C50.856 23.8129 50.856 24.0902 50.856 24.442C52.2594 24.442 53.629 24.442 55 24.442C53.726 26.1943 52.4506 27.9479 51.1766 29.7001C50.9952 29.9499 50.818 30.2024 50.638 30.4521C50.534 30.5238 50.4299 30.5942 50.3273 30.6659C49.8927 31.3393 49.4779 32.0277 49.0181 32.6845C48.2967 33.7151 47.5444 34.7251 46.8076 35.7447C46.7457 35.8302 46.7049 35.931 46.5995 36.1255C45.902 35.088 45.303 34.198 44.7039 33.3067C44.6407 33.2446 44.576 33.1826 44.5127 33.1205C43.6535 31.956 42.7873 30.797 41.9366 29.627C40.8412 28.1204 39.7598 26.604 38.663 25.1001C38.5378 24.9291 38.3438 24.8049 38.1821 24.66C38.2144 24.5897 38.2467 24.5179 38.2777 24.4475C39.4926 24.4365 40.7076 24.4268 41.9211 24.4158H42.4695C42.298 24.2696 42.2178 24.2006 42.1377 24.133C42.298 23.7397 42.395 23.3576 42.042 22.9947C42.0027 22.9547 42.0969 22.7891 42.1306 22.6787C42.1644 22.6829 42.1981 22.687 42.2305 22.6925C42.2276 22.6774 42.2248 22.6636 42.222 22.6484C42.1883 22.6649 42.1545 22.6815 42.1208 22.6981C42.0195 22.0454 41.9731 21.3804 41.8072 20.7444C41.3657 19.0611 40.6176 17.5006 39.6684 16.0368C39.5433 15.8436 39.2859 15.7318 39.0933 15.5787C39.0216 15.5221 38.9147 15.4656 38.8964 15.391C38.6742 14.4832 37.9163 13.9479 37.3637 13.2746C37.1443 13.0083 36.7885 12.851 36.5017 12.6344C36.4342 12.5833 36.3934 12.4992 36.34 12.4288C36.2682 12.3212 36.1951 12.2135 36.1234 12.1059C35.3725 11.6065 34.6216 11.107 33.8707 10.6076C33.8538 10.5662 33.837 10.5234 33.8187 10.482C33.8004 10.5234 33.7807 10.5634 33.7624 10.6048C33.4376 10.4172 33.1226 10.2102 32.7865 10.046C30.9782 9.16988 29.0869 8.5904 27.0549 8.51727C26.3828 8.49382 25.7106 8.44415 25.0385 8.41379C23.3553 8.33791 21.7424 8.6994 20.1464 9.1754C17.7221 9.89975 15.6775 11.2477 13.7806 12.8468L13.4515 13.1683L13.4544 13.1656C13.1337 13.1435 13.0845 13.3077 13.1731 13.5643C12.013 14.6212 11.1566 15.9015 10.4156 17.2578C10.1822 17.6828 10.0753 18.1739 9.89108 18.6265C9.76312 18.9383 9.59438 19.2322 9.45517 19.5399C8.91519 20.7402 8.70849 22.0151 8.61427 23.3093C8.54959 24.1951 8.45537 25.0905 8.51865 25.9721C8.63396 27.5685 8.88988 29.151 9.56345 30.6356C9.59016 30.6949 9.64078 30.7432 9.68016 30.7956C9.70969 30.8591 9.74062 30.9226 9.77015 30.9874C10.147 31.8194 10.469 32.6803 10.912 33.4764C11.8288 35.1238 13.1478 36.4635 14.5652 37.6929C15.0476 38.1109 15.5088 38.6407 16.2667 38.7277C16.5226 38.7566 16.6998 39.2106 16.9768 39.3444C18.1158 39.8963 19.2788 40.3999 20.4332 40.9214C20.5064 40.9463 20.5795 40.9725 20.6526 40.9973C20.7229 41.007 20.7932 41.0166 20.8635 41.0263C20.9366 41.0511 21.0098 41.0773 21.0829 41.1022C21.2966 41.1353 21.5104 41.1684 21.7227 41.2015C21.8647 41.247 22.0068 41.2912 22.1488 41.3367C23.008 41.4388 23.8657 41.5464 24.7249 41.6375C24.9865 41.6651 25.2536 41.6416 25.5405 41.6416V50C19.4405 50.0028 14.0759 48.0877 9.35955 44.3638C9.32018 44.3362 9.2808 44.31 9.24284 44.2824C8.78723 43.8947 8.33163 43.5056 7.87603 43.1179C7.76353 43.0089 7.65104 42.8999 7.53995 42.7909C7.43448 42.6875 7.33043 42.584 7.22496 42.4805C7.11528 42.3729 7.0056 42.2639 6.89592 42.1563C5.80753 40.7586 4.69243 39.3817 3.64623 37.955C3.21875 37.3714 2.94173 36.6802 2.59581 36.0386C2.52269 35.9365 2.45098 35.8358 2.37785 35.7337C2.12615 35.0673 1.87444 34.4022 1.62273 33.7358C1.59461 33.6986 1.56649 33.6613 1.53836 33.6241C1.10245 31.9863 0.503413 30.3693 0.272799 28.704C0.0126556 26.8303 0.0843709 24.9111 0.015468 23.0126C0.00140618 22.6139 0.00562473 22.2138 0.00140618 21.8137L0 21.815Z" fill="#65A935" fill-opacity="0.35"/>
</svg>
