<svg width="22" height="22" viewBox="0 0 22 22" fill="none" xmlns="http://www.w3.org/2000/svg">
<path d="M1 2.33325H21" stroke="#61A233" stroke-linecap="round" stroke-linejoin="round"/>
<path d="M1 18.3313H21" stroke="#61A233" stroke-linecap="round" stroke-linejoin="round"/>
<path d="M2.33301 18.3312V5.66602" stroke="#61A233" stroke-linecap="round" stroke-linejoin="round"/>
<path d="M19.667 2.33325V18.3314" stroke="#61A233" stroke-linecap="round" stroke-linejoin="round"/>
<path d="M8.99967 18.3313L6.33301 20.9977" stroke="#61A233" stroke-linecap="round" stroke-linejoin="round"/>
<path d="M13 18.3313L15.6667 20.9977" stroke="#61A233" stroke-linecap="round" stroke-linejoin="round"/>
<path d="M11 2.33318V1" stroke="#61A233" stroke-linecap="round" stroke-linejoin="round"/>
<path d="M13 6.99927H10.6667C9.74667 6.99927 9 7.74585 9 8.66574C9 9.58563 9.74667 10.3322 10.6667 10.3322H11.3333C12.2533 10.3322 13 11.0788 13 11.9987C13 12.9186 12.2533 13.6652 11.3333 13.6652H9" stroke="#61A233" stroke-linecap="round" stroke-linejoin="round"/>
<path d="M11 6.99919V5.66602" stroke="#61A233" stroke-linecap="round" stroke-linejoin="round"/>
<path d="M11 13.665V14.9982" stroke="#61A233" stroke-linecap="round" stroke-linejoin="round"/>
</svg>
