<svg width="48" height="60" viewBox="0 0 48 60" fill="none" xmlns="http://www.w3.org/2000/svg">
<path d="M6.75 46.9789H47V58.4736H6.75C3.56833 58.4736 1 55.9064 1 52.7262C1 49.546 3.56833 46.9789 6.75 46.9789Z" stroke="white" stroke-width="2" stroke-linecap="round" stroke-linejoin="round"/>
<path d="M1 52.7262V6.74736C1 3.56715 3.56833 1 6.75 1H43.1667C45.275 1 47 2.72421 47 4.83157V39.3157" stroke="white" stroke-width="2" stroke-linecap="round" stroke-linejoin="round"/>
<path d="M29.75 18.2421C29.75 16.1347 28.025 14.4105 25.9167 14.4105H23.0417C20.3967 14.4105 18.25 16.5562 18.25 19.2C18.25 21.8438 20.3967 23.9894 23.0417 23.9894H24.9583C27.6033 23.9894 29.75 26.1351 29.75 28.7789C29.75 31.4227 27.6033 33.5684 24.9583 33.5684H22.0833C19.975 33.5684 18.25 31.8442 18.25 29.7368" stroke="white" stroke-width="2" stroke-linecap="round" stroke-linejoin="round"/>
<path d="M24 14.4105V10.5789" stroke="white" stroke-width="2" stroke-linecap="round" stroke-linejoin="round"/>
<path d="M24 33.5684V37.3999" stroke="white" stroke-width="2" stroke-linecap="round" stroke-linejoin="round"/>
</svg>
