<svg width="19" height="23" viewBox="0 0 19 23" fill="none" xmlns="http://www.w3.org/2000/svg">
<path d="M3.125 17.9922H18V22.2402H3.125C1.94917 22.2402 1 21.2915 1 20.1162C1 18.9409 1.94917 17.9922 3.125 17.9922Z" stroke="#61A133" stroke-linecap="round" stroke-linejoin="round"/>
<path d="M1 20.1162V3.12402C1 1.94873 1.94917 1 3.125 1H16.5833C17.3625 1 18 1.63721 18 2.41602V15.1602" stroke="#61A133" stroke-linecap="round" stroke-linejoin="round"/>
<path d="M11.625 7.37207C11.625 6.59326 10.9875 5.95605 10.2083 5.95605H9.14583C8.16833 5.95605 7.375 6.74902 7.375 7.72607C7.375 8.70313 8.16833 9.49609 9.14583 9.49609H9.85417C10.8317 9.49609 11.625 10.2891 11.625 11.2661C11.625 12.2432 10.8317 13.0361 9.85417 13.0361H8.79167C8.0125 13.0361 7.375 12.3989 7.375 11.6201" stroke="#61A133" stroke-linecap="round" stroke-linejoin="round"/>
<path d="M9.5 5.95605V4.54004" stroke="#61A133" stroke-linecap="round" stroke-linejoin="round"/>
<path d="M9.5 13.0361V14.4521" stroke="#61A133" stroke-linecap="round" stroke-linejoin="round"/>
</svg>
