<svg width="25" height="25" viewBox="0 0 25 25" fill="none" xmlns="http://www.w3.org/2000/svg">
<path d="M4.06641 1H18.6332C19.9058 1 20.9332 2.02722 20.9332 3.29974V16.3316" stroke="#62A434" stroke-linecap="round" stroke-linejoin="round"/>
<path d="M5.59961 21.6977V19.3979V8.66577" stroke="#62A434" stroke-linecap="round" stroke-linejoin="round"/>
<path d="M3.30001 1C4.57269 1 5.60003 2.02722 5.60003 3.29974V10.199H1V3.29974C1 2.02722 2.02734 1 3.30001 1Z" stroke="#62A434" stroke-linecap="round" stroke-linejoin="round"/>
<path d="M5.59961 19.3979V21.6977C5.59961 22.9702 6.62695 23.9974 7.89962 23.9974M7.89962 23.9974C9.1723 23.9974 10.1996 22.9702 10.1996 21.6977V19.3979H23.9997V21.6977C23.9997 22.9702 22.9724 23.9974 21.6997 23.9974H7.89962Z" stroke="#62A434" stroke-linecap="round" stroke-linejoin="round"/>
<path d="M9.43359 14.7983H17.4913" stroke="#62A434" stroke-linecap="round" stroke-linejoin="round"/>
<path d="M9.43359 12.5051H17.4913" stroke="#62A434" stroke-linecap="round" stroke-linejoin="round"/>
<path d="M9.43359 10.302H17.4913" stroke="#62A434" stroke-linecap="round" stroke-linejoin="round"/>
<path d="M9.43359 7.85425H17.4913" stroke="#62A434" stroke-linecap="round" stroke-linejoin="round"/>
</svg>
