<svg width="53" height="53" viewBox="0 0 53 53" fill="none" xmlns="http://www.w3.org/2000/svg">
<path d="M7.7998 1.00002H40.0998C42.9218 1.00002 45.1998 3.27775 45.1998 6.09942V34.996" stroke="white" stroke-width="2" stroke-linecap="round" stroke-linejoin="round"/>
<path d="M11.2002 46.8947V41.7953V17.998" stroke="white" stroke-width="2" stroke-linecap="round" stroke-linejoin="round"/>
<path d="M6.1 1C8.922 1 11.2 3.27773 11.2 6.0994V21.3976H1V6.0994C1 3.27773 3.278 1 6.1 1Z" stroke="white" stroke-width="2" stroke-linecap="round" stroke-linejoin="round"/>
<path d="M11.2002 41.7953V46.8947C11.2002 49.7163 13.4782 51.9941 16.3002 51.9941M16.3002 51.9941C19.1222 51.9941 21.4002 49.7163 21.4002 46.8947V41.7953H52.0002V46.8947C52.0002 49.7163 49.7222 51.9941 46.9002 51.9941H16.3002Z" stroke="white" stroke-width="2" stroke-linecap="round" stroke-linejoin="round"/>
<path d="M19.7002 31.5965H37.5672" stroke="white" stroke-width="2" stroke-linecap="round" stroke-linejoin="round"/>
<path d="M19.7002 26.5113H37.5672" stroke="white" stroke-width="2" stroke-linecap="round" stroke-linejoin="round"/>
<path d="M19.7002 21.6262H37.5672" stroke="white" stroke-width="2" stroke-linecap="round" stroke-linejoin="round"/>
<path d="M19.7002 16.1982H37.5672" stroke="white" stroke-width="2" stroke-linecap="round" stroke-linejoin="round"/>
</svg>
