<svg width="26" height="26" viewBox="0 0 26 26" fill="none" xmlns="http://www.w3.org/2000/svg">
<path d="M1 16.9998L6.60062 12.1998L12.2012 17.7998L19.402 10.5999L23.4025 14.5998" stroke="#61A234" stroke-linecap="round" stroke-linejoin="round"/>
<path d="M1 8.19995V24.9999H24.9707" stroke="#61A234" stroke-linecap="round" stroke-linejoin="round"/>
<path d="M1 1V4.99998" stroke="#61A234" stroke-linecap="round" stroke-linejoin="round"/>
<path d="M6.60059 16.2V24.9999" stroke="#61A234" stroke-linecap="round" stroke-linejoin="round"/>
<path d="M12.2021 21V25" stroke="#61A234" stroke-linecap="round" stroke-linejoin="round"/>
<path d="M23.4023 17.8V25" stroke="#61A234" stroke-linecap="round" stroke-linejoin="round"/>
<path d="M19.4023 14.5996V24.9995" stroke="#61A234" stroke-linecap="round" stroke-linejoin="round"/>
<path d="M7.40055 1.80005H5.80037C4.92028 1.80005 4.2002 2.52004 4.2002 3.40004C4.2002 4.28003 4.92028 5.00003 5.80037 5.00003C6.68047 5.00003 7.40055 5.72003 7.40055 6.60002C7.40055 7.48002 6.68047 8.20001 5.80037 8.20001H4.2002" stroke="#61A234" stroke-linecap="round" stroke-linejoin="round"/>
<path d="M5.80078 1.8V1" stroke="#61A234" stroke-linecap="round" stroke-linejoin="round"/>
<path d="M5.80078 8.19995V8.99995" stroke="#61A234" stroke-linecap="round" stroke-linejoin="round"/>
</svg>
