<svg width="56" height="57" viewBox="0 0 56 57" fill="none" xmlns="http://www.w3.org/2000/svg">
<path d="M1 37.0439L13.6168 26.2307L26.2336 38.8461L42.4553 22.6263L51.4673 31.6373" stroke="white" stroke-width="2" stroke-linecap="round" stroke-linejoin="round"/>
<path d="M1 17.2198V55.0658H55" stroke="white" stroke-width="2" stroke-linecap="round" stroke-linejoin="round"/>
<path d="M1 1V10.011" stroke="white" stroke-width="2" stroke-linecap="round" stroke-linejoin="round"/>
<path d="M13.6172 35.2417V55.0658" stroke="white" stroke-width="2" stroke-linecap="round" stroke-linejoin="round"/>
<path d="M26.2339 46.0548V55.0658" stroke="white" stroke-width="2" stroke-linecap="round" stroke-linejoin="round"/>
<path d="M51.4668 38.8461V55.0658" stroke="white" stroke-width="2" stroke-linecap="round" stroke-linejoin="round"/>
<path d="M42.4556 31.6373V55.0658" stroke="white" stroke-width="2" stroke-linecap="round" stroke-linejoin="round"/>
<path d="M15.4191 2.80221H11.8143C9.83164 2.80221 8.20947 4.42418 8.20947 6.4066C8.20947 8.38901 9.83164 10.011 11.8143 10.011C13.7969 10.011 15.4191 11.633 15.4191 13.6154C15.4191 15.5978 13.7969 17.2198 11.8143 17.2198H8.20947" stroke="white" stroke-width="2" stroke-linecap="round" stroke-linejoin="round"/>
<path d="M11.8145 2.80221V1.00002" stroke="white" stroke-width="2" stroke-linecap="round" stroke-linejoin="round"/>
<path d="M11.8145 17.2198V19.0219" stroke="white" stroke-width="2" stroke-linecap="round" stroke-linejoin="round"/>
</svg>
