<svg width="40" height="40" viewBox="0 0 40 40" fill="none" xmlns="http://www.w3.org/2000/svg">
<g clip-path="url(#clip0_18_255)">
<path d="M5 11.25V3.75C5 2.375 6.125 1.25 7.5 1.25H30C31.375 1.25 32.5 2.375 32.5 3.75V11.25" stroke="white" stroke-width="2" stroke-linecap="round" stroke-linejoin="round"/>
<path d="M22.275 11.25C22.425 10.8625 22.5 10.4375 22.5 10C22.5 7.925 20.825 6.25 18.75 6.25C16.675 6.25 15 7.925 15 10C15 10.4375 15.075 10.8625 15.225 11.25" stroke="white" stroke-width="2" stroke-linecap="round" stroke-linejoin="round"/>
<path d="M36.25 28.75V36.25C36.25 37.625 35.125 38.75 33.75 38.75H3.75C2.375 38.75 1.25 37.625 1.25 36.25V13.75C1.25 12.375 2.375 11.25 3.75 11.25H33.75C35.125 11.25 36.25 12.375 36.25 13.75V21.25" stroke="white" stroke-width="2" stroke-linecap="round" stroke-linejoin="round"/>
<path d="M32.5 21.25H37.5C38.1875 21.25 38.75 21.8125 38.75 22.5V27.5C38.75 28.1875 38.1875 28.75 37.5 28.75H32.5C30.425 28.75 28.75 27.075 28.75 25C28.75 22.925 30.425 21.25 32.5 21.25Z" stroke="white" stroke-width="2" stroke-linecap="round" stroke-linejoin="round"/>
<path d="M6.25 16.25H8.75" stroke="white" stroke-width="2" stroke-linecap="round" stroke-linejoin="round"/>
<path d="M13.75 16.25H16.25" stroke="white" stroke-width="2" stroke-linecap="round" stroke-linejoin="round"/>
<path d="M21.25 16.25H23.75" stroke="white" stroke-width="2" stroke-linecap="round" stroke-linejoin="round"/>
<path d="M28.75 16.25H31.25" stroke="white" stroke-width="2" stroke-linecap="round" stroke-linejoin="round"/>
<path d="M6.25 33.75H8.75" stroke="white" stroke-width="2" stroke-linecap="round" stroke-linejoin="round"/>
<path d="M13.75 33.75H16.25" stroke="white" stroke-width="2" stroke-linecap="round" stroke-linejoin="round"/>
<path d="M21.25 33.75H23.75" stroke="white" stroke-width="2" stroke-linecap="round" stroke-linejoin="round"/>
<path d="M28.75 33.75H31.25" stroke="white" stroke-width="2" stroke-linecap="round" stroke-linejoin="round"/>
</g>
<defs>
<clipPath id="clip0_18_255">
<rect width="40" height="40" fill="white"/>
</clipPath>
</defs>
</svg>
