<svg width="41" height="44" viewBox="0 0 41 44" fill="none" xmlns="http://www.w3.org/2000/svg">
<path d="M0 1H4.37333C5.69333 1 6.81333 1.94443 7.01333 3.22991L11.6533 32.8877C11.8533 34.1732 12.9733 35.1176 14.2933 35.1176H40" stroke="white" stroke-width="2" stroke-miterlimit="10"/>
<path d="M13.8199 8.05884H37.382C38.8219 8.05884 40 9.22238 40 10.6445V20.3407C40 21.4913 39.2277 22.4997 38.115 22.8229L11.7647 30.4118" stroke="white" stroke-width="2" stroke-miterlimit="10"/>
<path d="M17.0588 42.1765C18.6832 42.1765 20 40.8597 20 39.2353C20 37.6109 18.6832 36.2941 17.0588 36.2941C15.4345 36.2941 14.1176 37.6109 14.1176 39.2353C14.1176 40.8597 15.4345 42.1765 17.0588 42.1765Z" stroke="white" stroke-width="2" stroke-miterlimit="10"/>
<path d="M32.353 42.1765C33.9773 42.1765 35.2941 40.8597 35.2941 39.2353C35.2941 37.6109 33.9773 36.2941 32.353 36.2941C30.7286 36.2941 29.4118 37.6109 29.4118 39.2353C29.4118 40.8597 30.7286 42.1765 32.353 42.1765Z" stroke="white" stroke-width="2" stroke-miterlimit="10"/>
</svg>
