<svg width="40" height="40" viewBox="0 0 40 40" fill="none" xmlns="http://www.w3.org/2000/svg">
<g clip-path="url(#clip0_5_893)">
<path d="M27.5 3.75H32.5V6.25C32.5 10.3875 29.1375 13.75 25 13.75H20V11.25C20 7.1125 23.3625 3.75 27.5 3.75Z" stroke="white" stroke-width="2" stroke-linecap="round" stroke-linejoin="round"/>
<path d="M7.5 7.5H12.5C16.6375 7.5 20 10.8625 20 15V17.5H15C10.8625 17.5 7.5 14.1375 7.5 10V7.5Z" stroke="white" stroke-width="2" stroke-linecap="round" stroke-linejoin="round"/>
<path d="M27.5 23.75H12.5C11.1193 23.75 10 24.8693 10 26.25V28.75C10 30.1307 11.1193 31.25 12.5 31.25H27.5C28.8807 31.25 30 30.1307 30 28.75V26.25C30 24.8693 28.8807 23.75 27.5 23.75Z" stroke="white" stroke-width="2" stroke-linecap="round" stroke-linejoin="round"/>
<path d="M15 38.75H12.5C11.125 38.75 10 37.625 10 36.25V33.75C10 32.375 11.125 31.25 12.5 31.25H27.5C28.875 31.25 30 32.375 30 33.75V36.25C30 37.625 28.875 38.75 27.5 38.75H20" stroke="white" stroke-width="2" stroke-linecap="round" stroke-linejoin="round"/>
<path d="M13.75 38.75H3.75C2.375 38.75 1.25 37.625 1.25 36.25V33.75C1.25 32.375 2.375 31.25 3.75 31.25H13.75" stroke="white" stroke-width="2" stroke-linecap="round" stroke-linejoin="round"/>
<path d="M26.25 38.75H36.25C37.625 38.75 38.75 37.625 38.75 36.25V33.75C38.75 32.375 37.625 31.25 36.25 31.25H26.25" stroke="white" stroke-width="2" stroke-linecap="round" stroke-linejoin="round"/>
<path d="M20 1.25V23.75" stroke="white" stroke-width="2" stroke-linecap="round" stroke-linejoin="round"/>
</g>
<defs>
<clipPath id="clip0_5_893">
<rect width="40" height="40" fill="white"/>
</clipPath>
</defs>
</svg>
