<svg width="41" height="47" viewBox="0 0 41 47" fill="none" xmlns="http://www.w3.org/2000/svg">
<path d="M15.8903 32.266L17.3794 36.7326L14.4013 45.6657" stroke="white" stroke-width="2" stroke-linecap="round" stroke-linejoin="round"/>
<path d="M24.8245 32.266L23.3355 36.7326L26.3135 45.6657" stroke="white" stroke-width="2" stroke-linecap="round" stroke-linejoin="round"/>
<path d="M17.3794 36.7326H23.3355" stroke="white" stroke-width="2" stroke-linecap="round" stroke-linejoin="round"/>
<path d="M20.3574 21.844C26.114 21.844 30.7807 17.1779 30.7807 11.422C30.7807 5.66609 26.114 1 20.3574 1C14.6008 1 9.9342 5.66609 9.9342 11.422C9.9342 17.1779 14.6008 21.844 20.3574 21.844Z" stroke="white" stroke-width="2" stroke-linecap="round" stroke-linejoin="round"/>
<path d="M1 39.7103V33.4124C1 29.2585 3.87382 25.6406 7.92399 24.7026L20.3574 21.8291L32.7909 24.7026C36.841 25.6406 39.7148 29.2436 39.7148 33.4124V45.6657H1" stroke="white" stroke-width="2" stroke-linecap="round" stroke-linejoin="round"/>
<path d="M15.3245 23.0053L20.3574 29.2883L12.9123 33.7549L11.4977 23.8837" stroke="white" stroke-width="2" stroke-linecap="round" stroke-linejoin="round"/>
<path d="M25.3904 23.0053L20.3574 29.2883L27.8026 33.7549L29.2172 23.8837" stroke="white" stroke-width="2" stroke-linecap="round" stroke-linejoin="round"/>
</svg>
