<svg width="36" height="36" viewBox="0 0 36 36" fill="none" xmlns="http://www.w3.org/2000/svg">
<g clip-path="url(#clip0_22_347)">
<path d="M0.632359 17.1437C0.802346 17.155 0.972334 17.1672 1.14139 17.1832C1.29363 17.1973 1.44587 17.2142 1.59718 17.2321C1.76436 17.2518 1.93062 17.2725 2.09687 17.296C2.24817 17.3176 2.39855 17.342 2.54892 17.3674C2.71237 17.3947 2.87582 17.4238 3.03834 17.4558C3.18778 17.4849 3.33535 17.5159 3.48385 17.5479C3.6445 17.5836 3.80515 17.6203 3.96393 17.6597C4.11057 17.6964 4.2572 17.7331 4.40291 17.7735C4.56075 17.8167 4.71673 17.8618 4.87271 17.9079C5.01748 17.9511 5.16131 17.9953 5.30421 18.0414C5.45832 18.0912 5.6115 18.1448 5.76374 18.1983C5.90571 18.2481 6.04674 18.2989 6.18684 18.3515C6.33722 18.4089 6.48572 18.469 6.63423 18.5292C6.77339 18.5856 6.91256 18.6429 7.04986 18.7031C7.18155 18.7604 7.31138 18.8206 7.4412 18.8817C7.0704 17.0883 7.03865 15.2572 7.17875 13.4149C5.96455 13.0042 4.70459 12.6837 3.40446 12.4646C2.56947 12.3237 1.71486 12.5624 1.06013 13.1198C0.386718 13.6932 0.000976562 14.5307 0.000976562 15.417V17.108C0.0588844 17.1099 0.114924 17.1155 0.172832 17.1183C0.326942 17.1249 0.480117 17.1352 0.633293 17.1456L0.632359 17.1437Z" fill="white"/>
<path d="M7.911 20.6074C7.84469 20.5726 7.77931 20.536 7.71206 20.5012C7.58037 20.4316 7.44867 20.3621 7.31511 20.2963C7.19089 20.2352 7.06573 20.1769 6.94058 20.1177C6.80515 20.0547 6.66878 19.9917 6.53149 19.9316C6.40446 19.8761 6.27651 19.8235 6.14855 19.7709C6.00938 19.7135 5.87022 19.6581 5.72918 19.6045C5.59936 19.5556 5.46953 19.5086 5.33877 19.4616C5.19587 19.4109 5.05204 19.362 4.90727 19.314C4.77557 19.2717 4.64388 19.2304 4.51125 19.1909C4.36461 19.1467 4.21704 19.1044 4.06854 19.064C3.93497 19.0274 3.80048 18.9926 3.66598 18.9597C3.51561 18.9221 3.3643 18.8873 3.21299 18.8544C3.07756 18.8243 2.94213 18.7961 2.80577 18.7689C2.65073 18.7388 2.49568 18.7115 2.33971 18.6852C2.20428 18.6627 2.06791 18.6401 1.93155 18.6204C1.77277 18.5978 1.61306 18.5781 1.45334 18.5593C1.31698 18.5433 1.17968 18.5273 1.04238 18.5141C0.879868 18.4991 0.715485 18.4878 0.552035 18.4765C0.415671 18.4671 0.279308 18.4577 0.14201 18.4512C0.0990463 18.4493 0.0570164 18.4455 0.0149865 18.4436C0.0103165 18.4436 0.00564655 18.4436 0.000976562 18.4436V18.4483C0.000976562 18.4483 0.0103165 18.4483 0.0149865 18.4483C0.0672904 20.2051 0.36617 21.8989 0.880802 23.4959C0.883604 23.4959 0.886406 23.4959 0.889208 23.4968C1.02651 23.5128 1.1638 23.5288 1.30017 23.5494C1.38609 23.5626 1.47202 23.5786 1.55702 23.5936C1.68217 23.6152 1.80639 23.6359 1.93062 23.6613C2.02121 23.6792 2.10994 23.7008 2.19961 23.7205C2.31729 23.7468 2.43404 23.7732 2.55079 23.8023C2.64232 23.8258 2.73292 23.8512 2.82445 23.8765C2.93653 23.9076 3.04861 23.9386 3.15976 23.9724C3.25129 24.0006 3.34282 24.0307 3.43342 24.0608C3.54176 24.0965 3.64917 24.1322 3.75658 24.1708C3.84718 24.2036 3.93778 24.2375 4.02837 24.2723C4.13298 24.3127 4.23759 24.354 4.34126 24.3963C4.43093 24.433 4.51966 24.4715 4.60839 24.511C4.71019 24.5561 4.81106 24.6022 4.911 24.6492C4.9988 24.6905 5.08659 24.7328 5.17252 24.7761C5.27152 24.8259 5.37053 24.8767 5.46766 24.9283C5.55266 24.9735 5.63859 25.0195 5.72265 25.0665C5.81885 25.1201 5.91505 25.1765 6.00938 25.2329C6.09251 25.2818 6.1747 25.3306 6.25689 25.3814C6.35122 25.4397 6.44369 25.5008 6.53616 25.5619C6.61555 25.6145 6.69587 25.6662 6.77433 25.7198C6.86679 25.7837 6.95832 25.8504 7.04892 25.9162C7.12458 25.9708 7.20023 26.0253 7.27495 26.0817C7.36741 26.1522 7.45708 26.2255 7.54768 26.2979C7.61773 26.3542 7.68871 26.4088 7.75689 26.4661C7.85309 26.5469 7.94649 26.6297 8.03989 26.7133C8.09967 26.7669 8.16131 26.8176 8.22015 26.8722C8.34531 26.9868 8.46673 27.1053 8.58722 27.2246C8.63672 27.2735 8.68529 27.3233 8.73385 27.3722C8.85247 27.4935 8.97015 27.6157 9.0841 27.7416C9.13827 27.8018 9.19058 27.8638 9.24382 27.9249C9.32601 28.0189 9.4082 28.112 9.48759 28.2078C9.54456 28.2774 9.59967 28.3488 9.65571 28.4193C9.72763 28.5105 9.80048 28.6007 9.87053 28.6938C9.92657 28.768 9.97981 28.8442 10.034 28.9203C10.1003 29.0124 10.1666 29.1045 10.2301 29.1976C10.2834 29.2756 10.3347 29.3555 10.3861 29.4354C10.4468 29.5294 10.5084 29.6234 10.5673 29.7193C10.6177 29.801 10.6654 29.8838 10.7139 29.9665C10.77 30.0623 10.826 30.1582 10.8792 30.256C10.9259 30.3406 10.9717 30.427 11.0165 30.5126C11.0679 30.6113 11.1183 30.71 11.1679 30.8096C11.2108 30.897 11.2528 30.9844 11.2939 31.0728C11.3406 31.1743 11.3864 31.2758 11.4312 31.3783C11.4415 31.4027 11.4537 31.4262 11.4639 31.4506C11.7563 30.0041 12.17 28.6017 12.6903 27.251C10.1741 25.1549 8.70583 22.9206 7.911 20.6074Z" fill="white"/>
<path d="M10.9249 34.106C10.8987 33.9866 10.8726 33.8663 10.8427 33.7479C10.824 33.6736 10.8025 33.6003 10.7829 33.527C10.753 33.417 10.7231 33.307 10.6904 33.199C10.6671 33.1228 10.6419 33.0476 10.6176 32.9715C10.584 32.8671 10.5494 32.7628 10.513 32.6604C10.4859 32.5833 10.456 32.5071 10.427 32.431C10.3887 32.3314 10.3505 32.2317 10.3103 32.133C10.2785 32.0569 10.2468 31.9808 10.2132 31.9056C10.1711 31.8088 10.1282 31.7129 10.0833 31.618C10.0488 31.5428 10.0123 31.4685 9.97592 31.3952C9.92922 31.3012 9.88159 31.2081 9.83302 31.116C9.79473 31.0427 9.75643 30.9703 9.71627 30.8989C9.66583 30.8068 9.61353 30.7165 9.56029 30.6263C9.5192 30.5558 9.4781 30.4863 9.43514 30.4167C9.38003 30.3265 9.32212 30.2381 9.26515 30.1498C9.22125 30.083 9.17829 30.0153 9.13346 29.9496C9.07275 29.8603 9.01017 29.7728 8.94666 29.6854C8.90182 29.6224 8.85699 29.5595 8.81123 29.4984C8.74304 29.4072 8.67206 29.3188 8.60108 29.2296C8.55718 29.1741 8.51328 29.1177 8.46845 29.0622C8.38813 28.9645 8.305 28.8705 8.22187 28.7756C8.18358 28.7314 8.14622 28.6863 8.10699 28.643C7.85948 28.3695 7.5989 28.1073 7.3271 27.8582C7.28321 27.8187 7.23837 27.7802 7.19448 27.7416C7.10108 27.658 7.00768 27.5752 6.91148 27.4944C6.85637 27.4484 6.7994 27.4042 6.74429 27.36C6.65649 27.2886 6.56776 27.2181 6.4781 27.1494C6.41739 27.1034 6.35481 27.0592 6.2941 27.0141C6.20631 26.9502 6.11944 26.8863 6.02978 26.8252C5.9644 26.78 5.89809 26.7368 5.83177 26.6926C5.74304 26.6344 5.65525 26.5761 5.56465 26.5206C5.49647 26.4783 5.42642 26.437 5.3573 26.3956C5.26764 26.342 5.17704 26.2894 5.08551 26.2386C5.01453 26.1992 4.94261 26.1597 4.86976 26.1211C4.77729 26.0723 4.68483 26.0243 4.59143 25.9773C4.51764 25.9407 4.44385 25.905 4.37007 25.8692C4.27573 25.8251 4.18047 25.7818 4.0852 25.7395C4.00955 25.7066 3.93389 25.6728 3.8573 25.6418C3.76017 25.6014 3.66303 25.5628 3.56496 25.5252C3.48837 25.4951 3.41085 25.466 3.33333 25.4378C3.23246 25.4011 3.13159 25.3682 3.02978 25.3344C2.95319 25.309 2.87567 25.2827 2.79815 25.2592C2.69261 25.2273 2.58613 25.1972 2.47966 25.168C2.404 25.1474 2.32835 25.1248 2.25176 25.1051C2.13875 25.0759 2.02573 25.0515 1.91179 25.0261C1.83987 25.0101 1.76795 24.9923 1.69603 24.9772C1.59983 24.9575 1.5027 24.9415 1.40649 24.9246C3.22872 29.2812 6.69572 32.7703 11.0248 34.6042C11.0248 34.6042 11.0248 34.6023 11.0248 34.6014C11.008 34.5045 10.9921 34.4068 10.9725 34.31C10.9585 34.2423 10.9426 34.1756 10.9277 34.1088L10.9249 34.106Z" fill="white"/>
<path d="M18.2438 29.4034C16.7943 29.4034 15.3111 29.1431 13.7859 28.0979C13.0368 30.1347 12.5493 32.2966 12.3578 34.5393C12.3578 34.5403 12.3578 34.5412 12.3578 34.5421C12.3419 34.7235 12.3298 34.905 12.3176 35.0873C12.3578 35.1005 12.3979 35.1155 12.439 35.1287C13.9531 35.6231 15.5539 35.922 17.2136 35.9944C17.2164 35.9436 17.2202 35.8928 17.222 35.8421C17.2286 35.687 17.2389 35.5328 17.2491 35.3787C17.2603 35.2076 17.2725 35.0365 17.2884 34.8664C17.3014 34.7273 17.3164 34.5891 17.3313 34.451C17.3313 34.4481 17.3313 34.4463 17.3313 34.4434C17.3332 34.4312 17.3351 34.4181 17.336 34.4058C17.3556 34.2385 17.3762 34.0712 17.3995 33.9049C17.421 33.7516 17.4453 33.5994 17.4705 33.448C17.4976 33.2835 17.5265 33.1209 17.5574 32.9574C17.5863 32.8061 17.6171 32.6557 17.6498 32.5062C17.6526 32.4921 17.6554 32.4771 17.6592 32.463C17.6909 32.3173 17.7255 32.1716 17.76 32.0278C17.7965 31.8783 17.8338 31.7298 17.874 31.5813C17.9141 31.4328 17.9552 31.2862 17.9982 31.1395C17.9982 31.1395 17.9982 31.1395 17.9982 31.1386C18.001 31.1301 18.0029 31.1226 18.0057 31.1141C18.0486 30.9675 18.0935 30.8209 18.1402 30.6752C18.1897 30.522 18.241 30.3697 18.2943 30.2184C18.3447 30.0746 18.3951 29.9298 18.4484 29.7879C18.4979 29.6572 18.5493 29.5275 18.6016 29.3978C18.482 29.4006 18.3625 29.4053 18.2429 29.4053L18.2438 29.4034Z" fill="white"/>
<path d="M34.9399 13.1198C34.2861 12.5624 33.4324 12.3227 32.5956 12.4646C30.8238 12.7636 29.1258 13.2495 27.5193 13.8971C27.5594 14.0569 27.5949 14.2177 27.623 14.3803C27.8303 14.9414 28.0218 15.5101 28.1936 16.0881C28.4813 17.0563 28.67 17.9521 28.7783 18.7811C28.8353 18.7548 28.8923 18.7285 28.9492 18.7031C29.0865 18.6429 29.2257 18.5865 29.3649 18.5292C29.5134 18.4681 29.6619 18.4089 29.8122 18.3515C29.9523 18.298 30.0943 18.2481 30.2354 18.1974C30.3876 18.1438 30.5408 18.0912 30.6949 18.0404C30.8378 17.9944 30.9816 17.9502 31.1264 17.9069C31.2824 17.8599 31.4383 17.8148 31.5962 17.7725C31.7419 17.7331 31.8885 17.6955 32.0352 17.6588C32.1949 17.6193 32.3546 17.5827 32.5152 17.5469C32.6628 17.514 32.8113 17.484 32.9608 17.4548C33.1233 17.4229 33.2858 17.3937 33.4502 17.3665C33.6005 17.3411 33.7509 17.3167 33.9022 17.295C34.0675 17.2715 34.2347 17.2509 34.401 17.2311C34.5523 17.2133 34.7045 17.1963 34.8577 17.1822C35.0268 17.1663 35.1967 17.154 35.3667 17.1428C35.5199 17.1324 35.6731 17.1221 35.8272 17.1155C35.8842 17.1127 35.9411 17.107 35.999 17.1052V15.4142C35.999 14.5278 35.6133 13.6903 34.9399 13.117V13.1198Z" fill="white"/>
<path d="M35.8591 18.4512C35.7218 18.4568 35.5854 18.4672 35.449 18.4766C35.2847 18.4878 35.1212 18.4991 34.9587 18.5141C34.8205 18.5273 34.6841 18.5433 34.5468 18.5593C34.3871 18.5781 34.2283 18.5978 34.0695 18.6204C33.9322 18.6401 33.7959 18.6627 33.6595 18.6852C33.5045 18.7115 33.3485 18.7388 33.1944 18.7689C33.058 18.7961 32.9216 18.8243 32.7862 18.8544C32.6349 18.8873 32.4845 18.9221 32.3351 18.9597C32.1997 18.9935 32.0642 19.0283 31.9297 19.065C31.7822 19.1054 31.6355 19.1467 31.4898 19.1909C31.3563 19.2313 31.2227 19.2727 31.0901 19.3159C30.9472 19.3629 30.8043 19.4118 30.6623 19.4616C30.5297 19.5086 30.398 19.5556 30.2672 19.6054C30.1281 19.6581 29.9908 19.7135 29.8525 19.7699C29.7227 19.8235 29.5929 19.8761 29.464 19.9325C29.3286 19.9917 29.195 20.0538 29.0614 20.1158C29.0045 20.1421 28.9484 20.1703 28.8914 20.1967C28.9606 22.8135 28.19 24.6323 27.3802 25.8091C26.04 27.7576 23.8105 29.0218 21.4157 29.1891C21.0702 29.2136 20.7208 29.2446 20.3837 29.2756C20.2828 29.285 20.181 29.2935 20.0792 29.3029C20.0596 29.347 20.0381 29.3912 20.0194 29.4363C19.9634 29.567 19.9092 29.6995 19.856 29.8321C19.8009 29.9684 19.7457 30.1056 19.6944 30.2447C19.6439 30.3782 19.5963 30.5126 19.5496 30.647C19.501 30.787 19.4525 30.928 19.4067 31.07C19.3628 31.2063 19.3208 31.3426 19.2806 31.4798C19.2376 31.6236 19.1975 31.7674 19.1583 31.9131C19.1209 32.0513 19.0854 32.1904 19.0509 32.3304C19.0154 32.4771 18.9817 32.6246 18.949 32.7732C18.9182 32.9132 18.8893 33.0542 18.8612 33.1961C18.8323 33.3465 18.8061 33.4979 18.7809 33.6501C18.7576 33.7921 18.7342 33.934 18.7137 34.0769C18.6959 34.1991 18.6801 34.3212 18.6651 34.4434C18.6651 34.4444 18.6651 34.4463 18.6651 34.4472C18.6614 34.4782 18.6586 34.5102 18.6548 34.5412C18.638 34.6841 18.6212 34.8269 18.6081 34.9708C18.5932 35.1287 18.5829 35.2875 18.5717 35.4464C18.5624 35.5902 18.5521 35.7331 18.5456 35.8778C18.5437 35.9192 18.54 35.9596 18.5381 36C18.539 36 18.5409 36 18.5428 36C18.6212 35.9972 18.7006 35.9972 18.7781 35.9944C18.78 35.9944 18.7819 35.9944 18.7828 35.9944C20.4434 35.9229 22.0443 35.624 23.5583 35.1287C23.5583 35.1258 23.5583 35.124 23.5583 35.1211C23.5742 34.983 23.5901 34.8448 23.6106 34.7076C23.619 34.6521 23.6284 34.5976 23.6377 34.5431C23.6433 34.5102 23.6499 34.4782 23.6545 34.4463C23.676 34.3212 23.6966 34.1962 23.7208 34.0731C23.7386 33.9819 23.7601 33.8917 23.7797 33.8015C23.8058 33.684 23.8311 33.5665 23.8609 33.4499C23.8843 33.3569 23.9095 33.2657 23.9347 33.1736C23.9655 33.0608 23.9964 32.9489 24.03 32.8371C24.0459 32.7854 24.0608 32.7327 24.0767 32.681C24.0898 32.6406 24.1047 32.6002 24.1178 32.5598C24.1533 32.4517 24.1888 32.3436 24.2261 32.2364C24.2588 32.1443 24.2934 32.0532 24.3279 31.961C24.3681 31.8558 24.4083 31.7514 24.4512 31.6471C24.4783 31.5813 24.5045 31.5155 24.5325 31.4497C24.5428 31.4253 24.5549 31.4018 24.5652 31.3764C24.6091 31.2749 24.6548 31.1734 24.7015 31.0737C24.7426 30.9844 24.7856 30.8951 24.8286 30.8068C24.8771 30.7081 24.9276 30.6113 24.978 30.5135C25.0238 30.4261 25.0695 30.3396 25.1172 30.2532C25.1704 30.1573 25.2255 30.0623 25.2806 29.9674C25.3301 29.8828 25.3787 29.7992 25.4301 29.7155C25.488 29.6215 25.5477 29.5294 25.6075 29.4373C25.6608 29.3564 25.7121 29.2747 25.7672 29.1948C25.8298 29.1036 25.8943 29.0134 25.9587 28.9241C26.0147 28.8461 26.0698 28.768 26.1268 28.691C26.195 28.6007 26.266 28.5124 26.336 28.4231C26.393 28.3507 26.45 28.2764 26.5088 28.2059C26.5854 28.1138 26.6648 28.0236 26.7433 27.9334C26.7993 27.8685 26.8544 27.8027 26.9123 27.7388C27.0169 27.6232 27.1243 27.5113 27.2327 27.4004C27.299 27.3318 27.3672 27.2641 27.4344 27.1964C27.5465 27.0865 27.6586 26.9765 27.7744 26.8703C27.837 26.8129 27.9014 26.7594 27.964 26.703C28.0546 26.6231 28.1452 26.5422 28.2376 26.4642C28.3086 26.405 28.3824 26.3477 28.4543 26.2903C28.5421 26.2198 28.6299 26.1484 28.7196 26.0807C28.7952 26.0225 28.8737 25.9679 28.9512 25.9115C29.0409 25.8467 29.1296 25.7818 29.2202 25.7188C29.2996 25.6643 29.3809 25.6117 29.4612 25.5581C29.5527 25.498 29.6452 25.4378 29.7386 25.3795C29.8208 25.3288 29.9039 25.279 29.988 25.2301C30.0823 25.1737 30.1776 25.1182 30.2728 25.0646C30.3578 25.0167 30.4438 24.9716 30.5297 24.9255C30.6268 24.8738 30.724 24.8231 30.822 24.7742C30.9098 24.731 30.9976 24.6887 31.0863 24.6464C31.1863 24.5994 31.2862 24.5533 31.388 24.5091C31.4768 24.4697 31.5664 24.4311 31.657 24.3945C31.7598 24.3522 31.8644 24.3108 31.968 24.2704C32.0586 24.2356 32.1492 24.2008 32.2417 24.1679C32.3482 24.1294 32.4556 24.0937 32.563 24.058C32.6545 24.0279 32.7461 23.9978 32.8385 23.9696C32.9497 23.9358 33.0617 23.9047 33.1738 23.8737C33.2644 23.8484 33.356 23.823 33.4475 23.7995C33.5633 23.7703 33.681 23.744 33.7987 23.7177C33.8883 23.698 33.9771 23.6763 34.0677 23.6585C34.191 23.634 34.3152 23.6124 34.4394 23.5917C34.5263 23.5767 34.6113 23.5607 34.699 23.5476C34.8345 23.5269 34.9708 23.5109 35.1072 23.4949C35.1109 23.4949 35.1137 23.4949 35.1175 23.494C35.633 21.897 35.931 20.2032 35.9833 18.4465C35.988 18.4465 35.9926 18.4465 35.9973 18.4465V18.4418C35.9973 18.4418 35.988 18.4418 35.9833 18.4418C35.9403 18.4437 35.8983 18.4474 35.8563 18.4493L35.8591 18.4512Z" fill="white"/>
<path d="M34.0917 25.0224C33.9778 25.0477 33.8629 25.0731 33.7499 25.1023C33.6733 25.122 33.5986 25.1436 33.5229 25.1643C33.4165 25.1934 33.31 25.2235 33.2044 25.2555C33.1269 25.279 33.0494 25.3053 32.9719 25.3307C32.8701 25.3645 32.7683 25.3983 32.6683 25.4341C32.5908 25.4623 32.5151 25.4914 32.4386 25.5205C32.3396 25.5581 32.2415 25.5976 32.1434 25.638C32.0678 25.67 31.9921 25.7029 31.9165 25.7358C31.8212 25.7781 31.7259 25.8213 31.6316 25.8655C31.5569 25.9012 31.4831 25.9369 31.4093 25.9736C31.3159 26.0206 31.2234 26.0685 31.1319 26.1174C31.06 26.1559 30.9881 26.1945 30.9161 26.2349C30.8246 26.2856 30.7349 26.3383 30.6443 26.3919C30.5743 26.4332 30.5052 26.4746 30.4361 26.5178C30.3464 26.5733 30.2586 26.6315 30.1708 26.6889C30.1045 26.7331 30.0372 26.7763 29.9719 26.8214C29.8831 26.8825 29.7953 26.9464 29.7085 27.0103C29.6468 27.0555 29.5843 27.0996 29.5226 27.1466C29.432 27.2153 29.3442 27.2867 29.2555 27.3581C29.2004 27.4032 29.1443 27.4465 29.0892 27.4916C28.993 27.5724 28.8987 27.6561 28.8044 27.7397C28.7605 27.7783 28.7156 27.8159 28.6727 27.8554C28.4009 28.1054 28.1403 28.3667 27.8919 28.6402C27.8526 28.6835 27.8153 28.7286 27.776 28.7727C27.6929 28.8677 27.6098 28.9617 27.5295 29.0594C27.4846 29.1139 27.4417 29.1703 27.3968 29.2258C27.3259 29.3151 27.2549 29.4035 27.1867 29.4946C27.1409 29.5557 27.0961 29.6187 27.0513 29.6817C26.9877 29.7691 26.9252 29.8565 26.8645 29.9458C26.8196 30.0116 26.7757 30.0793 26.7328 30.146C26.6749 30.2344 26.6179 30.3227 26.5628 30.413C26.5198 30.4825 26.4787 30.5521 26.4376 30.6226C26.3844 30.7128 26.3321 30.804 26.2816 30.8952C26.2415 30.9675 26.2032 31.0399 26.1649 31.1123C26.1163 31.2044 26.0687 31.2974 26.0229 31.3914C25.9865 31.4657 25.951 31.54 25.9155 31.6152C25.8707 31.7101 25.8277 31.806 25.7866 31.9028C25.7539 31.978 25.7212 32.0541 25.6895 32.1302C25.6493 32.2289 25.6101 32.3286 25.5727 32.4282C25.5438 32.5043 25.5148 32.5805 25.4868 32.6576C25.4504 32.76 25.4158 32.8643 25.3822 32.9687C25.3579 33.0448 25.3318 33.12 25.3094 33.1961C25.2767 33.3042 25.2468 33.4142 25.2169 33.5242C25.1963 33.5984 25.1758 33.6718 25.1571 33.746C25.1272 33.8644 25.1011 33.9838 25.0749 34.1032C25.06 34.1709 25.0441 34.2367 25.0301 34.3043C25.0105 34.4012 24.9946 34.4989 24.9778 34.5957C24.9778 34.5967 24.9778 34.5976 24.9778 34.5985C29.3069 32.7647 32.7739 29.2756 34.5961 24.919C34.499 24.9359 34.4018 24.9519 34.3066 24.9716C34.2346 24.9866 34.1637 25.0036 34.0917 25.0195V25.0224Z" fill="white"/>
<path d="M10.2301 22.1C10.9474 23.3727 11.9459 24.6069 13.303 25.7959C13.6308 26.0835 13.9792 26.3683 14.35 26.6513C14.3546 26.655 14.3602 26.6588 14.3649 26.6625C16.0088 27.9052 17.5723 27.9775 19.2974 27.8544C19.6093 27.8318 19.9269 27.8036 20.251 27.7745C20.4546 27.7557 20.6629 27.7378 20.8721 27.7209C21.0178 27.7087 21.1644 27.6965 21.3129 27.6861C23.2575 27.5508 25.0657 26.5281 26.1492 24.9528C26.1725 24.9189 26.194 24.8851 26.2164 24.8513C26.9253 23.7769 27.3167 22.4826 27.3858 21.0097C27.397 20.7672 27.3998 20.52 27.3933 20.2681C27.4026 20.1111 27.4082 19.9541 27.4082 19.7953C27.4082 19.6853 27.4054 19.5753 27.4007 19.4654C27.3858 19.1439 27.3494 18.8253 27.2914 18.5141L27.2877 18.4953L27.283 18.4775L27.2812 18.47V18.4653L27.2793 18.4606C27.2634 18.3835 27.2466 18.3083 27.2298 18.2322C27.2167 18.2651 27.2027 18.297 27.1896 18.329C27.1541 18.4164 27.1177 18.5029 27.0785 18.5884C27.0253 18.7059 26.9683 18.8215 26.9085 18.9362C26.7703 19.2022 26.6162 19.4597 26.4443 19.7079C26.4443 19.737 26.4462 19.7662 26.4462 19.7953C26.4462 19.8714 26.4443 19.9476 26.4415 20.0237C26.4228 20.6544 26.3257 21.2569 26.1613 21.8152C25.572 23.8201 24.1205 25.2686 22.3338 25.5111C22.1591 25.5346 21.9817 25.5478 21.8005 25.5478C21.4418 25.5478 21.0944 25.4998 20.7553 25.4152C19.2049 25.027 17.8618 23.8211 16.7718 22.4149C16.4832 22.0427 16.2114 21.6564 15.9593 21.2672C15.3148 20.2756 14.7908 19.2689 14.4013 18.438C14.152 17.906 13.9147 17.3552 13.6906 16.7922C12.2419 13.1583 11.3406 8.99247 11.3397 5.75435V5.26746C11.336 3.30202 11.3332 1.60448 11.816 1.11853C11.8852 1.04803 11.9972 0.968134 12.2457 0.968134C12.6482 0.968134 13.2507 1.1768 14.0352 1.5885C17.2127 3.25503 19.9017 5.63216 21.9966 8.56855C22.2777 8.63905 22.5523 8.72458 22.8213 8.82422C22.8998 8.85336 22.9782 8.88249 23.0558 8.91351C23.0987 8.93137 23.1408 8.95017 23.1837 8.96803C23.3089 9.02067 23.4322 9.07706 23.5536 9.13628C23.2594 8.67195 22.953 8.21795 22.6308 7.77712C20.4583 4.8003 17.7152 2.42975 14.4779 0.732207C13.529 0.234035 12.8192 0.00280762 12.2447 0.00280762C11.7946 0.00280762 11.421 0.1485 11.1352 0.437063C10.8886 0.68615 10.7223 1.02453 10.6093 1.44939C10.5654 1.6167 10.5197 1.78307 10.4655 1.94756C10.316 2.40155 10.2021 2.94672 10.1264 3.58025C10.0508 4.21753 9.95832 4.85952 9.85838 5.49962C9.73323 6.30516 9.59499 7.10693 9.45956 7.89461C9.10371 9.95873 8.7544 11.9871 8.63671 13.9648C8.51623 15.9819 8.63671 17.9455 9.23914 19.8376C9.48385 20.6055 9.80701 21.3603 10.2254 22.1038L10.2301 22.1Z" fill="white"/>
<path d="M20.8898 9.6495C20.4321 9.58934 20.0343 9.56114 19.6887 9.56114C18.0355 9.56114 17.575 10.2135 17.4602 11.2314C17.1295 14.1424 18.2578 16.7198 20.1015 18.6091C20.6563 19.1777 21.2746 19.6834 21.9387 20.1177C22.3057 20.3574 22.726 20.4758 23.1426 20.4758C23.6918 20.4758 24.2373 20.2709 24.6529 19.8677C25.2917 19.2492 25.7924 18.485 26.1034 17.625C26.2201 17.3016 26.3117 16.9651 26.3724 16.6173C26.4041 16.435 26.4284 16.2498 26.4434 16.0609C26.4508 15.9631 26.4564 15.8635 26.4602 15.7639C26.462 15.7037 26.4602 15.6454 26.4602 15.5862C26.4602 15.5101 26.4592 15.4349 26.4555 15.3597C26.4424 15.0345 26.4032 14.7168 26.3387 14.4094C26.1351 13.445 25.6877 12.5756 25.061 11.8499C24.9191 11.6854 24.7678 11.5294 24.609 11.3809C24.5931 11.3658 24.5763 11.3499 24.5595 11.3348C24.4175 11.2042 24.269 11.0801 24.114 10.9626C23.8188 10.738 23.5013 10.5377 23.1669 10.3639C22.4729 10.0029 21.7024 9.75665 20.8898 9.65044V9.6495Z" fill="white"/>
<g clip-path="url(#clip1_22_347)">
<path d="M0.632359 17.1437C0.802346 17.155 0.972334 17.1672 1.14139 17.1832C1.29363 17.1973 1.44587 17.2142 1.59718 17.2321C1.76436 17.2518 1.93062 17.2725 2.09687 17.296C2.24817 17.3176 2.39855 17.342 2.54892 17.3674C2.71237 17.3947 2.87582 17.4238 3.03834 17.4558C3.18778 17.4849 3.33535 17.5159 3.48385 17.5479C3.6445 17.5836 3.80515 17.6203 3.96393 17.6597C4.11057 17.6964 4.2572 17.7331 4.40291 17.7735C4.56075 17.8167 4.71673 17.8618 4.87271 17.9079C5.01748 17.9511 5.16131 17.9953 5.30421 18.0414C5.45832 18.0912 5.6115 18.1448 5.76374 18.1983C5.90571 18.2481 6.04674 18.2989 6.18684 18.3515C6.33722 18.4089 6.48572 18.469 6.63423 18.5292C6.77339 18.5856 6.91256 18.6429 7.04986 18.7031C7.18155 18.7604 7.31138 18.8206 7.4412 18.8817C7.0704 17.0883 7.03865 15.2572 7.17875 13.4149C5.96455 13.0042 4.70459 12.6837 3.40446 12.4646C2.56947 12.3237 1.71486 12.5624 1.06013 13.1198C0.386718 13.6932 0.000976562 14.5307 0.000976562 15.417V17.108C0.0588844 17.1099 0.114924 17.1155 0.172832 17.1183C0.326942 17.1249 0.480117 17.1352 0.633293 17.1456L0.632359 17.1437Z" fill="white"/>
<path d="M7.911 20.6074C7.84469 20.5726 7.77931 20.536 7.71206 20.5012C7.58037 20.4316 7.44867 20.3621 7.31511 20.2963C7.19089 20.2352 7.06573 20.1769 6.94058 20.1177C6.80515 20.0547 6.66878 19.9917 6.53149 19.9316C6.40446 19.8761 6.27651 19.8235 6.14855 19.7709C6.00938 19.7135 5.87022 19.6581 5.72918 19.6045C5.59936 19.5556 5.46953 19.5086 5.33877 19.4616C5.19587 19.4109 5.05204 19.362 4.90727 19.314C4.77557 19.2717 4.64388 19.2304 4.51125 19.1909C4.36461 19.1467 4.21704 19.1044 4.06854 19.064C3.93497 19.0274 3.80048 18.9926 3.66598 18.9597C3.51561 18.9221 3.3643 18.8873 3.21299 18.8544C3.07756 18.8243 2.94213 18.7961 2.80577 18.7689C2.65073 18.7388 2.49568 18.7115 2.33971 18.6852C2.20428 18.6627 2.06791 18.6401 1.93155 18.6204C1.77277 18.5978 1.61306 18.5781 1.45334 18.5593C1.31698 18.5433 1.17968 18.5273 1.04238 18.5141C0.879868 18.4991 0.715485 18.4878 0.552035 18.4765C0.415671 18.4671 0.279308 18.4577 0.14201 18.4512C0.0990463 18.4493 0.0570164 18.4455 0.0149865 18.4436C0.0103165 18.4436 0.00564655 18.4436 0.000976562 18.4436V18.4483C0.000976562 18.4483 0.0103165 18.4483 0.0149865 18.4483C0.0672904 20.2051 0.36617 21.8989 0.880802 23.4959C0.883604 23.4959 0.886406 23.4959 0.889208 23.4968C1.02651 23.5128 1.1638 23.5288 1.30017 23.5494C1.38609 23.5626 1.47202 23.5786 1.55702 23.5936C1.68217 23.6152 1.80639 23.6359 1.93062 23.6613C2.02121 23.6792 2.10994 23.7008 2.19961 23.7205C2.31729 23.7468 2.43404 23.7732 2.55079 23.8023C2.64232 23.8258 2.73292 23.8512 2.82445 23.8765C2.93653 23.9076 3.04861 23.9386 3.15976 23.9724C3.25129 24.0006 3.34282 24.0307 3.43342 24.0608C3.54176 24.0965 3.64917 24.1322 3.75658 24.1708C3.84718 24.2036 3.93778 24.2375 4.02837 24.2723C4.13298 24.3127 4.23759 24.354 4.34126 24.3963C4.43093 24.433 4.51966 24.4715 4.60839 24.511C4.71019 24.5561 4.81106 24.6022 4.911 24.6492C4.9988 24.6905 5.08659 24.7328 5.17252 24.7761C5.27152 24.8259 5.37053 24.8767 5.46766 24.9283C5.55266 24.9735 5.63859 25.0195 5.72265 25.0665C5.81885 25.1201 5.91505 25.1765 6.00938 25.2329C6.09251 25.2818 6.1747 25.3306 6.25689 25.3814C6.35122 25.4397 6.44369 25.5008 6.53616 25.5619C6.61555 25.6145 6.69587 25.6662 6.77433 25.7198C6.86679 25.7837 6.95832 25.8504 7.04892 25.9162C7.12458 25.9708 7.20023 26.0253 7.27495 26.0817C7.36741 26.1522 7.45708 26.2255 7.54768 26.2979C7.61773 26.3542 7.68871 26.4088 7.75689 26.4661C7.85309 26.5469 7.94649 26.6297 8.03989 26.7133C8.09967 26.7669 8.16131 26.8176 8.22015 26.8722C8.34531 26.9868 8.46673 27.1053 8.58722 27.2246C8.63672 27.2735 8.68529 27.3233 8.73385 27.3722C8.85247 27.4935 8.97015 27.6157 9.0841 27.7416C9.13827 27.8018 9.19058 27.8638 9.24382 27.9249C9.32601 28.0189 9.4082 28.112 9.48759 28.2078C9.54456 28.2774 9.59967 28.3488 9.65571 28.4193C9.72763 28.5105 9.80048 28.6007 9.87053 28.6938C9.92657 28.768 9.97981 28.8442 10.034 28.9203C10.1003 29.0124 10.1666 29.1045 10.2301 29.1976C10.2834 29.2756 10.3347 29.3555 10.3861 29.4354C10.4468 29.5294 10.5084 29.6234 10.5673 29.7193C10.6177 29.801 10.6654 29.8838 10.7139 29.9665C10.77 30.0623 10.826 30.1582 10.8792 30.256C10.9259 30.3406 10.9717 30.427 11.0165 30.5126C11.0679 30.6113 11.1183 30.71 11.1679 30.8096C11.2108 30.897 11.2528 30.9844 11.2939 31.0728C11.3406 31.1743 11.3864 31.2758 11.4312 31.3783C11.4415 31.4027 11.4537 31.4262 11.4639 31.4506C11.7563 30.0041 12.17 28.6017 12.6903 27.251C10.1741 25.1549 8.70583 22.9206 7.911 20.6074Z" fill="white"/>
<path d="M10.9249 34.106C10.8987 33.9866 10.8726 33.8663 10.8427 33.7479C10.824 33.6736 10.8025 33.6003 10.7829 33.527C10.753 33.417 10.7231 33.307 10.6904 33.199C10.6671 33.1228 10.6419 33.0476 10.6176 32.9715C10.584 32.8671 10.5494 32.7628 10.513 32.6604C10.4859 32.5833 10.456 32.5071 10.427 32.431C10.3887 32.3314 10.3505 32.2317 10.3103 32.133C10.2785 32.0569 10.2468 31.9808 10.2132 31.9056C10.1711 31.8088 10.1282 31.7129 10.0833 31.618C10.0488 31.5428 10.0123 31.4685 9.97592 31.3952C9.92922 31.3012 9.88159 31.2081 9.83302 31.116C9.79473 31.0427 9.75643 30.9703 9.71627 30.8989C9.66583 30.8068 9.61353 30.7165 9.56029 30.6263C9.5192 30.5558 9.4781 30.4863 9.43514 30.4167C9.38003 30.3265 9.32212 30.2381 9.26515 30.1498C9.22125 30.083 9.17829 30.0153 9.13346 29.9496C9.07275 29.8603 9.01017 29.7728 8.94666 29.6854C8.90182 29.6224 8.85699 29.5595 8.81123 29.4984C8.74304 29.4072 8.67206 29.3188 8.60108 29.2296C8.55718 29.1741 8.51328 29.1177 8.46845 29.0622C8.38813 28.9645 8.305 28.8705 8.22187 28.7756C8.18358 28.7314 8.14622 28.6863 8.10699 28.643C7.85948 28.3695 7.5989 28.1073 7.3271 27.8582C7.28321 27.8187 7.23837 27.7802 7.19448 27.7416C7.10108 27.658 7.00768 27.5752 6.91148 27.4944C6.85637 27.4484 6.7994 27.4042 6.74429 27.36C6.65649 27.2886 6.56776 27.2181 6.4781 27.1494C6.41739 27.1034 6.35481 27.0592 6.2941 27.0141C6.20631 26.9502 6.11944 26.8863 6.02978 26.8252C5.9644 26.78 5.89809 26.7368 5.83177 26.6926C5.74304 26.6344 5.65525 26.5761 5.56465 26.5206C5.49647 26.4783 5.42642 26.437 5.3573 26.3956C5.26764 26.342 5.17704 26.2894 5.08551 26.2386C5.01453 26.1992 4.94261 26.1597 4.86976 26.1211C4.77729 26.0723 4.68483 26.0243 4.59143 25.9773C4.51764 25.9407 4.44385 25.905 4.37007 25.8692C4.27573 25.8251 4.18047 25.7818 4.0852 25.7395C4.00955 25.7066 3.93389 25.6728 3.8573 25.6418C3.76017 25.6014 3.66303 25.5628 3.56496 25.5252C3.48837 25.4951 3.41085 25.466 3.33333 25.4378C3.23246 25.4011 3.13159 25.3682 3.02978 25.3344C2.95319 25.309 2.87567 25.2827 2.79815 25.2592C2.69261 25.2273 2.58613 25.1972 2.47966 25.168C2.404 25.1474 2.32835 25.1248 2.25176 25.1051C2.13875 25.0759 2.02573 25.0515 1.91179 25.0261C1.83987 25.0101 1.76795 24.9923 1.69603 24.9772C1.59983 24.9575 1.5027 24.9415 1.40649 24.9246C3.22872 29.2812 6.69572 32.7703 11.0248 34.6042C11.0248 34.6042 11.0248 34.6023 11.0248 34.6014C11.008 34.5045 10.9921 34.4068 10.9725 34.31C10.9585 34.2423 10.9426 34.1756 10.9277 34.1088L10.9249 34.106Z" fill="white"/>
<path d="M18.2438 29.4034C16.7943 29.4034 15.3111 29.1431 13.7859 28.0979C13.0368 30.1347 12.5493 32.2966 12.3578 34.5393C12.3578 34.5403 12.3578 34.5412 12.3578 34.5421C12.3419 34.7235 12.3298 34.905 12.3176 35.0873C12.3578 35.1005 12.3979 35.1155 12.439 35.1287C13.9531 35.6231 15.5539 35.922 17.2136 35.9944C17.2164 35.9436 17.2202 35.8928 17.222 35.8421C17.2286 35.687 17.2389 35.5328 17.2491 35.3787C17.2603 35.2076 17.2725 35.0365 17.2884 34.8664C17.3014 34.7273 17.3164 34.5891 17.3313 34.451C17.3313 34.4481 17.3313 34.4463 17.3313 34.4434C17.3332 34.4312 17.3351 34.4181 17.336 34.4058C17.3556 34.2385 17.3762 34.0712 17.3995 33.9049C17.421 33.7516 17.4453 33.5994 17.4705 33.448C17.4976 33.2835 17.5265 33.1209 17.5574 32.9574C17.5863 32.8061 17.6171 32.6557 17.6498 32.5062C17.6526 32.4921 17.6554 32.4771 17.6592 32.463C17.6909 32.3173 17.7255 32.1716 17.76 32.0278C17.7965 31.8783 17.8338 31.7298 17.874 31.5813C17.9141 31.4328 17.9552 31.2862 17.9982 31.1395C17.9982 31.1395 17.9982 31.1395 17.9982 31.1386C18.001 31.1301 18.0029 31.1226 18.0057 31.1141C18.0486 30.9675 18.0935 30.8209 18.1402 30.6752C18.1897 30.522 18.241 30.3697 18.2943 30.2184C18.3447 30.0746 18.3951 29.9298 18.4484 29.7879C18.4979 29.6572 18.5493 29.5275 18.6016 29.3978C18.482 29.4006 18.3625 29.4053 18.2429 29.4053L18.2438 29.4034Z" fill="white"/>
<path d="M34.9399 13.1198C34.2861 12.5624 33.4324 12.3227 32.5956 12.4646C30.8238 12.7636 29.1258 13.2495 27.5193 13.8971C27.5594 14.0569 27.5949 14.2177 27.623 14.3803C27.8303 14.9414 28.0218 15.5101 28.1936 16.0881C28.4813 17.0563 28.67 17.9521 28.7783 18.7811C28.8353 18.7548 28.8923 18.7285 28.9492 18.7031C29.0865 18.6429 29.2257 18.5865 29.3649 18.5292C29.5134 18.4681 29.6619 18.4089 29.8122 18.3515C29.9523 18.298 30.0943 18.2481 30.2354 18.1974C30.3876 18.1438 30.5408 18.0912 30.6949 18.0404C30.8378 17.9944 30.9816 17.9502 31.1264 17.9069C31.2824 17.8599 31.4383 17.8148 31.5962 17.7725C31.7419 17.7331 31.8885 17.6955 32.0352 17.6588C32.1949 17.6193 32.3546 17.5827 32.5152 17.5469C32.6628 17.514 32.8113 17.484 32.9608 17.4548C33.1233 17.4229 33.2858 17.3937 33.4502 17.3665C33.6005 17.3411 33.7509 17.3167 33.9022 17.295C34.0675 17.2715 34.2347 17.2509 34.401 17.2311C34.5523 17.2133 34.7045 17.1963 34.8577 17.1822C35.0268 17.1663 35.1967 17.154 35.3667 17.1428C35.5199 17.1324 35.6731 17.1221 35.8272 17.1155C35.8842 17.1127 35.9411 17.107 35.999 17.1052V15.4142C35.999 14.5278 35.6133 13.6903 34.9399 13.117V13.1198Z" fill="white"/>
<path d="M35.8591 18.4512C35.7218 18.4568 35.5854 18.4672 35.449 18.4766C35.2847 18.4878 35.1212 18.4991 34.9587 18.5141C34.8205 18.5273 34.6841 18.5433 34.5468 18.5593C34.3871 18.5781 34.2283 18.5978 34.0695 18.6204C33.9322 18.6401 33.7959 18.6627 33.6595 18.6852C33.5045 18.7115 33.3485 18.7388 33.1944 18.7689C33.058 18.7961 32.9216 18.8243 32.7862 18.8544C32.6349 18.8873 32.4845 18.9221 32.3351 18.9597C32.1997 18.9935 32.0642 19.0283 31.9297 19.065C31.7822 19.1054 31.6355 19.1467 31.4898 19.1909C31.3563 19.2313 31.2227 19.2727 31.0901 19.3159C30.9472 19.3629 30.8043 19.4118 30.6623 19.4616C30.5297 19.5086 30.398 19.5556 30.2672 19.6054C30.1281 19.6581 29.9908 19.7135 29.8525 19.7699C29.7227 19.8235 29.5929 19.8761 29.464 19.9325C29.3286 19.9917 29.195 20.0538 29.0614 20.1158C29.0045 20.1421 28.9484 20.1703 28.8914 20.1967C28.9606 22.8135 28.19 24.6323 27.3802 25.8091C26.04 27.7576 23.8105 29.0218 21.4157 29.1891C21.0702 29.2136 20.7208 29.2446 20.3837 29.2756C20.2828 29.285 20.181 29.2935 20.0792 29.3029C20.0596 29.347 20.0381 29.3912 20.0194 29.4363C19.9634 29.567 19.9092 29.6995 19.856 29.8321C19.8009 29.9684 19.7457 30.1056 19.6944 30.2447C19.6439 30.3782 19.5963 30.5126 19.5496 30.647C19.501 30.787 19.4525 30.928 19.4067 31.07C19.3628 31.2063 19.3208 31.3426 19.2806 31.4798C19.2376 31.6236 19.1975 31.7674 19.1583 31.9131C19.1209 32.0513 19.0854 32.1904 19.0509 32.3304C19.0154 32.4771 18.9817 32.6246 18.949 32.7732C18.9182 32.9132 18.8893 33.0542 18.8612 33.1961C18.8323 33.3465 18.8061 33.4979 18.7809 33.6501C18.7576 33.7921 18.7342 33.934 18.7137 34.0769C18.6959 34.1991 18.6801 34.3212 18.6651 34.4434C18.6651 34.4444 18.6651 34.4463 18.6651 34.4472C18.6614 34.4782 18.6586 34.5102 18.6548 34.5412C18.638 34.6841 18.6212 34.8269 18.6081 34.9708C18.5932 35.1287 18.5829 35.2875 18.5717 35.4464C18.5624 35.5902 18.5521 35.7331 18.5456 35.8778C18.5437 35.9192 18.54 35.9596 18.5381 36C18.539 36 18.5409 36 18.5428 36C18.6212 35.9972 18.7006 35.9972 18.7781 35.9944C18.78 35.9944 18.7819 35.9944 18.7828 35.9944C20.4434 35.9229 22.0443 35.624 23.5583 35.1287C23.5583 35.1258 23.5583 35.124 23.5583 35.1211C23.5742 34.983 23.5901 34.8448 23.6106 34.7076C23.619 34.6521 23.6284 34.5976 23.6377 34.5431C23.6433 34.5102 23.6499 34.4782 23.6545 34.4463C23.676 34.3212 23.6966 34.1962 23.7208 34.0731C23.7386 33.9819 23.7601 33.8917 23.7797 33.8015C23.8058 33.684 23.8311 33.5665 23.8609 33.4499C23.8843 33.3569 23.9095 33.2657 23.9347 33.1736C23.9655 33.0608 23.9964 32.9489 24.03 32.8371C24.0459 32.7854 24.0608 32.7327 24.0767 32.681C24.0898 32.6406 24.1047 32.6002 24.1178 32.5598C24.1533 32.4517 24.1888 32.3436 24.2261 32.2364C24.2588 32.1443 24.2934 32.0532 24.3279 31.961C24.3681 31.8558 24.4083 31.7514 24.4512 31.6471C24.4783 31.5813 24.5045 31.5155 24.5325 31.4497C24.5428 31.4253 24.5549 31.4018 24.5652 31.3764C24.6091 31.2749 24.6548 31.1734 24.7015 31.0737C24.7426 30.9844 24.7856 30.8951 24.8286 30.8068C24.8771 30.7081 24.9276 30.6113 24.978 30.5135C25.0238 30.4261 25.0695 30.3396 25.1172 30.2532C25.1704 30.1573 25.2255 30.0623 25.2806 29.9674C25.3301 29.8828 25.3787 29.7992 25.4301 29.7155C25.488 29.6215 25.5477 29.5294 25.6075 29.4373C25.6608 29.3564 25.7121 29.2747 25.7672 29.1948C25.8298 29.1036 25.8943 29.0134 25.9587 28.9241C26.0147 28.8461 26.0698 28.768 26.1268 28.691C26.195 28.6007 26.266 28.5124 26.336 28.4231C26.393 28.3507 26.45 28.2764 26.5088 28.2059C26.5854 28.1138 26.6648 28.0236 26.7433 27.9334C26.7993 27.8685 26.8544 27.8027 26.9123 27.7388C27.0169 27.6232 27.1243 27.5113 27.2327 27.4004C27.299 27.3318 27.3672 27.2641 27.4344 27.1964C27.5465 27.0865 27.6586 26.9765 27.7744 26.8703C27.837 26.8129 27.9014 26.7594 27.964 26.703C28.0546 26.6231 28.1452 26.5422 28.2376 26.4642C28.3086 26.405 28.3824 26.3477 28.4543 26.2903C28.5421 26.2198 28.6299 26.1484 28.7196 26.0807C28.7952 26.0225 28.8737 25.9679 28.9512 25.9115C29.0409 25.8467 29.1296 25.7818 29.2202 25.7188C29.2996 25.6643 29.3809 25.6117 29.4612 25.5581C29.5527 25.498 29.6452 25.4378 29.7386 25.3795C29.8208 25.3288 29.9039 25.279 29.988 25.2301C30.0823 25.1737 30.1776 25.1182 30.2728 25.0646C30.3578 25.0167 30.4438 24.9716 30.5297 24.9255C30.6268 24.8738 30.724 24.8231 30.822 24.7742C30.9098 24.731 30.9976 24.6887 31.0863 24.6464C31.1863 24.5994 31.2862 24.5533 31.388 24.5091C31.4768 24.4697 31.5664 24.4311 31.657 24.3945C31.7598 24.3522 31.8644 24.3108 31.968 24.2704C32.0586 24.2356 32.1492 24.2008 32.2417 24.1679C32.3482 24.1294 32.4556 24.0937 32.563 24.058C32.6545 24.0279 32.7461 23.9978 32.8385 23.9696C32.9497 23.9358 33.0617 23.9047 33.1738 23.8737C33.2644 23.8484 33.356 23.823 33.4475 23.7995C33.5633 23.7703 33.681 23.744 33.7987 23.7177C33.8883 23.698 33.9771 23.6763 34.0677 23.6585C34.191 23.634 34.3152 23.6124 34.4394 23.5917C34.5263 23.5767 34.6113 23.5607 34.699 23.5476C34.8345 23.5269 34.9708 23.5109 35.1072 23.4949C35.1109 23.4949 35.1137 23.4949 35.1175 23.494C35.633 21.897 35.931 20.2032 35.9833 18.4465C35.988 18.4465 35.9926 18.4465 35.9973 18.4465V18.4418C35.9973 18.4418 35.988 18.4418 35.9833 18.4418C35.9403 18.4437 35.8983 18.4474 35.8563 18.4493L35.8591 18.4512Z" fill="white"/>
<path d="M34.0917 25.0224C33.9778 25.0477 33.8629 25.0731 33.7499 25.1023C33.6733 25.122 33.5986 25.1436 33.5229 25.1643C33.4165 25.1934 33.31 25.2235 33.2044 25.2555C33.1269 25.279 33.0494 25.3053 32.9719 25.3307C32.8701 25.3645 32.7683 25.3983 32.6683 25.4341C32.5908 25.4623 32.5151 25.4914 32.4386 25.5205C32.3396 25.5581 32.2415 25.5976 32.1434 25.638C32.0678 25.67 31.9921 25.7029 31.9165 25.7358C31.8212 25.7781 31.7259 25.8213 31.6316 25.8655C31.5569 25.9012 31.4831 25.9369 31.4093 25.9736C31.3159 26.0206 31.2234 26.0685 31.1319 26.1174C31.06 26.1559 30.9881 26.1945 30.9161 26.2349C30.8246 26.2856 30.7349 26.3383 30.6443 26.3919C30.5743 26.4332 30.5052 26.4746 30.4361 26.5178C30.3464 26.5733 30.2586 26.6315 30.1708 26.6889C30.1045 26.7331 30.0372 26.7763 29.9719 26.8214C29.8831 26.8825 29.7953 26.9464 29.7085 27.0103C29.6468 27.0555 29.5843 27.0996 29.5226 27.1466C29.432 27.2153 29.3442 27.2867 29.2555 27.3581C29.2004 27.4032 29.1443 27.4465 29.0892 27.4916C28.993 27.5724 28.8987 27.6561 28.8044 27.7397C28.7605 27.7783 28.7156 27.8159 28.6727 27.8554C28.4009 28.1054 28.1403 28.3667 27.8919 28.6402C27.8526 28.6835 27.8153 28.7286 27.776 28.7727C27.6929 28.8677 27.6098 28.9617 27.5295 29.0594C27.4846 29.1139 27.4417 29.1703 27.3968 29.2258C27.3259 29.3151 27.2549 29.4035 27.1867 29.4946C27.1409 29.5557 27.0961 29.6187 27.0513 29.6817C26.9877 29.7691 26.9252 29.8565 26.8645 29.9458C26.8196 30.0116 26.7757 30.0793 26.7328 30.146C26.6749 30.2344 26.6179 30.3227 26.5628 30.413C26.5198 30.4825 26.4787 30.5521 26.4376 30.6226C26.3844 30.7128 26.3321 30.804 26.2816 30.8952C26.2415 30.9675 26.2032 31.0399 26.1649 31.1123C26.1163 31.2044 26.0687 31.2974 26.0229 31.3914C25.9865 31.4657 25.951 31.54 25.9155 31.6152C25.8707 31.7101 25.8277 31.806 25.7866 31.9028C25.7539 31.978 25.7212 32.0541 25.6895 32.1302C25.6493 32.2289 25.6101 32.3286 25.5727 32.4282C25.5438 32.5043 25.5148 32.5805 25.4868 32.6576C25.4504 32.76 25.4158 32.8643 25.3822 32.9687C25.3579 33.0448 25.3318 33.12 25.3094 33.1961C25.2767 33.3042 25.2468 33.4142 25.2169 33.5242C25.1963 33.5984 25.1758 33.6718 25.1571 33.746C25.1272 33.8644 25.1011 33.9838 25.0749 34.1032C25.06 34.1709 25.0441 34.2367 25.0301 34.3043C25.0105 34.4012 24.9946 34.4989 24.9778 34.5957C24.9778 34.5967 24.9778 34.5976 24.9778 34.5985C29.3069 32.7647 32.7739 29.2756 34.5961 24.919C34.499 24.9359 34.4018 24.9519 34.3066 24.9716C34.2346 24.9866 34.1637 25.0036 34.0917 25.0195V25.0224Z" fill="white"/>
<path d="M10.2301 22.1C10.9474 23.3727 11.9459 24.6069 13.303 25.7959C13.6308 26.0835 13.9792 26.3683 14.35 26.6513C14.3546 26.655 14.3602 26.6588 14.3649 26.6625C16.0088 27.9052 17.5723 27.9775 19.2974 27.8544C19.6093 27.8318 19.9269 27.8036 20.251 27.7745C20.4546 27.7557 20.6629 27.7378 20.8721 27.7209C21.0178 27.7087 21.1644 27.6965 21.3129 27.6861C23.2575 27.5508 25.0657 26.5281 26.1492 24.9528C26.1725 24.9189 26.194 24.8851 26.2164 24.8513C26.9253 23.7769 27.3167 22.4826 27.3858 21.0097C27.397 20.7672 27.3998 20.52 27.3933 20.2681C27.4026 20.1111 27.4082 19.9541 27.4082 19.7953C27.4082 19.6853 27.4054 19.5753 27.4007 19.4654C27.3858 19.1439 27.3494 18.8253 27.2914 18.5141L27.2877 18.4953L27.283 18.4775L27.2812 18.47V18.4653L27.2793 18.4606C27.2634 18.3835 27.2466 18.3083 27.2298 18.2322C27.2167 18.2651 27.2027 18.297 27.1896 18.329C27.1541 18.4164 27.1177 18.5029 27.0785 18.5884C27.0253 18.7059 26.9683 18.8215 26.9085 18.9362C26.7703 19.2022 26.6162 19.4597 26.4443 19.7079C26.4443 19.737 26.4462 19.7662 26.4462 19.7953C26.4462 19.8714 26.4443 19.9476 26.4415 20.0237C26.4228 20.6544 26.3257 21.2569 26.1613 21.8152C25.572 23.8201 24.1205 25.2686 22.3338 25.5111C22.1591 25.5346 21.9817 25.5478 21.8005 25.5478C21.4418 25.5478 21.0944 25.4998 20.7553 25.4152C19.2049 25.027 17.8618 23.8211 16.7718 22.4149C16.4832 22.0427 16.2114 21.6564 15.9593 21.2672C15.3148 20.2756 14.7908 19.2689 14.4013 18.438C14.152 17.906 13.9147 17.3552 13.6906 16.7922C12.2419 13.1583 11.3406 8.99247 11.3397 5.75435V5.26746C11.336 3.30202 11.3332 1.60448 11.816 1.11853C11.8852 1.04803 11.9972 0.968134 12.2457 0.968134C12.6482 0.968134 13.2507 1.1768 14.0352 1.5885C17.2127 3.25503 19.9017 5.63216 21.9966 8.56855C22.2777 8.63905 22.5523 8.72458 22.8213 8.82422C22.8998 8.85336 22.9782 8.88249 23.0558 8.91351C23.0987 8.93137 23.1408 8.95017 23.1837 8.96803C23.3089 9.02067 23.4322 9.07706 23.5536 9.13628C23.2594 8.67195 22.953 8.21795 22.6308 7.77712C20.4583 4.8003 17.7152 2.42975 14.4779 0.732207C13.529 0.234035 12.8192 0.00280762 12.2447 0.00280762C11.7946 0.00280762 11.421 0.1485 11.1352 0.437063C10.8886 0.68615 10.7223 1.02453 10.6093 1.44939C10.5654 1.6167 10.5197 1.78307 10.4655 1.94756C10.316 2.40155 10.2021 2.94672 10.1264 3.58025C10.0508 4.21753 9.95832 4.85952 9.85838 5.49962C9.73323 6.30516 9.59499 7.10693 9.45956 7.89461C9.10371 9.95873 8.7544 11.9871 8.63671 13.9648C8.51623 15.9819 8.63671 17.9455 9.23914 19.8376C9.48385 20.6055 9.80701 21.3603 10.2254 22.1038L10.2301 22.1Z" fill="white"/>
<path d="M20.8898 9.6495C20.4321 9.58934 20.0343 9.56114 19.6887 9.56114C18.0355 9.56114 17.575 10.2135 17.4602 11.2314C17.1295 14.1424 18.2578 16.7198 20.1015 18.6091C20.6563 19.1777 21.2746 19.6834 21.9387 20.1177C22.3057 20.3574 22.726 20.4758 23.1426 20.4758C23.6918 20.4758 24.2373 20.2709 24.6529 19.8677C25.2917 19.2492 25.7924 18.485 26.1034 17.625C26.2201 17.3016 26.3117 16.9651 26.3724 16.6173C26.4041 16.435 26.4284 16.2498 26.4434 16.0609C26.4508 15.9631 26.4564 15.8635 26.4602 15.7639C26.462 15.7037 26.4602 15.6454 26.4602 15.5862C26.4602 15.5101 26.4592 15.4349 26.4555 15.3597C26.4424 15.0345 26.4032 14.7168 26.3387 14.4094C26.1351 13.445 25.6877 12.5756 25.061 11.8499C24.9191 11.6854 24.7678 11.5294 24.609 11.3809C24.5931 11.3658 24.5763 11.3499 24.5595 11.3348C24.4175 11.2042 24.269 11.0801 24.114 10.9626C23.8188 10.738 23.5013 10.5377 23.1669 10.3639C22.4729 10.0029 21.7024 9.75665 20.8898 9.65044V9.6495Z" fill="white"/>
</g>
</g>
<defs>
<clipPath id="clip0_22_347">
<rect width="36" height="36" fill="white"/>
</clipPath>
<clipPath id="clip1_22_347">
<rect width="36" height="36" fill="white"/>
</clipPath>
</defs>
</svg>
