<svg width="47" height="57" viewBox="0 0 47 57" fill="none" xmlns="http://www.w3.org/2000/svg">
<path d="M45.0052 23V52.3333C45.0052 54.35 43.355 56 41.3381 56H12.0013C9.98442 56 8.33423 54.35 8.33423 52.3333V12C8.33423 9.98334 9.98442 8.33334 12.0013 8.33334H41.3381C43.355 8.33334 45.0052 9.98334 45.0052 12V15.6667" stroke="white" stroke-width="2" stroke-linecap="round" stroke-linejoin="round"/>
<path d="M8.33419 48.6667H4.66709C2.65019 48.6667 1 47.0167 1 45V4.66667C1 2.65 2.65019 1 4.66709 1H34.0038C36.0207 1 37.6709 2.65 37.6709 4.66667V8.33333" stroke="white" stroke-width="2" stroke-linecap="round" stroke-linejoin="round"/>
<path d="M15.6685 41.3333H19.3356" stroke="white" stroke-width="2" stroke-linecap="round" stroke-linejoin="round"/>
<path d="M15.636 34.3698H19.3031" stroke="white" stroke-width="2" stroke-linecap="round" stroke-linejoin="round"/>
<path d="M15.636 27.3445H19.3031" stroke="white" stroke-width="2" stroke-linecap="round" stroke-linejoin="round"/>
<path d="M15.636 17.9776H19.3031" stroke="white" stroke-width="2" stroke-linecap="round" stroke-linejoin="round"/>
<path d="M26.6697 41.3333H37.671" stroke="white" stroke-width="2" stroke-linecap="round" stroke-linejoin="round"/>
<path d="M26.6372 34.3698H37.6385" stroke="white" stroke-width="2" stroke-linecap="round" stroke-linejoin="round"/>
<path d="M26.6372 27.3445H37.6385" stroke="white" stroke-width="2" stroke-linecap="round" stroke-linejoin="round"/>
<path d="M26.6372 17.9776H37.6385" stroke="white" stroke-width="2" stroke-linecap="round" stroke-linejoin="round"/>
<path d="M15.6685 48.6667H19.3356" stroke="white" stroke-width="2" stroke-linecap="round" stroke-linejoin="round"/>
<path d="M26.6697 48.6667H37.671" stroke="white" stroke-width="2" stroke-linecap="round" stroke-linejoin="round"/>
</svg>
