<svg width="57" height="47" viewBox="0 0 57 47" fill="none" xmlns="http://www.w3.org/2000/svg">
<g clip-path="url(#clip0_33_341)">
<path d="M1.78125 21.6923V37.9615H19.8966C23.1206 37.9615 26.22 39.2631 28.5 41.5769V5.42308C26.22 3.10923 23.1206 1.80769 19.8966 1.80769H5.34375C3.38437 1.80769 1.78125 3.43462 1.78125 5.42308V14.4615" stroke="white" stroke-width="2" stroke-linecap="round" stroke-linejoin="round"/>
<path d="M28.5 5.42308C30.78 3.10923 33.8794 1.80769 37.1034 1.80769H51.6562C53.6156 1.80769 55.2188 3.43462 55.2188 5.42308V37.9615H37.1034C33.8794 37.9615 30.78 39.2631 28.5 41.5769V5.42308Z" stroke="white" stroke-width="2" stroke-linecap="round" stroke-linejoin="round"/>
<path d="M1.78125 37.9615V41.5769C1.78125 43.5654 3.38437 45.1923 5.34375 45.1923H51.6562C53.6156 45.1923 55.2188 43.5654 55.2188 41.5769V37.9615" stroke="white" stroke-width="2" stroke-linecap="round" stroke-linejoin="round"/>
<path d="M35.625 9.03846H48.0938" stroke="white" stroke-width="2" stroke-linecap="round" stroke-linejoin="round"/>
<path d="M35.625 16.2692H48.0938" stroke="white" stroke-width="2" stroke-linecap="round" stroke-linejoin="round"/>
<path d="M35.625 23.5H48.0938" stroke="white" stroke-width="2" stroke-linecap="round" stroke-linejoin="round"/>
<path d="M35.625 30.7308H42.75" stroke="white" stroke-width="2" stroke-linecap="round" stroke-linejoin="round"/>
<path d="M8.90625 9.03846H21.375" stroke="white" stroke-width="2" stroke-linecap="round" stroke-linejoin="round"/>
<path d="M8.90625 16.2692H21.375" stroke="white" stroke-width="2" stroke-linecap="round" stroke-linejoin="round"/>
<path d="M8.90625 23.5H21.375" stroke="white" stroke-width="2" stroke-linecap="round" stroke-linejoin="round"/>
<path d="M8.90625 30.7308H16.0312" stroke="white" stroke-width="2" stroke-linecap="round" stroke-linejoin="round"/>
</g>
<defs>
<clipPath id="clip0_33_341">
<rect width="57" height="47" fill="white"/>
</clipPath>
</defs>
</svg>
