<svg width="44" height="63" viewBox="0 0 44 63" fill="none" xmlns="http://www.w3.org/2000/svg">
<path d="M11.54 41.3438C10.4 38.9813 8.92 36.7763 7.12 34.8075C3.94 31.3228 2 26.7159 2 21.6563C2 10.0603 12.2 0.787505 24.26 2.08688C33.54 3.09094 41.02 10.5919 41.9 19.7466C42.44 25.3772 40.56 30.5747 37.18 34.4531C33.58 38.5875 30.96 43.4503 30.04 48.825L29.98 49.2188H14" stroke="white" stroke-width="2" stroke-linecap="round" stroke-linejoin="round"/>
<path d="M14 49.2188H30V53.1562C30 57.5072 26.42 61.0312 22 61.0312C17.58 61.0312 14 57.5072 14 53.1562V49.2188Z" stroke="white" stroke-width="2" stroke-linecap="round" stroke-linejoin="round"/>
<rect width="44" height="63" stroke="black"/>
</svg>
