<svg width="58" height="44" viewBox="0 0 58 44" fill="none" xmlns="http://www.w3.org/2000/svg">
<g clip-path="url(#clip0_33_353)">
<path d="M25.375 38.5H38.0625V5.5C38.0625 3.48334 36.4313 1.83334 34.4375 1.83334H5.4375C3.44375 1.83334 1.8125 3.48334 1.8125 5.5V34.8333C1.8125 36.85 3.44375 38.5 5.4375 38.5H10.875" stroke="white" stroke-width="2" stroke-linecap="round" stroke-linejoin="round"/>
<path d="M43.5 38.5H38.0625" stroke="white" stroke-width="2" stroke-linecap="round" stroke-linejoin="round"/>
<path d="M38.0625 14.6667H48.5025C49.88 14.6667 51.1306 15.455 51.7469 16.7017L56.1875 25.6667V36.6667C56.1875 37.675 55.3719 38.5 54.375 38.5H50.75" stroke="white" stroke-width="2" stroke-linecap="round" stroke-linejoin="round"/>
<path d="M56.1875 25.6667H45.3125" stroke="white" stroke-width="2" stroke-linecap="round" stroke-linejoin="round"/>
<path d="M14.5 42.1667C16.502 42.1667 18.125 40.525 18.125 38.5C18.125 36.475 16.502 34.8333 14.5 34.8333C12.498 34.8333 10.875 36.475 10.875 38.5C10.875 40.525 12.498 42.1667 14.5 42.1667Z" stroke="white" stroke-width="2" stroke-linecap="round" stroke-linejoin="round"/>
<path d="M47.125 42.1667C49.127 42.1667 50.75 40.525 50.75 38.5C50.75 36.475 49.127 34.8333 47.125 34.8333C45.123 34.8333 43.5 36.475 43.5 38.5C43.5 40.525 45.123 42.1667 47.125 42.1667Z" stroke="white" stroke-width="2" stroke-linecap="round" stroke-linejoin="round"/>
<path d="M25.375 11H30.8125" stroke="white" stroke-width="2" stroke-linecap="round" stroke-linejoin="round"/>
<path d="M25.375 18.3333H30.8125" stroke="white" stroke-width="2" stroke-linecap="round" stroke-linejoin="round"/>
<path d="M10.875 11H16.3125" stroke="white" stroke-width="2" stroke-linecap="round" stroke-linejoin="round"/>
<path d="M10.875 18.3333H16.3125" stroke="white" stroke-width="2" stroke-linecap="round" stroke-linejoin="round"/>
</g>
<defs>
<clipPath id="clip0_33_353">
<rect width="58" height="44" fill="white"/>
</clipPath>
</defs>
</svg>
