<svg width="26" height="26" viewBox="0 0 26 26" fill="none" xmlns="http://www.w3.org/2000/svg">
<path d="M8.31121 23.0508C4.46712 20.8219 1.70328 16.8702 1.11936 12.2956C0.623039 8.35364 1.70328 4.66476 3.82482 1.78373C4.52551 0.829874 5.9269 0.732542 6.76384 1.5696L8.71995 3.52597L9.99482 4.80102C10.4522 5.25848 10.6566 5.92034 10.5301 6.56273L9.94616 9.47296C9.82938 10.0667 9.44983 10.5631 8.90485 10.8356L6.03395 12.2664C6.79304 16.1499 9.84884 19.2062 13.7319 19.9653L15.1624 17.0941C15.4349 16.5587 15.9313 16.1694 16.5249 16.0526L19.4347 15.4686C20.077 15.3421 20.7291 15.5367 21.1962 16.0039L24.4272 19.2354C25.2641 20.0724 25.1765 21.474 24.2131 22.1748C21.3324 24.2966 17.6441 25.377 13.6929 24.8806C13.0117 24.793 12.3499 24.6568 11.6979 24.4816" stroke="#6CB439" stroke-miterlimit="10"/>
</svg>
