<svg width="52" height="52" viewBox="0 0 52 52" fill="none" xmlns="http://www.w3.org/2000/svg">
<path d="M16.2317 46.9391C8.22317 42.2956 2.46516 34.0629 1.24867 24.5325C0.214665 16.3201 2.46516 8.63491 6.88504 2.63277C8.34482 0.645571 11.2644 0.442796 13.008 2.18666L17.0832 6.26244L19.7392 8.91879C20.6921 9.87184 21.1179 11.2507 20.8543 12.589L19.6378 18.652C19.3945 19.8889 18.6038 20.9231 17.4684 21.4908L11.4874 24.4716C13.0688 32.5624 19.4351 38.9295 27.5247 40.5111L30.5051 34.5293C31.0728 33.414 32.1068 32.6029 33.3435 32.3596L39.4057 31.1429C40.7438 30.8793 42.1022 31.2849 43.0754 32.2582L49.8066 38.9903C51.5502 40.7342 51.3677 43.6542 49.3606 45.1141C43.3592 49.5346 35.6751 51.7854 27.4436 50.7513C26.0244 50.5688 24.6457 50.2849 23.2873 49.9199" stroke="white" stroke-width="2" stroke-miterlimit="10"/>
</svg>
