<svg width="25" height="26" viewBox="0 0 25 26" fill="none" xmlns="http://www.w3.org/2000/svg">
<path d="M0 1H2.624C3.416 1 4.088 1.55047 4.208 2.29972L6.992 19.586C7.112 20.3352 7.784 20.8857 8.576 20.8857H24" stroke="#64A836" stroke-miterlimit="10"/>
<path d="M8.29168 5.1145H22.429C23.2929 5.1145 23.9998 5.79268 23.9998 6.62157V12.2731C23.9998 12.9437 23.5364 13.5315 22.8688 13.7198L7.05859 18.1431" stroke="#64A836" stroke-miterlimit="10"/>
<path d="M10.2354 24.9999C11.21 24.9999 12.0001 24.2323 12.0001 23.2856C12.0001 22.3388 11.21 21.5713 10.2354 21.5713C9.26079 21.5713 8.4707 22.3388 8.4707 23.2856C8.4707 24.2323 9.26079 24.9999 10.2354 24.9999Z" stroke="#64A836" stroke-miterlimit="10"/>
<path d="M19.4112 24.9999C20.3858 24.9999 21.1759 24.2323 21.1759 23.2856C21.1759 22.3388 20.3858 21.5713 19.4112 21.5713C18.4366 21.5713 17.6465 22.3388 17.6465 23.2856C17.6465 24.2323 18.4366 24.9999 19.4112 24.9999Z" stroke="#64A836" stroke-miterlimit="10"/>
<path d="M9.17578 8.54272V13.3427" stroke="#64A836" stroke-miterlimit="10"/>
<path d="M14.8242 8.54272V12.657" stroke="#64A836" stroke-miterlimit="10"/>
<path d="M19.0586 8.54272V10.5999" stroke="#64A836" stroke-miterlimit="10"/>
</svg>
