<svg width="51" height="52" viewBox="0 0 51 52" fill="none" xmlns="http://www.w3.org/2000/svg">
<path d="M0 1H5.46667C7.11667 1 8.51667 2.14681 8.76667 3.70775L14.5667 39.7208C14.8167 41.2818 16.2167 42.4286 17.8667 42.4286H50" stroke="white" stroke-width="2" stroke-miterlimit="10"/>
<path d="M17.274 9.57141H46.7267C48.5266 9.57141 49.9992 10.9843 49.9992 12.7111V24.4851C49.9992 25.8822 49.0338 27.1067 47.643 27.4992L14.7051 36.7143" stroke="white" stroke-width="2" stroke-miterlimit="10"/>
<path d="M21.3239 51C23.3544 51 25.0004 49.401 25.0004 47.4286C25.0004 45.4561 23.3544 43.8571 21.3239 43.8571C19.2935 43.8571 17.6475 45.4561 17.6475 47.4286C17.6475 49.401 19.2935 51 21.3239 51Z" stroke="white" stroke-width="2" stroke-miterlimit="10"/>
<path d="M40.4411 51C42.4716 51 44.1176 49.401 44.1176 47.4286C44.1176 45.4561 42.4716 43.8571 40.4411 43.8571C38.4107 43.8571 36.7646 45.4561 36.7646 47.4286C36.7646 49.401 38.4107 51 40.4411 51Z" stroke="white" stroke-width="2" stroke-miterlimit="10"/>
<path d="M19.1172 16.7143V26.7143" stroke="white" stroke-width="2" stroke-miterlimit="10"/>
<path d="M30.8828 16.7143V25.2857" stroke="white" stroke-width="2" stroke-miterlimit="10"/>
<path d="M39.7051 16.7143V21" stroke="white" stroke-width="2" stroke-miterlimit="10"/>
</svg>
