<svg width="52" height="52" viewBox="0 0 52 52" fill="none" xmlns="http://www.w3.org/2000/svg">
<path d="M14.3333 34.3333H4.33333C2.5 34.3333 1 32.8333 1 31V4.33333C1 2.5 2.5 1 4.33333 1H44.3333C46.1666 1 47.6666 2.5 47.6666 4.33333V26.6" stroke="white" stroke-width="2" stroke-miterlimit="10"/>
<path d="M47.6666 7.66669H1V14.3334H47.6666V7.66669Z" stroke="white" stroke-width="2" stroke-miterlimit="10"/>
<path d="M36 51C44.2843 51 51 44.2843 51 36C51 27.7157 44.2843 21 36 21C27.7157 21 21 27.7157 21 36C21 44.2843 27.7157 51 36 51Z" stroke="white" stroke-width="2" stroke-miterlimit="10"/>
<path d="M32.666 42.6667H35.9993C37.8327 42.6667 39.3327 41.1667 39.3327 39.3333C39.3327 37.5 37.8327 36 35.9993 36C34.166 36 32.666 34.5 32.666 32.6667C32.666 30.8333 34.166 29.3333 35.9993 29.3333H39.3327" stroke="white" stroke-width="2" stroke-miterlimit="10"/>
<path d="M36 29.3333V27.6667" stroke="white" stroke-width="2" stroke-miterlimit="10"/>
<path d="M36 42.6667V44.3333" stroke="white" stroke-width="2" stroke-miterlimit="10"/>
<path d="M7.66602 27.6667H14.3327" stroke="white" stroke-width="2" stroke-miterlimit="10"/>
</svg>
