<svg width="25" height="25" viewBox="0 0 25 25" fill="none" xmlns="http://www.w3.org/2000/svg">
<path d="M7.13333 16.3333H2.53333C1.69 16.3333 1 15.6433 1 14.8V2.53333C1 1.69 1.69 1 2.53333 1H20.9333C21.7767 1 22.4666 1.69 22.4666 2.53333V12.776" stroke="#6BB239" stroke-miterlimit="10"/>
<path d="M22.4667 4.06665H1V7.13332H22.4667V4.06665Z" stroke="#6BB239" stroke-miterlimit="10"/>
<path d="M17.1012 24C20.9119 24 24.0012 20.9107 24.0012 17.1C24.0012 13.2892 20.9119 10.2 17.1012 10.2C13.2904 10.2 10.2012 13.2892 10.2012 17.1C10.2012 20.9107 13.2904 24 17.1012 24Z" stroke="#6BB239" stroke-miterlimit="10"/>
<path d="M15.5664 20.1665H17.0997C17.9431 20.1665 18.6331 19.4765 18.6331 18.6332C18.6331 17.7899 17.9431 17.0999 17.0997 17.0999C16.2564 17.0999 15.5664 16.4099 15.5664 15.5665C15.5664 14.7232 16.2564 14.0332 17.0997 14.0332H18.6331" stroke="#6BB239" stroke-miterlimit="10"/>
<path d="M17.0996 14.0333V13.2666" stroke="#6BB239" stroke-miterlimit="10"/>
<path d="M17.0996 20.1667V20.9334" stroke="#6BB239" stroke-miterlimit="10"/>
<path d="M4.06641 13.2666H7.13307" stroke="#6BB239" stroke-miterlimit="10"/>
</svg>
