<svg width="28" height="31" viewBox="0 0 28 31" fill="none" xmlns="http://www.w3.org/2000/svg">
<path fill-rule="evenodd" clip-rule="evenodd" d="M27.2924 8.84999C27.4706 9.02818 27.5597 9.24597 27.5597 9.50335C27.5597 9.76073 27.4706 9.97852 27.2924 10.1567L21.9765 15.8587C21.8775 15.9577 21.7686 16.032 21.6498 16.0814C21.531 16.1309 21.4023 16.1557 21.2637 16.1557H13.3344V29.5198C13.3344 29.7574 13.2403 29.9652 13.0523 30.1434C12.8642 30.3216 12.6414 30.4107 12.3841 30.4107C12.1267 30.4107 11.9039 30.3216 11.7158 30.1434C11.5278 29.9652 11.4337 29.7574 11.4337 29.5198V16.1557H0.950335C0.692951 16.1557 0.470219 16.0617 0.282131 15.8736C0.0940426 15.6855 0 15.4627 0 15.2054V3.80134C0 3.54396 0.0940426 3.32122 0.282131 3.13314C0.470219 2.94505 0.692951 2.851 0.950335 2.851H11.4337L11.4634 0.890939C11.4634 0.653354 11.5476 0.44547 11.7158 0.267282C11.8841 0.089093 12.097 0 12.3544 0C12.6117 0 12.8345 0.089093 13.0226 0.267282C13.2106 0.44547 13.3047 0.653354 13.3047 0.890939L13.3344 2.851H21.2637C21.4023 2.851 21.531 2.87575 21.6498 2.92525C21.7686 2.97475 21.8775 3.04899 21.9765 3.14798L27.2924 8.84999ZM20.848 14.255L25.3027 9.50335L20.848 4.75167H1.90067V14.255H20.848Z" fill="#67AA36"/>
</svg>
