<svg width="25" height="25" viewBox="0 0 25 25" fill="none" xmlns="http://www.w3.org/2000/svg">
<g clip-path="url(#clip0_213_2378)">
<path d="M3.125 7.03125V2.34375C3.125 1.48437 3.82812 0.78125 4.6875 0.78125H18.75C19.6094 0.78125 20.3125 1.48437 20.3125 2.34375V7.03125" stroke="#D2D2D2" stroke-linecap="round" stroke-linejoin="round"/>
<path d="M13.9219 7.03125C14.0156 6.78906 14.0625 6.52344 14.0625 6.25C14.0625 4.95313 13.0156 3.90625 11.7188 3.90625C10.4219 3.90625 9.375 4.95313 9.375 6.25C9.375 6.52344 9.42188 6.78906 9.51563 7.03125" stroke="#D2D2D2" stroke-linecap="round" stroke-linejoin="round"/>
<path d="M22.6562 17.9688V22.6562C22.6562 23.5156 21.9531 24.2188 21.0938 24.2188H2.34375C1.48437 24.2188 0.78125 23.5156 0.78125 22.6562V8.59375C0.78125 7.73437 1.48437 7.03125 2.34375 7.03125H21.0938C21.9531 7.03125 22.6562 7.73437 22.6562 8.59375V13.2812" stroke="#D2D2D2" stroke-linecap="round" stroke-linejoin="round"/>
<path d="M20.3125 13.2812H23.4375C23.8672 13.2812 24.2188 13.6328 24.2188 14.0625V17.1875C24.2188 17.6172 23.8672 17.9688 23.4375 17.9688H20.3125C19.0156 17.9688 17.9688 16.9219 17.9688 15.625C17.9688 14.3281 19.0156 13.2812 20.3125 13.2812Z" stroke="#D2D2D2" stroke-linecap="round" stroke-linejoin="round"/>
<path d="M3.90625 10.1562H5.46875" stroke="#D2D2D2" stroke-linecap="round" stroke-linejoin="round"/>
<path d="M8.59375 10.1562H10.1562" stroke="#D2D2D2" stroke-linecap="round" stroke-linejoin="round"/>
<path d="M13.2812 10.1562H14.8438" stroke="#D2D2D2" stroke-linecap="round" stroke-linejoin="round"/>
<path d="M17.9688 10.1562H19.5312" stroke="#D2D2D2" stroke-linecap="round" stroke-linejoin="round"/>
<path d="M3.90625 21.0938H5.46875" stroke="#D2D2D2" stroke-linecap="round" stroke-linejoin="round"/>
<path d="M8.59375 21.0938H10.1562" stroke="#D2D2D2" stroke-linecap="round" stroke-linejoin="round"/>
<path d="M13.2812 21.0938H14.8438" stroke="#D2D2D2" stroke-linecap="round" stroke-linejoin="round"/>
<path d="M17.9688 21.0938H19.5312" stroke="#D2D2D2" stroke-linecap="round" stroke-linejoin="round"/>
</g>
<defs>
<clipPath id="clip0_213_2378">
<rect width="25" height="25" fill="white"/>
</clipPath>
</defs>
</svg>
