<svg width="12" height="17" viewBox="0 0 12 17" fill="none" xmlns="http://www.w3.org/2000/svg">
<path d="M4.1354 15.7628C4.81688 15.9677 5.55515 16.0427 6.31924 15.9527C8.65279 15.6829 10.5372 13.8488 10.8108 11.5898C11.0844 9.33094 9.78858 7.31692 7.84223 6.45234C7.47568 6.28742 7.23304 5.93759 7.23304 5.54778V4.99805H4.1354V5.54778C4.1354 5.94259 3.89275 6.29243 3.5262 6.45735C1.75538 7.24696 0.521484 8.98612 0.521484 11.0001C0.521484 12.3995 1.1152 13.6638 2.0703 14.5684" stroke="#979797" stroke-linecap="round" stroke-linejoin="round"/>
<path d="M4.65234 12.9942H5.68489C6.25279 12.9942 6.71744 12.5444 6.71744 11.9946C6.71744 11.4449 6.25279 10.9951 5.68489 10.9951C5.11699 10.9951 4.65234 10.5453 4.65234 9.99561C4.65234 9.44588 5.11699 8.99609 5.68489 8.99609H6.71744" stroke="#979797" stroke-linecap="round" stroke-linejoin="round"/>
<path d="M5.68359 8.9961V8.49634" stroke="#979797" stroke-linecap="round" stroke-linejoin="round"/>
<path d="M5.68359 12.9941V13.4939" stroke="#979797" stroke-linecap="round" stroke-linejoin="round"/>
<path d="M5.68359 4.49829V3.49878" stroke="#979797" stroke-linecap="round" stroke-linejoin="round"/>
<path d="M5.68359 1.49976V1" stroke="#979797" stroke-linecap="round" stroke-linejoin="round"/>
<path d="M4.13541 2.49927H3.61914" stroke="#979797" stroke-linecap="round" stroke-linejoin="round"/>
<path d="M7.23242 2.49927H7.7487" stroke="#979797" stroke-linecap="round" stroke-linejoin="round"/>
</svg>
