<svg width="21" height="23" viewBox="0 0 21 23" fill="none" xmlns="http://www.w3.org/2000/svg">
<path d="M0 1H2.18979C2.85073 1 3.41153 1.47289 3.51168 2.11655L5.83499 16.9666C5.93513 17.6103 6.49593 18.0832 7.15688 18.0832H20.0286" stroke="#D2D2D2" stroke-miterlimit="10"/>
<path d="M6.91966 4.53442H18.7176C19.4385 4.53442 20.0284 5.11703 20.0284 5.8291V10.6841C20.0284 11.2602 19.6417 11.7652 19.0846 11.927L5.89062 15.7269" stroke="#D2D2D2" stroke-miterlimit="10"/>
<path d="M8.54203 21.6177C9.35537 21.6177 10.0147 20.9584 10.0147 20.1451C10.0147 19.3317 9.35537 18.6724 8.54203 18.6724C7.72868 18.6724 7.06934 19.3317 7.06934 20.1451C7.06934 20.9584 7.72868 21.6177 8.54203 21.6177Z" stroke="#D2D2D2" stroke-miterlimit="10"/>
<path d="M16.1993 21.6177C17.0126 21.6177 17.6719 20.9584 17.6719 20.1451C17.6719 19.3317 17.0126 18.6724 16.1993 18.6724C15.3859 18.6724 14.7266 19.3317 14.7266 20.1451C14.7266 20.9584 15.3859 21.6177 16.1993 21.6177Z" stroke="#D2D2D2" stroke-miterlimit="10"/>
</svg>
