<svg width="23" height="23" viewBox="0 0 23 23" fill="none" xmlns="http://www.w3.org/2000/svg">
<g clip-path="url(#clip0_213_2391)">
<path d="M15.8125 2.15625H18.6875V3.59375C18.6875 5.97281 16.7541 7.90625 14.375 7.90625H11.5V6.46875C11.5 4.08969 13.4334 2.15625 15.8125 2.15625Z" stroke="#C4CDBE" stroke-linecap="round" stroke-linejoin="round"/>
<path d="M4.3125 4.3125H7.1875C9.56656 4.3125 11.5 6.24594 11.5 8.625V10.0625H8.625C6.24594 10.0625 4.3125 8.12906 4.3125 5.75V4.3125Z" stroke="#C4CDBE" stroke-linecap="round" stroke-linejoin="round"/>
<path d="M15.8125 13.6562H7.1875C6.39359 13.6562 5.75 14.2998 5.75 15.0938V16.5312C5.75 17.3252 6.39359 17.9688 7.1875 17.9688H15.8125C16.6064 17.9688 17.25 17.3252 17.25 16.5312V15.0938C17.25 14.2998 16.6064 13.6562 15.8125 13.6562Z" stroke="#C4CDBE" stroke-linecap="round" stroke-linejoin="round"/>
<path d="M8.625 22.2812H7.1875C6.39687 22.2812 5.75 21.6344 5.75 20.8438V19.4062C5.75 18.6156 6.39687 17.9688 7.1875 17.9688H15.8125C16.6031 17.9688 17.25 18.6156 17.25 19.4062V20.8438C17.25 21.6344 16.6031 22.2812 15.8125 22.2812H11.5" stroke="#C4CDBE" stroke-linecap="round" stroke-linejoin="round"/>
<path d="M7.90625 22.2812H2.15625C1.36562 22.2812 0.71875 21.6344 0.71875 20.8438V19.4062C0.71875 18.6156 1.36562 17.9688 2.15625 17.9688H7.90625" stroke="#C4CDBE" stroke-linecap="round" stroke-linejoin="round"/>
<path d="M15.0938 22.2812H20.8438C21.6344 22.2812 22.2812 21.6344 22.2812 20.8438V19.4062C22.2812 18.6156 21.6344 17.9688 20.8438 17.9688H15.0938" stroke="#C4CDBE" stroke-linecap="round" stroke-linejoin="round"/>
<path d="M11.5 0.71875V13.6562" stroke="#C4CDBE" stroke-linecap="round" stroke-linejoin="round"/>
</g>
<defs>
<clipPath id="clip0_213_2391">
<rect width="23" height="23" fill="white"/>
</clipPath>
</defs>
</svg>
