<svg width="61" height="60" viewBox="0 0 61 60" fill="none" xmlns="http://www.w3.org/2000/svg">
<path d="M45.1824 45C53.5002 36.7157 53.5002 23.2843 45.1824 15C36.8645 6.71573 23.3786 6.71573 15.0608 15C6.74294 23.2843 6.74294 36.7157 15.0608 45C23.3786 53.2843 36.8645 53.2843 45.1824 45Z" fill="white"/>
<path d="M49.8664 39.6039C45.6778 46.5606 39.309 51.1859 30.7705 51.1859C22.232 51.1859 15.1573 47.78 10.9688 40.8267C11.707 38.9195 12.5629 36.0563 14.668 34.8059C16.5004 33.7145 19.0611 32.9841 21.8978 32.5291C24.7329 32.0741 27.844 31.8894 30.7739 31.8894C36.6352 31.8894 43.2166 32.6232 46.8814 34.8059C48.9832 36.0545 49.1264 37.7018 49.8664 39.6039Z" fill="url(#paint0_linear_213_3291)"/>
<path d="M37.7812 19.6649C37.7812 17.8493 38.5541 15.6406 39.5069 15.6406C40.4597 15.6406 41.4374 15.9907 41.4374 17.8064C41.4374 18.6799 41.1359 20.6379 40.8444 21.4977C40.5296 22.4227 40.0033 22.953 39.5086 22.953C38.5558 22.953 37.7829 21.4806 37.7829 19.6666L37.7812 19.6649Z" fill="#ECA182"/>
<path d="M30.4686 4.67163C23.287 4.67163 21.3281 10.8494 21.3281 18.4681C21.3281 23.5213 22.9108 27.1217 25.8645 29.1985C27.942 30.6596 28.7977 31.0773 30.4686 31.0773C32.1394 31.0773 32.9951 30.6596 35.0727 29.1985C38.0263 27.1217 39.609 23.5213 39.609 18.4681C39.609 10.8477 37.6501 4.67163 30.4686 4.67163Z" fill="#FBCBAB"/>
<path d="M36.3347 32.5061V26.8115H24.401V32.5061C22.5891 32.8105 21.3281 33.4209 21.3281 34.7037C21.3281 37.2073 24.7654 39.8113 30.367 39.8113C35.9686 39.8113 39.4059 37.2073 39.4059 34.7037C39.4059 33.4193 38.1449 32.8105 36.333 32.5061H36.3347Z" fill="#FBCBAB"/>
<path d="M23.1562 19.6649C23.1562 17.8493 22.34 15.6406 21.3338 15.6406C20.3277 15.6406 19.2969 15.9907 19.2969 17.8064C19.2969 18.6799 19.6153 20.6379 19.9231 21.4977C20.2555 22.4227 20.8114 22.953 21.3338 22.953C22.34 22.953 23.1562 21.4806 23.1562 19.6666V19.6649Z" fill="#FBCBAB"/>
<path d="M37.3276 32.463C36.5348 34.057 35.4486 35.2795 33.5594 35.8137C32.521 36.1082 31.3991 35.8548 30.3351 35.9369C29.2575 36.0191 27.9309 36.0465 26.9164 35.5329C26.0059 35.074 25.3017 34.5124 24.6623 33.7094C24.1814 33.1067 23.8899 32.5366 23.5744 31.9151C23.5693 31.9065 23.5659 31.8963 23.5625 31.8894C23.6307 32.0777 23.704 32.2592 23.7859 32.4373C23.849 32.576 23.9137 32.7095 23.9854 32.8414C24.5156 33.8361 24.7953 34.6443 25.4568 35.5209C26.0604 36.3239 26.7254 36.8855 27.5865 37.3443C28.5465 37.8563 29.6121 37.9539 30.7733 37.9795C31.7827 38.0018 32.8876 37.9213 33.8663 37.6251C35.9039 37.0173 37.1537 34.6699 37.9841 32.5349C37.7658 32.5075 37.5459 32.4835 37.3276 32.4596V32.463Z" fill="#DB9172"/>
<path d="M30.4284 4.67163C30.3042 4.67163 30.185 4.6784 30.0625 4.68178C36.4451 4.88979 38.2033 10.9813 38.2033 18.4681C38.2033 23.5213 36.7345 27.1217 33.9959 29.1985C32.2139 30.5497 31.4003 31.008 30.0625 31.0689C30.1799 31.074 30.3008 31.0773 30.4284 31.0773C32.1066 31.0773 32.9662 30.6596 35.0528 29.1985C38.0195 27.1217 39.6092 23.5213 39.6092 18.4681C39.6092 10.8477 37.6416 4.67163 30.4284 4.67163Z" fill="#ECA182"/>
<path d="M40.3668 5.08805C39.9088 4.5383 39.1742 4.23045 38.4668 4.10866C37.7763 3.98856 37.1622 4.2389 36.5006 3.91244C36.0511 3.69085 35.8288 3.1225 35.4896 2.77067C34.7855 2.03993 33.8627 1.6475 32.9194 1.38701C31.5945 1.01995 28.8276 -0.372168 27.4909 0.0946908C26.875 0.309513 25.9505 1.78113 25.294 1.92999C24.4882 2.11267 24.0963 2.25476 23.2837 2.43067C20.4184 3.05146 19.1664 5.8154 19.0952 8.79754C19.0545 10.5313 19.8908 12.1586 20.1945 13.8501C20.4184 15.0984 20.1097 16.1303 20.6372 17.6154C21.0885 18.8857 21.5601 23.4156 21.5788 24.0635C21.6483 26.3622 21.9028 29.0399 23.0479 31.0579C23.606 32.0424 23.9012 32.8391 24.5967 33.7068C25.2312 34.5001 25.9318 35.0532 26.8394 35.5083C27.8471 36.0123 29.1686 35.9887 30.2408 35.9075C31.2994 35.828 32.4156 36.0766 33.4487 35.7874C35.8984 35.0989 36.9892 33.2569 37.8527 30.9564C38.3735 29.566 39.1437 28.3532 39.2014 25.6518C39.3031 20.738 39.9308 17.6289 39.8189 14.9394C39.6916 11.9015 42.6468 7.82492 40.3685 5.08805H40.3668ZM37.0944 24.187C36.3327 24.8162 35.5421 24.6944 34.7075 25.2408C33.6778 25.9157 32.4886 26.8443 31.262 26.9577C30.2476 27.0507 29.2518 26.9492 28.3323 26.4603C27.3891 25.958 26.6257 25.3558 25.7452 24.7621C25.0073 24.2631 24.1251 24.329 23.3889 23.8859C22.4796 23.3395 22.0097 22.147 21.9011 21.1541C21.8689 20.8614 21.8332 18.8553 21.8451 18.6472C21.9401 17.086 22.0436 15.43 22.1199 13.8552C22.1912 12.3886 22.2947 10.259 23.5127 9.26778C24.6324 8.35605 26.244 8.99206 27.518 9.19166C29.4418 9.49444 30.9041 9.0851 32.7379 8.66729C34.1205 8.35267 35.7915 8.36113 36.979 9.33037C38.4193 10.506 38.1631 12.4698 38.2615 14.1326C38.3548 15.7108 38.6805 16.6699 38.7857 18.5863C38.8655 20.0563 38.9164 21.0357 38.6924 21.7546C38.3972 22.7001 37.8866 23.5273 37.091 24.1836L37.0944 24.187Z" fill="#1D2247"/>
<path d="M37.7669 24.9375C37.4593 24.6646 36.2117 24.6143 35.384 24.1367C34.7143 23.7502 34.3183 23.2402 33.6435 22.8926C32.3654 22.2364 31.7076 22.7139 30.4686 22.7139C29.2295 22.7139 28.5718 22.2364 27.2937 22.8926C26.6189 23.2385 26.2229 23.7502 25.5532 24.1367C24.7255 24.6143 23.4779 24.6646 23.1703 24.9375C22.0791 25.9055 25.4308 25.5352 25.8982 25.4653C27.5027 25.225 28.9049 24.6565 30.4686 24.6565C32.0323 24.6565 33.4345 25.225 35.039 25.4653C35.5064 25.5352 38.8581 25.9055 37.7669 24.9375Z" fill="#373F85"/>
<path d="M29.3434 2.62392C29.6257 1.3187 35.8733 3.11866 35.5331 2.76576C34.8272 2.03632 33.9019 1.64458 32.9562 1.38455C31.6278 1.01814 28.8535 -0.371508 27.5132 0.094523C26.8957 0.308965 25.9687 1.77798 25.3104 1.92657C24.5025 2.10893 24.1096 2.25076 23.2948 2.42637C20.4219 3.04605 19.1666 5.80509 19.0952 8.78195C19.0544 10.5127 19.8929 12.137 20.1974 13.8256C20.4219 15.0717 20.1124 16.1017 20.6413 17.5842C21.0938 18.8523 21.5667 23.3741 21.5854 24.0208C21.6551 26.3155 21.9103 28.9885 23.0584 31.0029C23.618 31.9856 23.914 32.7809 24.6114 33.6471C25.2475 34.439 25.5129 33.4715 24.6403 31.3051C24.0739 29.8986 23.5721 28.9851 23.1196 28.259C20.7825 24.5139 22.0855 20.1744 21.2061 16.8413C20.063 12.5068 22.2419 10.1328 21.8524 7.1424C21.2061 2.17647 28.7821 5.21749 29.3417 2.62392H29.3434Z" fill="#373F85"/>
<path d="M38.7915 18.6059C38.7932 18.6328 38.7932 18.6598 38.7965 18.6868C38.7965 18.6716 38.7948 18.6531 38.7915 18.6362C38.5789 17.2197 38.2515 16.6413 38.1098 14.9667C37.9951 13.5805 37.8044 11.8975 36.6858 10.9515C35.5924 10.024 34.5835 10.0847 33.2083 10.3478C31.3827 10.6968 30.3974 10.766 28.9767 10.4726C27.7248 10.2145 25.83 9.56192 24.5257 10.0257C23.1422 10.5198 22.5702 12.9296 22.4403 14.8824C22.3526 16.1977 22.032 17.3816 21.9375 18.6851V18.6649C22.032 17.1067 22.1366 15.4557 22.2125 13.8857C22.2817 12.4237 22.3846 10.3022 23.5978 9.31234C24.713 8.4034 26.3142 9.03747 27.5814 9.23814C29.4947 9.54 30.9491 9.13022 32.7747 8.71537C34.1481 8.40002 35.8118 8.41014 36.9912 9.37642C38.4236 10.5484 38.1689 12.5046 38.2667 14.1623C38.3612 15.734 38.6852 16.6918 38.7898 18.6042L38.7915 18.6059Z" fill="#DB9172"/>
<path d="M32.7019 24.9339C31.9455 24.738 31.1943 24.5771 30.4052 24.5771C29.0987 24.5771 27.9004 25.0171 26.6094 25.3259C26.9137 25.5588 27.2179 25.7862 27.5308 26.0025C27.3091 25.3887 29.133 25.1225 30.4791 25.1225C31.9954 25.1225 33.907 25.6438 33.3999 26.2021C33.7919 25.9452 34.1718 25.666 34.5311 25.4035C33.9019 25.2685 33.3002 25.0929 32.7002 24.9358L32.7019 24.9339Z" fill="#ECA182"/>
<defs>
<linearGradient id="paint0_linear_213_3291" x1="10.5625" y1="41.5368" x2="50.9835" y2="41.5368" gradientUnits="userSpaceOnUse">
<stop stop-color="#2581C4"/>
<stop offset="1" stop-color="#2D2E83"/>
</linearGradient>
</defs>
</svg>
