<svg width="536" height="283" viewBox="0 0 536 283" fill="none" xmlns="http://www.w3.org/2000/svg">
<line x1="24.9969" y1="245.452" x2="501.997" y2="242.506" stroke="#67AA36" stroke-dasharray="2 2"/>
<path d="M25.49 18.1C25.49 17.1387 25.7047 16.28 26.134 15.524C26.5727 14.7587 27.1653 14.166 27.912 13.746C28.668 13.3167 29.5127 13.102 30.446 13.102C31.538 13.102 32.4947 13.382 33.316 13.942C34.1373 14.502 34.7113 15.2767 35.038 16.266H32.784C32.56 15.7993 32.2427 15.4493 31.832 15.216C31.4307 14.9827 30.964 14.866 30.432 14.866C29.8627 14.866 29.354 15.0013 28.906 15.272C28.4673 15.5333 28.122 15.9067 27.87 16.392C27.6273 16.8773 27.506 17.4467 27.506 18.1C27.506 18.744 27.6273 19.3133 27.87 19.808C28.122 20.2933 28.4673 20.6713 28.906 20.942C29.354 21.2033 29.8627 21.334 30.432 21.334C30.964 21.334 31.4307 21.2173 31.832 20.984C32.2427 20.7413 32.56 20.3867 32.784 19.92H35.038C34.7113 20.9187 34.1373 21.698 33.316 22.258C32.504 22.8087 31.5473 23.084 30.446 23.084C29.5127 23.084 28.668 22.874 27.912 22.454C27.1653 22.0247 26.5727 21.432 26.134 20.676C25.7047 19.92 25.49 19.0613 25.49 18.1ZM40.1561 23.126C39.4094 23.126 38.7374 22.9627 38.1401 22.636C37.5428 22.3 37.0714 21.8287 36.7261 21.222C36.3901 20.6153 36.2221 19.9153 36.2221 19.122C36.2221 18.3287 36.3948 17.6287 36.7401 17.022C37.0948 16.4153 37.5754 15.9487 38.1821 15.622C38.7888 15.286 39.4654 15.118 40.2121 15.118C40.9588 15.118 41.6354 15.286 42.2421 15.622C42.8488 15.9487 43.3248 16.4153 43.6701 17.022C44.0248 17.6287 44.2021 18.3287 44.2021 19.122C44.2021 19.9153 44.0201 20.6153 43.6561 21.222C43.3014 21.8287 42.8161 22.3 42.2001 22.636C41.5934 22.9627 40.9121 23.126 40.1561 23.126ZM40.1561 21.418C40.5108 21.418 40.8421 21.334 41.1501 21.166C41.4674 20.9887 41.7194 20.7273 41.9061 20.382C42.0928 20.0367 42.1861 19.6167 42.1861 19.122C42.1861 18.3847 41.9901 17.82 41.5981 17.428C41.2154 17.0267 40.7441 16.826 40.1841 16.826C39.6241 16.826 39.1528 17.0267 38.7701 17.428C38.3968 17.82 38.2101 18.3847 38.2101 19.122C38.2101 19.8593 38.3921 20.4287 38.7561 20.83C39.1294 21.222 39.5961 21.418 40.1561 21.418ZM48.6078 23.126C47.9732 23.126 47.4038 23.014 46.8998 22.79C46.3958 22.5567 45.9945 22.244 45.6958 21.852C45.4065 21.46 45.2478 21.026 45.2198 20.55H47.1938C47.2312 20.8487 47.3758 21.096 47.6278 21.292C47.8892 21.488 48.2112 21.586 48.5938 21.586C48.9672 21.586 49.2565 21.5113 49.4618 21.362C49.6765 21.2127 49.7838 21.0213 49.7838 20.788C49.7838 20.536 49.6532 20.3493 49.3918 20.228C49.1398 20.0973 48.7338 19.9573 48.1738 19.808C47.5952 19.668 47.1192 19.5233 46.7458 19.374C46.3818 19.2247 46.0645 18.996 45.7938 18.688C45.5325 18.38 45.4018 17.9647 45.4018 17.442C45.4018 17.0127 45.5232 16.6207 45.7658 16.266C46.0178 15.9113 46.3725 15.6313 46.8298 15.426C47.2965 15.2207 47.8425 15.118 48.4678 15.118C49.3918 15.118 50.1292 15.3513 50.6798 15.818C51.2305 16.2753 51.5338 16.896 51.5898 17.68H49.7138C49.6858 17.372 49.5552 17.1293 49.3218 16.952C49.0978 16.7653 48.7945 16.672 48.4118 16.672C48.0572 16.672 47.7818 16.7373 47.5858 16.868C47.3992 16.9987 47.3058 17.1807 47.3058 17.414C47.3058 17.6753 47.4365 17.876 47.6978 18.016C47.9592 18.1467 48.3652 18.282 48.9158 18.422C49.4758 18.562 49.9378 18.7067 50.3018 18.856C50.6658 19.0053 50.9785 19.2387 51.2398 19.556C51.5105 19.864 51.6505 20.2747 51.6598 20.788C51.6598 21.236 51.5338 21.6373 51.2818 21.992C51.0392 22.3467 50.6845 22.6267 50.2178 22.832C49.7605 23.028 49.2238 23.126 48.6078 23.126ZM60.4787 18.954C60.4787 19.234 60.4601 19.486 60.4227 19.71H54.7527C54.7994 20.27 54.9954 20.7087 55.3407 21.026C55.6861 21.3433 56.1107 21.502 56.6147 21.502C57.3427 21.502 57.8607 21.1893 58.1687 20.564H60.2827C60.0587 21.3107 59.6294 21.9267 58.9947 22.412C58.3601 22.888 57.5807 23.126 56.6567 23.126C55.9101 23.126 55.2381 22.9627 54.6407 22.636C54.0527 22.3 53.5907 21.8287 53.2547 21.222C52.9281 20.6153 52.7647 19.9153 52.7647 19.122C52.7647 18.3193 52.9281 17.6147 53.2547 17.008C53.5814 16.4013 54.0387 15.9347 54.6267 15.608C55.2147 15.2813 55.8914 15.118 56.6567 15.118C57.3941 15.118 58.0521 15.2767 58.6307 15.594C59.2187 15.9113 59.6714 16.364 59.9887 16.952C60.3154 17.5307 60.4787 18.198 60.4787 18.954ZM58.4487 18.394C58.4394 17.89 58.2574 17.4887 57.9027 17.19C57.5481 16.882 57.1141 16.728 56.6007 16.728C56.1154 16.728 55.7047 16.8773 55.3687 17.176C55.0421 17.4653 54.8414 17.8713 54.7667 18.394H58.4487ZM61.4054 19.122C61.4054 18.3193 61.5687 17.6193 61.8954 17.022C62.222 16.4153 62.6747 15.9487 63.2534 15.622C63.832 15.286 64.4947 15.118 65.2414 15.118C66.2027 15.118 66.996 15.3607 67.6214 15.846C68.256 16.322 68.6807 16.994 68.8954 17.862H66.7814C66.6694 17.526 66.478 17.2647 66.2074 17.078C65.946 16.882 65.6194 16.784 65.2274 16.784C64.6674 16.784 64.224 16.9893 63.8974 17.4C63.5707 17.8013 63.4074 18.3753 63.4074 19.122C63.4074 19.8593 63.5707 20.4333 63.8974 20.844C64.224 21.2453 64.6674 21.446 65.2274 21.446C66.0207 21.446 66.5387 21.0913 66.7814 20.382H68.8954C68.6807 21.222 68.256 21.8893 67.6214 22.384C66.9867 22.8787 66.1934 23.126 65.2414 23.126C64.4947 23.126 63.832 22.9627 63.2534 22.636C62.6747 22.3 62.222 21.8333 61.8954 21.236C61.5687 20.6293 61.4054 19.9247 61.4054 19.122ZM74.6992 15.132C75.2872 15.132 75.8099 15.2627 76.2672 15.524C76.7246 15.776 77.0792 16.154 77.3312 16.658C77.5926 17.1527 77.7232 17.75 77.7232 18.45V23H75.7632V18.716C75.7632 18.1 75.6092 17.6287 75.3012 17.302C74.9932 16.966 74.5732 16.798 74.0412 16.798C73.4999 16.798 73.0706 16.966 72.7532 17.302C72.4452 17.6287 72.2912 18.1 72.2912 18.716V23H70.3312V12.64H72.2912V16.21C72.5432 15.874 72.8792 15.6127 73.2992 15.426C73.7192 15.23 74.1859 15.132 74.6992 15.132ZM79.0831 19.094C79.0831 18.31 79.2371 17.6147 79.5451 17.008C79.8624 16.4013 80.2871 15.9347 80.8191 15.608C81.3604 15.2813 81.9624 15.118 82.6251 15.118C83.2038 15.118 83.7078 15.2347 84.1371 15.468C84.5758 15.7013 84.9258 15.9953 85.1871 16.35V15.244H87.1611V23H85.1871V21.866C84.9351 22.23 84.5851 22.5333 84.1371 22.776C83.6984 23.0093 83.1898 23.126 82.6111 23.126C81.9578 23.126 81.3604 22.958 80.8191 22.622C80.2871 22.286 79.8624 21.8147 79.5451 21.208C79.2371 20.592 79.0831 19.8873 79.0831 19.094ZM85.1871 19.122C85.1871 18.646 85.0938 18.24 84.9071 17.904C84.7204 17.5587 84.4684 17.2973 84.1511 17.12C83.8338 16.9333 83.4931 16.84 83.1291 16.84C82.7651 16.84 82.4291 16.9287 82.1211 17.106C81.8131 17.2833 81.5611 17.5447 81.3651 17.89C81.1784 18.226 81.0851 18.6273 81.0851 19.094C81.0851 19.5607 81.1784 19.9713 81.3651 20.326C81.5611 20.6713 81.8131 20.9373 82.1211 21.124C82.4384 21.3107 82.7744 21.404 83.1291 21.404C83.4931 21.404 83.8338 21.3153 84.1511 21.138C84.4684 20.9513 84.7204 20.69 84.9071 20.354C85.0938 20.0087 85.1871 19.598 85.1871 19.122ZM92.0434 23.126C91.4087 23.126 90.8394 23.014 90.3354 22.79C89.8314 22.5567 89.43 22.244 89.1314 21.852C88.842 21.46 88.6834 21.026 88.6554 20.55H90.6294C90.6667 20.8487 90.8114 21.096 91.0634 21.292C91.3247 21.488 91.6467 21.586 92.0294 21.586C92.4027 21.586 92.692 21.5113 92.8974 21.362C93.112 21.2127 93.2194 21.0213 93.2194 20.788C93.2194 20.536 93.0887 20.3493 92.8274 20.228C92.5754 20.0973 92.1694 19.9573 91.6094 19.808C91.0307 19.668 90.5547 19.5233 90.1814 19.374C89.8174 19.2247 89.5 18.996 89.2294 18.688C88.968 18.38 88.8374 17.9647 88.8374 17.442C88.8374 17.0127 88.9587 16.6207 89.2014 16.266C89.4534 15.9113 89.808 15.6313 90.2654 15.426C90.732 15.2207 91.278 15.118 91.9034 15.118C92.8274 15.118 93.5647 15.3513 94.1154 15.818C94.666 16.2753 94.9694 16.896 95.0254 17.68H93.1494C93.1214 17.372 92.9907 17.1293 92.7574 16.952C92.5334 16.7653 92.23 16.672 91.8474 16.672C91.4927 16.672 91.2174 16.7373 91.0214 16.868C90.8347 16.9987 90.7414 17.1807 90.7414 17.414C90.7414 17.6753 90.872 17.876 91.1334 18.016C91.3947 18.1467 91.8007 18.282 92.3514 18.422C92.9114 18.562 93.3734 18.7067 93.7374 18.856C94.1014 19.0053 94.414 19.2387 94.6754 19.556C94.946 19.864 95.086 20.2747 95.0954 20.788C95.0954 21.236 94.9694 21.6373 94.7174 21.992C94.4747 22.3467 94.12 22.6267 93.6534 22.832C93.196 23.028 92.6594 23.126 92.0434 23.126Z" fill="white"/>
<path d="M25.722 276.83C26.618 276.055 27.3227 275.421 27.836 274.926C28.3587 274.422 28.7927 273.899 29.138 273.358C29.4833 272.817 29.656 272.275 29.656 271.734C29.656 271.174 29.5207 270.735 29.25 270.418C28.9887 270.101 28.5733 269.942 28.004 269.942C27.4533 269.942 27.024 270.119 26.716 270.474C26.4173 270.819 26.2587 271.286 26.24 271.874H24.7C24.728 270.81 25.0453 269.998 25.652 269.438C26.268 268.869 27.0473 268.584 27.99 268.584C29.0073 268.584 29.8007 268.864 30.37 269.424C30.9487 269.984 31.238 270.731 31.238 271.664C31.238 272.336 31.0653 272.985 30.72 273.61C30.384 274.226 29.978 274.781 29.502 275.276C29.0353 275.761 28.438 276.326 27.71 276.97L27.08 277.53H31.518V278.86H24.714V277.698L25.722 276.83ZM38.3101 265.784L34.5021 281.45H32.9341L36.7281 265.784H38.3101ZM40.1115 273.764C40.1115 272.149 40.3822 270.889 40.9235 269.984C41.4742 269.069 42.4168 268.612 43.7515 268.612C45.0862 268.612 46.0242 269.069 46.5655 269.984C47.1162 270.889 47.3915 272.149 47.3915 273.764C47.3915 275.397 47.1162 276.676 46.5655 277.6C46.0242 278.515 45.0862 278.972 43.7515 278.972C42.4168 278.972 41.4742 278.515 40.9235 277.6C40.3822 276.676 40.1115 275.397 40.1115 273.764ZM45.8235 273.764C45.8235 273.008 45.7722 272.369 45.6695 271.846C45.5762 271.323 45.3802 270.899 45.0815 270.572C44.7828 270.236 44.3395 270.068 43.7515 270.068C43.1635 270.068 42.7202 270.236 42.4215 270.572C42.1228 270.899 41.9222 271.323 41.8195 271.846C41.7262 272.369 41.6795 273.008 41.6795 273.764C41.6795 274.548 41.7262 275.206 41.8195 275.738C41.9128 276.27 42.1088 276.699 42.4075 277.026C42.7155 277.353 43.1635 277.516 43.7515 277.516C44.3395 277.516 44.7828 277.353 45.0815 277.026C45.3895 276.699 45.5902 276.27 45.6835 275.738C45.7768 275.206 45.8235 274.548 45.8235 273.764ZM55.5482 270.026L51.6562 279H50.0462L53.9802 270.194H48.8002V268.836H55.5482V270.026ZM62.3042 265.784L58.4962 281.45H56.9282L60.7222 265.784H62.3042ZM64.9876 276.83C65.8836 276.055 66.5883 275.421 67.1016 274.926C67.6243 274.422 68.0583 273.899 68.4036 273.358C68.749 272.817 68.9216 272.275 68.9216 271.734C68.9216 271.174 68.7863 270.735 68.5156 270.418C68.2543 270.101 67.839 269.942 67.2696 269.942C66.719 269.942 66.2896 270.119 65.9816 270.474C65.683 270.819 65.5243 271.286 65.5056 271.874H63.9656C63.9936 270.81 64.311 269.998 64.9176 269.438C65.5336 268.869 66.313 268.584 67.2556 268.584C68.273 268.584 69.0663 268.864 69.6356 269.424C70.2143 269.984 70.5036 270.731 70.5036 271.664C70.5036 272.336 70.331 272.985 69.9856 273.61C69.6496 274.226 69.2436 274.781 68.7676 275.276C68.301 275.761 67.7036 276.326 66.9756 276.97L66.3456 277.53H70.7836V278.86H63.9796V277.698L64.9876 276.83ZM72.1577 271.314C72.2137 270.446 72.545 269.769 73.1517 269.284C73.7677 268.799 74.5517 268.556 75.5037 268.556C76.157 268.556 76.7217 268.673 77.1977 268.906C77.6737 269.139 78.033 269.457 78.2757 269.858C78.5184 270.259 78.6397 270.712 78.6397 271.216C78.6397 271.795 78.4857 272.289 78.1777 272.7C77.8697 273.111 77.501 273.386 77.0717 273.526V273.582C77.6224 273.75 78.0517 274.058 78.3597 274.506C78.6677 274.945 78.8217 275.509 78.8217 276.2C78.8217 276.751 78.6957 277.241 78.4437 277.67C78.1917 278.099 77.8184 278.44 77.3237 278.692C76.829 278.935 76.2364 279.056 75.5457 279.056C74.5377 279.056 73.707 278.799 73.0537 278.286C72.4097 277.763 72.0644 277.017 72.0177 276.046H73.5577C73.595 276.541 73.7864 276.947 74.1317 277.264C74.477 277.572 74.9437 277.726 75.5317 277.726C76.101 277.726 76.5397 277.572 76.8477 277.264C77.1557 276.947 77.3097 276.541 77.3097 276.046C77.3097 275.393 77.0997 274.931 76.6797 274.66C76.269 274.38 75.6344 274.24 74.7757 274.24H74.4117V272.924H74.7897C75.5457 272.915 76.1197 272.789 76.5117 272.546C76.913 272.303 77.1137 271.921 77.1137 271.398C77.1137 270.95 76.969 270.595 76.6797 270.334C76.3904 270.063 75.9797 269.928 75.4477 269.928C74.925 269.928 74.519 270.063 74.2297 270.334C73.9404 270.595 73.7677 270.922 73.7117 271.314H72.1577Z" fill="white"/>
<path d="M103.722 276.83C104.618 276.055 105.323 275.421 105.836 274.926C106.359 274.422 106.793 273.899 107.138 273.358C107.483 272.817 107.656 272.275 107.656 271.734C107.656 271.174 107.521 270.735 107.25 270.418C106.989 270.101 106.573 269.942 106.004 269.942C105.453 269.942 105.024 270.119 104.716 270.474C104.417 270.819 104.259 271.286 104.24 271.874H102.7C102.728 270.81 103.045 269.998 103.652 269.438C104.268 268.869 105.047 268.584 105.99 268.584C107.007 268.584 107.801 268.864 108.37 269.424C108.949 269.984 109.238 270.731 109.238 271.664C109.238 272.336 109.065 272.985 108.72 273.61C108.384 274.226 107.978 274.781 107.502 275.276C107.035 275.761 106.438 276.326 105.71 276.97L105.08 277.53H109.518V278.86H102.714V277.698L103.722 276.83ZM116.31 265.784L112.502 281.45H110.934L114.728 265.784H116.31ZM118.111 273.764C118.111 272.149 118.382 270.889 118.923 269.984C119.474 269.069 120.417 268.612 121.751 268.612C123.086 268.612 124.024 269.069 124.565 269.984C125.116 270.889 125.391 272.149 125.391 273.764C125.391 275.397 125.116 276.676 124.565 277.6C124.024 278.515 123.086 278.972 121.751 278.972C120.417 278.972 119.474 278.515 118.923 277.6C118.382 276.676 118.111 275.397 118.111 273.764ZM123.823 273.764C123.823 273.008 123.772 272.369 123.669 271.846C123.576 271.323 123.38 270.899 123.081 270.572C122.783 270.236 122.339 270.068 121.751 270.068C121.163 270.068 120.72 270.236 120.421 270.572C120.123 270.899 119.922 271.323 119.819 271.846C119.726 272.369 119.679 273.008 119.679 273.764C119.679 274.548 119.726 275.206 119.819 275.738C119.913 276.27 120.109 276.699 120.407 277.026C120.715 277.353 121.163 277.516 121.751 277.516C122.339 277.516 122.783 277.353 123.081 277.026C123.389 276.699 123.59 276.27 123.683 275.738C123.777 275.206 123.823 274.548 123.823 273.764ZM133.548 270.026L129.656 279H128.046L131.98 270.194H126.8V268.836H133.548V270.026ZM140.304 265.784L136.496 281.45H134.928L138.722 265.784H140.304ZM142.988 276.83C143.884 276.055 144.588 275.421 145.102 274.926C145.624 274.422 146.058 273.899 146.404 273.358C146.749 272.817 146.922 272.275 146.922 271.734C146.922 271.174 146.786 270.735 146.516 270.418C146.254 270.101 145.839 269.942 145.27 269.942C144.719 269.942 144.29 270.119 143.982 270.474C143.683 270.819 143.524 271.286 143.506 271.874H141.966C141.994 270.81 142.311 269.998 142.918 269.438C143.534 268.869 144.313 268.584 145.256 268.584C146.273 268.584 147.066 268.864 147.636 269.424C148.214 269.984 148.504 270.731 148.504 271.664C148.504 272.336 148.331 272.985 147.986 273.61C147.65 274.226 147.244 274.781 146.768 275.276C146.301 275.761 145.704 276.326 144.976 276.97L144.346 277.53H148.784V278.86H141.98V277.698L142.988 276.83ZM150.158 271.314C150.214 270.446 150.545 269.769 151.152 269.284C151.768 268.799 152.552 268.556 153.504 268.556C154.157 268.556 154.722 268.673 155.198 268.906C155.674 269.139 156.033 269.457 156.276 269.858C156.518 270.259 156.64 270.712 156.64 271.216C156.64 271.795 156.486 272.289 156.178 272.7C155.87 273.111 155.501 273.386 155.072 273.526V273.582C155.622 273.75 156.052 274.058 156.36 274.506C156.668 274.945 156.822 275.509 156.822 276.2C156.822 276.751 156.696 277.241 156.444 277.67C156.192 278.099 155.818 278.44 155.324 278.692C154.829 278.935 154.236 279.056 153.546 279.056C152.538 279.056 151.707 278.799 151.054 278.286C150.41 277.763 150.064 277.017 150.018 276.046H151.558C151.595 276.541 151.786 276.947 152.132 277.264C152.477 277.572 152.944 277.726 153.532 277.726C154.101 277.726 154.54 277.572 154.848 277.264C155.156 276.947 155.31 276.541 155.31 276.046C155.31 275.393 155.1 274.931 154.68 274.66C154.269 274.38 153.634 274.24 152.776 274.24H152.412V272.924H152.79C153.546 272.915 154.12 272.789 154.512 272.546C154.913 272.303 155.114 271.921 155.114 271.398C155.114 270.95 154.969 270.595 154.68 270.334C154.39 270.063 153.98 269.928 153.448 269.928C152.925 269.928 152.519 270.063 152.23 270.334C151.94 270.595 151.768 270.922 151.712 271.314H150.158Z" fill="white"/>
<path d="M27.562 36.666C26.5913 36.1807 26.106 35.4153 26.106 34.37C26.106 33.866 26.232 33.404 26.484 32.984C26.736 32.564 27.114 32.2327 27.618 31.99C28.122 31.738 28.738 31.612 29.466 31.612C30.1847 31.612 30.796 31.738 31.3 31.99C31.8133 32.2327 32.196 32.564 32.448 32.984C32.7 33.404 32.826 33.866 32.826 34.37C32.826 34.8927 32.6907 35.3547 32.42 35.756C32.1587 36.148 31.8087 36.4513 31.37 36.666C31.902 36.862 32.322 37.184 32.63 37.632C32.938 38.0707 33.092 38.5887 33.092 39.186C33.092 39.7927 32.938 40.3293 32.63 40.796C32.322 41.2627 31.8927 41.622 31.342 41.874C30.7913 42.126 30.166 42.252 29.466 42.252C28.766 42.252 28.1407 42.126 27.59 41.874C27.0487 41.622 26.624 41.2627 26.316 40.796C26.008 40.3293 25.854 39.7927 25.854 39.186C25.854 38.5793 26.008 38.0567 26.316 37.618C26.624 37.1793 27.0393 36.862 27.562 36.666ZM31.3 34.566C31.3 34.0433 31.1367 33.642 30.81 33.362C30.4833 33.082 30.0353 32.942 29.466 32.942C28.906 32.942 28.4627 33.082 28.136 33.362C27.8093 33.642 27.646 34.048 27.646 34.58C27.646 35.0467 27.814 35.4293 28.15 35.728C28.4953 36.0173 28.934 36.162 29.466 36.162C29.998 36.162 30.4367 36.0127 30.782 35.714C31.1273 35.4153 31.3 35.0327 31.3 34.566ZM29.466 37.366C28.85 37.366 28.346 37.52 27.954 37.828C27.5713 38.1267 27.38 38.5607 27.38 39.13C27.38 39.662 27.5667 40.096 27.94 40.432C28.3133 40.7587 28.822 40.922 29.466 40.922C30.1007 40.922 30.6 40.754 30.964 40.418C31.3373 40.082 31.524 39.6527 31.524 39.13C31.524 38.57 31.3327 38.136 30.95 37.828C30.5767 37.52 30.082 37.366 29.466 37.366ZM34.7677 36.764C34.7677 35.1493 35.0384 33.8893 35.5797 32.984C36.1304 32.0693 37.0731 31.612 38.4077 31.612C39.7424 31.612 40.6804 32.0693 41.2217 32.984C41.7724 33.8893 42.0477 35.1493 42.0477 36.764C42.0477 38.3973 41.7724 39.676 41.2217 40.6C40.6804 41.5147 39.7424 41.972 38.4077 41.972C37.0731 41.972 36.1304 41.5147 35.5797 40.6C35.0384 39.676 34.7677 38.3973 34.7677 36.764ZM40.4797 36.764C40.4797 36.008 40.4284 35.3687 40.3257 34.846C40.2324 34.3233 40.0364 33.8987 39.7377 33.572C39.4391 33.236 38.9957 33.068 38.4077 33.068C37.8197 33.068 37.3764 33.236 37.0777 33.572C36.7791 33.8987 36.5784 34.3233 36.4757 34.846C36.3824 35.3687 36.3357 36.008 36.3357 36.764C36.3357 37.548 36.3824 38.206 36.4757 38.738C36.5691 39.27 36.7651 39.6993 37.0637 40.026C37.3717 40.3527 37.8197 40.516 38.4077 40.516C38.9957 40.516 39.4391 40.3527 39.7377 40.026C40.0457 39.6993 40.2464 39.27 40.3397 38.738C40.4331 38.206 40.4797 37.548 40.4797 36.764ZM52.9452 42L49.1792 37.646V42H47.5832V32.27H49.1792V36.708L52.9592 32.27H54.9612L50.7332 37.142L55.0312 42H52.9452ZM59.5506 34.16C60.1479 34.16 60.6752 34.2813 61.1326 34.524C61.5992 34.7573 61.9632 35.0513 62.2246 35.406V34.286H63.8346V42.126C63.8346 42.8353 63.6852 43.4653 63.3866 44.016C63.0879 44.576 62.6539 45.0147 62.0846 45.332C61.5246 45.6493 60.8526 45.808 60.0686 45.808C59.0232 45.808 58.1552 45.5607 57.4646 45.066C56.7739 44.5807 56.3819 43.918 56.2886 43.078H57.8706C57.9919 43.4793 58.2486 43.8013 58.6406 44.044C59.0419 44.296 59.5179 44.422 60.0686 44.422C60.7126 44.422 61.2306 44.226 61.6226 43.834C62.0239 43.442 62.2246 42.8727 62.2246 42.126V40.838C61.9539 41.202 61.5852 41.51 61.1186 41.762C60.6612 42.0047 60.1386 42.126 59.5506 42.126C58.8786 42.126 58.2626 41.958 57.7026 41.622C57.1519 41.2767 56.7132 40.8007 56.3866 40.194C56.0692 39.578 55.9106 38.8827 55.9106 38.108C55.9106 37.3333 56.0692 36.6473 56.3866 36.05C56.7132 35.4527 57.1519 34.9907 57.7026 34.664C58.2626 34.328 58.8786 34.16 59.5506 34.16ZM62.2246 38.136C62.2246 37.604 62.1126 37.142 61.8886 36.75C61.6739 36.358 61.3892 36.0593 61.0346 35.854C60.6799 35.6487 60.2972 35.546 59.8866 35.546C59.4759 35.546 59.0932 35.6487 58.7386 35.854C58.3839 36.05 58.0946 36.344 57.8706 36.736C57.6559 37.1187 57.5486 37.576 57.5486 38.108C57.5486 38.64 57.6559 39.1067 57.8706 39.508C58.0946 39.9093 58.3839 40.2173 58.7386 40.432C59.1026 40.6373 59.4852 40.74 59.8866 40.74C60.2972 40.74 60.6799 40.6373 61.0346 40.432C61.3892 40.2267 61.6739 39.928 61.8886 39.536C62.1126 39.1347 62.2246 38.668 62.2246 38.136Z" fill="white"/>
<path d="M25.714 59.978C26.8993 59.026 27.828 58.2467 28.5 57.64C29.172 57.024 29.7367 56.3847 30.194 55.722C30.6607 55.05 30.894 54.392 30.894 53.748C30.894 53.1413 30.7447 52.6653 30.446 52.32C30.1567 51.9653 29.6853 51.788 29.032 51.788C28.3973 51.788 27.9027 51.9887 27.548 52.39C27.2027 52.782 27.016 53.3093 26.988 53.972H25.756C25.7933 52.9267 26.1107 52.1193 26.708 51.55C27.3053 50.9807 28.0753 50.696 29.018 50.696C29.9793 50.696 30.74 50.962 31.3 51.494C31.8693 52.026 32.154 52.7587 32.154 53.692C32.154 54.4667 31.9207 55.2227 31.454 55.96C30.9967 56.688 30.474 57.332 29.886 57.892C29.298 58.4427 28.5467 59.0867 27.632 59.824H32.448V60.888H25.714V59.978ZM33.8927 53.426C33.9581 52.5673 34.2894 51.8953 34.8867 51.41C35.4841 50.9247 36.2587 50.682 37.2107 50.682C37.8454 50.682 38.3914 50.7987 38.8487 51.032C39.3154 51.256 39.6654 51.564 39.8987 51.956C40.1414 52.348 40.2627 52.7913 40.2627 53.286C40.2627 53.8647 40.0947 54.364 39.7587 54.784C39.4321 55.204 39.0027 55.4747 38.4707 55.596V55.666C39.0774 55.8153 39.5581 56.1093 39.9127 56.548C40.2674 56.9867 40.4447 57.5607 40.4447 58.27C40.4447 58.802 40.3234 59.2827 40.0807 59.712C39.8381 60.132 39.4741 60.4633 38.9887 60.706C38.5034 60.9487 37.9201 61.07 37.2387 61.07C36.2494 61.07 35.4374 60.8133 34.8027 60.3C34.1681 59.7773 33.8134 59.04 33.7387 58.088H34.9707C35.0361 58.648 35.2647 59.1053 35.6567 59.46C36.0487 59.8147 36.5714 59.992 37.2247 59.992C37.8781 59.992 38.3727 59.824 38.7087 59.488C39.0541 59.1427 39.2267 58.6993 39.2267 58.158C39.2267 57.458 38.9934 56.954 38.5267 56.646C38.0601 56.338 37.3554 56.184 36.4127 56.184H36.0907V55.12H36.4267C37.2854 55.1107 37.9341 54.9707 38.3727 54.7C38.8114 54.42 39.0307 53.9907 39.0307 53.412C39.0307 52.9173 38.8674 52.5207 38.5407 52.222C38.2234 51.9233 37.7661 51.774 37.1687 51.774C36.5901 51.774 36.1234 51.9233 35.7687 52.222C35.4141 52.5207 35.2041 52.922 35.1387 53.426H33.8927ZM53.7793 61H52.5053L47.3813 53.23V61H46.1073V51.228H47.3813L52.5053 58.984V51.228H53.7793V61ZM59.297 61.126C58.5784 61.126 57.925 60.9627 57.337 60.636C56.7584 60.3093 56.301 59.8473 55.965 59.25C55.6384 58.6433 55.475 57.9433 55.475 57.15C55.475 56.366 55.643 55.6753 55.979 55.078C56.3244 54.4713 56.791 54.0093 57.379 53.692C57.967 53.3653 58.625 53.202 59.353 53.202C60.081 53.202 60.739 53.3653 61.327 53.692C61.915 54.0093 62.377 54.4667 62.713 55.064C63.0584 55.6613 63.231 56.3567 63.231 57.15C63.231 57.9433 63.0537 58.6433 62.699 59.25C62.3537 59.8473 61.8824 60.3093 61.285 60.636C60.6877 60.9627 60.025 61.126 59.297 61.126ZM59.297 60.006C59.7544 60.006 60.1837 59.8987 60.585 59.684C60.9864 59.4693 61.3084 59.1473 61.551 58.718C61.803 58.2887 61.929 57.766 61.929 57.15C61.929 56.534 61.8077 56.0113 61.565 55.582C61.3224 55.1527 61.005 54.8353 60.613 54.63C60.221 54.4153 59.7964 54.308 59.339 54.308C58.8724 54.308 58.443 54.4153 58.051 54.63C57.6684 54.8353 57.3604 55.1527 57.127 55.582C56.8937 56.0113 56.777 56.534 56.777 57.15C56.777 57.7753 56.889 58.3027 57.113 58.732C57.3464 59.1613 57.6544 59.4833 58.037 59.698C58.4197 59.9033 58.8397 60.006 59.297 60.006ZM74.1321 53.188C74.7295 53.188 75.2615 53.314 75.7281 53.566C76.1948 53.8087 76.5635 54.1773 76.8341 54.672C77.1048 55.1667 77.2401 55.7687 77.2401 56.478V61H75.9801V56.66C75.9801 55.8947 75.7888 55.3113 75.4061 54.91C75.0328 54.4993 74.5241 54.294 73.8801 54.294C73.2175 54.294 72.6901 54.5087 72.2981 54.938C71.9061 55.358 71.7101 55.9693 71.7101 56.772V61H70.4501V56.66C70.4501 55.8947 70.2588 55.3113 69.8761 54.91C69.5028 54.4993 68.9941 54.294 68.3501 54.294C67.6875 54.294 67.1601 54.5087 66.7681 54.938C66.3761 55.358 66.1801 55.9693 66.1801 56.772V61H64.9061V53.328H66.1801V54.434C66.4321 54.0327 66.7681 53.7247 67.1881 53.51C67.6175 53.2953 68.0888 53.188 68.6021 53.188C69.2461 53.188 69.8155 53.3327 70.3101 53.622C70.8048 53.9113 71.1735 54.336 71.4161 54.896C71.6308 54.3547 71.9855 53.9347 72.4801 53.636C72.9748 53.3373 73.5255 53.188 74.1321 53.188ZM80.604 54.756C80.8653 54.2987 81.248 53.9253 81.752 53.636C82.256 53.3467 82.83 53.202 83.474 53.202C84.1646 53.202 84.7853 53.3653 85.336 53.692C85.8866 54.0187 86.3206 54.4807 86.638 55.078C86.9553 55.666 87.114 56.352 87.114 57.136C87.114 57.9107 86.9553 58.6013 86.638 59.208C86.3206 59.8147 85.882 60.286 85.322 60.622C84.7713 60.958 84.1553 61.126 83.474 61.126C82.8113 61.126 82.228 60.9813 81.724 60.692C81.2293 60.4027 80.856 60.034 80.604 59.586V61H79.33V50.64H80.604V54.756ZM85.812 57.136C85.812 56.5573 85.6953 56.0533 85.462 55.624C85.2286 55.1947 84.9113 54.868 84.51 54.644C84.118 54.42 83.684 54.308 83.208 54.308C82.7413 54.308 82.3073 54.4247 81.906 54.658C81.514 54.882 81.1966 55.2133 80.954 55.652C80.7206 56.0813 80.604 56.5807 80.604 57.15C80.604 57.7287 80.7206 58.2373 80.954 58.676C81.1966 59.1053 81.514 59.4367 81.906 59.67C82.3073 59.894 82.7413 60.006 83.208 60.006C83.684 60.006 84.118 59.894 84.51 59.67C84.9113 59.4367 85.2286 59.1053 85.462 58.676C85.6953 58.2373 85.812 57.724 85.812 57.136ZM89.4489 52.082C89.2062 52.082 89.0009 51.998 88.8329 51.83C88.6649 51.662 88.5809 51.4567 88.5809 51.214C88.5809 50.9713 88.6649 50.766 88.8329 50.598C89.0009 50.43 89.2062 50.346 89.4489 50.346C89.6822 50.346 89.8782 50.43 90.0369 50.598C90.2049 50.766 90.2889 50.9713 90.2889 51.214C90.2889 51.4567 90.2049 51.662 90.0369 51.83C89.8782 51.998 89.6822 52.082 89.4489 52.082ZM90.0649 53.328V61H88.7909V53.328H90.0649ZM99.2362 56.87C99.2362 57.1127 99.2222 57.3693 99.1942 57.64H93.0622C93.1089 58.396 93.3655 58.9887 93.8322 59.418C94.3082 59.838 94.8822 60.048 95.5542 60.048C96.1049 60.048 96.5622 59.922 96.9262 59.67C97.2995 59.4087 97.5609 59.0633 97.7102 58.634H99.0822C98.8769 59.3713 98.4662 59.9733 97.8502 60.44C97.2342 60.8973 96.4689 61.126 95.5542 61.126C94.8262 61.126 94.1729 60.9627 93.5942 60.636C93.0249 60.3093 92.5769 59.8473 92.2502 59.25C91.9235 58.6433 91.7602 57.9433 91.7602 57.15C91.7602 56.3567 91.9189 55.6613 92.2362 55.064C92.5535 54.4667 92.9969 54.0093 93.5662 53.692C94.1449 53.3653 94.8075 53.202 95.5542 53.202C96.2822 53.202 96.9262 53.3607 97.4862 53.678C98.0462 53.9953 98.4755 54.434 98.7742 54.994C99.0822 55.5447 99.2362 56.17 99.2362 56.87ZM97.9202 56.604C97.9202 56.1187 97.8129 55.7033 97.5982 55.358C97.3835 55.0033 97.0895 54.7373 96.7162 54.56C96.3522 54.3733 95.9462 54.28 95.4982 54.28C94.8542 54.28 94.3035 54.4853 93.8462 54.896C93.3982 55.3067 93.1415 55.876 93.0762 56.604H97.9202ZM110.144 53.188C110.741 53.188 111.273 53.314 111.74 53.566C112.207 53.8087 112.575 54.1773 112.846 54.672C113.117 55.1667 113.252 55.7687 113.252 56.478V61H111.992V56.66C111.992 55.8947 111.801 55.3113 111.418 54.91C111.045 54.4993 110.536 54.294 109.892 54.294C109.229 54.294 108.702 54.5087 108.31 54.938C107.918 55.358 107.722 55.9693 107.722 56.772V61H106.462V56.66C106.462 55.8947 106.271 55.3113 105.888 54.91C105.515 54.4993 105.006 54.294 104.362 54.294C103.699 54.294 103.172 54.5087 102.78 54.938C102.388 55.358 102.192 55.9693 102.192 56.772V61H100.918V53.328H102.192V54.434C102.444 54.0327 102.78 53.7247 103.2 53.51C103.629 53.2953 104.101 53.188 104.614 53.188C105.258 53.188 105.827 53.3327 106.322 53.622C106.817 53.9113 107.185 54.336 107.428 54.896C107.643 54.3547 107.997 53.9347 108.492 53.636C108.987 53.3373 109.537 53.188 110.144 53.188ZM116.616 54.756C116.877 54.2987 117.26 53.9253 117.764 53.636C118.268 53.3467 118.842 53.202 119.486 53.202C120.176 53.202 120.797 53.3653 121.348 53.692C121.898 54.0187 122.332 54.4807 122.65 55.078C122.967 55.666 123.126 56.352 123.126 57.136C123.126 57.9107 122.967 58.6013 122.65 59.208C122.332 59.8147 121.894 60.286 121.334 60.622C120.783 60.958 120.167 61.126 119.486 61.126C118.823 61.126 118.24 60.9813 117.736 60.692C117.241 60.4027 116.868 60.034 116.616 59.586V61H115.342V50.64H116.616V54.756ZM121.824 57.136C121.824 56.5573 121.707 56.0533 121.474 55.624C121.24 55.1947 120.923 54.868 120.522 54.644C120.13 54.42 119.696 54.308 119.22 54.308C118.753 54.308 118.319 54.4247 117.918 54.658C117.526 54.882 117.208 55.2133 116.966 55.652C116.732 56.0813 116.616 56.5807 116.616 57.15C116.616 57.7287 116.732 58.2373 116.966 58.676C117.208 59.1053 117.526 59.4367 117.918 59.67C118.319 59.894 118.753 60.006 119.22 60.006C119.696 60.006 120.13 59.894 120.522 59.67C120.923 59.4367 121.24 59.1053 121.474 58.676C121.707 58.2373 121.824 57.724 121.824 57.136ZM126.077 54.574C126.301 54.1353 126.618 53.7947 127.029 53.552C127.449 53.3093 127.957 53.188 128.555 53.188V54.504H128.219C126.791 54.504 126.077 55.2787 126.077 56.828V61H124.803V53.328H126.077V54.574ZM137.025 56.87C137.025 57.1127 137.011 57.3693 136.983 57.64H130.851C130.898 58.396 131.155 58.9887 131.621 59.418C132.097 59.838 132.671 60.048 133.343 60.048C133.894 60.048 134.351 59.922 134.715 59.67C135.089 59.4087 135.35 59.0633 135.499 58.634H136.871C136.666 59.3713 136.255 59.9733 135.639 60.44C135.023 60.8973 134.258 61.126 133.343 61.126C132.615 61.126 131.962 60.9627 131.383 60.636C130.814 60.3093 130.366 59.8473 130.039 59.25C129.713 58.6433 129.549 57.9433 129.549 57.15C129.549 56.3567 129.708 55.6613 130.025 55.064C130.343 54.4667 130.786 54.0093 131.355 53.692C131.934 53.3653 132.597 53.202 133.343 53.202C134.071 53.202 134.715 53.3607 135.275 53.678C135.835 53.9953 136.265 54.434 136.563 54.994C136.871 55.5447 137.025 56.17 137.025 56.87ZM135.709 56.604C135.709 56.1187 135.602 55.7033 135.387 55.358C135.173 55.0033 134.879 54.7373 134.505 54.56C134.141 54.3733 133.735 54.28 133.287 54.28C132.643 54.28 132.093 54.4853 131.635 54.896C131.187 55.3067 130.931 55.876 130.865 56.604H135.709ZM142.075 59.978C143.261 59.026 144.189 58.2467 144.861 57.64C145.533 57.024 146.098 56.3847 146.555 55.722C147.022 55.05 147.255 54.392 147.255 53.748C147.255 53.1413 147.106 52.6653 146.807 52.32C146.518 51.9653 146.047 51.788 145.393 51.788C144.759 51.788 144.264 51.9887 143.909 52.39C143.564 52.782 143.377 53.3093 143.349 53.972H142.117C142.155 52.9267 142.472 52.1193 143.069 51.55C143.667 50.9807 144.437 50.696 145.379 50.696C146.341 50.696 147.101 50.962 147.661 51.494C148.231 52.026 148.515 52.7587 148.515 53.692C148.515 54.4667 148.282 55.2227 147.815 55.96C147.358 56.688 146.835 57.332 146.247 57.892C145.659 58.4427 144.908 59.0867 143.993 59.824H148.809V60.888H142.075V59.978ZM150.282 55.834C150.282 54.2287 150.543 52.978 151.066 52.082C151.589 51.1767 152.503 50.724 153.81 50.724C155.107 50.724 156.017 51.1767 156.54 52.082C157.063 52.978 157.324 54.2287 157.324 55.834C157.324 57.4673 157.063 58.7367 156.54 59.642C156.017 60.5473 155.107 61 153.81 61C152.503 61 151.589 60.5473 151.066 59.642C150.543 58.7367 150.282 57.4673 150.282 55.834ZM156.064 55.834C156.064 55.022 156.008 54.336 155.896 53.776C155.793 53.2067 155.574 52.7493 155.238 52.404C154.911 52.0587 154.435 51.886 153.81 51.886C153.175 51.886 152.69 52.0587 152.354 52.404C152.027 52.7493 151.808 53.2067 151.696 53.776C151.593 54.336 151.542 55.022 151.542 55.834C151.542 56.674 151.593 57.3787 151.696 57.948C151.808 58.5173 152.027 58.9747 152.354 59.32C152.69 59.6653 153.175 59.838 153.81 59.838C154.435 59.838 154.911 59.6653 155.238 59.32C155.574 58.9747 155.793 58.5173 155.896 57.948C156.008 57.3787 156.064 56.674 156.064 55.834ZM158.919 59.978C160.104 59.026 161.033 58.2467 161.705 57.64C162.377 57.024 162.942 56.3847 163.399 55.722C163.866 55.05 164.099 54.392 164.099 53.748C164.099 53.1413 163.95 52.6653 163.651 52.32C163.362 51.9653 162.89 51.788 162.237 51.788C161.602 51.788 161.108 51.9887 160.753 52.39C160.408 52.782 160.221 53.3093 160.193 53.972H158.961C158.998 52.9267 159.316 52.1193 159.913 51.55C160.51 50.9807 161.28 50.696 162.223 50.696C163.184 50.696 163.945 50.962 164.505 51.494C165.074 52.026 165.359 52.7587 165.359 53.692C165.359 54.4667 165.126 55.2227 164.659 55.96C164.202 56.688 163.679 57.332 163.091 57.892C162.503 58.4427 161.752 59.0867 160.837 59.824H165.653V60.888H158.919V59.978ZM167.098 53.426C167.163 52.5673 167.494 51.8953 168.092 51.41C168.689 50.9247 169.464 50.682 170.416 50.682C171.05 50.682 171.596 50.7987 172.054 51.032C172.52 51.256 172.87 51.564 173.104 51.956C173.346 52.348 173.468 52.7913 173.468 53.286C173.468 53.8647 173.3 54.364 172.964 54.784C172.637 55.204 172.208 55.4747 171.676 55.596V55.666C172.282 55.8153 172.763 56.1093 173.118 56.548C173.472 56.9867 173.65 57.5607 173.65 58.27C173.65 58.802 173.528 59.2827 173.286 59.712C173.043 60.132 172.679 60.4633 172.194 60.706C171.708 60.9487 171.125 61.07 170.444 61.07C169.454 61.07 168.642 60.8133 168.008 60.3C167.373 59.7773 167.018 59.04 166.944 58.088H168.176C168.241 58.648 168.47 59.1053 168.862 59.46C169.254 59.8147 169.776 59.992 170.43 59.992C171.083 59.992 171.578 59.824 171.914 59.488C172.259 59.1427 172.432 58.6993 172.432 58.158C172.432 57.458 172.198 56.954 171.732 56.646C171.265 56.338 170.56 56.184 169.618 56.184H169.296V55.12H169.632C170.49 55.1107 171.139 54.9707 171.578 54.7C172.016 54.42 172.236 53.9907 172.236 53.412C172.236 52.9173 172.072 52.5207 171.746 52.222C171.428 51.9233 170.971 51.774 170.374 51.774C169.795 51.774 169.328 51.9233 168.974 52.222C168.619 52.5207 168.409 52.922 168.344 53.426H167.098Z" fill="white"/>
<path d="M181.722 276.83C182.618 276.055 183.323 275.421 183.836 274.926C184.359 274.422 184.793 273.899 185.138 273.358C185.483 272.817 185.656 272.275 185.656 271.734C185.656 271.174 185.521 270.735 185.25 270.418C184.989 270.101 184.573 269.942 184.004 269.942C183.453 269.942 183.024 270.119 182.716 270.474C182.417 270.819 182.259 271.286 182.24 271.874H180.7C180.728 270.81 181.045 269.998 181.652 269.438C182.268 268.869 183.047 268.584 183.99 268.584C185.007 268.584 185.801 268.864 186.37 269.424C186.949 269.984 187.238 270.731 187.238 271.664C187.238 272.336 187.065 272.985 186.72 273.61C186.384 274.226 185.978 274.781 185.502 275.276C185.035 275.761 184.438 276.326 183.71 276.97L183.08 277.53H187.518V278.86H180.714V277.698L181.722 276.83ZM194.31 265.784L190.502 281.45H188.934L192.728 265.784H194.31ZM196.111 273.764C196.111 272.149 196.382 270.889 196.923 269.984C197.474 269.069 198.417 268.612 199.751 268.612C201.086 268.612 202.024 269.069 202.565 269.984C203.116 270.889 203.391 272.149 203.391 273.764C203.391 275.397 203.116 276.676 202.565 277.6C202.024 278.515 201.086 278.972 199.751 278.972C198.417 278.972 197.474 278.515 196.923 277.6C196.382 276.676 196.111 275.397 196.111 273.764ZM201.823 273.764C201.823 273.008 201.772 272.369 201.669 271.846C201.576 271.323 201.38 270.899 201.081 270.572C200.783 270.236 200.339 270.068 199.751 270.068C199.163 270.068 198.72 270.236 198.421 270.572C198.123 270.899 197.922 271.323 197.819 271.846C197.726 272.369 197.679 273.008 197.679 273.764C197.679 274.548 197.726 275.206 197.819 275.738C197.913 276.27 198.109 276.699 198.407 277.026C198.715 277.353 199.163 277.516 199.751 277.516C200.339 277.516 200.783 277.353 201.081 277.026C201.389 276.699 201.59 276.27 201.683 275.738C201.777 275.206 201.823 274.548 201.823 273.764ZM211.548 270.026L207.656 279H206.046L209.98 270.194H204.8V268.836H211.548V270.026ZM218.304 265.784L214.496 281.45H212.928L216.722 265.784H218.304ZM220.988 276.83C221.884 276.055 222.588 275.421 223.102 274.926C223.624 274.422 224.058 273.899 224.404 273.358C224.749 272.817 224.922 272.275 224.922 271.734C224.922 271.174 224.786 270.735 224.516 270.418C224.254 270.101 223.839 269.942 223.27 269.942C222.719 269.942 222.29 270.119 221.982 270.474C221.683 270.819 221.524 271.286 221.506 271.874H219.966C219.994 270.81 220.311 269.998 220.918 269.438C221.534 268.869 222.313 268.584 223.256 268.584C224.273 268.584 225.066 268.864 225.636 269.424C226.214 269.984 226.504 270.731 226.504 271.664C226.504 272.336 226.331 272.985 225.986 273.61C225.65 274.226 225.244 274.781 224.768 275.276C224.301 275.761 223.704 276.326 222.976 276.97L222.346 277.53H226.784V278.86H219.98V277.698L220.988 276.83ZM228.158 271.314C228.214 270.446 228.545 269.769 229.152 269.284C229.768 268.799 230.552 268.556 231.504 268.556C232.157 268.556 232.722 268.673 233.198 268.906C233.674 269.139 234.033 269.457 234.276 269.858C234.518 270.259 234.64 270.712 234.64 271.216C234.64 271.795 234.486 272.289 234.178 272.7C233.87 273.111 233.501 273.386 233.072 273.526V273.582C233.622 273.75 234.052 274.058 234.36 274.506C234.668 274.945 234.822 275.509 234.822 276.2C234.822 276.751 234.696 277.241 234.444 277.67C234.192 278.099 233.818 278.44 233.324 278.692C232.829 278.935 232.236 279.056 231.546 279.056C230.538 279.056 229.707 278.799 229.054 278.286C228.41 277.763 228.064 277.017 228.018 276.046H229.558C229.595 276.541 229.786 276.947 230.132 277.264C230.477 277.572 230.944 277.726 231.532 277.726C232.101 277.726 232.54 277.572 232.848 277.264C233.156 276.947 233.31 276.541 233.31 276.046C233.31 275.393 233.1 274.931 232.68 274.66C232.269 274.38 231.634 274.24 230.776 274.24H230.412V272.924H230.79C231.546 272.915 232.12 272.789 232.512 272.546C232.913 272.303 233.114 271.921 233.114 271.398C233.114 270.95 232.969 270.595 232.68 270.334C232.39 270.063 231.98 269.928 231.448 269.928C230.925 269.928 230.519 270.063 230.23 270.334C229.94 270.595 229.768 270.922 229.712 271.314H228.158Z" fill="white"/>
<path d="M259.722 276.83C260.618 276.055 261.323 275.421 261.836 274.926C262.359 274.422 262.793 273.899 263.138 273.358C263.483 272.817 263.656 272.275 263.656 271.734C263.656 271.174 263.521 270.735 263.25 270.418C262.989 270.101 262.573 269.942 262.004 269.942C261.453 269.942 261.024 270.119 260.716 270.474C260.417 270.819 260.259 271.286 260.24 271.874H258.7C258.728 270.81 259.045 269.998 259.652 269.438C260.268 268.869 261.047 268.584 261.99 268.584C263.007 268.584 263.801 268.864 264.37 269.424C264.949 269.984 265.238 270.731 265.238 271.664C265.238 272.336 265.065 272.985 264.72 273.61C264.384 274.226 263.978 274.781 263.502 275.276C263.035 275.761 262.438 276.326 261.71 276.97L261.08 277.53H265.518V278.86H258.714V277.698L259.722 276.83ZM272.31 265.784L268.502 281.45H266.934L270.728 265.784H272.31ZM274.111 273.764C274.111 272.149 274.382 270.889 274.923 269.984C275.474 269.069 276.417 268.612 277.751 268.612C279.086 268.612 280.024 269.069 280.565 269.984C281.116 270.889 281.391 272.149 281.391 273.764C281.391 275.397 281.116 276.676 280.565 277.6C280.024 278.515 279.086 278.972 277.751 278.972C276.417 278.972 275.474 278.515 274.923 277.6C274.382 276.676 274.111 275.397 274.111 273.764ZM279.823 273.764C279.823 273.008 279.772 272.369 279.669 271.846C279.576 271.323 279.38 270.899 279.081 270.572C278.783 270.236 278.339 270.068 277.751 270.068C277.163 270.068 276.72 270.236 276.421 270.572C276.123 270.899 275.922 271.323 275.819 271.846C275.726 272.369 275.679 273.008 275.679 273.764C275.679 274.548 275.726 275.206 275.819 275.738C275.913 276.27 276.109 276.699 276.407 277.026C276.715 277.353 277.163 277.516 277.751 277.516C278.339 277.516 278.783 277.353 279.081 277.026C279.389 276.699 279.59 276.27 279.683 275.738C279.777 275.206 279.823 274.548 279.823 273.764ZM289.548 270.026L285.656 279H284.046L287.98 270.194H282.8V268.836H289.548V270.026ZM296.304 265.784L292.496 281.45H290.928L294.722 265.784H296.304ZM298.988 276.83C299.884 276.055 300.588 275.421 301.102 274.926C301.624 274.422 302.058 273.899 302.404 273.358C302.749 272.817 302.922 272.275 302.922 271.734C302.922 271.174 302.786 270.735 302.516 270.418C302.254 270.101 301.839 269.942 301.27 269.942C300.719 269.942 300.29 270.119 299.982 270.474C299.683 270.819 299.524 271.286 299.506 271.874H297.966C297.994 270.81 298.311 269.998 298.918 269.438C299.534 268.869 300.313 268.584 301.256 268.584C302.273 268.584 303.066 268.864 303.636 269.424C304.214 269.984 304.504 270.731 304.504 271.664C304.504 272.336 304.331 272.985 303.986 273.61C303.65 274.226 303.244 274.781 302.768 275.276C302.301 275.761 301.704 276.326 300.976 276.97L300.346 277.53H304.784V278.86H297.98V277.698L298.988 276.83ZM306.158 271.314C306.214 270.446 306.545 269.769 307.152 269.284C307.768 268.799 308.552 268.556 309.504 268.556C310.157 268.556 310.722 268.673 311.198 268.906C311.674 269.139 312.033 269.457 312.276 269.858C312.518 270.259 312.64 270.712 312.64 271.216C312.64 271.795 312.486 272.289 312.178 272.7C311.87 273.111 311.501 273.386 311.072 273.526V273.582C311.622 273.75 312.052 274.058 312.36 274.506C312.668 274.945 312.822 275.509 312.822 276.2C312.822 276.751 312.696 277.241 312.444 277.67C312.192 278.099 311.818 278.44 311.324 278.692C310.829 278.935 310.236 279.056 309.546 279.056C308.538 279.056 307.707 278.799 307.054 278.286C306.41 277.763 306.064 277.017 306.018 276.046H307.558C307.595 276.541 307.786 276.947 308.132 277.264C308.477 277.572 308.944 277.726 309.532 277.726C310.101 277.726 310.54 277.572 310.848 277.264C311.156 276.947 311.31 276.541 311.31 276.046C311.31 275.393 311.1 274.931 310.68 274.66C310.269 274.38 309.634 274.24 308.776 274.24H308.412V272.924H308.79C309.546 272.915 310.12 272.789 310.512 272.546C310.913 272.303 311.114 271.921 311.114 271.398C311.114 270.95 310.969 270.595 310.68 270.334C310.39 270.063 309.98 269.928 309.448 269.928C308.925 269.928 308.519 270.063 308.23 270.334C307.94 270.595 307.768 270.922 307.712 271.314H306.158Z" fill="white"/>
<path d="M337.722 276.83C338.618 276.055 339.323 275.421 339.836 274.926C340.359 274.422 340.793 273.899 341.138 273.358C341.483 272.817 341.656 272.275 341.656 271.734C341.656 271.174 341.521 270.735 341.25 270.418C340.989 270.101 340.573 269.942 340.004 269.942C339.453 269.942 339.024 270.119 338.716 270.474C338.417 270.819 338.259 271.286 338.24 271.874H336.7C336.728 270.81 337.045 269.998 337.652 269.438C338.268 268.869 339.047 268.584 339.99 268.584C341.007 268.584 341.801 268.864 342.37 269.424C342.949 269.984 343.238 270.731 343.238 271.664C343.238 272.336 343.065 272.985 342.72 273.61C342.384 274.226 341.978 274.781 341.502 275.276C341.035 275.761 340.438 276.326 339.71 276.97L339.08 277.53H343.518V278.86H336.714V277.698L337.722 276.83ZM350.31 265.784L346.502 281.45H344.934L348.728 265.784H350.31ZM352.111 273.764C352.111 272.149 352.382 270.889 352.923 269.984C353.474 269.069 354.417 268.612 355.751 268.612C357.086 268.612 358.024 269.069 358.565 269.984C359.116 270.889 359.391 272.149 359.391 273.764C359.391 275.397 359.116 276.676 358.565 277.6C358.024 278.515 357.086 278.972 355.751 278.972C354.417 278.972 353.474 278.515 352.923 277.6C352.382 276.676 352.111 275.397 352.111 273.764ZM357.823 273.764C357.823 273.008 357.772 272.369 357.669 271.846C357.576 271.323 357.38 270.899 357.081 270.572C356.783 270.236 356.339 270.068 355.751 270.068C355.163 270.068 354.72 270.236 354.421 270.572C354.123 270.899 353.922 271.323 353.819 271.846C353.726 272.369 353.679 273.008 353.679 273.764C353.679 274.548 353.726 275.206 353.819 275.738C353.913 276.27 354.109 276.699 354.407 277.026C354.715 277.353 355.163 277.516 355.751 277.516C356.339 277.516 356.783 277.353 357.081 277.026C357.389 276.699 357.59 276.27 357.683 275.738C357.777 275.206 357.823 274.548 357.823 273.764ZM367.548 270.026L363.656 279H362.046L365.98 270.194H360.8V268.836H367.548V270.026ZM374.304 265.784L370.496 281.45H368.928L372.722 265.784H374.304ZM376.988 276.83C377.884 276.055 378.588 275.421 379.102 274.926C379.624 274.422 380.058 273.899 380.404 273.358C380.749 272.817 380.922 272.275 380.922 271.734C380.922 271.174 380.786 270.735 380.516 270.418C380.254 270.101 379.839 269.942 379.27 269.942C378.719 269.942 378.29 270.119 377.982 270.474C377.683 270.819 377.524 271.286 377.506 271.874H375.966C375.994 270.81 376.311 269.998 376.918 269.438C377.534 268.869 378.313 268.584 379.256 268.584C380.273 268.584 381.066 268.864 381.636 269.424C382.214 269.984 382.504 270.731 382.504 271.664C382.504 272.336 382.331 272.985 381.986 273.61C381.65 274.226 381.244 274.781 380.768 275.276C380.301 275.761 379.704 276.326 378.976 276.97L378.346 277.53H382.784V278.86H375.98V277.698L376.988 276.83ZM384.158 271.314C384.214 270.446 384.545 269.769 385.152 269.284C385.768 268.799 386.552 268.556 387.504 268.556C388.157 268.556 388.722 268.673 389.198 268.906C389.674 269.139 390.033 269.457 390.276 269.858C390.518 270.259 390.64 270.712 390.64 271.216C390.64 271.795 390.486 272.289 390.178 272.7C389.87 273.111 389.501 273.386 389.072 273.526V273.582C389.622 273.75 390.052 274.058 390.36 274.506C390.668 274.945 390.822 275.509 390.822 276.2C390.822 276.751 390.696 277.241 390.444 277.67C390.192 278.099 389.818 278.44 389.324 278.692C388.829 278.935 388.236 279.056 387.546 279.056C386.538 279.056 385.707 278.799 385.054 278.286C384.41 277.763 384.064 277.017 384.018 276.046H385.558C385.595 276.541 385.786 276.947 386.132 277.264C386.477 277.572 386.944 277.726 387.532 277.726C388.101 277.726 388.54 277.572 388.848 277.264C389.156 276.947 389.31 276.541 389.31 276.046C389.31 275.393 389.1 274.931 388.68 274.66C388.269 274.38 387.634 274.24 386.776 274.24H386.412V272.924H386.79C387.546 272.915 388.12 272.789 388.512 272.546C388.913 272.303 389.114 271.921 389.114 271.398C389.114 270.95 388.969 270.595 388.68 270.334C388.39 270.063 387.98 269.928 387.448 269.928C386.925 269.928 386.519 270.063 386.23 270.334C385.94 270.595 385.768 270.922 385.712 271.314H384.158Z" fill="white"/>
<path d="M415.722 276.83C416.618 276.055 417.323 275.421 417.836 274.926C418.359 274.422 418.793 273.899 419.138 273.358C419.483 272.817 419.656 272.275 419.656 271.734C419.656 271.174 419.521 270.735 419.25 270.418C418.989 270.101 418.573 269.942 418.004 269.942C417.453 269.942 417.024 270.119 416.716 270.474C416.417 270.819 416.259 271.286 416.24 271.874H414.7C414.728 270.81 415.045 269.998 415.652 269.438C416.268 268.869 417.047 268.584 417.99 268.584C419.007 268.584 419.801 268.864 420.37 269.424C420.949 269.984 421.238 270.731 421.238 271.664C421.238 272.336 421.065 272.985 420.72 273.61C420.384 274.226 419.978 274.781 419.502 275.276C419.035 275.761 418.438 276.326 417.71 276.97L417.08 277.53H421.518V278.86H414.714V277.698L415.722 276.83ZM428.31 265.784L424.502 281.45H422.934L426.728 265.784H428.31ZM430.111 273.764C430.111 272.149 430.382 270.889 430.923 269.984C431.474 269.069 432.417 268.612 433.751 268.612C435.086 268.612 436.024 269.069 436.565 269.984C437.116 270.889 437.391 272.149 437.391 273.764C437.391 275.397 437.116 276.676 436.565 277.6C436.024 278.515 435.086 278.972 433.751 278.972C432.417 278.972 431.474 278.515 430.923 277.6C430.382 276.676 430.111 275.397 430.111 273.764ZM435.823 273.764C435.823 273.008 435.772 272.369 435.669 271.846C435.576 271.323 435.38 270.899 435.081 270.572C434.783 270.236 434.339 270.068 433.751 270.068C433.163 270.068 432.72 270.236 432.421 270.572C432.123 270.899 431.922 271.323 431.819 271.846C431.726 272.369 431.679 273.008 431.679 273.764C431.679 274.548 431.726 275.206 431.819 275.738C431.913 276.27 432.109 276.699 432.407 277.026C432.715 277.353 433.163 277.516 433.751 277.516C434.339 277.516 434.783 277.353 435.081 277.026C435.389 276.699 435.59 276.27 435.683 275.738C435.777 275.206 435.823 274.548 435.823 273.764ZM445.548 270.026L441.656 279H440.046L443.98 270.194H438.8V268.836H445.548V270.026ZM452.304 265.784L448.496 281.45H446.928L450.722 265.784H452.304ZM454.988 276.83C455.884 276.055 456.588 275.421 457.102 274.926C457.624 274.422 458.058 273.899 458.404 273.358C458.749 272.817 458.922 272.275 458.922 271.734C458.922 271.174 458.786 270.735 458.516 270.418C458.254 270.101 457.839 269.942 457.27 269.942C456.719 269.942 456.29 270.119 455.982 270.474C455.683 270.819 455.524 271.286 455.506 271.874H453.966C453.994 270.81 454.311 269.998 454.918 269.438C455.534 268.869 456.313 268.584 457.256 268.584C458.273 268.584 459.066 268.864 459.636 269.424C460.214 269.984 460.504 270.731 460.504 271.664C460.504 272.336 460.331 272.985 459.986 273.61C459.65 274.226 459.244 274.781 458.768 275.276C458.301 275.761 457.704 276.326 456.976 276.97L456.346 277.53H460.784V278.86H453.98V277.698L454.988 276.83ZM462.158 271.314C462.214 270.446 462.545 269.769 463.152 269.284C463.768 268.799 464.552 268.556 465.504 268.556C466.157 268.556 466.722 268.673 467.198 268.906C467.674 269.139 468.033 269.457 468.276 269.858C468.518 270.259 468.64 270.712 468.64 271.216C468.64 271.795 468.486 272.289 468.178 272.7C467.87 273.111 467.501 273.386 467.072 273.526V273.582C467.622 273.75 468.052 274.058 468.36 274.506C468.668 274.945 468.822 275.509 468.822 276.2C468.822 276.751 468.696 277.241 468.444 277.67C468.192 278.099 467.818 278.44 467.324 278.692C466.829 278.935 466.236 279.056 465.546 279.056C464.538 279.056 463.707 278.799 463.054 278.286C462.41 277.763 462.064 277.017 462.018 276.046H463.558C463.595 276.541 463.786 276.947 464.132 277.264C464.477 277.572 464.944 277.726 465.532 277.726C466.101 277.726 466.54 277.572 466.848 277.264C467.156 276.947 467.31 276.541 467.31 276.046C467.31 275.393 467.1 274.931 466.68 274.66C466.269 274.38 465.634 274.24 464.776 274.24H464.412V272.924H464.79C465.546 272.915 466.12 272.789 466.512 272.546C466.913 272.303 467.114 271.921 467.114 271.398C467.114 270.95 466.969 270.595 466.68 270.334C466.39 270.063 465.98 269.928 465.448 269.928C464.925 269.928 464.519 270.063 464.23 270.334C463.94 270.595 463.768 270.922 463.712 271.314H462.158Z" fill="white"/>
<path d="M24 246C42.624 220.249 85.0504 174.647 105.764 198.244C131.656 227.74 172.538 269.878 217.508 177.878C262.478 85.8784 287.007 30.3975 351.055 153.298C402.294 251.619 473.701 133.4 503 62" stroke="#67AA36"/>
<rect x="180" y="100" width="227" height="60" rx="12" fill="white"/>
<path d="M218.938 139.186C218.938 139.671 218.812 140.129 218.56 140.558C218.317 140.978 217.953 141.328 217.468 141.608C216.992 141.879 216.427 142.037 215.774 142.084V143.218H214.878V142.07C213.945 141.986 213.193 141.706 212.624 141.23C212.055 140.745 211.761 140.091 211.742 139.27H213.842C213.898 139.942 214.243 140.348 214.878 140.488V137.814C214.206 137.646 213.665 137.478 213.254 137.31C212.843 137.142 212.489 136.871 212.19 136.498C211.891 136.125 211.742 135.616 211.742 134.972C211.742 134.16 212.031 133.497 212.61 132.984C213.198 132.471 213.954 132.177 214.878 132.102V130.968H215.774V132.102C216.67 132.177 217.384 132.447 217.916 132.914C218.457 133.381 218.761 134.025 218.826 134.846H216.712C216.684 134.575 216.586 134.342 216.418 134.146C216.259 133.941 216.045 133.796 215.774 133.712V136.358C216.474 136.535 217.025 136.708 217.426 136.876C217.837 137.035 218.191 137.301 218.49 137.674C218.789 138.038 218.938 138.542 218.938 139.186ZM213.786 134.874C213.786 135.182 213.879 135.434 214.066 135.63C214.253 135.817 214.523 135.971 214.878 136.092V133.67C214.542 133.717 214.276 133.843 214.08 134.048C213.884 134.253 213.786 134.529 213.786 134.874ZM215.774 140.516C216.129 140.451 216.404 140.306 216.6 140.082C216.805 139.858 216.908 139.587 216.908 139.27C216.908 138.962 216.81 138.715 216.614 138.528C216.418 138.341 216.138 138.187 215.774 138.066V140.516ZM222.61 136.596C221.677 136.111 221.21 135.359 221.21 134.342C221.21 133.838 221.336 133.381 221.588 132.97C221.849 132.55 222.237 132.219 222.75 131.976C223.273 131.724 223.907 131.598 224.654 131.598C225.401 131.598 226.031 131.724 226.544 131.976C227.067 132.219 227.454 132.55 227.706 132.97C227.967 133.381 228.098 133.838 228.098 134.342C228.098 134.855 227.972 135.308 227.72 135.7C227.468 136.083 227.132 136.381 226.712 136.596C227.225 136.82 227.627 137.147 227.916 137.576C228.205 138.005 228.35 138.514 228.35 139.102C228.35 139.737 228.187 140.292 227.86 140.768C227.543 141.235 227.104 141.594 226.544 141.846C225.984 142.098 225.354 142.224 224.654 142.224C223.954 142.224 223.324 142.098 222.764 141.846C222.213 141.594 221.775 141.235 221.448 140.768C221.131 140.292 220.972 139.737 220.972 139.102C220.972 138.514 221.117 138.005 221.406 137.576C221.695 137.137 222.097 136.811 222.61 136.596ZM226.194 134.622C226.194 134.165 226.054 133.81 225.774 133.558C225.503 133.306 225.13 133.18 224.654 133.18C224.187 133.18 223.814 133.306 223.534 133.558C223.263 133.81 223.128 134.169 223.128 134.636C223.128 135.056 223.268 135.392 223.548 135.644C223.837 135.896 224.206 136.022 224.654 136.022C225.102 136.022 225.471 135.896 225.76 135.644C226.049 135.383 226.194 135.042 226.194 134.622ZM224.654 137.45C224.122 137.45 223.688 137.585 223.352 137.856C223.025 138.127 222.862 138.514 222.862 139.018C222.862 139.485 223.021 139.867 223.338 140.166C223.665 140.455 224.103 140.6 224.654 140.6C225.205 140.6 225.639 140.451 225.956 140.152C226.273 139.853 226.432 139.475 226.432 139.018C226.432 138.523 226.269 138.141 225.942 137.87C225.615 137.59 225.186 137.45 224.654 137.45ZM232.264 139.942L230.626 143.876H229.366L230.276 139.942H232.264ZM233.369 140.012V138.472L237.947 131.92H240.229V138.304H241.461V140.012H240.229V142H238.269V140.012H233.369ZM238.395 134.02L235.525 138.304H238.395V134.02ZM243.325 139.788C244.221 139.041 244.935 138.421 245.467 137.926C245.999 137.422 246.442 136.899 246.797 136.358C247.151 135.817 247.329 135.285 247.329 134.762C247.329 134.286 247.217 133.913 246.993 133.642C246.769 133.371 246.423 133.236 245.957 133.236C245.49 133.236 245.131 133.395 244.879 133.712C244.627 134.02 244.496 134.445 244.487 134.986H242.583C242.62 133.866 242.951 133.017 243.577 132.438C244.211 131.859 245.014 131.57 245.985 131.57C247.049 131.57 247.865 131.855 248.435 132.424C249.004 132.984 249.289 133.726 249.289 134.65C249.289 135.378 249.093 136.073 248.701 136.736C248.309 137.399 247.861 137.977 247.357 138.472C246.853 138.957 246.195 139.545 245.383 140.236H249.513V141.86H242.597V140.404L243.325 139.788ZM250.748 136.764C250.748 135.149 251.037 133.885 251.616 132.97C252.204 132.055 253.175 131.598 254.528 131.598C255.881 131.598 256.847 132.055 257.426 132.97C258.014 133.885 258.308 135.149 258.308 136.764C258.308 138.388 258.014 139.662 257.426 140.586C256.847 141.51 255.881 141.972 254.528 141.972C253.175 141.972 252.204 141.51 251.616 140.586C251.037 139.662 250.748 138.388 250.748 136.764ZM256.376 136.764C256.376 136.073 256.329 135.495 256.236 135.028C256.152 134.552 255.975 134.165 255.704 133.866C255.443 133.567 255.051 133.418 254.528 133.418C254.005 133.418 253.609 133.567 253.338 133.866C253.077 134.165 252.899 134.552 252.806 135.028C252.722 135.495 252.68 136.073 252.68 136.764C252.68 137.473 252.722 138.071 252.806 138.556C252.89 139.032 253.067 139.419 253.338 139.718C253.609 140.007 254.005 140.152 254.528 140.152C255.051 140.152 255.447 140.007 255.718 139.718C255.989 139.419 256.166 139.032 256.25 138.556C256.334 138.071 256.376 137.473 256.376 136.764ZM260.891 142.098C260.536 142.098 260.242 141.991 260.009 141.776C259.785 141.552 259.673 141.277 259.673 140.95C259.673 140.623 259.785 140.353 260.009 140.138C260.242 139.914 260.536 139.802 260.891 139.802C261.236 139.802 261.521 139.914 261.745 140.138C261.969 140.353 262.081 140.623 262.081 140.95C262.081 141.277 261.969 141.552 261.745 141.776C261.521 141.991 261.236 142.098 260.891 142.098ZM270.295 133.488H265.759V135.882C265.955 135.639 266.235 135.443 266.599 135.294C266.963 135.135 267.351 135.056 267.761 135.056C268.508 135.056 269.119 135.219 269.595 135.546C270.071 135.873 270.417 136.293 270.631 136.806C270.846 137.31 270.953 137.851 270.953 138.43C270.953 139.503 270.645 140.367 270.029 141.02C269.423 141.673 268.555 142 267.425 142C266.361 142 265.512 141.734 264.877 141.202C264.243 140.67 263.883 139.975 263.799 139.116H265.703C265.787 139.489 265.974 139.788 266.263 140.012C266.562 140.236 266.94 140.348 267.397 140.348C267.948 140.348 268.363 140.175 268.643 139.83C268.923 139.485 269.063 139.027 269.063 138.458C269.063 137.879 268.919 137.441 268.629 137.142C268.349 136.834 267.934 136.68 267.383 136.68C266.991 136.68 266.665 136.778 266.403 136.974C266.142 137.17 265.955 137.431 265.843 137.758H263.967V131.766H270.295V133.488ZM272.445 136.764C272.445 135.149 272.734 133.885 273.313 132.97C273.901 132.055 274.872 131.598 276.225 131.598C277.578 131.598 278.544 132.055 279.123 132.97C279.711 133.885 280.005 135.149 280.005 136.764C280.005 138.388 279.711 139.662 279.123 140.586C278.544 141.51 277.578 141.972 276.225 141.972C274.872 141.972 273.901 141.51 273.313 140.586C272.734 139.662 272.445 138.388 272.445 136.764ZM278.073 136.764C278.073 136.073 278.026 135.495 277.933 135.028C277.849 134.552 277.672 134.165 277.401 133.866C277.14 133.567 276.748 133.418 276.225 133.418C275.702 133.418 275.306 133.567 275.035 133.866C274.774 134.165 274.596 134.552 274.503 135.028C274.419 135.495 274.377 136.073 274.377 136.764C274.377 137.473 274.419 138.071 274.503 138.556C274.587 139.032 274.764 139.419 275.035 139.718C275.306 140.007 275.702 140.152 276.225 140.152C276.748 140.152 277.144 140.007 277.415 139.718C277.686 139.419 277.863 139.032 277.947 138.556C278.031 138.071 278.073 137.473 278.073 136.764Z" fill="#161326"/>
<path d="M215.256 124.098C214.603 124.098 214.015 123.986 213.492 123.762C212.969 123.529 212.559 123.202 212.26 122.782C211.961 122.362 211.812 121.872 211.812 121.312H213.52C213.557 121.732 213.721 122.077 214.01 122.348C214.309 122.619 214.724 122.754 215.256 122.754C215.807 122.754 216.236 122.623 216.544 122.362C216.852 122.091 217.006 121.746 217.006 121.326C217.006 120.999 216.908 120.733 216.712 120.528C216.525 120.323 216.287 120.164 215.998 120.052C215.718 119.94 215.326 119.819 214.822 119.688C214.187 119.52 213.669 119.352 213.268 119.184C212.876 119.007 212.54 118.736 212.26 118.372C211.98 118.008 211.84 117.523 211.84 116.916C211.84 116.356 211.98 115.866 212.26 115.446C212.54 115.026 212.932 114.704 213.436 114.48C213.94 114.256 214.523 114.144 215.186 114.144C216.129 114.144 216.899 114.382 217.496 114.858C218.103 115.325 218.439 115.969 218.504 116.79H216.74C216.712 116.435 216.544 116.132 216.236 115.88C215.928 115.628 215.522 115.502 215.018 115.502C214.561 115.502 214.187 115.619 213.898 115.852C213.609 116.085 213.464 116.421 213.464 116.86C213.464 117.159 213.553 117.406 213.73 117.602C213.917 117.789 214.15 117.938 214.43 118.05C214.71 118.162 215.093 118.283 215.578 118.414C216.222 118.591 216.745 118.769 217.146 118.946C217.557 119.123 217.902 119.399 218.182 119.772C218.471 120.136 218.616 120.626 218.616 121.242C218.616 121.737 218.481 122.203 218.21 122.642C217.949 123.081 217.561 123.435 217.048 123.706C216.544 123.967 215.947 124.098 215.256 124.098ZM227.485 116.286V124H225.889V123.09C225.637 123.407 225.306 123.659 224.895 123.846C224.494 124.023 224.065 124.112 223.607 124.112C223.001 124.112 222.455 123.986 221.969 123.734C221.493 123.482 221.115 123.109 220.835 122.614C220.565 122.119 220.429 121.522 220.429 120.822V116.286H222.011V120.584C222.011 121.275 222.184 121.807 222.529 122.18C222.875 122.544 223.346 122.726 223.943 122.726C224.541 122.726 225.012 122.544 225.357 122.18C225.712 121.807 225.889 121.275 225.889 120.584V116.286H227.485ZM231.187 117.434C231.458 117.061 231.826 116.757 232.293 116.524C232.769 116.281 233.296 116.16 233.875 116.16C234.556 116.16 235.172 116.323 235.723 116.65C236.274 116.977 236.708 117.443 237.025 118.05C237.342 118.647 237.501 119.333 237.501 120.108C237.501 120.883 237.342 121.578 237.025 122.194C236.708 122.801 236.269 123.277 235.709 123.622C235.158 123.958 234.547 124.126 233.875 124.126C233.278 124.126 232.746 124.009 232.279 123.776C231.822 123.543 231.458 123.244 231.187 122.88V124H229.591V113.64H231.187V117.434ZM235.877 120.108C235.877 119.576 235.765 119.119 235.541 118.736C235.326 118.344 235.037 118.05 234.673 117.854C234.318 117.649 233.936 117.546 233.525 117.546C233.124 117.546 232.741 117.649 232.377 117.854C232.022 118.059 231.733 118.358 231.509 118.75C231.294 119.142 231.187 119.604 231.187 120.136C231.187 120.668 231.294 121.135 231.509 121.536C231.733 121.928 232.022 122.227 232.377 122.432C232.741 122.637 233.124 122.74 233.525 122.74C233.936 122.74 234.318 122.637 234.673 122.432C235.037 122.217 235.326 121.909 235.541 121.508C235.765 121.107 235.877 120.64 235.877 120.108ZM239.891 115.264C239.602 115.264 239.359 115.166 239.163 114.97C238.967 114.774 238.869 114.531 238.869 114.242C238.869 113.953 238.967 113.71 239.163 113.514C239.359 113.318 239.602 113.22 239.891 113.22C240.171 113.22 240.409 113.318 240.605 113.514C240.801 113.71 240.899 113.953 240.899 114.242C240.899 114.531 240.801 114.774 240.605 114.97C240.409 115.166 240.171 115.264 239.891 115.264ZM240.675 116.286V124H239.079V116.286H240.675ZM249.841 119.954C249.841 120.243 249.822 120.505 249.785 120.738H243.891C243.937 121.354 244.166 121.849 244.577 122.222C244.987 122.595 245.491 122.782 246.089 122.782C246.947 122.782 247.554 122.423 247.909 121.704H249.631C249.397 122.413 248.973 122.997 248.357 123.454C247.75 123.902 246.994 124.126 246.089 124.126C245.351 124.126 244.689 123.963 244.101 123.636C243.522 123.3 243.065 122.833 242.729 122.236C242.402 121.629 242.239 120.929 242.239 120.136C242.239 119.343 242.397 118.647 242.715 118.05C243.041 117.443 243.494 116.977 244.073 116.65C244.661 116.323 245.333 116.16 246.089 116.16C246.817 116.16 247.465 116.319 248.035 116.636C248.604 116.953 249.047 117.401 249.365 117.98C249.682 118.549 249.841 119.207 249.841 119.954ZM248.175 119.45C248.165 118.862 247.955 118.391 247.545 118.036C247.134 117.681 246.625 117.504 246.019 117.504C245.468 117.504 244.997 117.681 244.605 118.036C244.213 118.381 243.979 118.853 243.905 119.45H248.175ZM255.303 116.16C255.91 116.16 256.451 116.286 256.927 116.538C257.413 116.79 257.791 117.163 258.061 117.658C258.332 118.153 258.467 118.75 258.467 119.45V124H256.885V119.688C256.885 118.997 256.713 118.47 256.367 118.106C256.022 117.733 255.551 117.546 254.953 117.546C254.356 117.546 253.88 117.733 253.525 118.106C253.18 118.47 253.007 118.997 253.007 119.688V124H251.411V116.286H253.007V117.168C253.269 116.851 253.6 116.603 254.001 116.426C254.412 116.249 254.846 116.16 255.303 116.16ZM259.971 120.108C259.971 119.333 260.13 118.647 260.447 118.05C260.774 117.453 261.212 116.991 261.763 116.664C262.323 116.328 262.944 116.16 263.625 116.16C264.129 116.16 264.624 116.272 265.109 116.496C265.604 116.711 265.996 117 266.285 117.364V113.64H267.895V124H266.285V122.838C266.024 123.211 265.66 123.519 265.193 123.762C264.736 124.005 264.208 124.126 263.611 124.126C262.939 124.126 262.323 123.958 261.763 123.622C261.212 123.277 260.774 122.801 260.447 122.194C260.13 121.578 259.971 120.883 259.971 120.108ZM266.285 120.136C266.285 119.604 266.173 119.142 265.949 118.75C265.734 118.358 265.45 118.059 265.095 117.854C264.74 117.649 264.358 117.546 263.947 117.546C263.536 117.546 263.154 117.649 262.799 117.854C262.444 118.05 262.155 118.344 261.931 118.736C261.716 119.119 261.609 119.576 261.609 120.108C261.609 120.64 261.716 121.107 261.931 121.508C262.155 121.909 262.444 122.217 262.799 122.432C263.163 122.637 263.546 122.74 263.947 122.74C264.358 122.74 264.74 122.637 265.095 122.432C265.45 122.227 265.734 121.928 265.949 121.536C266.173 121.135 266.285 120.668 266.285 120.136ZM273.337 124.126C272.609 124.126 271.951 123.963 271.363 123.636C270.775 123.3 270.313 122.833 269.977 122.236C269.641 121.629 269.473 120.929 269.473 120.136C269.473 119.352 269.646 118.657 269.991 118.05C270.337 117.443 270.808 116.977 271.405 116.65C272.003 116.323 272.67 116.16 273.407 116.16C274.145 116.16 274.812 116.323 275.409 116.65C276.007 116.977 276.478 117.443 276.823 118.05C277.169 118.657 277.341 119.352 277.341 120.136C277.341 120.92 277.164 121.615 276.809 122.222C276.455 122.829 275.969 123.3 275.353 123.636C274.747 123.963 274.075 124.126 273.337 124.126ZM273.337 122.74C273.748 122.74 274.131 122.642 274.485 122.446C274.849 122.25 275.143 121.956 275.367 121.564C275.591 121.172 275.703 120.696 275.703 120.136C275.703 119.576 275.596 119.105 275.381 118.722C275.167 118.33 274.882 118.036 274.527 117.84C274.173 117.644 273.79 117.546 273.379 117.546C272.969 117.546 272.586 117.644 272.231 117.84C271.886 118.036 271.611 118.33 271.405 118.722C271.2 119.105 271.097 119.576 271.097 120.136C271.097 120.967 271.307 121.611 271.727 122.068C272.157 122.516 272.693 122.74 273.337 122.74Z" fill="#161326"/>
<path d="M289.5 88L299.459 105.25H279.541L289.5 88Z" fill="white"/>
<circle cx="200.5" cy="119.5" r="7.5" fill="#60A033"/>
<circle cx="289.5" cy="83.5" r="6.5" fill="#60A033"/>
<line y1="72.5" x2="536" y2="72.5" stroke="white" stroke-opacity="0.3"/>
<line y1="123.5" x2="536" y2="123.5" stroke="white" stroke-opacity="0.3"/>
<line y1="145.5" x2="536" y2="145.5" stroke="white" stroke-opacity="0.3"/>
<line y1="164.5" x2="536" y2="164.5" stroke="white" stroke-opacity="0.3"/>
<line y1="181.5" x2="536" y2="181.5" stroke="white" stroke-opacity="0.3"/>
<line y1="200.5" x2="536" y2="200.5" stroke="white" stroke-opacity="0.3"/>
<line y1="223.5" x2="536" y2="223.5" stroke="white" stroke-opacity="0.3"/>
<line y1="242.5" x2="536" y2="242.5" stroke="white" stroke-opacity="0.3"/>
<line y1="87.5" x2="536" y2="87.5" stroke="white" stroke-opacity="0.3"/>
<line y1="105.5" x2="536" y2="105.5" stroke="white" stroke-opacity="0.3"/>
</svg>
