<svg width="513" height="286" viewBox="0 0 513 286" fill="none" xmlns="http://www.w3.org/2000/svg">
<line x1="1.99691" y1="248.452" x2="478.997" y2="245.506" stroke="#67AA36" stroke-dasharray="2 2"/>
<path d="M9.616 13.228V14.81H7.012V23H5.052V14.81H2.448V13.228H9.616ZM18.3681 15.244V23H16.3941V22.02C16.1421 22.356 15.8107 22.622 15.4001 22.818C14.9987 23.0047 14.5601 23.098 14.0841 23.098C13.4774 23.098 12.9407 22.972 12.4741 22.72C12.0074 22.4587 11.6387 22.0807 11.3681 21.586C11.1067 21.082 10.9761 20.4847 10.9761 19.794V15.244H12.9361V19.514C12.9361 20.13 13.0901 20.606 13.3981 20.942C13.7061 21.2687 14.1261 21.432 14.6581 21.432C15.1994 21.432 15.6241 21.2687 15.9321 20.942C16.2401 20.606 16.3941 20.13 16.3941 19.514V15.244H18.3681ZM27.0539 13.228C28.0805 13.228 28.9812 13.4287 29.7559 13.83C30.5399 14.2313 31.1419 14.8053 31.5619 15.552C31.9912 16.2893 32.2059 17.148 32.2059 18.128C32.2059 19.108 31.9912 19.9667 31.5619 20.704C31.1419 21.432 30.5399 21.9967 29.7559 22.398C28.9812 22.7993 28.0805 23 27.0539 23H23.6379V13.228H27.0539ZM26.9839 21.334C28.0105 21.334 28.8039 21.054 29.3639 20.494C29.9239 19.934 30.2039 19.1453 30.2039 18.128C30.2039 17.1107 29.9239 16.3173 29.3639 15.748C28.8039 15.1693 28.0105 14.88 26.9839 14.88H25.5979V21.334H26.9839ZM34.667 14.32C34.3217 14.32 34.0324 14.2127 33.799 13.998C33.575 13.774 33.463 13.4987 33.463 13.172C33.463 12.8453 33.575 12.5747 33.799 12.36C34.0324 12.136 34.3217 12.024 34.667 12.024C35.0124 12.024 35.297 12.136 35.521 12.36C35.7544 12.5747 35.871 12.8453 35.871 13.172C35.871 13.4987 35.7544 13.774 35.521 13.998C35.297 14.2127 35.0124 14.32 34.667 14.32ZM35.633 15.244V23H33.673V15.244H35.633ZM41.8675 15.132C42.7915 15.132 43.5382 15.426 44.1075 16.014C44.6768 16.5927 44.9615 17.4047 44.9615 18.45V23H43.0015V18.716C43.0015 18.1 42.8475 17.6287 42.5395 17.302C42.2315 16.966 41.8115 16.798 41.2795 16.798C40.7382 16.798 40.3088 16.966 39.9915 17.302C39.6835 17.6287 39.5295 18.1 39.5295 18.716V23H37.5695V15.244H39.5295V16.21C39.7908 15.874 40.1222 15.6127 40.5235 15.426C40.9342 15.23 41.3822 15.132 41.8675 15.132ZM54.0354 18.954C54.0354 19.234 54.0167 19.486 53.9794 19.71H48.3094C48.356 20.27 48.552 20.7087 48.8974 21.026C49.2427 21.3433 49.6674 21.502 50.1714 21.502C50.8994 21.502 51.4174 21.1893 51.7254 20.564H53.8394C53.6154 21.3107 53.186 21.9267 52.5514 22.412C51.9167 22.888 51.1374 23.126 50.2134 23.126C49.4667 23.126 48.7947 22.9627 48.1974 22.636C47.6094 22.3 47.1474 21.8287 46.8114 21.222C46.4847 20.6153 46.3214 19.9153 46.3214 19.122C46.3214 18.3193 46.4847 17.6147 46.8114 17.008C47.138 16.4013 47.5954 15.9347 48.1834 15.608C48.7714 15.2813 49.448 15.118 50.2134 15.118C50.9507 15.118 51.6087 15.2767 52.1874 15.594C52.7754 15.9113 53.228 16.364 53.5454 16.952C53.872 17.5307 54.0354 18.198 54.0354 18.954ZM52.0054 18.394C51.996 17.89 51.814 17.4887 51.4594 17.19C51.1047 16.882 50.6707 16.728 50.1574 16.728C49.672 16.728 49.2614 16.8773 48.9254 17.176C48.5987 17.4653 48.398 17.8713 48.3234 18.394H52.0054ZM57.426 16.448C57.678 16.0373 58.0047 15.7153 58.406 15.482C58.8167 15.2487 59.2833 15.132 59.806 15.132V17.19H59.288C58.672 17.19 58.2053 17.3347 57.888 17.624C57.58 17.9133 57.426 18.4173 57.426 19.136V23H55.466V15.244H57.426V16.448ZM64.5702 23.126C63.8235 23.126 63.1515 22.9627 62.5542 22.636C61.9568 22.3 61.4855 21.8287 61.1402 21.222C60.8042 20.6153 60.6362 19.9153 60.6362 19.122C60.6362 18.3287 60.8088 17.6287 61.1542 17.022C61.5088 16.4153 61.9895 15.9487 62.5962 15.622C63.2028 15.286 63.8795 15.118 64.6262 15.118C65.3728 15.118 66.0495 15.286 66.6562 15.622C67.2628 15.9487 67.7388 16.4153 68.0842 17.022C68.4388 17.6287 68.6162 18.3287 68.6162 19.122C68.6162 19.9153 68.4342 20.6153 68.0702 21.222C67.7155 21.8287 67.2302 22.3 66.6142 22.636C66.0075 22.9627 65.3262 23.126 64.5702 23.126ZM64.5702 21.418C64.9248 21.418 65.2562 21.334 65.5642 21.166C65.8815 20.9887 66.1335 20.7273 66.3202 20.382C66.5068 20.0367 66.6002 19.6167 66.6002 19.122C66.6002 18.3847 66.4042 17.82 66.0122 17.428C65.6295 17.0267 65.1582 16.826 64.5982 16.826C64.0382 16.826 63.5668 17.0267 63.1842 17.428C62.8108 17.82 62.6242 18.3847 62.6242 19.122C62.6242 19.8593 62.8062 20.4287 63.1702 20.83C63.5435 21.222 64.0102 21.418 64.5702 21.418Z" fill="#67AA36"/>
<path d="M2.722 279.83C3.618 279.055 4.32267 278.421 4.836 277.926C5.35867 277.422 5.79267 276.899 6.138 276.358C6.48333 275.817 6.656 275.275 6.656 274.734C6.656 274.174 6.52067 273.735 6.25 273.418C5.98867 273.101 5.57333 272.942 5.004 272.942C4.45333 272.942 4.024 273.119 3.716 273.474C3.41733 273.819 3.25867 274.286 3.24 274.874H1.7C1.728 273.81 2.04533 272.998 2.652 272.438C3.268 271.869 4.04733 271.584 4.99 271.584C6.00733 271.584 6.80067 271.864 7.37 272.424C7.94867 272.984 8.238 273.731 8.238 274.664C8.238 275.336 8.06533 275.985 7.72 276.61C7.384 277.226 6.978 277.781 6.502 278.276C6.03533 278.761 5.438 279.326 4.71 279.97L4.08 280.53H8.518V281.86H1.714V280.698L2.722 279.83ZM15.3101 268.784L11.5021 284.45H9.93408L13.7281 268.784H15.3101ZM17.1115 276.764C17.1115 275.149 17.3822 273.889 17.9235 272.984C18.4742 272.069 19.4168 271.612 20.7515 271.612C22.0862 271.612 23.0242 272.069 23.5655 272.984C24.1162 273.889 24.3915 275.149 24.3915 276.764C24.3915 278.397 24.1162 279.676 23.5655 280.6C23.0242 281.515 22.0862 281.972 20.7515 281.972C19.4168 281.972 18.4742 281.515 17.9235 280.6C17.3822 279.676 17.1115 278.397 17.1115 276.764ZM22.8235 276.764C22.8235 276.008 22.7722 275.369 22.6695 274.846C22.5762 274.323 22.3802 273.899 22.0815 273.572C21.7828 273.236 21.3395 273.068 20.7515 273.068C20.1635 273.068 19.7202 273.236 19.4215 273.572C19.1228 273.899 18.9222 274.323 18.8195 274.846C18.7262 275.369 18.6795 276.008 18.6795 276.764C18.6795 277.548 18.7262 278.206 18.8195 278.738C18.9128 279.27 19.1088 279.699 19.4075 280.026C19.7155 280.353 20.1635 280.516 20.7515 280.516C21.3395 280.516 21.7828 280.353 22.0815 280.026C22.3895 279.699 22.5902 279.27 22.6835 278.738C22.7768 278.206 22.8235 277.548 22.8235 276.764ZM32.5482 273.026L28.6562 282H27.0462L30.9802 273.194H25.8002V271.836H32.5482V273.026ZM39.3042 268.784L35.4962 284.45H33.9282L37.7222 268.784H39.3042ZM41.9876 279.83C42.8836 279.055 43.5883 278.421 44.1016 277.926C44.6243 277.422 45.0583 276.899 45.4036 276.358C45.749 275.817 45.9216 275.275 45.9216 274.734C45.9216 274.174 45.7863 273.735 45.5156 273.418C45.2543 273.101 44.839 272.942 44.2696 272.942C43.719 272.942 43.2896 273.119 42.9816 273.474C42.683 273.819 42.5243 274.286 42.5056 274.874H40.9656C40.9936 273.81 41.311 272.998 41.9176 272.438C42.5336 271.869 43.313 271.584 44.2556 271.584C45.273 271.584 46.0663 271.864 46.6356 272.424C47.2143 272.984 47.5036 273.731 47.5036 274.664C47.5036 275.336 47.331 275.985 46.9856 276.61C46.6496 277.226 46.2436 277.781 45.7676 278.276C45.301 278.761 44.7036 279.326 43.9756 279.97L43.3456 280.53H47.7836V281.86H40.9796V280.698L41.9876 279.83ZM49.1577 274.314C49.2137 273.446 49.545 272.769 50.1517 272.284C50.7677 271.799 51.5517 271.556 52.5037 271.556C53.157 271.556 53.7217 271.673 54.1977 271.906C54.6737 272.139 55.033 272.457 55.2757 272.858C55.5184 273.259 55.6397 273.712 55.6397 274.216C55.6397 274.795 55.4857 275.289 55.1777 275.7C54.8697 276.111 54.501 276.386 54.0717 276.526V276.582C54.6224 276.75 55.0517 277.058 55.3597 277.506C55.6677 277.945 55.8217 278.509 55.8217 279.2C55.8217 279.751 55.6957 280.241 55.4437 280.67C55.1917 281.099 54.8184 281.44 54.3237 281.692C53.829 281.935 53.2364 282.056 52.5457 282.056C51.5377 282.056 50.707 281.799 50.0537 281.286C49.4097 280.763 49.0644 280.017 49.0177 279.046H50.5577C50.595 279.541 50.7864 279.947 51.1317 280.264C51.477 280.572 51.9437 280.726 52.5317 280.726C53.101 280.726 53.5397 280.572 53.8477 280.264C54.1557 279.947 54.3097 279.541 54.3097 279.046C54.3097 278.393 54.0997 277.931 53.6797 277.66C53.269 277.38 52.6344 277.24 51.7757 277.24H51.4117V275.924H51.7897C52.5457 275.915 53.1197 275.789 53.5117 275.546C53.913 275.303 54.1137 274.921 54.1137 274.398C54.1137 273.95 53.969 273.595 53.6797 273.334C53.3904 273.063 52.9797 272.928 52.4477 272.928C51.925 272.928 51.519 273.063 51.2297 273.334C50.9404 273.595 50.7677 273.922 50.7117 274.314H49.1577Z" fill="#161326"/>
<path d="M80.722 279.83C81.618 279.055 82.3227 278.421 82.836 277.926C83.3587 277.422 83.7927 276.899 84.138 276.358C84.4833 275.817 84.656 275.275 84.656 274.734C84.656 274.174 84.5207 273.735 84.25 273.418C83.9887 273.101 83.5733 272.942 83.004 272.942C82.4533 272.942 82.024 273.119 81.716 273.474C81.4173 273.819 81.2587 274.286 81.24 274.874H79.7C79.728 273.81 80.0453 272.998 80.652 272.438C81.268 271.869 82.0473 271.584 82.99 271.584C84.0073 271.584 84.8007 271.864 85.37 272.424C85.9487 272.984 86.238 273.731 86.238 274.664C86.238 275.336 86.0653 275.985 85.72 276.61C85.384 277.226 84.978 277.781 84.502 278.276C84.0353 278.761 83.438 279.326 82.71 279.97L82.08 280.53H86.518V281.86H79.714V280.698L80.722 279.83ZM93.3101 268.784L89.5021 284.45H87.9341L91.7281 268.784H93.3101ZM95.1115 276.764C95.1115 275.149 95.3822 273.889 95.9235 272.984C96.4742 272.069 97.4168 271.612 98.7515 271.612C100.086 271.612 101.024 272.069 101.565 272.984C102.116 273.889 102.391 275.149 102.391 276.764C102.391 278.397 102.116 279.676 101.565 280.6C101.024 281.515 100.086 281.972 98.7515 281.972C97.4168 281.972 96.4742 281.515 95.9235 280.6C95.3822 279.676 95.1115 278.397 95.1115 276.764ZM100.823 276.764C100.823 276.008 100.772 275.369 100.669 274.846C100.576 274.323 100.38 273.899 100.081 273.572C99.7828 273.236 99.3395 273.068 98.7515 273.068C98.1635 273.068 97.7202 273.236 97.4215 273.572C97.1228 273.899 96.9222 274.323 96.8195 274.846C96.7262 275.369 96.6795 276.008 96.6795 276.764C96.6795 277.548 96.7262 278.206 96.8195 278.738C96.9128 279.27 97.1088 279.699 97.4075 280.026C97.7155 280.353 98.1635 280.516 98.7515 280.516C99.3395 280.516 99.7828 280.353 100.081 280.026C100.389 279.699 100.59 279.27 100.683 278.738C100.777 278.206 100.823 277.548 100.823 276.764ZM110.548 273.026L106.656 282H105.046L108.98 273.194H103.8V271.836H110.548V273.026ZM117.304 268.784L113.496 284.45H111.928L115.722 268.784H117.304ZM119.988 279.83C120.884 279.055 121.588 278.421 122.102 277.926C122.624 277.422 123.058 276.899 123.404 276.358C123.749 275.817 123.922 275.275 123.922 274.734C123.922 274.174 123.786 273.735 123.516 273.418C123.254 273.101 122.839 272.942 122.27 272.942C121.719 272.942 121.29 273.119 120.982 273.474C120.683 273.819 120.524 274.286 120.506 274.874H118.966C118.994 273.81 119.311 272.998 119.918 272.438C120.534 271.869 121.313 271.584 122.256 271.584C123.273 271.584 124.066 271.864 124.636 272.424C125.214 272.984 125.504 273.731 125.504 274.664C125.504 275.336 125.331 275.985 124.986 276.61C124.65 277.226 124.244 277.781 123.768 278.276C123.301 278.761 122.704 279.326 121.976 279.97L121.346 280.53H125.784V281.86H118.98V280.698L119.988 279.83ZM127.158 274.314C127.214 273.446 127.545 272.769 128.152 272.284C128.768 271.799 129.552 271.556 130.504 271.556C131.157 271.556 131.722 271.673 132.198 271.906C132.674 272.139 133.033 272.457 133.276 272.858C133.518 273.259 133.64 273.712 133.64 274.216C133.64 274.795 133.486 275.289 133.178 275.7C132.87 276.111 132.501 276.386 132.072 276.526V276.582C132.622 276.75 133.052 277.058 133.36 277.506C133.668 277.945 133.822 278.509 133.822 279.2C133.822 279.751 133.696 280.241 133.444 280.67C133.192 281.099 132.818 281.44 132.324 281.692C131.829 281.935 131.236 282.056 130.546 282.056C129.538 282.056 128.707 281.799 128.054 281.286C127.41 280.763 127.064 280.017 127.018 279.046H128.558C128.595 279.541 128.786 279.947 129.132 280.264C129.477 280.572 129.944 280.726 130.532 280.726C131.101 280.726 131.54 280.572 131.848 280.264C132.156 279.947 132.31 279.541 132.31 279.046C132.31 278.393 132.1 277.931 131.68 277.66C131.269 277.38 130.634 277.24 129.776 277.24H129.412V275.924H129.79C130.546 275.915 131.12 275.789 131.512 275.546C131.913 275.303 132.114 274.921 132.114 274.398C132.114 273.95 131.969 273.595 131.68 273.334C131.39 273.063 130.98 272.928 130.448 272.928C129.925 272.928 129.519 273.063 129.23 273.334C128.94 273.595 128.768 273.922 128.712 274.314H127.158Z" fill="#161326"/>
<path d="M9.616 41.228C9.616 41.6947 9.49933 42.1333 9.266 42.544C9.042 42.9547 8.706 43.3 8.258 43.58C7.81933 43.86 7.29667 44.028 6.69 44.084V45.218H5.78V44.084C4.90267 44 4.19333 43.7247 3.652 43.258C3.11067 42.7913 2.84 42.1753 2.84 41.41H4.548C4.576 41.774 4.69267 42.0773 4.898 42.32C5.10333 42.5533 5.39733 42.7027 5.78 42.768V39.688C5.15467 39.5293 4.646 39.3707 4.254 39.212C3.862 39.044 3.526 38.7827 3.246 38.428C2.97533 38.0733 2.84 37.588 2.84 36.972C2.84 36.1973 3.11067 35.558 3.652 35.054C4.19333 34.5407 4.90267 34.242 5.78 34.158V33.024H6.69V34.158C7.51133 34.2327 8.16933 34.494 8.664 34.942C9.168 35.3807 9.45267 35.9873 9.518 36.762H7.81C7.782 36.4727 7.67 36.216 7.474 35.992C7.278 35.7587 7.01667 35.6 6.69 35.516V38.54C7.31533 38.6893 7.824 38.848 8.216 39.016C8.608 39.1747 8.93933 39.4313 9.21 39.786C9.48067 40.1313 9.616 40.612 9.616 41.228ZM4.464 36.888C4.464 37.2707 4.576 37.5693 4.8 37.784C5.03333 37.9987 5.36 38.1713 5.78 38.302V35.474C5.37867 35.5207 5.05667 35.6653 4.814 35.908C4.58067 36.1507 4.464 36.4773 4.464 36.888ZM6.69 42.768C7.10067 42.7027 7.42267 42.5393 7.656 42.278C7.88933 42.0073 8.006 41.6853 8.006 41.312C8.006 40.9387 7.88933 40.6493 7.656 40.444C7.432 40.2293 7.11 40.0567 6.69 39.926V42.768ZM11.7355 35.25V33.794H14.6475V44H13.0375V35.25H11.7355ZM17.694 44.098C17.4047 44.098 17.162 44 16.966 43.804C16.77 43.608 16.672 43.3653 16.672 43.076C16.672 42.7867 16.77 42.544 16.966 42.348C17.162 42.152 17.4047 42.054 17.694 42.054C17.974 42.054 18.212 42.152 18.408 42.348C18.604 42.544 18.702 42.7867 18.702 43.076C18.702 43.3653 18.604 43.608 18.408 43.804C18.212 44 17.974 44.098 17.694 44.098ZM26.797 35.166H22.107V37.952C22.303 37.6907 22.5923 37.4713 22.975 37.294C23.367 37.1167 23.7823 37.028 24.221 37.028C25.005 37.028 25.6396 37.196 26.125 37.532C26.6196 37.868 26.9696 38.2927 27.175 38.806C27.3896 39.3193 27.497 39.8607 27.497 40.43C27.497 41.1207 27.3616 41.7367 27.091 42.278C26.8296 42.81 26.433 43.23 25.901 43.538C25.3783 43.846 24.7343 44 23.969 44C22.9516 44 22.135 43.748 21.519 43.244C20.903 42.74 20.5343 42.0727 20.413 41.242H21.967C22.0696 41.6807 22.2983 42.0307 22.653 42.292C23.0076 42.544 23.451 42.67 23.983 42.67C24.6456 42.67 25.1403 42.4693 25.467 42.068C25.803 41.6667 25.971 41.1347 25.971 40.472C25.971 39.8 25.803 39.2867 25.467 38.932C25.131 38.568 24.6363 38.386 23.983 38.386C23.5256 38.386 23.1383 38.5027 22.821 38.736C22.513 38.96 22.289 39.268 22.149 39.66H20.637V33.766H26.797V35.166ZM29.1584 38.764C29.1584 37.1493 29.429 35.8893 29.9704 34.984C30.521 34.0693 31.4637 33.612 32.7984 33.612C34.133 33.612 35.071 34.0693 35.6124 34.984C36.163 35.8893 36.4384 37.1493 36.4384 38.764C36.4384 40.3973 36.163 41.676 35.6124 42.6C35.071 43.5147 34.133 43.972 32.7984 43.972C31.4637 43.972 30.521 43.5147 29.9704 42.6C29.429 41.676 29.1584 40.3973 29.1584 38.764ZM34.8704 38.764C34.8704 38.008 34.819 37.3687 34.7164 36.846C34.623 36.3233 34.427 35.8987 34.1284 35.572C33.8297 35.236 33.3864 35.068 32.7984 35.068C32.2104 35.068 31.767 35.236 31.4684 35.572C31.1697 35.8987 30.969 36.3233 30.8664 36.846C30.773 37.3687 30.7264 38.008 30.7264 38.764C30.7264 39.548 30.773 40.206 30.8664 40.738C30.9597 41.27 31.1557 41.6993 31.4544 42.026C31.7624 42.3527 32.2104 42.516 32.7984 42.516C33.3864 42.516 33.8297 42.3527 34.1284 42.026C34.4364 41.6993 34.637 41.27 34.7304 40.738C34.8237 40.206 34.8704 39.548 34.8704 38.764ZM38.1271 38.764C38.1271 37.1493 38.3978 35.8893 38.9391 34.984C39.4898 34.0693 40.4324 33.612 41.7671 33.612C43.1018 33.612 44.0398 34.0693 44.5811 34.984C45.1318 35.8893 45.4071 37.1493 45.4071 38.764C45.4071 40.3973 45.1318 41.676 44.5811 42.6C44.0398 43.5147 43.1018 43.972 41.7671 43.972C40.4324 43.972 39.4898 43.5147 38.9391 42.6C38.3978 41.676 38.1271 40.3973 38.1271 38.764ZM43.8391 38.764C43.8391 38.008 43.7878 37.3687 43.6851 36.846C43.5918 36.3233 43.3958 35.8987 43.0971 35.572C42.7984 35.236 42.3551 35.068 41.7671 35.068C41.1791 35.068 40.7358 35.236 40.4371 35.572C40.1384 35.8987 39.9378 36.3233 39.8351 36.846C39.7418 37.3687 39.6951 38.008 39.6951 38.764C39.6951 39.548 39.7418 40.206 39.8351 40.738C39.9284 41.27 40.1244 41.6993 40.4231 42.026C40.7311 42.3527 41.1791 42.516 41.7671 42.516C42.3551 42.516 42.7984 42.3527 43.0971 42.026C43.4051 41.6993 43.6058 41.27 43.6991 40.738C43.7924 40.206 43.8391 39.548 43.8391 38.764ZM47.9499 44.098C47.6605 44.098 47.4179 44 47.2219 43.804C47.0259 43.608 46.9279 43.3653 46.9279 43.076C46.9279 42.7867 47.0259 42.544 47.2219 42.348C47.4179 42.152 47.6605 42.054 47.9499 42.054C48.2299 42.054 48.4679 42.152 48.6639 42.348C48.8599 42.544 48.9579 42.7867 48.9579 43.076C48.9579 43.3653 48.8599 43.608 48.6639 43.804C48.4679 44 48.2299 44.098 47.9499 44.098ZM50.4728 38.764C50.4728 37.1493 50.7435 35.8893 51.2848 34.984C51.8355 34.0693 52.7781 33.612 54.1128 33.612C55.4475 33.612 56.3855 34.0693 56.9268 34.984C57.4775 35.8893 57.7528 37.1493 57.7528 38.764C57.7528 40.3973 57.4775 41.676 56.9268 42.6C56.3855 43.5147 55.4475 43.972 54.1128 43.972C52.7781 43.972 51.8355 43.5147 51.2848 42.6C50.7435 41.676 50.4728 40.3973 50.4728 38.764ZM56.1848 38.764C56.1848 38.008 56.1335 37.3687 56.0308 36.846C55.9375 36.3233 55.7415 35.8987 55.4428 35.572C55.1441 35.236 54.7008 35.068 54.1128 35.068C53.5248 35.068 53.0815 35.236 52.7828 35.572C52.4841 35.8987 52.2835 36.3233 52.1808 36.846C52.0875 37.3687 52.0408 38.008 52.0408 38.764C52.0408 39.548 52.0875 40.206 52.1808 40.738C52.2741 41.27 52.4701 41.6993 52.7688 42.026C53.0768 42.3527 53.5248 42.516 54.1128 42.516C54.7008 42.516 55.1441 42.3527 55.4428 42.026C55.7508 41.6993 55.9515 41.27 56.0448 40.738C56.1381 40.206 56.1848 39.548 56.1848 38.764ZM59.4416 38.764C59.4416 37.1493 59.7122 35.8893 60.2536 34.984C60.8042 34.0693 61.7469 33.612 63.0816 33.612C64.4162 33.612 65.3542 34.0693 65.8956 34.984C66.4462 35.8893 66.7216 37.1493 66.7216 38.764C66.7216 40.3973 66.4462 41.676 65.8956 42.6C65.3542 43.5147 64.4162 43.972 63.0816 43.972C61.7469 43.972 60.8042 43.5147 60.2536 42.6C59.7122 41.676 59.4416 40.3973 59.4416 38.764ZM65.1536 38.764C65.1536 38.008 65.1022 37.3687 64.9996 36.846C64.9062 36.3233 64.7102 35.8987 64.4116 35.572C64.1129 35.236 63.6696 35.068 63.0816 35.068C62.4936 35.068 62.0502 35.236 61.7516 35.572C61.4529 35.8987 61.2522 36.3233 61.1496 36.846C61.0562 37.3687 61.0096 38.008 61.0096 38.764C61.0096 39.548 61.0562 40.206 61.1496 40.738C61.2429 41.27 61.4389 41.6993 61.7376 42.026C62.0456 42.3527 62.4936 42.516 63.0816 42.516C63.6696 42.516 64.1129 42.3527 64.4116 42.026C64.7196 41.6993 64.9202 41.27 65.0136 40.738C65.1069 40.206 65.1536 39.548 65.1536 38.764ZM68.4103 38.764C68.4103 37.1493 68.681 35.8893 69.2223 34.984C69.773 34.0693 70.7156 33.612 72.0503 33.612C73.385 33.612 74.323 34.0693 74.8643 34.984C75.415 35.8893 75.6903 37.1493 75.6903 38.764C75.6903 40.3973 75.415 41.676 74.8643 42.6C74.323 43.5147 73.385 43.972 72.0503 43.972C70.7156 43.972 69.773 43.5147 69.2223 42.6C68.681 41.676 68.4103 40.3973 68.4103 38.764ZM74.1223 38.764C74.1223 38.008 74.071 37.3687 73.9683 36.846C73.875 36.3233 73.679 35.8987 73.3803 35.572C73.0816 35.236 72.6383 35.068 72.0503 35.068C71.4623 35.068 71.019 35.236 70.7203 35.572C70.4216 35.8987 70.221 36.3233 70.1183 36.846C70.025 37.3687 69.9783 38.008 69.9783 38.764C69.9783 39.548 70.025 40.206 70.1183 40.738C70.2116 41.27 70.4076 41.6993 70.7063 42.026C71.0143 42.3527 71.4623 42.516 72.0503 42.516C72.6383 42.516 73.0816 42.3527 73.3803 42.026C73.6883 41.6993 73.889 41.27 73.9823 40.738C74.0756 40.206 74.1223 39.548 74.1223 38.764ZM80.6938 39.114C80.6938 38.162 80.9131 37.308 81.3518 36.552C81.7998 35.796 82.4018 35.208 83.1578 34.788C83.9231 34.3587 84.7584 34.144 85.6638 34.144C86.6998 34.144 87.6191 34.4007 88.4218 34.914C89.2338 35.418 89.8218 36.1367 90.1858 37.07H88.2678C88.0158 36.5567 87.6658 36.174 87.2178 35.922C86.7698 35.67 86.2518 35.544 85.6638 35.544C85.0198 35.544 84.4458 35.6887 83.9418 35.978C83.4378 36.2673 83.0411 36.6827 82.7518 37.224C82.4718 37.7653 82.3318 38.3953 82.3318 39.114C82.3318 39.8327 82.4718 40.4627 82.7518 41.004C83.0411 41.5453 83.4378 41.9653 83.9418 42.264C84.4458 42.5533 85.0198 42.698 85.6638 42.698C86.2518 42.698 86.7698 42.572 87.2178 42.32C87.6658 42.068 88.0158 41.6853 88.2678 41.172H90.1858C89.8218 42.1053 89.2338 42.824 88.4218 43.328C87.6191 43.832 86.6998 44.084 85.6638 44.084C84.7491 44.084 83.9138 43.874 83.1578 43.454C82.4018 43.0247 81.7998 42.432 81.3518 41.676C80.9131 40.92 80.6938 40.066 80.6938 39.114ZM96.4919 44.098C95.5866 44.098 94.7512 43.888 93.9859 43.468C93.2299 43.0387 92.6279 42.446 92.1799 41.69C91.7412 40.9247 91.5219 40.066 91.5219 39.114C91.5219 38.162 91.7412 37.308 92.1799 36.552C92.6279 35.796 93.2299 35.208 93.9859 34.788C94.7512 34.3587 95.5866 34.144 96.4919 34.144C97.4066 34.144 98.2419 34.3587 98.9979 34.788C99.7632 35.208 100.365 35.796 100.804 36.552C101.243 37.308 101.462 38.162 101.462 39.114C101.462 40.066 101.243 40.9247 100.804 41.69C100.365 42.446 99.7632 43.0387 98.9979 43.468C98.2419 43.888 97.4066 44.098 96.4919 44.098ZM96.4919 42.712C97.1359 42.712 97.7099 42.5673 98.2139 42.278C98.7179 41.9793 99.1099 41.5593 99.3899 41.018C99.6792 40.4673 99.8239 39.8327 99.8239 39.114C99.8239 38.3953 99.6792 37.7653 99.3899 37.224C99.1099 36.6827 98.7179 36.2673 98.2139 35.978C97.7099 35.6887 97.1359 35.544 96.4919 35.544C95.8479 35.544 95.2739 35.6887 94.7699 35.978C94.2659 36.2673 93.8692 36.6827 93.5799 37.224C93.2999 37.7653 93.1599 38.3953 93.1599 39.114C93.1599 39.8327 93.2999 40.4673 93.5799 41.018C93.8692 41.5593 94.2659 41.9793 94.7699 42.278C95.2739 42.5673 95.8479 42.712 96.4919 42.712ZM109.836 37.168C109.836 37.6627 109.72 38.1293 109.486 38.568C109.253 39.0067 108.88 39.366 108.366 39.646C107.853 39.9167 107.195 40.052 106.392 40.052H104.628V44H103.032V34.27H106.392C107.139 34.27 107.769 34.4007 108.282 34.662C108.805 34.914 109.192 35.2593 109.444 35.698C109.706 36.1367 109.836 36.6267 109.836 37.168ZM106.392 38.75C106.999 38.75 107.452 38.6147 107.75 38.344C108.049 38.064 108.198 37.672 108.198 37.168C108.198 36.104 107.596 35.572 106.392 35.572H104.628V38.75H106.392Z" fill="#67AA36"/>
<path d="M4.722 60.83C5.618 60.0553 6.32267 59.4207 6.836 58.926C7.35867 58.422 7.79267 57.8993 8.138 57.358C8.48333 56.8167 8.656 56.2753 8.656 55.734C8.656 55.174 8.52067 54.7353 8.25 54.418C7.98867 54.1007 7.57333 53.942 7.004 53.942C6.45333 53.942 6.024 54.1193 5.716 54.474C5.41733 54.8193 5.25867 55.286 5.24 55.874H3.7C3.728 54.81 4.04533 53.998 4.652 53.438C5.268 52.8687 6.04733 52.584 6.99 52.584C8.00733 52.584 8.80067 52.864 9.37 53.424C9.94867 53.984 10.238 54.7307 10.238 55.664C10.238 56.336 10.0653 56.9847 9.72 57.61C9.384 58.226 8.978 58.7813 8.502 59.276C8.03533 59.7613 7.438 60.326 6.71 60.97L6.08 61.53H10.518V62.86H3.714V61.698L4.722 60.83ZM11.8921 55.314C11.9481 54.446 12.2794 53.7693 12.8861 53.284C13.5021 52.7987 14.2861 52.556 15.2381 52.556C15.8914 52.556 16.4561 52.6727 16.9321 52.906C17.4081 53.1393 17.7674 53.4567 18.0101 53.858C18.2527 54.2593 18.3741 54.712 18.3741 55.216C18.3741 55.7947 18.2201 56.2893 17.9121 56.7C17.6041 57.1107 17.2354 57.386 16.8061 57.526V57.582C17.3567 57.75 17.7861 58.058 18.0941 58.506C18.4021 58.9447 18.5561 59.5093 18.5561 60.2C18.5561 60.7507 18.4301 61.2407 18.1781 61.67C17.9261 62.0993 17.5527 62.44 17.0581 62.692C16.5634 62.9347 15.9707 63.056 15.2801 63.056C14.2721 63.056 13.4414 62.7993 12.7881 62.286C12.1441 61.7633 11.7987 61.0167 11.7521 60.046H13.2921C13.3294 60.5407 13.5207 60.9467 13.8661 61.264C14.2114 61.572 14.6781 61.726 15.2661 61.726C15.8354 61.726 16.2741 61.572 16.5821 61.264C16.8901 60.9467 17.0441 60.5407 17.0441 60.046C17.0441 59.3927 16.8341 58.9307 16.4141 58.66C16.0034 58.38 15.3687 58.24 14.5101 58.24H14.1461V56.924H14.5241C15.2801 56.9147 15.8541 56.7887 16.2461 56.546C16.6474 56.3033 16.8481 55.9207 16.8481 55.398C16.8481 54.95 16.7034 54.5953 16.4141 54.334C16.1247 54.0633 15.7141 53.928 15.1821 53.928C14.6594 53.928 14.2534 54.0633 13.9641 54.334C13.6747 54.5953 13.5021 54.922 13.4461 55.314H11.8921ZM32.0733 63H30.4773L25.6753 55.734V63H24.0793V53.256H25.6753L30.4773 60.508V53.256H32.0733V63ZM37.5151 63.126C36.7871 63.126 36.1291 62.9627 35.5411 62.636C34.9531 62.3 34.4911 61.8333 34.1551 61.236C33.8191 60.6293 33.6511 59.9293 33.6511 59.136C33.6511 58.352 33.8238 57.6567 34.1691 57.05C34.5145 56.4433 34.9858 55.9767 35.5831 55.65C36.1805 55.3233 36.8478 55.16 37.5851 55.16C38.3225 55.16 38.9898 55.3233 39.5871 55.65C40.1845 55.9767 40.6558 56.4433 41.0011 57.05C41.3465 57.6567 41.5191 58.352 41.5191 59.136C41.5191 59.92 41.3418 60.6153 40.9871 61.222C40.6325 61.8287 40.1471 62.3 39.5311 62.636C38.9245 62.9627 38.2525 63.126 37.5151 63.126ZM37.5151 61.74C37.9258 61.74 38.3085 61.642 38.6631 61.446C39.0271 61.25 39.3211 60.956 39.5451 60.564C39.7691 60.172 39.8811 59.696 39.8811 59.136C39.8811 58.576 39.7738 58.1047 39.5591 57.722C39.3445 57.33 39.0598 57.036 38.7051 56.84C38.3505 56.644 37.9678 56.546 37.5571 56.546C37.1465 56.546 36.7638 56.644 36.4091 56.84C36.0638 57.036 35.7885 57.33 35.5831 57.722C35.3778 58.1047 35.2751 58.576 35.2751 59.136C35.2751 59.9667 35.4851 60.6107 35.9051 61.068C36.3345 61.516 36.8711 61.74 37.5151 61.74ZM52.4349 55.16C53.0415 55.16 53.5829 55.286 54.0589 55.538C54.5442 55.79 54.9222 56.1633 55.1929 56.658C55.4729 57.1527 55.6129 57.75 55.6129 58.45V63H54.0309V58.688C54.0309 57.9973 53.8582 57.47 53.5129 57.106C53.1675 56.7327 52.6962 56.546 52.0989 56.546C51.5015 56.546 51.0255 56.7327 50.6709 57.106C50.3255 57.47 50.1529 57.9973 50.1529 58.688V63H48.5709V58.688C48.5709 57.9973 48.3982 57.47 48.0529 57.106C47.7075 56.7327 47.2362 56.546 46.6389 56.546C46.0415 56.546 45.5655 56.7327 45.2109 57.106C44.8655 57.47 44.6929 57.9973 44.6929 58.688V63H43.0969V55.286H44.6929V56.168C44.9542 55.8507 45.2855 55.6033 45.6869 55.426C46.0882 55.2487 46.5175 55.16 46.9749 55.16C47.5909 55.16 48.1415 55.2907 48.6269 55.552C49.1122 55.8133 49.4855 56.1913 49.7469 56.686C49.9802 56.2193 50.3442 55.8507 50.8389 55.58C51.3335 55.3 51.8655 55.16 52.4349 55.16ZM59.2398 56.434C59.5104 56.0607 59.8791 55.7573 60.3458 55.524C60.8218 55.2813 61.3491 55.16 61.9278 55.16C62.6091 55.16 63.2251 55.3233 63.7758 55.65C64.3264 55.9767 64.7604 56.4433 65.0778 57.05C65.3951 57.6473 65.5538 58.3333 65.5538 59.108C65.5538 59.8827 65.3951 60.578 65.0778 61.194C64.7604 61.8007 64.3218 62.2767 63.7618 62.622C63.2111 62.958 62.5998 63.126 61.9278 63.126C61.3304 63.126 60.7984 63.0093 60.3318 62.776C59.8744 62.5427 59.5104 62.244 59.2398 61.88V63H57.6438V52.64H59.2398V56.434ZM63.9298 59.108C63.9298 58.576 63.8178 58.1187 63.5938 57.736C63.3791 57.344 63.0898 57.05 62.7258 56.854C62.3711 56.6487 61.9884 56.546 61.5778 56.546C61.1764 56.546 60.7938 56.6487 60.4298 56.854C60.0751 57.0593 59.7858 57.358 59.5618 57.75C59.3471 58.142 59.2398 58.604 59.2398 59.136C59.2398 59.668 59.3471 60.1347 59.5618 60.536C59.7858 60.928 60.0751 61.2267 60.4298 61.432C60.7938 61.6373 61.1764 61.74 61.5778 61.74C61.9884 61.74 62.3711 61.6373 62.7258 61.432C63.0898 61.2173 63.3791 60.9093 63.5938 60.508C63.8178 60.1067 63.9298 59.64 63.9298 59.108ZM67.944 54.264C67.6547 54.264 67.412 54.166 67.216 53.97C67.02 53.774 66.922 53.5313 66.922 53.242C66.922 52.9527 67.02 52.71 67.216 52.514C67.412 52.318 67.6547 52.22 67.944 52.22C68.224 52.22 68.462 52.318 68.658 52.514C68.854 52.71 68.952 52.9527 68.952 53.242C68.952 53.5313 68.854 53.774 68.658 53.97C68.462 54.166 68.224 54.264 67.944 54.264ZM68.728 55.286V63H67.132V55.286H68.728ZM77.8934 58.954C77.8934 59.2433 77.8748 59.5047 77.8374 59.738H71.9434C71.9901 60.354 72.2188 60.8487 72.6294 61.222C73.0401 61.5953 73.5441 61.782 74.1414 61.782C75.0001 61.782 75.6068 61.4227 75.9614 60.704H77.6834C77.4501 61.4133 77.0254 61.9967 76.4094 62.454C75.8028 62.902 75.0468 63.126 74.1414 63.126C73.4041 63.126 72.7414 62.9627 72.1534 62.636C71.5748 62.3 71.1174 61.8333 70.7814 61.236C70.4548 60.6293 70.2914 59.9293 70.2914 59.136C70.2914 58.3427 70.4501 57.6473 70.7674 57.05C71.0941 56.4433 71.5468 55.9767 72.1254 55.65C72.7134 55.3233 73.3854 55.16 74.1414 55.16C74.8694 55.16 75.5181 55.3187 76.0874 55.636C76.6568 55.9533 77.1001 56.4013 77.4174 56.98C77.7348 57.5493 77.8934 58.2073 77.8934 58.954ZM76.2274 58.45C76.2181 57.862 76.0081 57.3907 75.5974 57.036C75.1868 56.6813 74.6781 56.504 74.0714 56.504C73.5208 56.504 73.0494 56.6813 72.6574 57.036C72.2654 57.3813 72.0321 57.8527 71.9574 58.45H76.2274ZM83.3561 55.16C83.9627 55.16 84.5041 55.286 84.9801 55.538C85.4654 55.79 85.8434 56.1633 86.1141 56.658C86.3847 57.1527 86.5201 57.75 86.5201 58.45V63H84.9381V58.688C84.9381 57.9973 84.7654 57.47 84.4201 57.106C84.0747 56.7327 83.6034 56.546 83.0061 56.546C82.4087 56.546 81.9327 56.7327 81.5781 57.106C81.2327 57.47 81.0601 57.9973 81.0601 58.688V63H79.4641V55.286H81.0601V56.168C81.3214 55.8507 81.6527 55.6033 82.0541 55.426C82.4647 55.2487 82.8987 55.16 83.3561 55.16ZM90.1519 56.434C90.4225 56.0607 90.7912 55.7573 91.2579 55.524C91.7339 55.2813 92.2612 55.16 92.8399 55.16C93.5212 55.16 94.1372 55.3233 94.6879 55.65C95.2385 55.9767 95.6725 56.4433 95.9899 57.05C96.3072 57.6473 96.4659 58.3333 96.4659 59.108C96.4659 59.8827 96.3072 60.578 95.9899 61.194C95.6725 61.8007 95.2339 62.2767 94.6739 62.622C94.1232 62.958 93.5119 63.126 92.8399 63.126C92.2425 63.126 91.7105 63.0093 91.2439 62.776C90.7865 62.5427 90.4225 62.244 90.1519 61.88V63H88.5559V52.64H90.1519V56.434ZM94.8419 59.108C94.8419 58.576 94.7299 58.1187 94.5059 57.736C94.2912 57.344 94.0019 57.05 93.6379 56.854C93.2832 56.6487 92.9005 56.546 92.4899 56.546C92.0885 56.546 91.7059 56.6487 91.3419 56.854C90.9872 57.0593 90.6979 57.358 90.4739 57.75C90.2592 58.142 90.1519 58.604 90.1519 59.136C90.1519 59.668 90.2592 60.1347 90.4739 60.536C90.6979 60.928 90.9872 61.2267 91.3419 61.432C91.7059 61.6373 92.0885 61.74 92.4899 61.74C92.9005 61.74 93.2832 61.6373 93.6379 61.432C94.0019 61.2173 94.2912 60.9093 94.5059 60.508C94.7299 60.1067 94.8419 59.64 94.8419 59.108ZM99.6401 56.406C99.8735 56.014 100.181 55.7107 100.564 55.496C100.956 55.272 101.418 55.16 101.95 55.16V56.812H101.544C100.919 56.812 100.443 56.9707 100.116 57.288C99.7988 57.6053 99.6401 58.156 99.6401 58.94V63H98.0441V55.286H99.6401V56.406ZM110.487 58.954C110.487 59.2433 110.469 59.5047 110.431 59.738H104.537C104.584 60.354 104.813 60.8487 105.223 61.222C105.634 61.5953 106.138 61.782 106.735 61.782C107.594 61.782 108.201 61.4227 108.555 60.704H110.277C110.044 61.4133 109.619 61.9967 109.003 62.454C108.397 62.902 107.641 63.126 106.735 63.126C105.998 63.126 105.335 62.9627 104.747 62.636C104.169 62.3 103.711 61.8333 103.375 61.236C103.049 60.6293 102.885 59.9293 102.885 59.136C102.885 58.3427 103.044 57.6473 103.361 57.05C103.688 56.4433 104.141 55.9767 104.719 55.65C105.307 55.3233 105.979 55.16 106.735 55.16C107.463 55.16 108.112 55.3187 108.681 55.636C109.251 55.9533 109.694 56.4013 110.011 56.98C110.329 57.5493 110.487 58.2073 110.487 58.954ZM108.821 58.45C108.812 57.862 108.602 57.3907 108.191 57.036C107.781 56.6813 107.272 56.504 106.665 56.504C106.115 56.504 105.643 56.6813 105.251 57.036C104.859 57.3813 104.626 57.8527 104.551 58.45H108.821ZM116.367 60.83C117.263 60.0553 117.967 59.4207 118.481 58.926C119.003 58.422 119.437 57.8993 119.783 57.358C120.128 56.8167 120.301 56.2753 120.301 55.734C120.301 55.174 120.165 54.7353 119.895 54.418C119.633 54.1007 119.218 53.942 118.649 53.942C118.098 53.942 117.669 54.1193 117.361 54.474C117.062 54.8193 116.903 55.286 116.885 55.874H115.345C115.373 54.81 115.69 53.998 116.297 53.438C116.913 52.8687 117.692 52.584 118.635 52.584C119.652 52.584 120.445 52.864 121.015 53.424C121.593 53.984 121.883 54.7307 121.883 55.664C121.883 56.336 121.71 56.9847 121.365 57.61C121.029 58.226 120.623 58.7813 120.147 59.276C119.68 59.7613 119.083 60.326 118.355 60.97L117.725 61.53H122.163V62.86H115.359V61.698L116.367 60.83ZM123.565 57.764C123.565 56.1493 123.835 54.8893 124.377 53.984C124.927 53.0693 125.87 52.612 127.205 52.612C128.539 52.612 129.477 53.0693 130.019 53.984C130.569 54.8893 130.845 56.1493 130.845 57.764C130.845 59.3973 130.569 60.676 130.019 61.6C129.477 62.5147 128.539 62.972 127.205 62.972C125.87 62.972 124.927 62.5147 124.377 61.6C123.835 60.676 123.565 59.3973 123.565 57.764ZM129.277 57.764C129.277 57.008 129.225 56.3687 129.123 55.846C129.029 55.3233 128.833 54.8987 128.535 54.572C128.236 54.236 127.793 54.068 127.205 54.068C126.617 54.068 126.173 54.236 125.875 54.572C125.576 54.8987 125.375 55.3233 125.273 55.846C125.179 56.3687 125.133 57.008 125.133 57.764C125.133 58.548 125.179 59.206 125.273 59.738C125.366 60.27 125.562 60.6993 125.861 61.026C126.169 61.3527 126.617 61.516 127.205 61.516C127.793 61.516 128.236 61.3527 128.535 61.026C128.843 60.6993 129.043 60.27 129.137 59.738C129.23 59.206 129.277 58.548 129.277 57.764ZM133.415 60.83C134.311 60.0553 135.016 59.4207 135.529 58.926C136.052 58.422 136.486 57.8993 136.831 57.358C137.177 56.8167 137.349 56.2753 137.349 55.734C137.349 55.174 137.214 54.7353 136.943 54.418C136.682 54.1007 136.267 53.942 135.697 53.942C135.147 53.942 134.717 54.1193 134.409 54.474C134.111 54.8193 133.952 55.286 133.933 55.874H132.393C132.421 54.81 132.739 53.998 133.345 53.438C133.961 52.8687 134.741 52.584 135.683 52.584C136.701 52.584 137.494 52.864 138.063 53.424C138.642 53.984 138.931 54.7307 138.931 55.664C138.931 56.336 138.759 56.9847 138.413 57.61C138.077 58.226 137.671 58.7813 137.195 59.276C136.729 59.7613 136.131 60.326 135.403 60.97L134.773 61.53H139.211V62.86H132.407V61.698L133.415 60.83ZM140.585 55.314C140.641 54.446 140.973 53.7693 141.579 53.284C142.195 52.7987 142.979 52.556 143.931 52.556C144.585 52.556 145.149 52.6727 145.625 52.906C146.101 53.1393 146.461 53.4567 146.703 53.858C146.946 54.2593 147.067 54.712 147.067 55.216C147.067 55.7947 146.913 56.2893 146.605 56.7C146.297 57.1107 145.929 57.386 145.499 57.526V57.582C146.05 57.75 146.479 58.058 146.787 58.506C147.095 58.9447 147.249 59.5093 147.249 60.2C147.249 60.7507 147.123 61.2407 146.871 61.67C146.619 62.0993 146.246 62.44 145.751 62.692C145.257 62.9347 144.664 63.056 143.973 63.056C142.965 63.056 142.135 62.7993 141.481 62.286C140.837 61.7633 140.492 61.0167 140.445 60.046H141.985C142.023 60.5407 142.214 60.9467 142.559 61.264C142.905 61.572 143.371 61.726 143.959 61.726C144.529 61.726 144.967 61.572 145.275 61.264C145.583 60.9467 145.737 60.5407 145.737 60.046C145.737 59.3927 145.527 58.9307 145.107 58.66C144.697 58.38 144.062 58.24 143.203 58.24H142.839V56.924H143.217C143.973 56.9147 144.547 56.7887 144.939 56.546C145.341 56.3033 145.541 55.9207 145.541 55.398C145.541 54.95 145.397 54.5953 145.107 54.334C144.818 54.0633 144.407 53.928 143.875 53.928C143.353 53.928 142.947 54.0633 142.657 54.334C142.368 54.5953 142.195 54.922 142.139 55.314H140.585Z" fill="#67AA36"/>
<path d="M158.722 279.83C159.618 279.055 160.323 278.421 160.836 277.926C161.359 277.422 161.793 276.899 162.138 276.358C162.483 275.817 162.656 275.275 162.656 274.734C162.656 274.174 162.521 273.735 162.25 273.418C161.989 273.101 161.573 272.942 161.004 272.942C160.453 272.942 160.024 273.119 159.716 273.474C159.417 273.819 159.259 274.286 159.24 274.874H157.7C157.728 273.81 158.045 272.998 158.652 272.438C159.268 271.869 160.047 271.584 160.99 271.584C162.007 271.584 162.801 271.864 163.37 272.424C163.949 272.984 164.238 273.731 164.238 274.664C164.238 275.336 164.065 275.985 163.72 276.61C163.384 277.226 162.978 277.781 162.502 278.276C162.035 278.761 161.438 279.326 160.71 279.97L160.08 280.53H164.518V281.86H157.714V280.698L158.722 279.83ZM171.31 268.784L167.502 284.45H165.934L169.728 268.784H171.31ZM173.111 276.764C173.111 275.149 173.382 273.889 173.923 272.984C174.474 272.069 175.417 271.612 176.751 271.612C178.086 271.612 179.024 272.069 179.565 272.984C180.116 273.889 180.391 275.149 180.391 276.764C180.391 278.397 180.116 279.676 179.565 280.6C179.024 281.515 178.086 281.972 176.751 281.972C175.417 281.972 174.474 281.515 173.923 280.6C173.382 279.676 173.111 278.397 173.111 276.764ZM178.823 276.764C178.823 276.008 178.772 275.369 178.669 274.846C178.576 274.323 178.38 273.899 178.081 273.572C177.783 273.236 177.339 273.068 176.751 273.068C176.163 273.068 175.72 273.236 175.421 273.572C175.123 273.899 174.922 274.323 174.819 274.846C174.726 275.369 174.679 276.008 174.679 276.764C174.679 277.548 174.726 278.206 174.819 278.738C174.913 279.27 175.109 279.699 175.407 280.026C175.715 280.353 176.163 280.516 176.751 280.516C177.339 280.516 177.783 280.353 178.081 280.026C178.389 279.699 178.59 279.27 178.683 278.738C178.777 278.206 178.823 277.548 178.823 276.764ZM188.548 273.026L184.656 282H183.046L186.98 273.194H181.8V271.836H188.548V273.026ZM195.304 268.784L191.496 284.45H189.928L193.722 268.784H195.304ZM197.988 279.83C198.884 279.055 199.588 278.421 200.102 277.926C200.624 277.422 201.058 276.899 201.404 276.358C201.749 275.817 201.922 275.275 201.922 274.734C201.922 274.174 201.786 273.735 201.516 273.418C201.254 273.101 200.839 272.942 200.27 272.942C199.719 272.942 199.29 273.119 198.982 273.474C198.683 273.819 198.524 274.286 198.506 274.874H196.966C196.994 273.81 197.311 272.998 197.918 272.438C198.534 271.869 199.313 271.584 200.256 271.584C201.273 271.584 202.066 271.864 202.636 272.424C203.214 272.984 203.504 273.731 203.504 274.664C203.504 275.336 203.331 275.985 202.986 276.61C202.65 277.226 202.244 277.781 201.768 278.276C201.301 278.761 200.704 279.326 199.976 279.97L199.346 280.53H203.784V281.86H196.98V280.698L197.988 279.83ZM205.158 274.314C205.214 273.446 205.545 272.769 206.152 272.284C206.768 271.799 207.552 271.556 208.504 271.556C209.157 271.556 209.722 271.673 210.198 271.906C210.674 272.139 211.033 272.457 211.276 272.858C211.518 273.259 211.64 273.712 211.64 274.216C211.64 274.795 211.486 275.289 211.178 275.7C210.87 276.111 210.501 276.386 210.072 276.526V276.582C210.622 276.75 211.052 277.058 211.36 277.506C211.668 277.945 211.822 278.509 211.822 279.2C211.822 279.751 211.696 280.241 211.444 280.67C211.192 281.099 210.818 281.44 210.324 281.692C209.829 281.935 209.236 282.056 208.546 282.056C207.538 282.056 206.707 281.799 206.054 281.286C205.41 280.763 205.064 280.017 205.018 279.046H206.558C206.595 279.541 206.786 279.947 207.132 280.264C207.477 280.572 207.944 280.726 208.532 280.726C209.101 280.726 209.54 280.572 209.848 280.264C210.156 279.947 210.31 279.541 210.31 279.046C210.31 278.393 210.1 277.931 209.68 277.66C209.269 277.38 208.634 277.24 207.776 277.24H207.412V275.924H207.79C208.546 275.915 209.12 275.789 209.512 275.546C209.913 275.303 210.114 274.921 210.114 274.398C210.114 273.95 209.969 273.595 209.68 273.334C209.39 273.063 208.98 272.928 208.448 272.928C207.925 272.928 207.519 273.063 207.23 273.334C206.94 273.595 206.768 273.922 206.712 274.314H205.158Z" fill="#161326"/>
<path d="M236.722 279.83C237.618 279.055 238.323 278.421 238.836 277.926C239.359 277.422 239.793 276.899 240.138 276.358C240.483 275.817 240.656 275.275 240.656 274.734C240.656 274.174 240.521 273.735 240.25 273.418C239.989 273.101 239.573 272.942 239.004 272.942C238.453 272.942 238.024 273.119 237.716 273.474C237.417 273.819 237.259 274.286 237.24 274.874H235.7C235.728 273.81 236.045 272.998 236.652 272.438C237.268 271.869 238.047 271.584 238.99 271.584C240.007 271.584 240.801 271.864 241.37 272.424C241.949 272.984 242.238 273.731 242.238 274.664C242.238 275.336 242.065 275.985 241.72 276.61C241.384 277.226 240.978 277.781 240.502 278.276C240.035 278.761 239.438 279.326 238.71 279.97L238.08 280.53H242.518V281.86H235.714V280.698L236.722 279.83ZM249.31 268.784L245.502 284.45H243.934L247.728 268.784H249.31ZM251.111 276.764C251.111 275.149 251.382 273.889 251.923 272.984C252.474 272.069 253.417 271.612 254.751 271.612C256.086 271.612 257.024 272.069 257.565 272.984C258.116 273.889 258.391 275.149 258.391 276.764C258.391 278.397 258.116 279.676 257.565 280.6C257.024 281.515 256.086 281.972 254.751 281.972C253.417 281.972 252.474 281.515 251.923 280.6C251.382 279.676 251.111 278.397 251.111 276.764ZM256.823 276.764C256.823 276.008 256.772 275.369 256.669 274.846C256.576 274.323 256.38 273.899 256.081 273.572C255.783 273.236 255.339 273.068 254.751 273.068C254.163 273.068 253.72 273.236 253.421 273.572C253.123 273.899 252.922 274.323 252.819 274.846C252.726 275.369 252.679 276.008 252.679 276.764C252.679 277.548 252.726 278.206 252.819 278.738C252.913 279.27 253.109 279.699 253.407 280.026C253.715 280.353 254.163 280.516 254.751 280.516C255.339 280.516 255.783 280.353 256.081 280.026C256.389 279.699 256.59 279.27 256.683 278.738C256.777 278.206 256.823 277.548 256.823 276.764ZM266.548 273.026L262.656 282H261.046L264.98 273.194H259.8V271.836H266.548V273.026ZM273.304 268.784L269.496 284.45H267.928L271.722 268.784H273.304ZM275.988 279.83C276.884 279.055 277.588 278.421 278.102 277.926C278.624 277.422 279.058 276.899 279.404 276.358C279.749 275.817 279.922 275.275 279.922 274.734C279.922 274.174 279.786 273.735 279.516 273.418C279.254 273.101 278.839 272.942 278.27 272.942C277.719 272.942 277.29 273.119 276.982 273.474C276.683 273.819 276.524 274.286 276.506 274.874H274.966C274.994 273.81 275.311 272.998 275.918 272.438C276.534 271.869 277.313 271.584 278.256 271.584C279.273 271.584 280.066 271.864 280.636 272.424C281.214 272.984 281.504 273.731 281.504 274.664C281.504 275.336 281.331 275.985 280.986 276.61C280.65 277.226 280.244 277.781 279.768 278.276C279.301 278.761 278.704 279.326 277.976 279.97L277.346 280.53H281.784V281.86H274.98V280.698L275.988 279.83ZM283.158 274.314C283.214 273.446 283.545 272.769 284.152 272.284C284.768 271.799 285.552 271.556 286.504 271.556C287.157 271.556 287.722 271.673 288.198 271.906C288.674 272.139 289.033 272.457 289.276 272.858C289.518 273.259 289.64 273.712 289.64 274.216C289.64 274.795 289.486 275.289 289.178 275.7C288.87 276.111 288.501 276.386 288.072 276.526V276.582C288.622 276.75 289.052 277.058 289.36 277.506C289.668 277.945 289.822 278.509 289.822 279.2C289.822 279.751 289.696 280.241 289.444 280.67C289.192 281.099 288.818 281.44 288.324 281.692C287.829 281.935 287.236 282.056 286.546 282.056C285.538 282.056 284.707 281.799 284.054 281.286C283.41 280.763 283.064 280.017 283.018 279.046H284.558C284.595 279.541 284.786 279.947 285.132 280.264C285.477 280.572 285.944 280.726 286.532 280.726C287.101 280.726 287.54 280.572 287.848 280.264C288.156 279.947 288.31 279.541 288.31 279.046C288.31 278.393 288.1 277.931 287.68 277.66C287.269 277.38 286.634 277.24 285.776 277.24H285.412V275.924H285.79C286.546 275.915 287.12 275.789 287.512 275.546C287.913 275.303 288.114 274.921 288.114 274.398C288.114 273.95 287.969 273.595 287.68 273.334C287.39 273.063 286.98 272.928 286.448 272.928C285.925 272.928 285.519 273.063 285.23 273.334C284.94 273.595 284.768 273.922 284.712 274.314H283.158Z" fill="#161326"/>
<path d="M314.722 279.83C315.618 279.055 316.323 278.421 316.836 277.926C317.359 277.422 317.793 276.899 318.138 276.358C318.483 275.817 318.656 275.275 318.656 274.734C318.656 274.174 318.521 273.735 318.25 273.418C317.989 273.101 317.573 272.942 317.004 272.942C316.453 272.942 316.024 273.119 315.716 273.474C315.417 273.819 315.259 274.286 315.24 274.874H313.7C313.728 273.81 314.045 272.998 314.652 272.438C315.268 271.869 316.047 271.584 316.99 271.584C318.007 271.584 318.801 271.864 319.37 272.424C319.949 272.984 320.238 273.731 320.238 274.664C320.238 275.336 320.065 275.985 319.72 276.61C319.384 277.226 318.978 277.781 318.502 278.276C318.035 278.761 317.438 279.326 316.71 279.97L316.08 280.53H320.518V281.86H313.714V280.698L314.722 279.83ZM327.31 268.784L323.502 284.45H321.934L325.728 268.784H327.31ZM329.111 276.764C329.111 275.149 329.382 273.889 329.923 272.984C330.474 272.069 331.417 271.612 332.751 271.612C334.086 271.612 335.024 272.069 335.565 272.984C336.116 273.889 336.391 275.149 336.391 276.764C336.391 278.397 336.116 279.676 335.565 280.6C335.024 281.515 334.086 281.972 332.751 281.972C331.417 281.972 330.474 281.515 329.923 280.6C329.382 279.676 329.111 278.397 329.111 276.764ZM334.823 276.764C334.823 276.008 334.772 275.369 334.669 274.846C334.576 274.323 334.38 273.899 334.081 273.572C333.783 273.236 333.339 273.068 332.751 273.068C332.163 273.068 331.72 273.236 331.421 273.572C331.123 273.899 330.922 274.323 330.819 274.846C330.726 275.369 330.679 276.008 330.679 276.764C330.679 277.548 330.726 278.206 330.819 278.738C330.913 279.27 331.109 279.699 331.407 280.026C331.715 280.353 332.163 280.516 332.751 280.516C333.339 280.516 333.783 280.353 334.081 280.026C334.389 279.699 334.59 279.27 334.683 278.738C334.777 278.206 334.823 277.548 334.823 276.764ZM344.548 273.026L340.656 282H339.046L342.98 273.194H337.8V271.836H344.548V273.026ZM351.304 268.784L347.496 284.45H345.928L349.722 268.784H351.304ZM353.988 279.83C354.884 279.055 355.588 278.421 356.102 277.926C356.624 277.422 357.058 276.899 357.404 276.358C357.749 275.817 357.922 275.275 357.922 274.734C357.922 274.174 357.786 273.735 357.516 273.418C357.254 273.101 356.839 272.942 356.27 272.942C355.719 272.942 355.29 273.119 354.982 273.474C354.683 273.819 354.524 274.286 354.506 274.874H352.966C352.994 273.81 353.311 272.998 353.918 272.438C354.534 271.869 355.313 271.584 356.256 271.584C357.273 271.584 358.066 271.864 358.636 272.424C359.214 272.984 359.504 273.731 359.504 274.664C359.504 275.336 359.331 275.985 358.986 276.61C358.65 277.226 358.244 277.781 357.768 278.276C357.301 278.761 356.704 279.326 355.976 279.97L355.346 280.53H359.784V281.86H352.98V280.698L353.988 279.83ZM361.158 274.314C361.214 273.446 361.545 272.769 362.152 272.284C362.768 271.799 363.552 271.556 364.504 271.556C365.157 271.556 365.722 271.673 366.198 271.906C366.674 272.139 367.033 272.457 367.276 272.858C367.518 273.259 367.64 273.712 367.64 274.216C367.64 274.795 367.486 275.289 367.178 275.7C366.87 276.111 366.501 276.386 366.072 276.526V276.582C366.622 276.75 367.052 277.058 367.36 277.506C367.668 277.945 367.822 278.509 367.822 279.2C367.822 279.751 367.696 280.241 367.444 280.67C367.192 281.099 366.818 281.44 366.324 281.692C365.829 281.935 365.236 282.056 364.546 282.056C363.538 282.056 362.707 281.799 362.054 281.286C361.41 280.763 361.064 280.017 361.018 279.046H362.558C362.595 279.541 362.786 279.947 363.132 280.264C363.477 280.572 363.944 280.726 364.532 280.726C365.101 280.726 365.54 280.572 365.848 280.264C366.156 279.947 366.31 279.541 366.31 279.046C366.31 278.393 366.1 277.931 365.68 277.66C365.269 277.38 364.634 277.24 363.776 277.24H363.412V275.924H363.79C364.546 275.915 365.12 275.789 365.512 275.546C365.913 275.303 366.114 274.921 366.114 274.398C366.114 273.95 365.969 273.595 365.68 273.334C365.39 273.063 364.98 272.928 364.448 272.928C363.925 272.928 363.519 273.063 363.23 273.334C362.94 273.595 362.768 273.922 362.712 274.314H361.158Z" fill="#161326"/>
<path d="M392.722 279.83C393.618 279.055 394.323 278.421 394.836 277.926C395.359 277.422 395.793 276.899 396.138 276.358C396.483 275.817 396.656 275.275 396.656 274.734C396.656 274.174 396.521 273.735 396.25 273.418C395.989 273.101 395.573 272.942 395.004 272.942C394.453 272.942 394.024 273.119 393.716 273.474C393.417 273.819 393.259 274.286 393.24 274.874H391.7C391.728 273.81 392.045 272.998 392.652 272.438C393.268 271.869 394.047 271.584 394.99 271.584C396.007 271.584 396.801 271.864 397.37 272.424C397.949 272.984 398.238 273.731 398.238 274.664C398.238 275.336 398.065 275.985 397.72 276.61C397.384 277.226 396.978 277.781 396.502 278.276C396.035 278.761 395.438 279.326 394.71 279.97L394.08 280.53H398.518V281.86H391.714V280.698L392.722 279.83ZM405.31 268.784L401.502 284.45H399.934L403.728 268.784H405.31ZM407.111 276.764C407.111 275.149 407.382 273.889 407.923 272.984C408.474 272.069 409.417 271.612 410.751 271.612C412.086 271.612 413.024 272.069 413.565 272.984C414.116 273.889 414.391 275.149 414.391 276.764C414.391 278.397 414.116 279.676 413.565 280.6C413.024 281.515 412.086 281.972 410.751 281.972C409.417 281.972 408.474 281.515 407.923 280.6C407.382 279.676 407.111 278.397 407.111 276.764ZM412.823 276.764C412.823 276.008 412.772 275.369 412.669 274.846C412.576 274.323 412.38 273.899 412.081 273.572C411.783 273.236 411.339 273.068 410.751 273.068C410.163 273.068 409.72 273.236 409.421 273.572C409.123 273.899 408.922 274.323 408.819 274.846C408.726 275.369 408.679 276.008 408.679 276.764C408.679 277.548 408.726 278.206 408.819 278.738C408.913 279.27 409.109 279.699 409.407 280.026C409.715 280.353 410.163 280.516 410.751 280.516C411.339 280.516 411.783 280.353 412.081 280.026C412.389 279.699 412.59 279.27 412.683 278.738C412.777 278.206 412.823 277.548 412.823 276.764ZM422.548 273.026L418.656 282H417.046L420.98 273.194H415.8V271.836H422.548V273.026ZM429.304 268.784L425.496 284.45H423.928L427.722 268.784H429.304ZM431.988 279.83C432.884 279.055 433.588 278.421 434.102 277.926C434.624 277.422 435.058 276.899 435.404 276.358C435.749 275.817 435.922 275.275 435.922 274.734C435.922 274.174 435.786 273.735 435.516 273.418C435.254 273.101 434.839 272.942 434.27 272.942C433.719 272.942 433.29 273.119 432.982 273.474C432.683 273.819 432.524 274.286 432.506 274.874H430.966C430.994 273.81 431.311 272.998 431.918 272.438C432.534 271.869 433.313 271.584 434.256 271.584C435.273 271.584 436.066 271.864 436.636 272.424C437.214 272.984 437.504 273.731 437.504 274.664C437.504 275.336 437.331 275.985 436.986 276.61C436.65 277.226 436.244 277.781 435.768 278.276C435.301 278.761 434.704 279.326 433.976 279.97L433.346 280.53H437.784V281.86H430.98V280.698L431.988 279.83ZM439.158 274.314C439.214 273.446 439.545 272.769 440.152 272.284C440.768 271.799 441.552 271.556 442.504 271.556C443.157 271.556 443.722 271.673 444.198 271.906C444.674 272.139 445.033 272.457 445.276 272.858C445.518 273.259 445.64 273.712 445.64 274.216C445.64 274.795 445.486 275.289 445.178 275.7C444.87 276.111 444.501 276.386 444.072 276.526V276.582C444.622 276.75 445.052 277.058 445.36 277.506C445.668 277.945 445.822 278.509 445.822 279.2C445.822 279.751 445.696 280.241 445.444 280.67C445.192 281.099 444.818 281.44 444.324 281.692C443.829 281.935 443.236 282.056 442.546 282.056C441.538 282.056 440.707 281.799 440.054 281.286C439.41 280.763 439.064 280.017 439.018 279.046H440.558C440.595 279.541 440.786 279.947 441.132 280.264C441.477 280.572 441.944 280.726 442.532 280.726C443.101 280.726 443.54 280.572 443.848 280.264C444.156 279.947 444.31 279.541 444.31 279.046C444.31 278.393 444.1 277.931 443.68 277.66C443.269 277.38 442.634 277.24 441.776 277.24H441.412V275.924H441.79C442.546 275.915 443.12 275.789 443.512 275.546C443.913 275.303 444.114 274.921 444.114 274.398C444.114 273.95 443.969 273.595 443.68 273.334C443.39 273.063 442.98 272.928 442.448 272.928C441.925 272.928 441.519 273.063 441.23 273.334C440.94 273.595 440.768 273.922 440.712 274.314H439.158Z" fill="#161326"/>
<line x1="1" y1="75.5" x2="513" y2="75.5" stroke="#AACF8E"/>
<line x1="1" y1="126.5" x2="513" y2="126.5" stroke="#AACF8E"/>
<line x1="1" y1="148.5" x2="513" y2="148.5" stroke="#AACF8E"/>
<line x1="1" y1="167.5" x2="513" y2="167.5" stroke="#AACF8E"/>
<line x1="1" y1="184.5" x2="513" y2="184.5" stroke="#AACF8E"/>
<line x1="1" y1="203.5" x2="513" y2="203.5" stroke="#AACF8E"/>
<line x1="0.999023" y1="227.5" x2="512.999" y2="226.5" stroke="#AACF8E"/>
<line x1="1" y1="90.5" x2="513" y2="90.5" stroke="#AACF8E"/>
<line x1="1" y1="108.5" x2="513" y2="108.5" stroke="#AACF8E"/>
<path d="M1 249C19.624 223.249 62.0504 177.647 82.7639 201.244C108.656 230.74 149.538 272.878 194.508 180.878C239.478 88.8784 264.007 33.3975 328.055 156.298C379.294 254.619 450.701 136.4 480 65" stroke="#67AA36"/>
<rect x="157" y="103" width="227" height="60" rx="12" fill="#979797"/>
<path d="M195.938 142.186C195.938 142.671 195.812 143.129 195.56 143.558C195.317 143.978 194.953 144.328 194.468 144.608C193.992 144.879 193.427 145.037 192.774 145.084V146.218H191.878V145.07C190.945 144.986 190.193 144.706 189.624 144.23C189.055 143.745 188.761 143.091 188.742 142.27H190.842C190.898 142.942 191.243 143.348 191.878 143.488V140.814C191.206 140.646 190.665 140.478 190.254 140.31C189.843 140.142 189.489 139.871 189.19 139.498C188.891 139.125 188.742 138.616 188.742 137.972C188.742 137.16 189.031 136.497 189.61 135.984C190.198 135.471 190.954 135.177 191.878 135.102V133.968H192.774V135.102C193.67 135.177 194.384 135.447 194.916 135.914C195.457 136.381 195.761 137.025 195.826 137.846H193.712C193.684 137.575 193.586 137.342 193.418 137.146C193.259 136.941 193.045 136.796 192.774 136.712V139.358C193.474 139.535 194.025 139.708 194.426 139.876C194.837 140.035 195.191 140.301 195.49 140.674C195.789 141.038 195.938 141.542 195.938 142.186ZM190.786 137.874C190.786 138.182 190.879 138.434 191.066 138.63C191.253 138.817 191.523 138.971 191.878 139.092V136.67C191.542 136.717 191.276 136.843 191.08 137.048C190.884 137.253 190.786 137.529 190.786 137.874ZM192.774 143.516C193.129 143.451 193.404 143.306 193.6 143.082C193.805 142.858 193.908 142.587 193.908 142.27C193.908 141.962 193.81 141.715 193.614 141.528C193.418 141.341 193.138 141.187 192.774 141.066V143.516ZM199.61 139.596C198.677 139.111 198.21 138.359 198.21 137.342C198.21 136.838 198.336 136.381 198.588 135.97C198.849 135.55 199.237 135.219 199.75 134.976C200.273 134.724 200.907 134.598 201.654 134.598C202.401 134.598 203.031 134.724 203.544 134.976C204.067 135.219 204.454 135.55 204.706 135.97C204.967 136.381 205.098 136.838 205.098 137.342C205.098 137.855 204.972 138.308 204.72 138.7C204.468 139.083 204.132 139.381 203.712 139.596C204.225 139.82 204.627 140.147 204.916 140.576C205.205 141.005 205.35 141.514 205.35 142.102C205.35 142.737 205.187 143.292 204.86 143.768C204.543 144.235 204.104 144.594 203.544 144.846C202.984 145.098 202.354 145.224 201.654 145.224C200.954 145.224 200.324 145.098 199.764 144.846C199.213 144.594 198.775 144.235 198.448 143.768C198.131 143.292 197.972 142.737 197.972 142.102C197.972 141.514 198.117 141.005 198.406 140.576C198.695 140.137 199.097 139.811 199.61 139.596ZM203.194 137.622C203.194 137.165 203.054 136.81 202.774 136.558C202.503 136.306 202.13 136.18 201.654 136.18C201.187 136.18 200.814 136.306 200.534 136.558C200.263 136.81 200.128 137.169 200.128 137.636C200.128 138.056 200.268 138.392 200.548 138.644C200.837 138.896 201.206 139.022 201.654 139.022C202.102 139.022 202.471 138.896 202.76 138.644C203.049 138.383 203.194 138.042 203.194 137.622ZM201.654 140.45C201.122 140.45 200.688 140.585 200.352 140.856C200.025 141.127 199.862 141.514 199.862 142.018C199.862 142.485 200.021 142.867 200.338 143.166C200.665 143.455 201.103 143.6 201.654 143.6C202.205 143.6 202.639 143.451 202.956 143.152C203.273 142.853 203.432 142.475 203.432 142.018C203.432 141.523 203.269 141.141 202.942 140.87C202.615 140.59 202.186 140.45 201.654 140.45ZM209.264 142.942L207.626 146.876H206.366L207.276 142.942H209.264ZM210.369 143.012V141.472L214.947 134.92H217.229V141.304H218.461V143.012H217.229V145H215.269V143.012H210.369ZM215.395 137.02L212.525 141.304H215.395V137.02ZM220.325 142.788C221.221 142.041 221.935 141.421 222.467 140.926C222.999 140.422 223.442 139.899 223.797 139.358C224.151 138.817 224.329 138.285 224.329 137.762C224.329 137.286 224.217 136.913 223.993 136.642C223.769 136.371 223.423 136.236 222.957 136.236C222.49 136.236 222.131 136.395 221.879 136.712C221.627 137.02 221.496 137.445 221.487 137.986H219.583C219.62 136.866 219.951 136.017 220.577 135.438C221.211 134.859 222.014 134.57 222.985 134.57C224.049 134.57 224.865 134.855 225.435 135.424C226.004 135.984 226.289 136.726 226.289 137.65C226.289 138.378 226.093 139.073 225.701 139.736C225.309 140.399 224.861 140.977 224.357 141.472C223.853 141.957 223.195 142.545 222.383 143.236H226.513V144.86H219.597V143.404L220.325 142.788ZM227.748 139.764C227.748 138.149 228.037 136.885 228.616 135.97C229.204 135.055 230.175 134.598 231.528 134.598C232.881 134.598 233.847 135.055 234.426 135.97C235.014 136.885 235.308 138.149 235.308 139.764C235.308 141.388 235.014 142.662 234.426 143.586C233.847 144.51 232.881 144.972 231.528 144.972C230.175 144.972 229.204 144.51 228.616 143.586C228.037 142.662 227.748 141.388 227.748 139.764ZM233.376 139.764C233.376 139.073 233.329 138.495 233.236 138.028C233.152 137.552 232.975 137.165 232.704 136.866C232.443 136.567 232.051 136.418 231.528 136.418C231.005 136.418 230.609 136.567 230.338 136.866C230.077 137.165 229.899 137.552 229.806 138.028C229.722 138.495 229.68 139.073 229.68 139.764C229.68 140.473 229.722 141.071 229.806 141.556C229.89 142.032 230.067 142.419 230.338 142.718C230.609 143.007 231.005 143.152 231.528 143.152C232.051 143.152 232.447 143.007 232.718 142.718C232.989 142.419 233.166 142.032 233.25 141.556C233.334 141.071 233.376 140.473 233.376 139.764ZM237.891 145.098C237.536 145.098 237.242 144.991 237.009 144.776C236.785 144.552 236.673 144.277 236.673 143.95C236.673 143.623 236.785 143.353 237.009 143.138C237.242 142.914 237.536 142.802 237.891 142.802C238.236 142.802 238.521 142.914 238.745 143.138C238.969 143.353 239.081 143.623 239.081 143.95C239.081 144.277 238.969 144.552 238.745 144.776C238.521 144.991 238.236 145.098 237.891 145.098ZM247.295 136.488H242.759V138.882C242.955 138.639 243.235 138.443 243.599 138.294C243.963 138.135 244.351 138.056 244.761 138.056C245.508 138.056 246.119 138.219 246.595 138.546C247.071 138.873 247.417 139.293 247.631 139.806C247.846 140.31 247.953 140.851 247.953 141.43C247.953 142.503 247.645 143.367 247.029 144.02C246.423 144.673 245.555 145 244.425 145C243.361 145 242.512 144.734 241.877 144.202C241.243 143.67 240.883 142.975 240.799 142.116H242.703C242.787 142.489 242.974 142.788 243.263 143.012C243.562 143.236 243.94 143.348 244.397 143.348C244.948 143.348 245.363 143.175 245.643 142.83C245.923 142.485 246.063 142.027 246.063 141.458C246.063 140.879 245.919 140.441 245.629 140.142C245.349 139.834 244.934 139.68 244.383 139.68C243.991 139.68 243.665 139.778 243.403 139.974C243.142 140.17 242.955 140.431 242.843 140.758H240.967V134.766H247.295V136.488ZM249.445 139.764C249.445 138.149 249.734 136.885 250.313 135.97C250.901 135.055 251.872 134.598 253.225 134.598C254.578 134.598 255.544 135.055 256.123 135.97C256.711 136.885 257.005 138.149 257.005 139.764C257.005 141.388 256.711 142.662 256.123 143.586C255.544 144.51 254.578 144.972 253.225 144.972C251.872 144.972 250.901 144.51 250.313 143.586C249.734 142.662 249.445 141.388 249.445 139.764ZM255.073 139.764C255.073 139.073 255.026 138.495 254.933 138.028C254.849 137.552 254.672 137.165 254.401 136.866C254.14 136.567 253.748 136.418 253.225 136.418C252.702 136.418 252.306 136.567 252.035 136.866C251.774 137.165 251.596 137.552 251.503 138.028C251.419 138.495 251.377 139.073 251.377 139.764C251.377 140.473 251.419 141.071 251.503 141.556C251.587 142.032 251.764 142.419 252.035 142.718C252.306 143.007 252.702 143.152 253.225 143.152C253.748 143.152 254.144 143.007 254.415 142.718C254.686 142.419 254.863 142.032 254.947 141.556C255.031 141.071 255.073 140.473 255.073 139.764Z" fill="white"/>
<path d="M192.256 127.098C191.603 127.098 191.015 126.986 190.492 126.762C189.969 126.529 189.559 126.202 189.26 125.782C188.961 125.362 188.812 124.872 188.812 124.312H190.52C190.557 124.732 190.721 125.077 191.01 125.348C191.309 125.619 191.724 125.754 192.256 125.754C192.807 125.754 193.236 125.623 193.544 125.362C193.852 125.091 194.006 124.746 194.006 124.326C194.006 123.999 193.908 123.733 193.712 123.528C193.525 123.323 193.287 123.164 192.998 123.052C192.718 122.94 192.326 122.819 191.822 122.688C191.187 122.52 190.669 122.352 190.268 122.184C189.876 122.007 189.54 121.736 189.26 121.372C188.98 121.008 188.84 120.523 188.84 119.916C188.84 119.356 188.98 118.866 189.26 118.446C189.54 118.026 189.932 117.704 190.436 117.48C190.94 117.256 191.523 117.144 192.186 117.144C193.129 117.144 193.899 117.382 194.496 117.858C195.103 118.325 195.439 118.969 195.504 119.79H193.74C193.712 119.435 193.544 119.132 193.236 118.88C192.928 118.628 192.522 118.502 192.018 118.502C191.561 118.502 191.187 118.619 190.898 118.852C190.609 119.085 190.464 119.421 190.464 119.86C190.464 120.159 190.553 120.406 190.73 120.602C190.917 120.789 191.15 120.938 191.43 121.05C191.71 121.162 192.093 121.283 192.578 121.414C193.222 121.591 193.745 121.769 194.146 121.946C194.557 122.123 194.902 122.399 195.182 122.772C195.471 123.136 195.616 123.626 195.616 124.242C195.616 124.737 195.481 125.203 195.21 125.642C194.949 126.081 194.561 126.435 194.048 126.706C193.544 126.967 192.947 127.098 192.256 127.098ZM204.485 119.286V127H202.889V126.09C202.637 126.407 202.306 126.659 201.895 126.846C201.494 127.023 201.065 127.112 200.607 127.112C200.001 127.112 199.455 126.986 198.969 126.734C198.493 126.482 198.115 126.109 197.835 125.614C197.565 125.119 197.429 124.522 197.429 123.822V119.286H199.011V123.584C199.011 124.275 199.184 124.807 199.529 125.18C199.875 125.544 200.346 125.726 200.943 125.726C201.541 125.726 202.012 125.544 202.357 125.18C202.712 124.807 202.889 124.275 202.889 123.584V119.286H204.485ZM208.187 120.434C208.458 120.061 208.826 119.757 209.293 119.524C209.769 119.281 210.296 119.16 210.875 119.16C211.556 119.16 212.172 119.323 212.723 119.65C213.274 119.977 213.708 120.443 214.025 121.05C214.342 121.647 214.501 122.333 214.501 123.108C214.501 123.883 214.342 124.578 214.025 125.194C213.708 125.801 213.269 126.277 212.709 126.622C212.158 126.958 211.547 127.126 210.875 127.126C210.278 127.126 209.746 127.009 209.279 126.776C208.822 126.543 208.458 126.244 208.187 125.88V127H206.591V116.64H208.187V120.434ZM212.877 123.108C212.877 122.576 212.765 122.119 212.541 121.736C212.326 121.344 212.037 121.05 211.673 120.854C211.318 120.649 210.936 120.546 210.525 120.546C210.124 120.546 209.741 120.649 209.377 120.854C209.022 121.059 208.733 121.358 208.509 121.75C208.294 122.142 208.187 122.604 208.187 123.136C208.187 123.668 208.294 124.135 208.509 124.536C208.733 124.928 209.022 125.227 209.377 125.432C209.741 125.637 210.124 125.74 210.525 125.74C210.936 125.74 211.318 125.637 211.673 125.432C212.037 125.217 212.326 124.909 212.541 124.508C212.765 124.107 212.877 123.64 212.877 123.108ZM216.891 118.264C216.602 118.264 216.359 118.166 216.163 117.97C215.967 117.774 215.869 117.531 215.869 117.242C215.869 116.953 215.967 116.71 216.163 116.514C216.359 116.318 216.602 116.22 216.891 116.22C217.171 116.22 217.409 116.318 217.605 116.514C217.801 116.71 217.899 116.953 217.899 117.242C217.899 117.531 217.801 117.774 217.605 117.97C217.409 118.166 217.171 118.264 216.891 118.264ZM217.675 119.286V127H216.079V119.286H217.675ZM226.841 122.954C226.841 123.243 226.822 123.505 226.785 123.738H220.891C220.937 124.354 221.166 124.849 221.577 125.222C221.987 125.595 222.491 125.782 223.089 125.782C223.947 125.782 224.554 125.423 224.909 124.704H226.631C226.397 125.413 225.973 125.997 225.357 126.454C224.75 126.902 223.994 127.126 223.089 127.126C222.351 127.126 221.689 126.963 221.101 126.636C220.522 126.3 220.065 125.833 219.729 125.236C219.402 124.629 219.239 123.929 219.239 123.136C219.239 122.343 219.397 121.647 219.715 121.05C220.041 120.443 220.494 119.977 221.073 119.65C221.661 119.323 222.333 119.16 223.089 119.16C223.817 119.16 224.465 119.319 225.035 119.636C225.604 119.953 226.047 120.401 226.365 120.98C226.682 121.549 226.841 122.207 226.841 122.954ZM225.175 122.45C225.165 121.862 224.955 121.391 224.545 121.036C224.134 120.681 223.625 120.504 223.019 120.504C222.468 120.504 221.997 120.681 221.605 121.036C221.213 121.381 220.979 121.853 220.905 122.45H225.175ZM232.303 119.16C232.91 119.16 233.451 119.286 233.927 119.538C234.413 119.79 234.791 120.163 235.061 120.658C235.332 121.153 235.467 121.75 235.467 122.45V127H233.885V122.688C233.885 121.997 233.713 121.47 233.367 121.106C233.022 120.733 232.551 120.546 231.953 120.546C231.356 120.546 230.88 120.733 230.525 121.106C230.18 121.47 230.007 121.997 230.007 122.688V127H228.411V119.286H230.007V120.168C230.269 119.851 230.6 119.603 231.001 119.426C231.412 119.249 231.846 119.16 232.303 119.16ZM236.971 123.108C236.971 122.333 237.13 121.647 237.447 121.05C237.774 120.453 238.212 119.991 238.763 119.664C239.323 119.328 239.944 119.16 240.625 119.16C241.129 119.16 241.624 119.272 242.109 119.496C242.604 119.711 242.996 120 243.285 120.364V116.64H244.895V127H243.285V125.838C243.024 126.211 242.66 126.519 242.193 126.762C241.736 127.005 241.208 127.126 240.611 127.126C239.939 127.126 239.323 126.958 238.763 126.622C238.212 126.277 237.774 125.801 237.447 125.194C237.13 124.578 236.971 123.883 236.971 123.108ZM243.285 123.136C243.285 122.604 243.173 122.142 242.949 121.75C242.734 121.358 242.45 121.059 242.095 120.854C241.74 120.649 241.358 120.546 240.947 120.546C240.536 120.546 240.154 120.649 239.799 120.854C239.444 121.05 239.155 121.344 238.931 121.736C238.716 122.119 238.609 122.576 238.609 123.108C238.609 123.64 238.716 124.107 238.931 124.508C239.155 124.909 239.444 125.217 239.799 125.432C240.163 125.637 240.546 125.74 240.947 125.74C241.358 125.74 241.74 125.637 242.095 125.432C242.45 125.227 242.734 124.928 242.949 124.536C243.173 124.135 243.285 123.668 243.285 123.136ZM250.337 127.126C249.609 127.126 248.951 126.963 248.363 126.636C247.775 126.3 247.313 125.833 246.977 125.236C246.641 124.629 246.473 123.929 246.473 123.136C246.473 122.352 246.646 121.657 246.991 121.05C247.337 120.443 247.808 119.977 248.405 119.65C249.003 119.323 249.67 119.16 250.407 119.16C251.145 119.16 251.812 119.323 252.409 119.65C253.007 119.977 253.478 120.443 253.823 121.05C254.169 121.657 254.341 122.352 254.341 123.136C254.341 123.92 254.164 124.615 253.809 125.222C253.455 125.829 252.969 126.3 252.353 126.636C251.747 126.963 251.075 127.126 250.337 127.126ZM250.337 125.74C250.748 125.74 251.131 125.642 251.485 125.446C251.849 125.25 252.143 124.956 252.367 124.564C252.591 124.172 252.703 123.696 252.703 123.136C252.703 122.576 252.596 122.105 252.381 121.722C252.167 121.33 251.882 121.036 251.527 120.84C251.173 120.644 250.79 120.546 250.379 120.546C249.969 120.546 249.586 120.644 249.231 120.84C248.886 121.036 248.611 121.33 248.405 121.722C248.2 122.105 248.097 122.576 248.097 123.136C248.097 123.967 248.307 124.611 248.727 125.068C249.157 125.516 249.693 125.74 250.337 125.74Z" fill="white"/>
<path d="M266.5 91L276.459 108.25H256.541L266.5 91Z" fill="#979797"/>
<circle cx="177.5" cy="122.5" r="7.5" fill="white"/>
<circle cx="266.5" cy="86.5" r="6.5" fill="#67AA36"/>
</svg>
