<svg width="34" height="26" viewBox="0 0 34 26" fill="none" xmlns="http://www.w3.org/2000/svg">
<path d="M14.8667 22.5785H22.3333V3.15785C22.3333 1.97103 21.3733 1 20.2 1H3.13333C1.96 1 1 1.97103 1 3.15785V20.4207C1 21.6075 1.96 22.5785 3.13333 22.5785H6.33333" stroke="#66AA37" stroke-linecap="round" stroke-linejoin="round"/>
<path d="M25.5333 22.5786H22.3333" stroke="#66AA37" stroke-linecap="round" stroke-linejoin="round"/>
<path d="M22.3333 8.55249H28.4773C29.288 8.55249 30.024 9.01643 30.3866 9.7501L33 15.0261V21.4996C33 22.093 32.52 22.5785 31.9333 22.5785H29.8" stroke="#66AA37" stroke-linecap="round" stroke-linejoin="round"/>
<path d="M33 15.0261H26.6" stroke="#66AA37" stroke-linecap="round" stroke-linejoin="round"/>
<path d="M8.46665 24.7366C9.64485 24.7366 10.6 23.7705 10.6 22.5788C10.6 21.387 9.64485 20.4209 8.46665 20.4209C7.28844 20.4209 6.33331 21.387 6.33331 22.5788C6.33331 23.7705 7.28844 24.7366 8.46665 24.7366Z" stroke="#66AA37" stroke-linecap="round" stroke-linejoin="round"/>
<path d="M27.6667 24.7366C28.8449 24.7366 29.8 23.7705 29.8 22.5788C29.8 21.387 28.8449 20.4209 27.6667 20.4209C26.4885 20.4209 25.5333 21.387 25.5333 22.5788C25.5333 23.7705 26.4885 24.7366 27.6667 24.7366Z" stroke="#66AA37" stroke-linecap="round" stroke-linejoin="round"/>
<path d="M14.8666 6.39453H18.0666" stroke="#66AA37" stroke-linecap="round" stroke-linejoin="round"/>
<path d="M14.8666 10.7102H18.0666" stroke="#66AA37" stroke-linecap="round" stroke-linejoin="round"/>
<path d="M6.33331 6.39453H9.53331" stroke="#66AA37" stroke-linecap="round" stroke-linejoin="round"/>
<path d="M6.33331 10.7102H9.53331" stroke="#66AA37" stroke-linecap="round" stroke-linejoin="round"/>
</svg>
