<svg width="18" height="26" viewBox="0 0 18 26" fill="none" xmlns="http://www.w3.org/2000/svg">
<path d="M4.81679 16.7086C4.3607 15.7634 3.76857 14.8812 3.04843 14.0935C1.77616 12.6994 1 10.8562 1 8.83195C1 4.19261 5.08085 0.482714 9.90585 1.00257C13.6186 1.40428 16.6112 4.40528 16.9633 8.06791C17.1794 10.3206 16.4272 12.4001 15.0749 13.9518C13.6346 15.6059 12.5864 17.5514 12.2183 19.7017L12.1943 19.8592H5.801" stroke="#66AA37" stroke-linecap="round" stroke-linejoin="round"/>
<path d="M5.80103 19.8591H12.2024V21.4345C12.2024 23.1752 10.7701 24.5851 9.00169 24.5851C7.23332 24.5851 5.80103 23.1752 5.80103 21.4345V19.8591Z" stroke="#66AA37" stroke-linecap="round" stroke-linejoin="round"/>
</svg>
