<svg width="30" height="25" viewBox="0 0 30 25" fill="none" xmlns="http://www.w3.org/2000/svg">
<path d="M1 11.4191V19.9438H10.492C12.1813 19.9438 13.8053 20.6257 15 21.8381V2.89438C13.8053 1.68198 12.1813 1 10.492 1H2.86667C1.84 1 1 1.85247 1 2.89438V7.63032" stroke="#60A033" stroke-linecap="round" stroke-linejoin="round"/>
<path d="M15 2.89438C16.1947 1.68198 17.8187 1 19.508 1H27.1333C28.16 1 29 1.85247 29 2.89438V19.9438H19.508C17.8187 19.9438 16.1947 20.6257 15 21.8381V2.89438Z" stroke="#60A033" stroke-linecap="round" stroke-linejoin="round"/>
<path d="M1 19.9436V21.838C1 22.8799 1.84 23.7324 2.86667 23.7324H27.1333C28.16 23.7324 29 22.8799 29 21.838V19.9436" stroke="#60A033" stroke-linecap="round" stroke-linejoin="round"/>
<path d="M18.7334 4.78882H25.2667" stroke="#60A033" stroke-linecap="round" stroke-linejoin="round"/>
<path d="M18.7334 8.57739H25.2667" stroke="#60A033" stroke-linecap="round" stroke-linejoin="round"/>
<path d="M18.7334 12.3662H25.2667" stroke="#60A033" stroke-linecap="round" stroke-linejoin="round"/>
<path d="M18.7334 16.1548H22.4667" stroke="#60A033" stroke-linecap="round" stroke-linejoin="round"/>
<path d="M4.73328 4.78882H11.2666" stroke="#60A033" stroke-linecap="round" stroke-linejoin="round"/>
<path d="M4.73328 8.57739H11.2666" stroke="#60A033" stroke-linecap="round" stroke-linejoin="round"/>
<path d="M4.73328 12.3662H11.2666" stroke="#60A033" stroke-linecap="round" stroke-linejoin="round"/>
<path d="M4.73328 16.1548H8.46661" stroke="#60A033" stroke-linecap="round" stroke-linejoin="round"/>
</svg>
