<svg width="20" height="25" viewBox="0 0 20 25" fill="none" xmlns="http://www.w3.org/2000/svg">
<path d="M19.4021 10.2V22.4666C19.4021 23.31 18.7121 24 17.8686 24H5.60053C4.7571 24 4.06702 23.31 4.06702 22.4666V5.59998C4.06702 4.75665 4.7571 4.06665 5.60053 4.06665H17.8686C18.7121 4.06665 19.4021 4.75665 19.4021 5.59998V7.13332" stroke="#66AA37" stroke-linecap="round" stroke-linejoin="round"/>
<path d="M4.06702 20.9333H2.53351C1.69008 20.9333 1 20.2433 1 19.4V2.53333C1 1.69 1.69008 1 2.53351 1H14.8016C15.645 1 16.3351 1.69 16.3351 2.53333V4.06667" stroke="#66AA37" stroke-linecap="round" stroke-linejoin="round"/>
<path d="M7.13409 17.8667H8.66761" stroke="#66AA37" stroke-linecap="round" stroke-linejoin="round"/>
<path d="M7.12048 14.9546H8.654" stroke="#66AA37" stroke-linecap="round" stroke-linejoin="round"/>
<path d="M7.12048 12.0168H8.654" stroke="#66AA37" stroke-linecap="round" stroke-linejoin="round"/>
<path d="M7.12048 8.09961H8.654" stroke="#66AA37" stroke-linecap="round" stroke-linejoin="round"/>
<path d="M11.7346 17.8667H16.3352" stroke="#66AA37" stroke-linecap="round" stroke-linejoin="round"/>
<path d="M11.721 14.9546H16.3215" stroke="#66AA37" stroke-linecap="round" stroke-linejoin="round"/>
<path d="M11.721 12.0168H16.3215" stroke="#66AA37" stroke-linecap="round" stroke-linejoin="round"/>
<path d="M11.721 8.09961H16.3215" stroke="#66AA37" stroke-linecap="round" stroke-linejoin="round"/>
<path d="M7.13409 20.9333H8.66761" stroke="#66AA37" stroke-linecap="round" stroke-linejoin="round"/>
<path d="M11.7346 20.9333H16.3352" stroke="#66AA37" stroke-linecap="round" stroke-linejoin="round"/>
</svg>
